<?xml version="1.0" encoding="UTF-8"?>
<svg id="Layer_2" data-name="Layer 2" xmlns="http://www.w3.org/2000/svg" viewBox="0 0 2468.8 315.72">
  <defs>
    <style>
      .cls-1 {
        stroke-width: 0px;
      }
    </style>
  </defs>
  <g id="Layer_1-2" data-name="Layer 1">
    <g>
      <path class="cls-1" d="m0,35.37h140.73c62.18.37,91.96,21.97,91.96,65.53,0,29.41-17.5,51.38-55.48,56.59v.37c42.82,4.47,61.8,26.81,61.8,58.45,0,43.19-28.67,64.78-88.61,64.78H0V35.37Zm121.75,95.31c14.89,0,22.34-6.33,22.34-17.87s-7.45-17.87-22.34-17.87h-38.72v35.74h38.72Zm5.59,93.82c15.26,0,23.08-6.33,23.08-18.24,0-11.17-7.82-17.5-23.08-17.5h-44.31v35.74h44.31Z"/>
      <path class="cls-1" d="m262.11,35.37h133.29c65.53,0,99.41,27.55,99.41,78.56,0,39.46-20.85,55.47-46.17,63.29v.75c24.2,6.7,31.28,21.97,34.25,37.98,5.21,28.3,6.7,47.66,15.64,63.29v1.86h-90.47c-6.33-16.01-4.84-32.39-10.05-56.96-4.1-18.99-13.4-24.57-31.65-24.57h-19.36v81.54h-84.89V35.37Zm115.79,107.23c21.97,0,30.16-5.96,30.16-22.71s-8.19-22.71-30.16-22.71h-30.9v45.42h30.9Z"/>
      <path class="cls-1" d="m515.28,162.33C515.28,66.64,586.39,0,683.57,0c84.52,0,149.3,52.87,149.3,142.22s-51.38,109.09-86.75,109.09c-39.46,0-61.43-21.22-60.31-52.5-10.8,28.3-32.39,45.05-57.71,45.05-28.67,0-50.63-23.83-50.63-68.88,0-47.28,27.55-99.78,77.44-99.78,16.75,0,37.23,7.82,42.07,35.74l7.45-32.39h73.35l-21.97,96.06c-1.49,7.07-2.61,13.03-2.61,18.24,0,13.03,5.58,19.36,17.5,19.36,15.27,0,29.79-17.87,29.79-66.27,0-74.83-50.26-114.67-116.91-114.67-78.19,0-131.43,51.38-131.43,131.05,0,84.89,59.2,122.12,127.33,122.12,30.16,0,50.26-8.56,68.13-18.62l13.78,26.43c-21.96,13.03-45.42,23.46-86.38,23.46-90.1,0-159.72-51.01-159.72-153.39Zm172.38-17.5c0-10.8-4.1-16.75-12.66-16.75-17.87,0-24.94,31.27-24.94,44.68,0,11.54,4.09,18.62,13.78,18.62,16.01,0,23.83-29.79,23.83-46.54Z"/>
      <path class="cls-1" d="m1105.03,281.1h-93.82l-58.83-111.69-13.4-30.16h-.74l1.49,50.63v91.22h-75.21V35.37h93.82l58.83,112.07,13.4,29.79h.74l-1.49-50.63V35.37h75.21v245.73Z"/>
      <path class="cls-1" d="m1215.97,289.29l-92.33-33.88c-2.23-111.32,46.91-217.06,140.36-234.93,33.88,10.05,72.23,26.43,96.43,44.31l-35.74,102.76-58.83-16.38,23.83-78.19c-61.06,20.48-87.12,77.44-93.82,158.61l104.99-34.62,14.15,55.47-99.04,36.86Z"/>
      <path class="cls-1" d="m1455,125.84h67.39V35.37h86.75v245.73h-86.75v-91.59h-67.39v91.59h-86.75V35.37h86.75v90.47Z"/>
      <path class="cls-1" d="m1888.37,158.23c0,80.42-46.54,126.59-124.73,126.59s-125.1-46.17-125.1-126.59,47.29-126.59,125.1-126.59,124.73,46.17,124.73,126.59Zm-161.21,0c0,42.82,11.17,61.43,36.49,61.43s36.12-18.62,36.12-61.43-10.8-61.43-36.12-61.43-36.49,18.62-36.49,61.43Z"/>
      <path class="cls-1" d="m2150.48,175.36c0,73.35-39.46,109.46-118.77,109.46s-118.77-36.12-118.77-109.46V35.37h87.12v146.69c0,24.94,11.17,37.6,31.65,37.6s32.02-12.66,32.02-37.6V35.37h86.75v139.99Z"/>
      <path class="cls-1" d="m2412.21,99.04h-76.7v182.06h-86.75V99.04h-77.07v-63.67h240.51v63.67Z"/>
      <path class="cls-1" d="m2468.8,244.24c0,25.32-16.75,39.84-45.79,39.84s-45.79-14.52-45.79-39.84,16.75-39.84,45.79-39.84,45.79,14.52,45.79,39.84Z"/>
    </g>
  </g>
</svg>