<?xml version="1.0" encoding="UTF-8"?>
<svg id="Layer_2" data-name="Layer 2" xmlns="http://www.w3.org/2000/svg" viewBox="0 0 821.69 886.5">
  <defs>
    <style>
      .cls-1 {
        stroke-width: 0px;
      }
    </style>
  </defs>
  <g id="Layer_1-2" data-name="Layer 1">
    <g>
      <path class="cls-1" d="m7.64,34.57h137.56c60.77.36,89.88,21.47,89.88,64.05,0,28.75-17.1,50.22-54.22,55.31v.36c41.85,4.37,60.41,26.2,60.41,57.13,0,42.21-28.02,63.32-86.61,63.32H7.64V34.57Zm119,93.16c14.56,0,21.83-6.19,21.83-17.47s-7.28-17.47-21.83-17.47h-37.85v34.94h37.85Zm5.46,91.7c14.92,0,22.56-6.19,22.56-17.83,0-10.92-7.64-17.1-22.56-17.1h-43.3v34.93h43.3Z"/>
      <path class="cls-1" d="m263.83,34.57h130.28c64.05,0,97.16,26.93,97.16,76.78,0,38.57-20.38,54.22-45.12,61.86v.73c23.65,6.55,30.57,21.47,33.48,37.12,5.09,27.66,6.55,46.58,15.28,61.86v1.82h-88.43c-6.19-15.65-4.73-31.66-9.83-55.68-4-18.56-13.1-24.02-30.93-24.02h-18.92v79.7h-82.97V34.57Zm113.17,104.8c21.47,0,29.48-5.82,29.48-22.2s-8.01-22.2-29.48-22.2h-30.2v44.4h30.2Z"/>
      <path class="cls-1" d="m511.28,158.66C511.28,65.14,580.79,0,675.77,0c82.61,0,145.93,51.67,145.93,139.01s-50.22,106.62-84.79,106.62c-38.57,0-60.04-20.74-58.95-51.31-10.55,27.66-31.66,44.03-56.41,44.03-28.02,0-49.49-23.29-49.49-67.32,0-46.22,26.93-97.53,75.69-97.53,16.38,0,36.39,7.64,41.12,34.94l7.28-31.66h71.69l-21.47,93.89c-1.46,6.91-2.55,12.74-2.55,17.83,0,12.74,5.46,18.92,17.1,18.92,14.92,0,29.11-17.47,29.11-64.78,0-73.15-49.13-112.08-114.27-112.08-76.42,0-128.46,50.22-128.46,128.09,0,82.97,57.86,119.36,124.46,119.36,29.48,0,49.13-8.37,66.59-18.2l13.46,25.84c-21.47,12.74-44.4,22.93-84.43,22.93-88.07,0-156.12-49.85-156.12-149.93Zm168.49-17.1c0-10.55-4-16.38-12.37-16.38-17.47,0-24.38,30.57-24.38,43.67,0,11.28,4,18.2,13.46,18.2,15.65,0,23.29-29.11,23.29-45.49Z"/>
      <path class="cls-1" d="m242.73,576.99h-91.71l-57.5-109.17-13.1-29.48h-.73l1.46,49.49v89.16H7.64v-240.18h91.7l57.5,109.54,13.1,29.11h.73l-1.46-49.49v-89.16h73.51v240.18Z"/>
      <path class="cls-1" d="m358.84,584.99l-90.25-33.12c-2.18-108.81,45.85-212.16,137.19-229.62,33.12,9.83,70.6,25.84,94.25,43.3l-34.93,100.44-57.5-16.01,23.29-76.42c-59.68,20.01-85.15,75.69-91.71,155.02l102.62-33.84,13.83,54.22-96.8,36.03Z"/>
      <path class="cls-1" d="m605.71,425.24h65.87v-88.43h84.79v240.18h-84.79v-89.52h-65.87v89.52h-84.79v-240.18h84.79v88.43Z"/>
      <path class="cls-1" d="m244.18,762.77c0,78.6-45.49,123.73-121.91,123.73S0,841.37,0,762.77s46.22-123.73,122.27-123.73,121.91,45.12,121.91,123.73Zm-157.57,0c0,41.85,10.92,60.04,35.66,60.04s35.3-18.2,35.3-60.04-10.55-60.04-35.3-60.04-35.66,18.2-35.66,60.04Z"/>
      <path class="cls-1" d="m500.37,779.51c0,71.69-38.57,106.99-116.09,106.99s-116.09-35.3-116.09-106.99v-136.83h85.15v143.38c0,24.38,10.92,36.75,30.93,36.75s31.3-12.37,31.3-36.75v-143.38h84.79v136.83Z"/>
      <path class="cls-1" d="m756.19,704.91h-74.96v177.95h-84.79v-177.95h-75.33v-62.23h235.08v62.23Z"/>
      <path class="cls-1" d="m811.5,846.83c0,24.75-16.38,38.94-44.76,38.94s-44.76-14.19-44.76-38.94,16.38-38.94,44.76-38.94,44.76,14.19,44.76,38.94Z"/>
    </g>
  </g>
</svg>