%TF.GenerationSoftware,KiCad,Pcbnew,8.0.4*%
%TF.CreationDate,2024-08-17T15:47:15+02:00*%
%TF.ProjectId,breakout_pwr,62726561-6b6f-4757-945f-7077722e6b69,rev?*%
%TF.SameCoordinates,Original*%
%TF.FileFunction,Paste,Top*%
%TF.FilePolarity,Positive*%
%FSLAX46Y46*%
G04 Gerber Fmt 4.6, Leading zero omitted, Abs format (unit mm)*
G04 Created by KiCad (PCBNEW 8.0.4) date 2024-08-17 15:47:15*
%MOMM*%
%LPD*%
G01*
G04 APERTURE LIST*
G04 Aperture macros list*
%AMRoundRect*
0 Rectangle with rounded corners*
0 $1 Rounding radius*
0 $2 $3 $4 $5 $6 $7 $8 $9 X,Y pos of 4 corners*
0 Add a 4 corners polygon primitive as box body*
4,1,4,$2,$3,$4,$5,$6,$7,$8,$9,$2,$3,0*
0 Add four circle primitives for the rounded corners*
1,1,$1+$1,$2,$3*
1,1,$1+$1,$4,$5*
1,1,$1+$1,$6,$7*
1,1,$1+$1,$8,$9*
0 Add four rect primitives between the rounded corners*
20,1,$1+$1,$2,$3,$4,$5,0*
20,1,$1+$1,$4,$5,$6,$7,0*
20,1,$1+$1,$6,$7,$8,$9,0*
20,1,$1+$1,$8,$9,$2,$3,0*%
G04 Aperture macros list end*
%ADD10RoundRect,0.250000X-0.337500X-0.475000X0.337500X-0.475000X0.337500X0.475000X-0.337500X0.475000X0*%
%ADD11RoundRect,0.250000X-0.325000X-0.450000X0.325000X-0.450000X0.325000X0.450000X-0.325000X0.450000X0*%
%ADD12RoundRect,0.250000X-0.475000X0.337500X-0.475000X-0.337500X0.475000X-0.337500X0.475000X0.337500X0*%
%ADD13RoundRect,0.250000X-0.350000X-0.450000X0.350000X-0.450000X0.350000X0.450000X-0.350000X0.450000X0*%
%ADD14RoundRect,0.150000X-0.512500X-0.150000X0.512500X-0.150000X0.512500X0.150000X-0.512500X0.150000X0*%
%ADD15R,1.500000X1.000000*%
G04 APERTURE END LIST*
D10*
%TO.C,C1*%
X160425000Y-43000000D03*
X162500000Y-43000000D03*
%TD*%
D11*
%TO.C,D4*%
X170500000Y-59000000D03*
X172550000Y-59000000D03*
%TD*%
D10*
%TO.C,C8*%
X160500000Y-57000000D03*
X162575000Y-57000000D03*
%TD*%
D11*
%TO.C,D3*%
X166000000Y-59000000D03*
X168050000Y-59000000D03*
%TD*%
D12*
%TO.C,C11*%
X156962500Y-45462500D03*
X156962500Y-47537500D03*
%TD*%
D10*
%TO.C,C10*%
X160425000Y-46500000D03*
X162500000Y-46500000D03*
%TD*%
D11*
%TO.C,D5*%
X166000000Y-62500000D03*
X168050000Y-62500000D03*
%TD*%
D10*
%TO.C,C9*%
X155925000Y-43000000D03*
X158000000Y-43000000D03*
%TD*%
%TO.C,C2*%
X160425000Y-50000000D03*
X162500000Y-50000000D03*
%TD*%
D11*
%TO.C,D6*%
X170500000Y-62500000D03*
X172550000Y-62500000D03*
%TD*%
D10*
%TO.C,C6*%
X155925000Y-53500000D03*
X158000000Y-53500000D03*
%TD*%
%TO.C,C4*%
X164925000Y-46500000D03*
X167000000Y-46500000D03*
%TD*%
D13*
%TO.C,R3*%
X156000000Y-64000000D03*
X158000000Y-64000000D03*
%TD*%
D14*
%TO.C,U2*%
X172000000Y-42500000D03*
X172000000Y-43450000D03*
X172000000Y-44400000D03*
X174275000Y-44400000D03*
X174275000Y-42500000D03*
%TD*%
D15*
%TO.C,L1*%
X169500000Y-44500000D03*
X169500000Y-42000000D03*
%TD*%
D10*
%TO.C,C7*%
X155925000Y-56990000D03*
X158000000Y-56990000D03*
%TD*%
%TO.C,C3*%
X164925000Y-43000000D03*
X167000000Y-43000000D03*
%TD*%
D13*
%TO.C,R4*%
X160500000Y-64000000D03*
X162500000Y-64000000D03*
%TD*%
%TO.C,R2*%
X160500000Y-53500000D03*
X162500000Y-53500000D03*
%TD*%
D10*
%TO.C,C12*%
X160425000Y-60500000D03*
X162500000Y-60500000D03*
%TD*%
D13*
%TO.C,R1*%
X156000000Y-60500000D03*
X158000000Y-60500000D03*
%TD*%
D10*
%TO.C,C5*%
X155925000Y-50000000D03*
X158000000Y-50000000D03*
%TD*%
M02*
