%TF.GenerationSoftware,KiCad,Pcbnew,8.0.4*%
%TF.CreationDate,2024-08-16T22:25:58+02:00*%
%TF.ProjectId,breakout_pwr,62726561-6b6f-4757-945f-7077722e6b69,rev?*%
%TF.SameCoordinates,Original*%
%TF.FileFunction,Legend,Top*%
%TF.FilePolarity,Positive*%
%FSLAX46Y46*%
G04 Gerber Fmt 4.6, Leading zero omitted, Abs format (unit mm)*
G04 Created by KiCad (PCBNEW 8.0.4) date 2024-08-16 22:25:58*
%MOMM*%
%LPD*%
G01*
G04 APERTURE LIST*
%ADD10C,0.100000*%
%ADD11C,0.150000*%
%ADD12C,0.120000*%
%ADD13C,0.000000*%
G04 APERTURE END LIST*
D10*
X165468884Y-61031466D02*
X166230789Y-61031466D01*
X167230788Y-61412419D02*
X166659360Y-61412419D01*
X166945074Y-61412419D02*
X166945074Y-60412419D01*
X166945074Y-60412419D02*
X166849836Y-60555276D01*
X166849836Y-60555276D02*
X166754598Y-60650514D01*
X166754598Y-60650514D02*
X166659360Y-60698133D01*
X167611741Y-60507657D02*
X167659360Y-60460038D01*
X167659360Y-60460038D02*
X167754598Y-60412419D01*
X167754598Y-60412419D02*
X167992693Y-60412419D01*
X167992693Y-60412419D02*
X168087931Y-60460038D01*
X168087931Y-60460038D02*
X168135550Y-60507657D01*
X168135550Y-60507657D02*
X168183169Y-60602895D01*
X168183169Y-60602895D02*
X168183169Y-60698133D01*
X168183169Y-60698133D02*
X168135550Y-60840990D01*
X168135550Y-60840990D02*
X167564122Y-61412419D01*
X167564122Y-61412419D02*
X168183169Y-61412419D01*
X169968884Y-61031466D02*
X170730789Y-61031466D01*
X170349836Y-61412419D02*
X170349836Y-60650514D01*
X171730788Y-61412419D02*
X171159360Y-61412419D01*
X171445074Y-61412419D02*
X171445074Y-60412419D01*
X171445074Y-60412419D02*
X171349836Y-60555276D01*
X171349836Y-60555276D02*
X171254598Y-60650514D01*
X171254598Y-60650514D02*
X171159360Y-60698133D01*
X172111741Y-60507657D02*
X172159360Y-60460038D01*
X172159360Y-60460038D02*
X172254598Y-60412419D01*
X172254598Y-60412419D02*
X172492693Y-60412419D01*
X172492693Y-60412419D02*
X172587931Y-60460038D01*
X172587931Y-60460038D02*
X172635550Y-60507657D01*
X172635550Y-60507657D02*
X172683169Y-60602895D01*
X172683169Y-60602895D02*
X172683169Y-60698133D01*
X172683169Y-60698133D02*
X172635550Y-60840990D01*
X172635550Y-60840990D02*
X172064122Y-61412419D01*
X172064122Y-61412419D02*
X172683169Y-61412419D01*
X165803884Y-57491466D02*
X166565789Y-57491466D01*
X166184836Y-57872419D02*
X166184836Y-57110514D01*
X167518169Y-56872419D02*
X167041979Y-56872419D01*
X167041979Y-56872419D02*
X166994360Y-57348609D01*
X166994360Y-57348609D02*
X167041979Y-57300990D01*
X167041979Y-57300990D02*
X167137217Y-57253371D01*
X167137217Y-57253371D02*
X167375312Y-57253371D01*
X167375312Y-57253371D02*
X167470550Y-57300990D01*
X167470550Y-57300990D02*
X167518169Y-57348609D01*
X167518169Y-57348609D02*
X167565788Y-57443847D01*
X167565788Y-57443847D02*
X167565788Y-57681942D01*
X167565788Y-57681942D02*
X167518169Y-57777180D01*
X167518169Y-57777180D02*
X167470550Y-57824800D01*
X167470550Y-57824800D02*
X167375312Y-57872419D01*
X167375312Y-57872419D02*
X167137217Y-57872419D01*
X167137217Y-57872419D02*
X167041979Y-57824800D01*
X167041979Y-57824800D02*
X166994360Y-57777180D01*
X169303884Y-57491466D02*
X170065789Y-57491466D01*
X169684836Y-57872419D02*
X169684836Y-57110514D01*
X170446741Y-56872419D02*
X171065788Y-56872419D01*
X171065788Y-56872419D02*
X170732455Y-57253371D01*
X170732455Y-57253371D02*
X170875312Y-57253371D01*
X170875312Y-57253371D02*
X170970550Y-57300990D01*
X170970550Y-57300990D02*
X171018169Y-57348609D01*
X171018169Y-57348609D02*
X171065788Y-57443847D01*
X171065788Y-57443847D02*
X171065788Y-57681942D01*
X171065788Y-57681942D02*
X171018169Y-57777180D01*
X171018169Y-57777180D02*
X170970550Y-57824800D01*
X170970550Y-57824800D02*
X170875312Y-57872419D01*
X170875312Y-57872419D02*
X170589598Y-57872419D01*
X170589598Y-57872419D02*
X170494360Y-57824800D01*
X170494360Y-57824800D02*
X170446741Y-57777180D01*
X171351503Y-56872419D02*
X171684836Y-57872419D01*
X171684836Y-57872419D02*
X172018169Y-56872419D01*
X172256265Y-56872419D02*
X172875312Y-56872419D01*
X172875312Y-56872419D02*
X172541979Y-57253371D01*
X172541979Y-57253371D02*
X172684836Y-57253371D01*
X172684836Y-57253371D02*
X172780074Y-57300990D01*
X172780074Y-57300990D02*
X172827693Y-57348609D01*
X172827693Y-57348609D02*
X172875312Y-57443847D01*
X172875312Y-57443847D02*
X172875312Y-57681942D01*
X172875312Y-57681942D02*
X172827693Y-57777180D01*
X172827693Y-57777180D02*
X172780074Y-57824800D01*
X172780074Y-57824800D02*
X172684836Y-57872419D01*
X172684836Y-57872419D02*
X172399122Y-57872419D01*
X172399122Y-57872419D02*
X172303884Y-57824800D01*
X172303884Y-57824800D02*
X172256265Y-57777180D01*
D11*
X161295833Y-41679580D02*
X161248214Y-41727200D01*
X161248214Y-41727200D02*
X161105357Y-41774819D01*
X161105357Y-41774819D02*
X161010119Y-41774819D01*
X161010119Y-41774819D02*
X160867262Y-41727200D01*
X160867262Y-41727200D02*
X160772024Y-41631961D01*
X160772024Y-41631961D02*
X160724405Y-41536723D01*
X160724405Y-41536723D02*
X160676786Y-41346247D01*
X160676786Y-41346247D02*
X160676786Y-41203390D01*
X160676786Y-41203390D02*
X160724405Y-41012914D01*
X160724405Y-41012914D02*
X160772024Y-40917676D01*
X160772024Y-40917676D02*
X160867262Y-40822438D01*
X160867262Y-40822438D02*
X161010119Y-40774819D01*
X161010119Y-40774819D02*
X161105357Y-40774819D01*
X161105357Y-40774819D02*
X161248214Y-40822438D01*
X161248214Y-40822438D02*
X161295833Y-40870057D01*
X162248214Y-41774819D02*
X161676786Y-41774819D01*
X161962500Y-41774819D02*
X161962500Y-40774819D01*
X161962500Y-40774819D02*
X161867262Y-40917676D01*
X161867262Y-40917676D02*
X161772024Y-41012914D01*
X161772024Y-41012914D02*
X161676786Y-41060533D01*
X161370833Y-55679580D02*
X161323214Y-55727200D01*
X161323214Y-55727200D02*
X161180357Y-55774819D01*
X161180357Y-55774819D02*
X161085119Y-55774819D01*
X161085119Y-55774819D02*
X160942262Y-55727200D01*
X160942262Y-55727200D02*
X160847024Y-55631961D01*
X160847024Y-55631961D02*
X160799405Y-55536723D01*
X160799405Y-55536723D02*
X160751786Y-55346247D01*
X160751786Y-55346247D02*
X160751786Y-55203390D01*
X160751786Y-55203390D02*
X160799405Y-55012914D01*
X160799405Y-55012914D02*
X160847024Y-54917676D01*
X160847024Y-54917676D02*
X160942262Y-54822438D01*
X160942262Y-54822438D02*
X161085119Y-54774819D01*
X161085119Y-54774819D02*
X161180357Y-54774819D01*
X161180357Y-54774819D02*
X161323214Y-54822438D01*
X161323214Y-54822438D02*
X161370833Y-54870057D01*
X161942262Y-55203390D02*
X161847024Y-55155771D01*
X161847024Y-55155771D02*
X161799405Y-55108152D01*
X161799405Y-55108152D02*
X161751786Y-55012914D01*
X161751786Y-55012914D02*
X161751786Y-54965295D01*
X161751786Y-54965295D02*
X161799405Y-54870057D01*
X161799405Y-54870057D02*
X161847024Y-54822438D01*
X161847024Y-54822438D02*
X161942262Y-54774819D01*
X161942262Y-54774819D02*
X162132738Y-54774819D01*
X162132738Y-54774819D02*
X162227976Y-54822438D01*
X162227976Y-54822438D02*
X162275595Y-54870057D01*
X162275595Y-54870057D02*
X162323214Y-54965295D01*
X162323214Y-54965295D02*
X162323214Y-55012914D01*
X162323214Y-55012914D02*
X162275595Y-55108152D01*
X162275595Y-55108152D02*
X162227976Y-55155771D01*
X162227976Y-55155771D02*
X162132738Y-55203390D01*
X162132738Y-55203390D02*
X161942262Y-55203390D01*
X161942262Y-55203390D02*
X161847024Y-55251009D01*
X161847024Y-55251009D02*
X161799405Y-55298628D01*
X161799405Y-55298628D02*
X161751786Y-55393866D01*
X161751786Y-55393866D02*
X161751786Y-55584342D01*
X161751786Y-55584342D02*
X161799405Y-55679580D01*
X161799405Y-55679580D02*
X161847024Y-55727200D01*
X161847024Y-55727200D02*
X161942262Y-55774819D01*
X161942262Y-55774819D02*
X162132738Y-55774819D01*
X162132738Y-55774819D02*
X162227976Y-55727200D01*
X162227976Y-55727200D02*
X162275595Y-55679580D01*
X162275595Y-55679580D02*
X162323214Y-55584342D01*
X162323214Y-55584342D02*
X162323214Y-55393866D01*
X162323214Y-55393866D02*
X162275595Y-55298628D01*
X162275595Y-55298628D02*
X162227976Y-55251009D01*
X162227976Y-55251009D02*
X162132738Y-55203390D01*
X159002080Y-47142857D02*
X159049700Y-47190476D01*
X159049700Y-47190476D02*
X159097319Y-47333333D01*
X159097319Y-47333333D02*
X159097319Y-47428571D01*
X159097319Y-47428571D02*
X159049700Y-47571428D01*
X159049700Y-47571428D02*
X158954461Y-47666666D01*
X158954461Y-47666666D02*
X158859223Y-47714285D01*
X158859223Y-47714285D02*
X158668747Y-47761904D01*
X158668747Y-47761904D02*
X158525890Y-47761904D01*
X158525890Y-47761904D02*
X158335414Y-47714285D01*
X158335414Y-47714285D02*
X158240176Y-47666666D01*
X158240176Y-47666666D02*
X158144938Y-47571428D01*
X158144938Y-47571428D02*
X158097319Y-47428571D01*
X158097319Y-47428571D02*
X158097319Y-47333333D01*
X158097319Y-47333333D02*
X158144938Y-47190476D01*
X158144938Y-47190476D02*
X158192557Y-47142857D01*
X159097319Y-46190476D02*
X159097319Y-46761904D01*
X159097319Y-46476190D02*
X158097319Y-46476190D01*
X158097319Y-46476190D02*
X158240176Y-46571428D01*
X158240176Y-46571428D02*
X158335414Y-46666666D01*
X158335414Y-46666666D02*
X158383033Y-46761904D01*
X159097319Y-45238095D02*
X159097319Y-45809523D01*
X159097319Y-45523809D02*
X158097319Y-45523809D01*
X158097319Y-45523809D02*
X158240176Y-45619047D01*
X158240176Y-45619047D02*
X158335414Y-45714285D01*
X158335414Y-45714285D02*
X158383033Y-45809523D01*
X144666666Y-40464819D02*
X144666666Y-41179104D01*
X144666666Y-41179104D02*
X144619047Y-41321961D01*
X144619047Y-41321961D02*
X144523809Y-41417200D01*
X144523809Y-41417200D02*
X144380952Y-41464819D01*
X144380952Y-41464819D02*
X144285714Y-41464819D01*
X145666666Y-41464819D02*
X145095238Y-41464819D01*
X145380952Y-41464819D02*
X145380952Y-40464819D01*
X145380952Y-40464819D02*
X145285714Y-40607676D01*
X145285714Y-40607676D02*
X145190476Y-40702914D01*
X145190476Y-40702914D02*
X145095238Y-40750533D01*
X160819642Y-45179580D02*
X160772023Y-45227200D01*
X160772023Y-45227200D02*
X160629166Y-45274819D01*
X160629166Y-45274819D02*
X160533928Y-45274819D01*
X160533928Y-45274819D02*
X160391071Y-45227200D01*
X160391071Y-45227200D02*
X160295833Y-45131961D01*
X160295833Y-45131961D02*
X160248214Y-45036723D01*
X160248214Y-45036723D02*
X160200595Y-44846247D01*
X160200595Y-44846247D02*
X160200595Y-44703390D01*
X160200595Y-44703390D02*
X160248214Y-44512914D01*
X160248214Y-44512914D02*
X160295833Y-44417676D01*
X160295833Y-44417676D02*
X160391071Y-44322438D01*
X160391071Y-44322438D02*
X160533928Y-44274819D01*
X160533928Y-44274819D02*
X160629166Y-44274819D01*
X160629166Y-44274819D02*
X160772023Y-44322438D01*
X160772023Y-44322438D02*
X160819642Y-44370057D01*
X161772023Y-45274819D02*
X161200595Y-45274819D01*
X161486309Y-45274819D02*
X161486309Y-44274819D01*
X161486309Y-44274819D02*
X161391071Y-44417676D01*
X161391071Y-44417676D02*
X161295833Y-44512914D01*
X161295833Y-44512914D02*
X161200595Y-44560533D01*
X162391071Y-44274819D02*
X162486309Y-44274819D01*
X162486309Y-44274819D02*
X162581547Y-44322438D01*
X162581547Y-44322438D02*
X162629166Y-44370057D01*
X162629166Y-44370057D02*
X162676785Y-44465295D01*
X162676785Y-44465295D02*
X162724404Y-44655771D01*
X162724404Y-44655771D02*
X162724404Y-44893866D01*
X162724404Y-44893866D02*
X162676785Y-45084342D01*
X162676785Y-45084342D02*
X162629166Y-45179580D01*
X162629166Y-45179580D02*
X162581547Y-45227200D01*
X162581547Y-45227200D02*
X162486309Y-45274819D01*
X162486309Y-45274819D02*
X162391071Y-45274819D01*
X162391071Y-45274819D02*
X162295833Y-45227200D01*
X162295833Y-45227200D02*
X162248214Y-45179580D01*
X162248214Y-45179580D02*
X162200595Y-45084342D01*
X162200595Y-45084342D02*
X162152976Y-44893866D01*
X162152976Y-44893866D02*
X162152976Y-44655771D01*
X162152976Y-44655771D02*
X162200595Y-44465295D01*
X162200595Y-44465295D02*
X162248214Y-44370057D01*
X162248214Y-44370057D02*
X162295833Y-44322438D01*
X162295833Y-44322438D02*
X162391071Y-44274819D01*
X156795833Y-41679580D02*
X156748214Y-41727200D01*
X156748214Y-41727200D02*
X156605357Y-41774819D01*
X156605357Y-41774819D02*
X156510119Y-41774819D01*
X156510119Y-41774819D02*
X156367262Y-41727200D01*
X156367262Y-41727200D02*
X156272024Y-41631961D01*
X156272024Y-41631961D02*
X156224405Y-41536723D01*
X156224405Y-41536723D02*
X156176786Y-41346247D01*
X156176786Y-41346247D02*
X156176786Y-41203390D01*
X156176786Y-41203390D02*
X156224405Y-41012914D01*
X156224405Y-41012914D02*
X156272024Y-40917676D01*
X156272024Y-40917676D02*
X156367262Y-40822438D01*
X156367262Y-40822438D02*
X156510119Y-40774819D01*
X156510119Y-40774819D02*
X156605357Y-40774819D01*
X156605357Y-40774819D02*
X156748214Y-40822438D01*
X156748214Y-40822438D02*
X156795833Y-40870057D01*
X157272024Y-41774819D02*
X157462500Y-41774819D01*
X157462500Y-41774819D02*
X157557738Y-41727200D01*
X157557738Y-41727200D02*
X157605357Y-41679580D01*
X157605357Y-41679580D02*
X157700595Y-41536723D01*
X157700595Y-41536723D02*
X157748214Y-41346247D01*
X157748214Y-41346247D02*
X157748214Y-40965295D01*
X157748214Y-40965295D02*
X157700595Y-40870057D01*
X157700595Y-40870057D02*
X157652976Y-40822438D01*
X157652976Y-40822438D02*
X157557738Y-40774819D01*
X157557738Y-40774819D02*
X157367262Y-40774819D01*
X157367262Y-40774819D02*
X157272024Y-40822438D01*
X157272024Y-40822438D02*
X157224405Y-40870057D01*
X157224405Y-40870057D02*
X157176786Y-40965295D01*
X157176786Y-40965295D02*
X157176786Y-41203390D01*
X157176786Y-41203390D02*
X157224405Y-41298628D01*
X157224405Y-41298628D02*
X157272024Y-41346247D01*
X157272024Y-41346247D02*
X157367262Y-41393866D01*
X157367262Y-41393866D02*
X157557738Y-41393866D01*
X157557738Y-41393866D02*
X157652976Y-41346247D01*
X157652976Y-41346247D02*
X157700595Y-41298628D01*
X157700595Y-41298628D02*
X157748214Y-41203390D01*
X136896666Y-40854819D02*
X136896666Y-41569104D01*
X136896666Y-41569104D02*
X136849047Y-41711961D01*
X136849047Y-41711961D02*
X136753809Y-41807200D01*
X136753809Y-41807200D02*
X136610952Y-41854819D01*
X136610952Y-41854819D02*
X136515714Y-41854819D01*
X137325238Y-40950057D02*
X137372857Y-40902438D01*
X137372857Y-40902438D02*
X137468095Y-40854819D01*
X137468095Y-40854819D02*
X137706190Y-40854819D01*
X137706190Y-40854819D02*
X137801428Y-40902438D01*
X137801428Y-40902438D02*
X137849047Y-40950057D01*
X137849047Y-40950057D02*
X137896666Y-41045295D01*
X137896666Y-41045295D02*
X137896666Y-41140533D01*
X137896666Y-41140533D02*
X137849047Y-41283390D01*
X137849047Y-41283390D02*
X137277619Y-41854819D01*
X137277619Y-41854819D02*
X137896666Y-41854819D01*
X161295833Y-48679580D02*
X161248214Y-48727200D01*
X161248214Y-48727200D02*
X161105357Y-48774819D01*
X161105357Y-48774819D02*
X161010119Y-48774819D01*
X161010119Y-48774819D02*
X160867262Y-48727200D01*
X160867262Y-48727200D02*
X160772024Y-48631961D01*
X160772024Y-48631961D02*
X160724405Y-48536723D01*
X160724405Y-48536723D02*
X160676786Y-48346247D01*
X160676786Y-48346247D02*
X160676786Y-48203390D01*
X160676786Y-48203390D02*
X160724405Y-48012914D01*
X160724405Y-48012914D02*
X160772024Y-47917676D01*
X160772024Y-47917676D02*
X160867262Y-47822438D01*
X160867262Y-47822438D02*
X161010119Y-47774819D01*
X161010119Y-47774819D02*
X161105357Y-47774819D01*
X161105357Y-47774819D02*
X161248214Y-47822438D01*
X161248214Y-47822438D02*
X161295833Y-47870057D01*
X161676786Y-47870057D02*
X161724405Y-47822438D01*
X161724405Y-47822438D02*
X161819643Y-47774819D01*
X161819643Y-47774819D02*
X162057738Y-47774819D01*
X162057738Y-47774819D02*
X162152976Y-47822438D01*
X162152976Y-47822438D02*
X162200595Y-47870057D01*
X162200595Y-47870057D02*
X162248214Y-47965295D01*
X162248214Y-47965295D02*
X162248214Y-48060533D01*
X162248214Y-48060533D02*
X162200595Y-48203390D01*
X162200595Y-48203390D02*
X161629167Y-48774819D01*
X161629167Y-48774819D02*
X162248214Y-48774819D01*
X146951905Y-63424819D02*
X146951905Y-62424819D01*
X146951905Y-62424819D02*
X147190000Y-62424819D01*
X147190000Y-62424819D02*
X147332857Y-62472438D01*
X147332857Y-62472438D02*
X147428095Y-62567676D01*
X147428095Y-62567676D02*
X147475714Y-62662914D01*
X147475714Y-62662914D02*
X147523333Y-62853390D01*
X147523333Y-62853390D02*
X147523333Y-62996247D01*
X147523333Y-62996247D02*
X147475714Y-63186723D01*
X147475714Y-63186723D02*
X147428095Y-63281961D01*
X147428095Y-63281961D02*
X147332857Y-63377200D01*
X147332857Y-63377200D02*
X147190000Y-63424819D01*
X147190000Y-63424819D02*
X146951905Y-63424819D01*
X148475714Y-63424819D02*
X147904286Y-63424819D01*
X148190000Y-63424819D02*
X148190000Y-62424819D01*
X148190000Y-62424819D02*
X148094762Y-62567676D01*
X148094762Y-62567676D02*
X147999524Y-62662914D01*
X147999524Y-62662914D02*
X147904286Y-62710533D01*
X156795833Y-52179580D02*
X156748214Y-52227200D01*
X156748214Y-52227200D02*
X156605357Y-52274819D01*
X156605357Y-52274819D02*
X156510119Y-52274819D01*
X156510119Y-52274819D02*
X156367262Y-52227200D01*
X156367262Y-52227200D02*
X156272024Y-52131961D01*
X156272024Y-52131961D02*
X156224405Y-52036723D01*
X156224405Y-52036723D02*
X156176786Y-51846247D01*
X156176786Y-51846247D02*
X156176786Y-51703390D01*
X156176786Y-51703390D02*
X156224405Y-51512914D01*
X156224405Y-51512914D02*
X156272024Y-51417676D01*
X156272024Y-51417676D02*
X156367262Y-51322438D01*
X156367262Y-51322438D02*
X156510119Y-51274819D01*
X156510119Y-51274819D02*
X156605357Y-51274819D01*
X156605357Y-51274819D02*
X156748214Y-51322438D01*
X156748214Y-51322438D02*
X156795833Y-51370057D01*
X157652976Y-51274819D02*
X157462500Y-51274819D01*
X157462500Y-51274819D02*
X157367262Y-51322438D01*
X157367262Y-51322438D02*
X157319643Y-51370057D01*
X157319643Y-51370057D02*
X157224405Y-51512914D01*
X157224405Y-51512914D02*
X157176786Y-51703390D01*
X157176786Y-51703390D02*
X157176786Y-52084342D01*
X157176786Y-52084342D02*
X157224405Y-52179580D01*
X157224405Y-52179580D02*
X157272024Y-52227200D01*
X157272024Y-52227200D02*
X157367262Y-52274819D01*
X157367262Y-52274819D02*
X157557738Y-52274819D01*
X157557738Y-52274819D02*
X157652976Y-52227200D01*
X157652976Y-52227200D02*
X157700595Y-52179580D01*
X157700595Y-52179580D02*
X157748214Y-52084342D01*
X157748214Y-52084342D02*
X157748214Y-51846247D01*
X157748214Y-51846247D02*
X157700595Y-51751009D01*
X157700595Y-51751009D02*
X157652976Y-51703390D01*
X157652976Y-51703390D02*
X157557738Y-51655771D01*
X157557738Y-51655771D02*
X157367262Y-51655771D01*
X157367262Y-51655771D02*
X157272024Y-51703390D01*
X157272024Y-51703390D02*
X157224405Y-51751009D01*
X157224405Y-51751009D02*
X157176786Y-51846247D01*
X165795833Y-45179580D02*
X165748214Y-45227200D01*
X165748214Y-45227200D02*
X165605357Y-45274819D01*
X165605357Y-45274819D02*
X165510119Y-45274819D01*
X165510119Y-45274819D02*
X165367262Y-45227200D01*
X165367262Y-45227200D02*
X165272024Y-45131961D01*
X165272024Y-45131961D02*
X165224405Y-45036723D01*
X165224405Y-45036723D02*
X165176786Y-44846247D01*
X165176786Y-44846247D02*
X165176786Y-44703390D01*
X165176786Y-44703390D02*
X165224405Y-44512914D01*
X165224405Y-44512914D02*
X165272024Y-44417676D01*
X165272024Y-44417676D02*
X165367262Y-44322438D01*
X165367262Y-44322438D02*
X165510119Y-44274819D01*
X165510119Y-44274819D02*
X165605357Y-44274819D01*
X165605357Y-44274819D02*
X165748214Y-44322438D01*
X165748214Y-44322438D02*
X165795833Y-44370057D01*
X166652976Y-44608152D02*
X166652976Y-45274819D01*
X166414881Y-44227200D02*
X166176786Y-44941485D01*
X166176786Y-44941485D02*
X166795833Y-44941485D01*
X156833333Y-62804819D02*
X156500000Y-62328628D01*
X156261905Y-62804819D02*
X156261905Y-61804819D01*
X156261905Y-61804819D02*
X156642857Y-61804819D01*
X156642857Y-61804819D02*
X156738095Y-61852438D01*
X156738095Y-61852438D02*
X156785714Y-61900057D01*
X156785714Y-61900057D02*
X156833333Y-61995295D01*
X156833333Y-61995295D02*
X156833333Y-62138152D01*
X156833333Y-62138152D02*
X156785714Y-62233390D01*
X156785714Y-62233390D02*
X156738095Y-62281009D01*
X156738095Y-62281009D02*
X156642857Y-62328628D01*
X156642857Y-62328628D02*
X156261905Y-62328628D01*
X157166667Y-61804819D02*
X157785714Y-61804819D01*
X157785714Y-61804819D02*
X157452381Y-62185771D01*
X157452381Y-62185771D02*
X157595238Y-62185771D01*
X157595238Y-62185771D02*
X157690476Y-62233390D01*
X157690476Y-62233390D02*
X157738095Y-62281009D01*
X157738095Y-62281009D02*
X157785714Y-62376247D01*
X157785714Y-62376247D02*
X157785714Y-62614342D01*
X157785714Y-62614342D02*
X157738095Y-62709580D01*
X157738095Y-62709580D02*
X157690476Y-62757200D01*
X157690476Y-62757200D02*
X157595238Y-62804819D01*
X157595238Y-62804819D02*
X157309524Y-62804819D01*
X157309524Y-62804819D02*
X157214286Y-62757200D01*
X157214286Y-62757200D02*
X157166667Y-62709580D01*
X172375595Y-40504819D02*
X172375595Y-41314342D01*
X172375595Y-41314342D02*
X172423214Y-41409580D01*
X172423214Y-41409580D02*
X172470833Y-41457200D01*
X172470833Y-41457200D02*
X172566071Y-41504819D01*
X172566071Y-41504819D02*
X172756547Y-41504819D01*
X172756547Y-41504819D02*
X172851785Y-41457200D01*
X172851785Y-41457200D02*
X172899404Y-41409580D01*
X172899404Y-41409580D02*
X172947023Y-41314342D01*
X172947023Y-41314342D02*
X172947023Y-40504819D01*
X173375595Y-40600057D02*
X173423214Y-40552438D01*
X173423214Y-40552438D02*
X173518452Y-40504819D01*
X173518452Y-40504819D02*
X173756547Y-40504819D01*
X173756547Y-40504819D02*
X173851785Y-40552438D01*
X173851785Y-40552438D02*
X173899404Y-40600057D01*
X173899404Y-40600057D02*
X173947023Y-40695295D01*
X173947023Y-40695295D02*
X173947023Y-40790533D01*
X173947023Y-40790533D02*
X173899404Y-40933390D01*
X173899404Y-40933390D02*
X173327976Y-41504819D01*
X173327976Y-41504819D02*
X173947023Y-41504819D01*
X167954819Y-43416666D02*
X167954819Y-43892856D01*
X167954819Y-43892856D02*
X166954819Y-43892856D01*
X167954819Y-42559523D02*
X167954819Y-43130951D01*
X167954819Y-42845237D02*
X166954819Y-42845237D01*
X166954819Y-42845237D02*
X167097676Y-42940475D01*
X167097676Y-42940475D02*
X167192914Y-43035713D01*
X167192914Y-43035713D02*
X167240533Y-43130951D01*
X156795833Y-55669580D02*
X156748214Y-55717200D01*
X156748214Y-55717200D02*
X156605357Y-55764819D01*
X156605357Y-55764819D02*
X156510119Y-55764819D01*
X156510119Y-55764819D02*
X156367262Y-55717200D01*
X156367262Y-55717200D02*
X156272024Y-55621961D01*
X156272024Y-55621961D02*
X156224405Y-55526723D01*
X156224405Y-55526723D02*
X156176786Y-55336247D01*
X156176786Y-55336247D02*
X156176786Y-55193390D01*
X156176786Y-55193390D02*
X156224405Y-55002914D01*
X156224405Y-55002914D02*
X156272024Y-54907676D01*
X156272024Y-54907676D02*
X156367262Y-54812438D01*
X156367262Y-54812438D02*
X156510119Y-54764819D01*
X156510119Y-54764819D02*
X156605357Y-54764819D01*
X156605357Y-54764819D02*
X156748214Y-54812438D01*
X156748214Y-54812438D02*
X156795833Y-54860057D01*
X157129167Y-54764819D02*
X157795833Y-54764819D01*
X157795833Y-54764819D02*
X157367262Y-55764819D01*
X165795833Y-41679580D02*
X165748214Y-41727200D01*
X165748214Y-41727200D02*
X165605357Y-41774819D01*
X165605357Y-41774819D02*
X165510119Y-41774819D01*
X165510119Y-41774819D02*
X165367262Y-41727200D01*
X165367262Y-41727200D02*
X165272024Y-41631961D01*
X165272024Y-41631961D02*
X165224405Y-41536723D01*
X165224405Y-41536723D02*
X165176786Y-41346247D01*
X165176786Y-41346247D02*
X165176786Y-41203390D01*
X165176786Y-41203390D02*
X165224405Y-41012914D01*
X165224405Y-41012914D02*
X165272024Y-40917676D01*
X165272024Y-40917676D02*
X165367262Y-40822438D01*
X165367262Y-40822438D02*
X165510119Y-40774819D01*
X165510119Y-40774819D02*
X165605357Y-40774819D01*
X165605357Y-40774819D02*
X165748214Y-40822438D01*
X165748214Y-40822438D02*
X165795833Y-40870057D01*
X166129167Y-40774819D02*
X166748214Y-40774819D01*
X166748214Y-40774819D02*
X166414881Y-41155771D01*
X166414881Y-41155771D02*
X166557738Y-41155771D01*
X166557738Y-41155771D02*
X166652976Y-41203390D01*
X166652976Y-41203390D02*
X166700595Y-41251009D01*
X166700595Y-41251009D02*
X166748214Y-41346247D01*
X166748214Y-41346247D02*
X166748214Y-41584342D01*
X166748214Y-41584342D02*
X166700595Y-41679580D01*
X166700595Y-41679580D02*
X166652976Y-41727200D01*
X166652976Y-41727200D02*
X166557738Y-41774819D01*
X166557738Y-41774819D02*
X166272024Y-41774819D01*
X166272024Y-41774819D02*
X166176786Y-41727200D01*
X166176786Y-41727200D02*
X166129167Y-41679580D01*
X161333333Y-62804819D02*
X161000000Y-62328628D01*
X160761905Y-62804819D02*
X160761905Y-61804819D01*
X160761905Y-61804819D02*
X161142857Y-61804819D01*
X161142857Y-61804819D02*
X161238095Y-61852438D01*
X161238095Y-61852438D02*
X161285714Y-61900057D01*
X161285714Y-61900057D02*
X161333333Y-61995295D01*
X161333333Y-61995295D02*
X161333333Y-62138152D01*
X161333333Y-62138152D02*
X161285714Y-62233390D01*
X161285714Y-62233390D02*
X161238095Y-62281009D01*
X161238095Y-62281009D02*
X161142857Y-62328628D01*
X161142857Y-62328628D02*
X160761905Y-62328628D01*
X162190476Y-62138152D02*
X162190476Y-62804819D01*
X161952381Y-61757200D02*
X161714286Y-62471485D01*
X161714286Y-62471485D02*
X162333333Y-62471485D01*
X161333333Y-52304819D02*
X161000000Y-51828628D01*
X160761905Y-52304819D02*
X160761905Y-51304819D01*
X160761905Y-51304819D02*
X161142857Y-51304819D01*
X161142857Y-51304819D02*
X161238095Y-51352438D01*
X161238095Y-51352438D02*
X161285714Y-51400057D01*
X161285714Y-51400057D02*
X161333333Y-51495295D01*
X161333333Y-51495295D02*
X161333333Y-51638152D01*
X161333333Y-51638152D02*
X161285714Y-51733390D01*
X161285714Y-51733390D02*
X161238095Y-51781009D01*
X161238095Y-51781009D02*
X161142857Y-51828628D01*
X161142857Y-51828628D02*
X160761905Y-51828628D01*
X161714286Y-51400057D02*
X161761905Y-51352438D01*
X161761905Y-51352438D02*
X161857143Y-51304819D01*
X161857143Y-51304819D02*
X162095238Y-51304819D01*
X162095238Y-51304819D02*
X162190476Y-51352438D01*
X162190476Y-51352438D02*
X162238095Y-51400057D01*
X162238095Y-51400057D02*
X162285714Y-51495295D01*
X162285714Y-51495295D02*
X162285714Y-51590533D01*
X162285714Y-51590533D02*
X162238095Y-51733390D01*
X162238095Y-51733390D02*
X161666667Y-52304819D01*
X161666667Y-52304819D02*
X162285714Y-52304819D01*
X160819642Y-59179580D02*
X160772023Y-59227200D01*
X160772023Y-59227200D02*
X160629166Y-59274819D01*
X160629166Y-59274819D02*
X160533928Y-59274819D01*
X160533928Y-59274819D02*
X160391071Y-59227200D01*
X160391071Y-59227200D02*
X160295833Y-59131961D01*
X160295833Y-59131961D02*
X160248214Y-59036723D01*
X160248214Y-59036723D02*
X160200595Y-58846247D01*
X160200595Y-58846247D02*
X160200595Y-58703390D01*
X160200595Y-58703390D02*
X160248214Y-58512914D01*
X160248214Y-58512914D02*
X160295833Y-58417676D01*
X160295833Y-58417676D02*
X160391071Y-58322438D01*
X160391071Y-58322438D02*
X160533928Y-58274819D01*
X160533928Y-58274819D02*
X160629166Y-58274819D01*
X160629166Y-58274819D02*
X160772023Y-58322438D01*
X160772023Y-58322438D02*
X160819642Y-58370057D01*
X161772023Y-59274819D02*
X161200595Y-59274819D01*
X161486309Y-59274819D02*
X161486309Y-58274819D01*
X161486309Y-58274819D02*
X161391071Y-58417676D01*
X161391071Y-58417676D02*
X161295833Y-58512914D01*
X161295833Y-58512914D02*
X161200595Y-58560533D01*
X162152976Y-58370057D02*
X162200595Y-58322438D01*
X162200595Y-58322438D02*
X162295833Y-58274819D01*
X162295833Y-58274819D02*
X162533928Y-58274819D01*
X162533928Y-58274819D02*
X162629166Y-58322438D01*
X162629166Y-58322438D02*
X162676785Y-58370057D01*
X162676785Y-58370057D02*
X162724404Y-58465295D01*
X162724404Y-58465295D02*
X162724404Y-58560533D01*
X162724404Y-58560533D02*
X162676785Y-58703390D01*
X162676785Y-58703390D02*
X162105357Y-59274819D01*
X162105357Y-59274819D02*
X162724404Y-59274819D01*
X156833333Y-59304819D02*
X156500000Y-58828628D01*
X156261905Y-59304819D02*
X156261905Y-58304819D01*
X156261905Y-58304819D02*
X156642857Y-58304819D01*
X156642857Y-58304819D02*
X156738095Y-58352438D01*
X156738095Y-58352438D02*
X156785714Y-58400057D01*
X156785714Y-58400057D02*
X156833333Y-58495295D01*
X156833333Y-58495295D02*
X156833333Y-58638152D01*
X156833333Y-58638152D02*
X156785714Y-58733390D01*
X156785714Y-58733390D02*
X156738095Y-58781009D01*
X156738095Y-58781009D02*
X156642857Y-58828628D01*
X156642857Y-58828628D02*
X156261905Y-58828628D01*
X157785714Y-59304819D02*
X157214286Y-59304819D01*
X157500000Y-59304819D02*
X157500000Y-58304819D01*
X157500000Y-58304819D02*
X157404762Y-58447676D01*
X157404762Y-58447676D02*
X157309524Y-58542914D01*
X157309524Y-58542914D02*
X157214286Y-58590533D01*
X154674819Y-50063333D02*
X155389104Y-50063333D01*
X155389104Y-50063333D02*
X155531961Y-50110952D01*
X155531961Y-50110952D02*
X155627200Y-50206190D01*
X155627200Y-50206190D02*
X155674819Y-50349047D01*
X155674819Y-50349047D02*
X155674819Y-50444285D01*
X154674819Y-49682380D02*
X154674819Y-49063333D01*
X154674819Y-49063333D02*
X155055771Y-49396666D01*
X155055771Y-49396666D02*
X155055771Y-49253809D01*
X155055771Y-49253809D02*
X155103390Y-49158571D01*
X155103390Y-49158571D02*
X155151009Y-49110952D01*
X155151009Y-49110952D02*
X155246247Y-49063333D01*
X155246247Y-49063333D02*
X155484342Y-49063333D01*
X155484342Y-49063333D02*
X155579580Y-49110952D01*
X155579580Y-49110952D02*
X155627200Y-49158571D01*
X155627200Y-49158571D02*
X155674819Y-49253809D01*
X155674819Y-49253809D02*
X155674819Y-49539523D01*
X155674819Y-49539523D02*
X155627200Y-49634761D01*
X155627200Y-49634761D02*
X155579580Y-49682380D01*
X156795833Y-48679580D02*
X156748214Y-48727200D01*
X156748214Y-48727200D02*
X156605357Y-48774819D01*
X156605357Y-48774819D02*
X156510119Y-48774819D01*
X156510119Y-48774819D02*
X156367262Y-48727200D01*
X156367262Y-48727200D02*
X156272024Y-48631961D01*
X156272024Y-48631961D02*
X156224405Y-48536723D01*
X156224405Y-48536723D02*
X156176786Y-48346247D01*
X156176786Y-48346247D02*
X156176786Y-48203390D01*
X156176786Y-48203390D02*
X156224405Y-48012914D01*
X156224405Y-48012914D02*
X156272024Y-47917676D01*
X156272024Y-47917676D02*
X156367262Y-47822438D01*
X156367262Y-47822438D02*
X156510119Y-47774819D01*
X156510119Y-47774819D02*
X156605357Y-47774819D01*
X156605357Y-47774819D02*
X156748214Y-47822438D01*
X156748214Y-47822438D02*
X156795833Y-47870057D01*
X157700595Y-47774819D02*
X157224405Y-47774819D01*
X157224405Y-47774819D02*
X157176786Y-48251009D01*
X157176786Y-48251009D02*
X157224405Y-48203390D01*
X157224405Y-48203390D02*
X157319643Y-48155771D01*
X157319643Y-48155771D02*
X157557738Y-48155771D01*
X157557738Y-48155771D02*
X157652976Y-48203390D01*
X157652976Y-48203390D02*
X157700595Y-48251009D01*
X157700595Y-48251009D02*
X157748214Y-48346247D01*
X157748214Y-48346247D02*
X157748214Y-48584342D01*
X157748214Y-48584342D02*
X157700595Y-48679580D01*
X157700595Y-48679580D02*
X157652976Y-48727200D01*
X157652976Y-48727200D02*
X157557738Y-48774819D01*
X157557738Y-48774819D02*
X157319643Y-48774819D01*
X157319643Y-48774819D02*
X157224405Y-48727200D01*
X157224405Y-48727200D02*
X157176786Y-48679580D01*
X147071905Y-66954819D02*
X147071905Y-65954819D01*
X147071905Y-65954819D02*
X147310000Y-65954819D01*
X147310000Y-65954819D02*
X147452857Y-66002438D01*
X147452857Y-66002438D02*
X147548095Y-66097676D01*
X147548095Y-66097676D02*
X147595714Y-66192914D01*
X147595714Y-66192914D02*
X147643333Y-66383390D01*
X147643333Y-66383390D02*
X147643333Y-66526247D01*
X147643333Y-66526247D02*
X147595714Y-66716723D01*
X147595714Y-66716723D02*
X147548095Y-66811961D01*
X147548095Y-66811961D02*
X147452857Y-66907200D01*
X147452857Y-66907200D02*
X147310000Y-66954819D01*
X147310000Y-66954819D02*
X147071905Y-66954819D01*
X148024286Y-66050057D02*
X148071905Y-66002438D01*
X148071905Y-66002438D02*
X148167143Y-65954819D01*
X148167143Y-65954819D02*
X148405238Y-65954819D01*
X148405238Y-65954819D02*
X148500476Y-66002438D01*
X148500476Y-66002438D02*
X148548095Y-66050057D01*
X148548095Y-66050057D02*
X148595714Y-66145295D01*
X148595714Y-66145295D02*
X148595714Y-66240533D01*
X148595714Y-66240533D02*
X148548095Y-66383390D01*
X148548095Y-66383390D02*
X147976667Y-66954819D01*
X147976667Y-66954819D02*
X148595714Y-66954819D01*
D12*
%TO.C,C1*%
X161201248Y-42265000D02*
X161723752Y-42265000D01*
X161201248Y-43735000D02*
X161723752Y-43735000D01*
%TO.C,D4*%
X169665000Y-58040000D02*
X169665000Y-59960000D01*
X169665000Y-59960000D02*
X172525000Y-59960000D01*
X172525000Y-58040000D02*
X169665000Y-58040000D01*
%TO.C,C8*%
X161276248Y-56265000D02*
X161798752Y-56265000D01*
X161276248Y-57735000D02*
X161798752Y-57735000D01*
%TO.C,D3*%
X165165000Y-58040000D02*
X165165000Y-59960000D01*
X165165000Y-59960000D02*
X168025000Y-59960000D01*
X168025000Y-58040000D02*
X165165000Y-58040000D01*
D13*
%TO.C,brasnchoutlogo*%
G36*
X163133896Y-76127348D02*
G01*
X163225796Y-76171797D01*
X163293181Y-76233921D01*
X163393599Y-76376118D01*
X163407194Y-76497272D01*
X163322854Y-76603737D01*
X163129468Y-76701871D01*
X162815926Y-76798030D01*
X162371116Y-76898571D01*
X162008526Y-76968877D01*
X161571205Y-77051881D01*
X161260793Y-77116591D01*
X161056012Y-77169793D01*
X160935583Y-77218274D01*
X160878226Y-77268818D01*
X160862663Y-77328213D01*
X160862585Y-77334326D01*
X160866148Y-77444678D01*
X160876215Y-77685860D01*
X160891907Y-78038588D01*
X160912343Y-78483578D01*
X160936644Y-79001546D01*
X160963929Y-79573207D01*
X160979303Y-79891465D01*
X161006647Y-80501198D01*
X161028544Y-81083033D01*
X161044467Y-81614510D01*
X161053890Y-82073167D01*
X161056283Y-82436546D01*
X161051122Y-82682184D01*
X161046331Y-82747087D01*
X160978072Y-83105967D01*
X160870421Y-83341239D01*
X160730953Y-83445728D01*
X160567243Y-83412264D01*
X160450050Y-83311629D01*
X160372700Y-83193580D01*
X160343206Y-83036164D01*
X160354076Y-82790455D01*
X160360422Y-82726536D01*
X160372330Y-82518051D01*
X160375063Y-82202503D01*
X160368408Y-81773311D01*
X160352154Y-81223890D01*
X160326087Y-80547659D01*
X160289996Y-79738033D01*
X160243668Y-78788431D01*
X160215970Y-78246954D01*
X160165790Y-77278773D01*
X159648183Y-77322168D01*
X159338443Y-77358973D01*
X159049518Y-77411411D01*
X158868151Y-77460456D01*
X158683217Y-77514232D01*
X158562907Y-77493082D01*
X158438865Y-77388488D01*
X158328939Y-77246132D01*
X158333152Y-77128963D01*
X158351919Y-77094932D01*
X158477801Y-76939010D01*
X158647332Y-76823212D01*
X158887527Y-76737761D01*
X159225398Y-76672883D01*
X159660153Y-76621529D01*
X160067850Y-76573259D01*
X160563783Y-76502474D01*
X161089235Y-76418165D01*
X161585485Y-76329324D01*
X161651573Y-76316591D01*
X162156043Y-76220270D01*
X162535021Y-76154268D01*
X162809997Y-76117501D01*
X163002460Y-76108889D01*
X163133896Y-76127348D01*
G37*
G36*
X155753695Y-70872850D02*
G01*
X155778388Y-70898418D01*
X155850964Y-71066889D01*
X155892665Y-71368859D01*
X155903276Y-71790693D01*
X155882584Y-72318756D01*
X155830374Y-72939410D01*
X155812941Y-73102336D01*
X155723124Y-73910072D01*
X155925662Y-74069389D01*
X156088029Y-74233668D01*
X156110851Y-74379868D01*
X155996954Y-74538062D01*
X155971929Y-74561370D01*
X155875620Y-74676884D01*
X155845086Y-74821122D01*
X155865724Y-75042691D01*
X155919491Y-75310252D01*
X156003451Y-75630182D01*
X156063310Y-75823426D01*
X156141699Y-76069093D01*
X156170865Y-76217682D01*
X156152057Y-76313685D01*
X156086520Y-76401592D01*
X156079727Y-76409130D01*
X155899381Y-76534603D01*
X155723515Y-76516541D01*
X155558277Y-76361700D01*
X155409817Y-76076831D01*
X155284281Y-75668688D01*
X155245996Y-75493440D01*
X155187657Y-75204311D01*
X155140441Y-74978246D01*
X155111757Y-74850400D01*
X155107124Y-74834622D01*
X155037307Y-74846069D01*
X154876584Y-74900919D01*
X154801848Y-74929943D01*
X154639046Y-75004363D01*
X154541120Y-75092870D01*
X154479411Y-75239156D01*
X154425258Y-75486913D01*
X154420645Y-75511104D01*
X154305939Y-75929093D01*
X154147888Y-76208823D01*
X153948414Y-76347429D01*
X153849176Y-76362950D01*
X153682430Y-76384125D01*
X153601045Y-76419311D01*
X153530679Y-76460974D01*
X153428232Y-76455029D01*
X153269441Y-76392312D01*
X153030048Y-76263656D01*
X152746544Y-76096495D01*
X152476459Y-75935997D01*
X152258121Y-75809691D01*
X152120969Y-75734417D01*
X152089821Y-75720755D01*
X152082095Y-75784510D01*
X152106287Y-75939178D01*
X152108895Y-75951246D01*
X152115000Y-76175132D01*
X152028071Y-76326986D01*
X151875495Y-76449332D01*
X151732290Y-76442991D01*
X151567232Y-76303709D01*
X151528323Y-76258899D01*
X151400632Y-76123649D01*
X151306623Y-76092997D01*
X151191964Y-76149712D01*
X151189385Y-76151421D01*
X150880333Y-76294746D01*
X150446212Y-76395090D01*
X149880225Y-76453565D01*
X149233378Y-76471343D01*
X148830763Y-76472427D01*
X148554605Y-76477657D01*
X148381066Y-76491275D01*
X148286308Y-76517519D01*
X148246492Y-76560631D01*
X148237780Y-76624851D01*
X148237668Y-76648457D01*
X148185476Y-76824769D01*
X148061461Y-76985163D01*
X147914464Y-77070544D01*
X147886445Y-77073418D01*
X147781628Y-77022000D01*
X147696650Y-76941909D01*
X147664843Y-76886514D01*
X147639712Y-76792007D01*
X147620645Y-76642954D01*
X147607032Y-76423920D01*
X147598262Y-76119469D01*
X147593724Y-75714167D01*
X147592807Y-75192578D01*
X147594900Y-74539267D01*
X147595635Y-74389723D01*
X147597160Y-74032330D01*
X148275242Y-74032330D01*
X148275242Y-75811252D01*
X149327313Y-75781322D01*
X149778745Y-75764825D01*
X150112423Y-75742044D01*
X150360876Y-75708564D01*
X150556636Y-75659971D01*
X150732232Y-75591851D01*
X150735943Y-75590178D01*
X151041390Y-75399275D01*
X151204216Y-75168508D01*
X151222666Y-74900535D01*
X151214639Y-74864176D01*
X151159801Y-74720085D01*
X151058994Y-74586195D01*
X150891331Y-74446115D01*
X150635926Y-74283451D01*
X150271892Y-74081813D01*
X150106774Y-73994721D01*
X149632351Y-73735516D01*
X149283695Y-73516511D01*
X149045941Y-73324885D01*
X148904223Y-73147817D01*
X148843674Y-72972486D01*
X148838851Y-72901228D01*
X148856333Y-72758286D01*
X148923928Y-72621387D01*
X149064361Y-72457767D01*
X149300360Y-72234659D01*
X149302545Y-72232682D01*
X149766239Y-71813063D01*
X149509202Y-71818887D01*
X149243591Y-71858034D01*
X148916469Y-71951354D01*
X148596028Y-72077082D01*
X148425538Y-72164744D01*
X148378022Y-72199453D01*
X148341729Y-72252788D01*
X148315151Y-72343476D01*
X148296782Y-72490244D01*
X148285113Y-72711817D01*
X148278638Y-73026923D01*
X148275850Y-73454288D01*
X148275242Y-74012638D01*
X148275242Y-74032330D01*
X147597160Y-74032330D01*
X147597244Y-74012638D01*
X147598582Y-73698934D01*
X147602391Y-73141911D01*
X147611246Y-72702165D01*
X147629334Y-72363203D01*
X147660839Y-72108533D01*
X147709948Y-71921665D01*
X147780845Y-71786105D01*
X147877717Y-71685364D01*
X148004749Y-71602948D01*
X148166126Y-71522367D01*
X148344922Y-71437426D01*
X148675092Y-71304746D01*
X149052276Y-71195801D01*
X149430005Y-71119985D01*
X149761809Y-71086691D01*
X149995384Y-71103799D01*
X150165915Y-71187583D01*
X150352306Y-71335118D01*
X150380523Y-71363365D01*
X150510751Y-71542838D01*
X150542136Y-71724561D01*
X150467683Y-71928737D01*
X150280400Y-72175566D01*
X150001344Y-72458725D01*
X149519294Y-72916517D01*
X149908138Y-73097482D01*
X150201433Y-73243718D01*
X150527905Y-73420580D01*
X150704240Y-73522678D01*
X150916909Y-73648952D01*
X151069529Y-73737184D01*
X151126018Y-73766909D01*
X151127657Y-73698972D01*
X151107156Y-73518749D01*
X151070358Y-73261624D01*
X151023103Y-72962979D01*
X150971232Y-72658196D01*
X150920586Y-72382659D01*
X150877006Y-72171751D01*
X150846333Y-72060854D01*
X150843490Y-72055460D01*
X150828861Y-71981777D01*
X151602405Y-71981777D01*
X151650485Y-72367095D01*
X151686483Y-72640879D01*
X151734611Y-72988033D01*
X151784374Y-73332881D01*
X151870182Y-73913349D01*
X152305537Y-73295307D01*
X152498668Y-73003421D01*
X152659163Y-72728009D01*
X152764398Y-72509543D01*
X152790708Y-72427420D01*
X152804429Y-72234368D01*
X152769215Y-72106704D01*
X152765148Y-72102200D01*
X152602858Y-72015883D01*
X152347683Y-71957742D01*
X152055925Y-71937760D01*
X151892670Y-71947525D01*
X151602405Y-71981777D01*
X150828861Y-71981777D01*
X150810886Y-71891245D01*
X150851147Y-71676620D01*
X150946775Y-71481268D01*
X151003614Y-71417863D01*
X151157237Y-71350509D01*
X151418900Y-71298593D01*
X151746896Y-71264691D01*
X152099521Y-71251375D01*
X152435070Y-71261220D01*
X152711836Y-71296800D01*
X152763952Y-71309205D01*
X153026459Y-71433705D01*
X153274953Y-71640360D01*
X153463474Y-71883743D01*
X153540713Y-72076923D01*
X153557545Y-72267964D01*
X153528708Y-72468617D01*
X153444357Y-72702047D01*
X153294651Y-72991417D01*
X153069746Y-73359892D01*
X152857854Y-73683981D01*
X152577813Y-74116462D01*
X152383954Y-74445215D01*
X152269633Y-74684718D01*
X152228207Y-74849449D01*
X152253032Y-74953886D01*
X152267341Y-74970827D01*
X152356948Y-75035825D01*
X152544361Y-75157205D01*
X152798026Y-75314836D01*
X152969395Y-75418737D01*
X153276972Y-75601754D01*
X153481907Y-75700526D01*
X153610347Y-75702236D01*
X153688440Y-75594066D01*
X153742331Y-75363199D01*
X153795651Y-75013691D01*
X153916846Y-74263087D01*
X153937113Y-74159605D01*
X154635404Y-74159605D01*
X154661163Y-74209957D01*
X154731905Y-74198652D01*
X154849561Y-74146676D01*
X154873735Y-74135593D01*
X154956295Y-74087647D01*
X155012017Y-74013604D01*
X155049092Y-73883234D01*
X155075711Y-73666309D01*
X155100063Y-73332598D01*
X155102782Y-73290179D01*
X155127331Y-72945870D01*
X155153814Y-72640467D01*
X155178296Y-72416678D01*
X155190437Y-72339098D01*
X155202898Y-72248057D01*
X155179544Y-72277812D01*
X155128418Y-72405408D01*
X155057562Y-72607885D01*
X154975017Y-72862287D01*
X154888827Y-73145657D01*
X154808733Y-73428743D01*
X154711120Y-73789985D01*
X154652700Y-74026610D01*
X154635404Y-74159605D01*
X153937113Y-74159605D01*
X154042309Y-73622477D01*
X154180891Y-73051632D01*
X154341445Y-72510321D01*
X154356909Y-72462794D01*
X154505805Y-72026532D01*
X154635124Y-71700034D01*
X154763167Y-71447618D01*
X154908232Y-71233602D01*
X155088619Y-71022303D01*
X155104405Y-71005223D01*
X155340577Y-70815550D01*
X155558951Y-70771118D01*
X155753695Y-70872850D01*
G37*
G36*
X158782061Y-70144470D02*
G01*
X158784305Y-70146939D01*
X158894339Y-70326055D01*
X158870081Y-70497874D01*
X158752102Y-70654950D01*
X158643200Y-70804072D01*
X158569342Y-70996623D01*
X158526535Y-71258343D01*
X158510789Y-71614975D01*
X158518112Y-72092260D01*
X158520084Y-72151229D01*
X158548821Y-72977856D01*
X158685929Y-72440320D01*
X158856703Y-71890125D01*
X159069522Y-71443047D01*
X159347316Y-71053130D01*
X159419177Y-70970734D01*
X159768676Y-70622478D01*
X160086818Y-70384529D01*
X160362348Y-70262279D01*
X160584008Y-70261123D01*
X160714302Y-70350182D01*
X160795839Y-70419282D01*
X160884881Y-70388928D01*
X160972577Y-70312608D01*
X161141848Y-70185318D01*
X161276379Y-70183631D01*
X161423565Y-70307277D01*
X161426073Y-70310042D01*
X161471675Y-70371135D01*
X161504710Y-70452883D01*
X161526311Y-70576242D01*
X161537612Y-70762165D01*
X161539746Y-71031609D01*
X161533848Y-71405528D01*
X161521051Y-71904877D01*
X161518073Y-72010722D01*
X161474113Y-73561167D01*
X161857680Y-73515739D01*
X162093786Y-73474548D01*
X162270405Y-73419891D01*
X162322150Y-73388943D01*
X162353803Y-73279535D01*
X162377942Y-73026883D01*
X162394204Y-72637870D01*
X162402226Y-72119377D01*
X162403052Y-71854778D01*
X162404192Y-71347770D01*
X162408908Y-70969135D01*
X162419148Y-70696957D01*
X162436858Y-70509321D01*
X162463986Y-70384315D01*
X162502478Y-70300021D01*
X162546208Y-70243322D01*
X162681114Y-70126741D01*
X162781238Y-70084661D01*
X162873734Y-70101533D01*
X162945105Y-70163696D01*
X162998546Y-70288470D01*
X163037256Y-70493174D01*
X163064432Y-70795129D01*
X163083272Y-71211652D01*
X163096973Y-71760065D01*
X163097728Y-71798918D01*
X163110511Y-72338912D01*
X163126378Y-72746521D01*
X163146859Y-73039646D01*
X163173485Y-73236189D01*
X163207784Y-73354053D01*
X163234249Y-73396218D01*
X163331158Y-73550467D01*
X163298619Y-73689069D01*
X163192106Y-73804483D01*
X163094044Y-73980543D01*
X163045159Y-74265031D01*
X163047304Y-74623723D01*
X163102331Y-75022397D01*
X163121415Y-75110760D01*
X163160390Y-75334484D01*
X163141834Y-75475481D01*
X163070357Y-75580434D01*
X162883095Y-75705665D01*
X162690497Y-75681622D01*
X162556926Y-75574413D01*
X162478831Y-75434591D01*
X162424579Y-75200804D01*
X162388393Y-74846781D01*
X162384788Y-74791738D01*
X162345089Y-74155407D01*
X162073479Y-74191470D01*
X161786816Y-74229478D01*
X161607433Y-74271894D01*
X161510341Y-74350174D01*
X161470551Y-74495777D01*
X161463073Y-74740159D01*
X161463703Y-74959061D01*
X161458306Y-75295438D01*
X161438172Y-75515667D01*
X161397389Y-75653635D01*
X161330044Y-75743229D01*
X161326277Y-75746682D01*
X161161378Y-75856429D01*
X161022780Y-75833751D01*
X160911741Y-75733625D01*
X160847900Y-75625461D01*
X160809152Y-75452406D01*
X160790728Y-75183133D01*
X160787372Y-74916199D01*
X160780300Y-74558791D01*
X160756541Y-74324931D01*
X160712276Y-74188422D01*
X160674650Y-74142649D01*
X160571418Y-74002065D01*
X160609185Y-73849735D01*
X160671038Y-73770901D01*
X160712326Y-73689426D01*
X160746352Y-73534199D01*
X160774832Y-73288213D01*
X160799479Y-72934466D01*
X160822007Y-72455952D01*
X160833041Y-72163776D01*
X160885934Y-70677217D01*
X160605783Y-70850613D01*
X160172135Y-71163142D01*
X159840267Y-71513134D01*
X159589026Y-71931988D01*
X159397256Y-72451105D01*
X159315110Y-72766408D01*
X159252013Y-73131925D01*
X159211551Y-73564717D01*
X159194117Y-74022762D01*
X159200107Y-74464040D01*
X159229915Y-74846528D01*
X159283935Y-75128205D01*
X159292697Y-75155058D01*
X159430524Y-75413899D01*
X159611529Y-75563526D01*
X159810606Y-75588532D01*
X159922152Y-75541372D01*
X160164119Y-75386000D01*
X160315006Y-75302668D01*
X160410382Y-75282489D01*
X160485815Y-75316579D01*
X160561032Y-75381779D01*
X160681554Y-75554124D01*
X160664599Y-75737338D01*
X160507030Y-75941686D01*
X160349429Y-76074353D01*
X160021654Y-76264353D01*
X159708431Y-76315509D01*
X159395512Y-76225611D01*
X159068648Y-75992453D01*
X158926206Y-75853803D01*
X158676284Y-75497226D01*
X158545895Y-75064741D01*
X158523428Y-74819476D01*
X158511388Y-74748788D01*
X158487722Y-74817049D01*
X158455560Y-75013638D01*
X158446860Y-75079242D01*
X158375966Y-75546994D01*
X158294063Y-75895314D01*
X158190567Y-76155065D01*
X158054893Y-76357110D01*
X157981379Y-76436576D01*
X157743881Y-76673013D01*
X157980611Y-76981945D01*
X158150004Y-77263387D01*
X158324462Y-77660686D01*
X158491615Y-78140416D01*
X158639094Y-78669155D01*
X158695825Y-78914542D01*
X158752911Y-79306426D01*
X158783539Y-79797357D01*
X158788772Y-80342258D01*
X158769673Y-80896050D01*
X158727306Y-81413654D01*
X158662736Y-81849992D01*
X158622472Y-82023544D01*
X158417513Y-82582147D01*
X158142041Y-83051456D01*
X157810391Y-83421325D01*
X157436899Y-83681603D01*
X157035899Y-83822143D01*
X156621726Y-83832795D01*
X156232989Y-83715208D01*
X155972922Y-83540985D01*
X155681841Y-83263765D01*
X155389853Y-82917857D01*
X155127066Y-82537569D01*
X154993889Y-82303217D01*
X154865894Y-82064950D01*
X154762783Y-81890003D01*
X154704200Y-81811393D01*
X154700390Y-81809954D01*
X154649876Y-81872830D01*
X154564672Y-82030340D01*
X154517722Y-82129055D01*
X154345695Y-82409106D01*
X154080929Y-82729324D01*
X153760319Y-83053827D01*
X153420763Y-83346734D01*
X153099157Y-83572163D01*
X152954373Y-83649391D01*
X152281538Y-83878976D01*
X151576635Y-83974396D01*
X150875225Y-83931448D01*
X150755123Y-83909319D01*
X150361303Y-83800361D01*
X149988916Y-83628844D01*
X149588055Y-83370378D01*
X149461016Y-83276927D01*
X148963748Y-82813774D01*
X148584378Y-82270419D01*
X148326794Y-81664592D01*
X148194885Y-81014024D01*
X148194106Y-80788658D01*
X148864020Y-80788658D01*
X148956124Y-81354139D01*
X149183782Y-81933543D01*
X149301916Y-82155907D01*
X149509794Y-82470286D01*
X149750454Y-82707445D01*
X150068972Y-82906182D01*
X150302411Y-83017039D01*
X150859437Y-83208951D01*
X151404581Y-83276836D01*
X151973441Y-83221749D01*
X152493507Y-83081931D01*
X152996552Y-82841054D01*
X153425740Y-82491189D01*
X153768421Y-82056619D01*
X154011942Y-81561630D01*
X154143654Y-81030503D01*
X154150905Y-80487524D01*
X154061970Y-80071233D01*
X153939279Y-79743742D01*
X153804886Y-79466088D01*
X153675735Y-79268092D01*
X153568771Y-79179575D01*
X153554172Y-79177560D01*
X153415027Y-79118908D01*
X153276296Y-78984143D01*
X153198165Y-78835048D01*
X153195108Y-78808960D01*
X153130886Y-78688947D01*
X152960354Y-78523263D01*
X152711485Y-78333743D01*
X152412251Y-78142223D01*
X152173057Y-78011144D01*
X151719070Y-77860633D01*
X151237481Y-77840958D01*
X150750209Y-77941054D01*
X150279174Y-78149855D01*
X149846294Y-78456294D01*
X149473487Y-78849305D01*
X149182674Y-79317822D01*
X149075555Y-79574979D01*
X148904740Y-80205978D01*
X148864020Y-80788658D01*
X148194106Y-80788658D01*
X148192542Y-80336446D01*
X148323652Y-79649588D01*
X148539998Y-79077927D01*
X148722609Y-78773318D01*
X148989187Y-78430274D01*
X149299559Y-78092921D01*
X149613550Y-77805386D01*
X149857871Y-77630404D01*
X150048940Y-77509196D01*
X150128662Y-77422332D01*
X150120384Y-77337469D01*
X150098116Y-77297565D01*
X150053341Y-77167666D01*
X150118650Y-77038787D01*
X150150136Y-77002474D01*
X150341293Y-76892724D01*
X150636000Y-76848076D01*
X151002220Y-76868788D01*
X151407913Y-76955120D01*
X151525091Y-76991376D01*
X151827243Y-77080683D01*
X152131524Y-77153676D01*
X152283765Y-77181236D01*
X152754373Y-77312023D01*
X153180091Y-77570414D01*
X153482614Y-77854458D01*
X153798615Y-78197279D01*
X153798615Y-77609421D01*
X153805708Y-77290694D01*
X153831655Y-77085524D01*
X153883452Y-76957641D01*
X153936041Y-76897195D01*
X154107550Y-76782329D01*
X154243918Y-76786525D01*
X154348820Y-76916306D01*
X154425931Y-77178191D01*
X154478926Y-77578701D01*
X154501314Y-77900045D01*
X154566553Y-78605180D01*
X154682815Y-79312047D01*
X154843246Y-80004862D01*
X155040991Y-80667840D01*
X155269196Y-81285198D01*
X155521009Y-81841152D01*
X155789574Y-82319917D01*
X156068038Y-82705708D01*
X156349547Y-82982743D01*
X156627248Y-83135236D01*
X156785501Y-83160400D01*
X157130243Y-83089139D01*
X157427865Y-82876433D01*
X157677319Y-82523895D01*
X157877558Y-82033141D01*
X158027533Y-81405785D01*
X158062273Y-81193166D01*
X158125990Y-80327641D01*
X158069747Y-79447777D01*
X157900115Y-78585885D01*
X157623667Y-77774273D01*
X157246976Y-77045250D01*
X157205212Y-76979922D01*
X157119747Y-76831876D01*
X157124875Y-76735479D01*
X157225989Y-76618568D01*
X157232716Y-76611834D01*
X157339291Y-76485157D01*
X157341208Y-76381833D01*
X157282979Y-76279628D01*
X157224145Y-76126301D01*
X157167634Y-75871452D01*
X157123645Y-75563652D01*
X157115692Y-75482924D01*
X157060013Y-74856554D01*
X156999408Y-75495312D01*
X156935875Y-75926724D01*
X156841486Y-76221026D01*
X156718524Y-76375292D01*
X156569274Y-76386594D01*
X156402865Y-76259661D01*
X156356495Y-76196110D01*
X156322075Y-76111865D01*
X156300637Y-75994149D01*
X156293208Y-75830186D01*
X156300819Y-75607199D01*
X156324499Y-75312411D01*
X156365277Y-74933045D01*
X156424183Y-74456325D01*
X156502247Y-73869474D01*
X156600497Y-73159716D01*
X156719963Y-72314273D01*
X156721775Y-72301525D01*
X156770053Y-71934176D01*
X156816810Y-71533618D01*
X156843359Y-71275143D01*
X156904154Y-70918533D01*
X157004678Y-70674234D01*
X157136856Y-70554224D01*
X157292612Y-70570481D01*
X157311157Y-70581303D01*
X157387099Y-70638252D01*
X157446006Y-70714783D01*
X157491898Y-70831788D01*
X157528798Y-71010159D01*
X157560727Y-71270787D01*
X157591707Y-71634565D01*
X157625760Y-72122384D01*
X157635080Y-72263951D01*
X157679164Y-72903815D01*
X157717885Y-73394011D01*
X157751201Y-73734475D01*
X157779070Y-73925143D01*
X157801448Y-73965949D01*
X157818294Y-73856832D01*
X157829564Y-73597725D01*
X157835216Y-73188566D01*
X157835207Y-72629290D01*
X157834891Y-72564542D01*
X157832710Y-71975401D01*
X157835431Y-71515526D01*
X157846483Y-71163895D01*
X157869295Y-70899486D01*
X157907298Y-70701277D01*
X157963921Y-70548245D01*
X158042594Y-70419368D01*
X158146746Y-70293623D01*
X158218010Y-70216169D01*
X158425171Y-70048945D01*
X158608616Y-70025604D01*
X158782061Y-70144470D01*
G37*
D12*
%TO.C,C11*%
X156227500Y-46238748D02*
X156227500Y-46761252D01*
X157697500Y-46238748D02*
X157697500Y-46761252D01*
%TO.C,J1*%
X143670000Y-42010000D02*
X145000000Y-42010000D01*
X143670000Y-43340000D02*
X143670000Y-42010000D01*
X143670000Y-44610000D02*
X143670000Y-54830000D01*
X143670000Y-44610000D02*
X146330000Y-44610000D01*
X143670000Y-54830000D02*
X146330000Y-54830000D01*
X146330000Y-44610000D02*
X146330000Y-54830000D01*
%TO.C,C10*%
X161201248Y-45765000D02*
X161723752Y-45765000D01*
X161201248Y-47235000D02*
X161723752Y-47235000D01*
%TO.C,D5*%
X165165000Y-61540000D02*
X165165000Y-63460000D01*
X165165000Y-63460000D02*
X168025000Y-63460000D01*
X168025000Y-61540000D02*
X165165000Y-61540000D01*
%TO.C,C9*%
X156701248Y-42265000D02*
X157223752Y-42265000D01*
X156701248Y-43735000D02*
X157223752Y-43735000D01*
%TO.C,J2*%
X131280000Y-47000000D02*
X131280000Y-48000000D01*
X131280000Y-48000000D02*
X132280000Y-47500000D01*
X132280000Y-47500000D02*
X131280000Y-47000000D01*
X132670000Y-42290000D02*
X141790000Y-42290000D01*
X132670000Y-50530000D02*
X133980000Y-50530000D01*
X132670000Y-62870000D02*
X132670000Y-42290000D01*
X133980000Y-43590000D02*
X140480000Y-43590000D01*
X133980000Y-50530000D02*
X133980000Y-43590000D01*
X133980000Y-54630000D02*
X132670000Y-54630000D01*
X133980000Y-54630000D02*
X133980000Y-54630000D01*
X133980000Y-61570000D02*
X133980000Y-54630000D01*
X140480000Y-43590000D02*
X140480000Y-61570000D01*
X140480000Y-61570000D02*
X133980000Y-61570000D01*
X141790000Y-42290000D02*
X141790000Y-62870000D01*
X141790000Y-62870000D02*
X132670000Y-62870000D01*
D13*
%TO.C,logoH*%
G36*
X174348605Y-56497154D02*
G01*
X174348605Y-56838674D01*
X174256494Y-56838674D01*
X174164383Y-56838674D01*
X174164383Y-56730990D01*
X174164383Y-56623306D01*
X173907180Y-56622582D01*
X173649977Y-56621859D01*
X173649239Y-56497863D01*
X173648501Y-56373867D01*
X173906442Y-56373867D01*
X174164383Y-56373867D01*
X174164383Y-56264751D01*
X174164383Y-56155635D01*
X174256494Y-56155635D01*
X174348605Y-56155635D01*
X174348605Y-56497154D01*
G37*
G36*
X173776587Y-56739700D02*
G01*
X173794731Y-56743276D01*
X173810964Y-56749820D01*
X173824489Y-56758045D01*
X173839105Y-56771462D01*
X173850897Y-56788923D01*
X173859820Y-56809528D01*
X173865829Y-56832382D01*
X173868879Y-56856586D01*
X173868926Y-56881243D01*
X173865925Y-56905455D01*
X173859831Y-56928326D01*
X173850599Y-56948957D01*
X173838185Y-56966452D01*
X173835049Y-56969764D01*
X173818433Y-56983183D01*
X173799223Y-56992445D01*
X173776404Y-56998029D01*
X173774397Y-56998330D01*
X173748996Y-56999627D01*
X173724721Y-56996300D01*
X173702467Y-56988614D01*
X173683131Y-56976833D01*
X173674054Y-56968694D01*
X173660731Y-56951112D01*
X173650650Y-56929596D01*
X173643991Y-56904984D01*
X173640939Y-56878113D01*
X173641673Y-56849821D01*
X173644199Y-56831450D01*
X173651347Y-56805764D01*
X173662777Y-56783704D01*
X173678436Y-56765375D01*
X173678909Y-56764939D01*
X173693604Y-56753329D01*
X173708814Y-56745424D01*
X173725961Y-56740732D01*
X173746466Y-56738761D01*
X173754842Y-56738622D01*
X173776587Y-56739700D01*
G37*
G36*
X174348605Y-54001651D02*
G01*
X174348605Y-54126355D01*
X174221066Y-54126355D01*
X174093528Y-54126355D01*
X174093528Y-54219884D01*
X174093528Y-54313412D01*
X174221066Y-54313412D01*
X174348605Y-54313412D01*
X174348605Y-54438116D01*
X174348605Y-54562820D01*
X173998553Y-54562820D01*
X173648501Y-54562820D01*
X173649239Y-54438825D01*
X173649977Y-54314829D01*
X173779641Y-54314092D01*
X173909306Y-54313355D01*
X173909306Y-54219855D01*
X173909306Y-54126355D01*
X173778933Y-54126355D01*
X173648560Y-54126355D01*
X173648560Y-54003541D01*
X173648603Y-53977687D01*
X173648723Y-53953598D01*
X173648914Y-53931862D01*
X173649165Y-53913068D01*
X173649468Y-53897803D01*
X173649814Y-53886656D01*
X173650195Y-53880215D01*
X173650450Y-53878836D01*
X173653469Y-53878598D01*
X173661811Y-53878368D01*
X173675132Y-53878149D01*
X173693087Y-53877942D01*
X173715331Y-53877749D01*
X173741519Y-53877573D01*
X173771307Y-53877415D01*
X173804349Y-53877276D01*
X173840300Y-53877159D01*
X173878816Y-53877066D01*
X173919553Y-53876999D01*
X173962164Y-53876958D01*
X174000472Y-53876947D01*
X174348605Y-53876947D01*
X174348605Y-54001651D01*
G37*
G36*
X174348522Y-52585265D02*
G01*
X174348439Y-52719181D01*
X174184848Y-52804617D01*
X174155496Y-52819904D01*
X174126741Y-52834801D01*
X174099123Y-52849033D01*
X174073184Y-52862323D01*
X174049467Y-52874397D01*
X174028513Y-52884978D01*
X174010863Y-52893792D01*
X173997060Y-52900561D01*
X173987646Y-52905011D01*
X173986584Y-52905489D01*
X173951913Y-52920925D01*
X174150259Y-52919564D01*
X174348605Y-52918202D01*
X174348605Y-53026296D01*
X174348605Y-53134389D01*
X173998583Y-53134389D01*
X173648560Y-53134389D01*
X173648609Y-53000474D01*
X173648658Y-52866558D01*
X173810866Y-52781328D01*
X173840186Y-52765972D01*
X173868999Y-52750978D01*
X173896751Y-52736627D01*
X173922887Y-52723203D01*
X173946851Y-52710988D01*
X173968087Y-52700265D01*
X173986041Y-52691318D01*
X174000156Y-52684430D01*
X174009879Y-52679882D01*
X174010639Y-52679544D01*
X174023865Y-52673668D01*
X174034950Y-52668649D01*
X174043004Y-52664898D01*
X174047135Y-52662826D01*
X174047484Y-52662555D01*
X174044570Y-52662518D01*
X174036812Y-52662658D01*
X174025030Y-52662953D01*
X174010046Y-52663383D01*
X173992680Y-52663926D01*
X173984412Y-52664198D01*
X173968286Y-52664639D01*
X173947426Y-52665060D01*
X173922765Y-52665448D01*
X173895236Y-52665793D01*
X173865772Y-52666084D01*
X173835309Y-52666310D01*
X173804778Y-52666461D01*
X173785310Y-52666513D01*
X173648560Y-52666748D01*
X173648560Y-52559049D01*
X173648560Y-52451350D01*
X173998583Y-52451350D01*
X174348605Y-52451350D01*
X174348522Y-52585265D01*
G37*
G36*
X174348605Y-55546284D02*
G01*
X174348605Y-55670988D01*
X174132498Y-55671037D01*
X174090102Y-55671058D01*
X174052977Y-55671113D01*
X174020727Y-55671221D01*
X173992955Y-55671401D01*
X173969263Y-55671674D01*
X173949256Y-55672057D01*
X173932535Y-55672571D01*
X173918705Y-55673235D01*
X173907367Y-55674068D01*
X173898126Y-55675089D01*
X173890584Y-55676318D01*
X173884345Y-55677775D01*
X173879012Y-55679477D01*
X173874187Y-55681445D01*
X173869474Y-55683699D01*
X173869163Y-55683855D01*
X173852407Y-55695284D01*
X173839773Y-55710492D01*
X173831403Y-55729222D01*
X173827437Y-55751217D01*
X173827114Y-55760265D01*
X173829390Y-55783420D01*
X173836123Y-55803406D01*
X173847173Y-55819966D01*
X173862398Y-55832844D01*
X173869163Y-55836675D01*
X173873882Y-55838948D01*
X173878688Y-55840934D01*
X173883976Y-55842653D01*
X173890145Y-55844125D01*
X173897590Y-55845368D01*
X173906709Y-55846402D01*
X173917898Y-55847247D01*
X173931555Y-55847921D01*
X173948076Y-55848444D01*
X173967859Y-55848836D01*
X173991300Y-55849114D01*
X174018795Y-55849300D01*
X174050743Y-55849412D01*
X174087540Y-55849470D01*
X174129582Y-55849492D01*
X174132498Y-55849493D01*
X174348605Y-55849542D01*
X174348605Y-55974246D01*
X174348605Y-56098951D01*
X174148086Y-56098886D01*
X174113810Y-56098837D01*
X174080394Y-56098717D01*
X174048396Y-56098531D01*
X174018378Y-56098286D01*
X173990899Y-56097990D01*
X173966519Y-56097647D01*
X173945800Y-56097266D01*
X173929301Y-56096853D01*
X173917582Y-56096413D01*
X173913167Y-56096146D01*
X173869403Y-56090754D01*
X173829859Y-56081664D01*
X173794387Y-56068785D01*
X173762838Y-56052030D01*
X173735062Y-56031308D01*
X173710910Y-56006530D01*
X173690231Y-55977608D01*
X173678225Y-55955824D01*
X173666391Y-55929655D01*
X173657026Y-55903478D01*
X173649940Y-55876310D01*
X173644949Y-55847164D01*
X173641864Y-55815058D01*
X173640499Y-55779004D01*
X173640416Y-55756625D01*
X173640662Y-55737814D01*
X173641127Y-55719495D01*
X173641761Y-55702979D01*
X173642515Y-55689575D01*
X173643298Y-55680908D01*
X173650776Y-55639126D01*
X173662106Y-55600313D01*
X173677099Y-55564842D01*
X173695567Y-55533085D01*
X173717319Y-55505414D01*
X173742166Y-55482204D01*
X173745718Y-55479454D01*
X173773697Y-55461480D01*
X173805828Y-55446524D01*
X173841287Y-55434885D01*
X173879250Y-55426865D01*
X173895994Y-55424619D01*
X173904562Y-55424004D01*
X173918525Y-55423450D01*
X173937607Y-55422961D01*
X173961535Y-55422541D01*
X173990034Y-55422191D01*
X174022831Y-55421917D01*
X174059650Y-55421722D01*
X174100219Y-55421609D01*
X174135929Y-55421580D01*
X174348605Y-55421580D01*
X174348605Y-55546284D01*
G37*
G36*
X173999617Y-54645323D02*
G01*
X174026018Y-54645951D01*
X174052175Y-54647477D01*
X174075864Y-54649844D01*
X174095570Y-54653016D01*
X174096926Y-54653302D01*
X174141195Y-54665299D01*
X174181443Y-54681291D01*
X174217661Y-54701269D01*
X174249842Y-54725223D01*
X174277975Y-54753142D01*
X174302051Y-54785019D01*
X174322062Y-54820842D01*
X174337998Y-54860602D01*
X174349851Y-54904290D01*
X174354604Y-54929848D01*
X174356471Y-54946427D01*
X174357640Y-54967078D01*
X174358128Y-54990253D01*
X174357949Y-55014401D01*
X174357119Y-55037971D01*
X174355654Y-55059414D01*
X174353569Y-55077179D01*
X174353096Y-55080060D01*
X174348196Y-55103094D01*
X174341455Y-55127661D01*
X174333511Y-55151756D01*
X174325002Y-55173372D01*
X174320054Y-55183994D01*
X174299454Y-55218836D01*
X174274629Y-55249998D01*
X174245768Y-55277349D01*
X174213063Y-55300762D01*
X174176705Y-55320105D01*
X174136886Y-55335251D01*
X174093797Y-55346069D01*
X174075623Y-55349166D01*
X174055627Y-55351375D01*
X174031821Y-55352796D01*
X174005901Y-55353428D01*
X173979563Y-55353271D01*
X173954504Y-55352322D01*
X173932418Y-55350581D01*
X173922059Y-55349271D01*
X173880626Y-55340826D01*
X173841002Y-55328354D01*
X173804226Y-55312240D01*
X173772917Y-55293938D01*
X173747962Y-55274446D01*
X173724047Y-55250559D01*
X173702255Y-55223552D01*
X173683666Y-55194699D01*
X173675561Y-55179257D01*
X173665335Y-55156490D01*
X173657267Y-55134587D01*
X173651130Y-55112411D01*
X173646696Y-55088830D01*
X173643739Y-55062710D01*
X173642030Y-55032916D01*
X173641454Y-55009205D01*
X173641333Y-54998063D01*
X173827239Y-54998063D01*
X173827863Y-55011036D01*
X173829611Y-55024338D01*
X173831600Y-55033200D01*
X173838797Y-55048543D01*
X173850412Y-55062939D01*
X173865205Y-55075147D01*
X173881932Y-55083921D01*
X173882469Y-55084125D01*
X173897497Y-55089296D01*
X173912215Y-55093218D01*
X173927751Y-55096042D01*
X173945232Y-55097914D01*
X173965784Y-55098985D01*
X173990535Y-55099401D01*
X173998583Y-55099421D01*
X174031488Y-55098818D01*
X174059466Y-55096913D01*
X174083138Y-55093563D01*
X174103127Y-55088625D01*
X174120055Y-55081953D01*
X174134542Y-55073406D01*
X174144021Y-55065820D01*
X174157076Y-55051400D01*
X174165559Y-55035275D01*
X174169930Y-55016361D01*
X174170779Y-55002423D01*
X174168788Y-54978502D01*
X174162245Y-54957876D01*
X174151091Y-54940472D01*
X174135263Y-54926215D01*
X174114703Y-54915034D01*
X174092111Y-54907542D01*
X174072915Y-54903665D01*
X174049901Y-54900689D01*
X174024869Y-54898751D01*
X173999617Y-54897992D01*
X173975945Y-54898550D01*
X173975909Y-54898552D01*
X173940877Y-54901674D01*
X173910972Y-54906853D01*
X173885987Y-54914226D01*
X173865714Y-54923933D01*
X173849946Y-54936112D01*
X173838475Y-54950903D01*
X173831095Y-54968444D01*
X173827598Y-54988874D01*
X173827239Y-54998063D01*
X173641333Y-54998063D01*
X173641251Y-54990447D01*
X173641177Y-54973154D01*
X173641227Y-54958287D01*
X173641395Y-54946810D01*
X173641678Y-54939684D01*
X173641809Y-54938350D01*
X173650900Y-54891717D01*
X173664108Y-54848963D01*
X173681395Y-54810128D01*
X173702725Y-54775249D01*
X173728059Y-54744366D01*
X173757359Y-54717515D01*
X173790588Y-54694737D01*
X173827708Y-54676067D01*
X173868681Y-54661546D01*
X173913471Y-54651211D01*
X173926978Y-54649031D01*
X173947872Y-54646807D01*
X173972353Y-54645579D01*
X173998906Y-54645306D01*
X173999617Y-54645323D01*
G37*
G36*
X174107699Y-50742334D02*
G01*
X174348918Y-50742334D01*
X174347797Y-50965526D01*
X174347581Y-51008202D01*
X174347370Y-51045641D01*
X174347134Y-51078275D01*
X174346846Y-51106535D01*
X174346475Y-51130851D01*
X174345994Y-51151657D01*
X174345371Y-51169382D01*
X174344580Y-51184458D01*
X174343590Y-51197318D01*
X174342372Y-51208391D01*
X174340898Y-51218110D01*
X174339139Y-51226906D01*
X174337064Y-51235210D01*
X174334647Y-51243454D01*
X174331856Y-51252069D01*
X174328663Y-51261486D01*
X174327666Y-51264405D01*
X174318925Y-51287333D01*
X174309289Y-51306507D01*
X174297582Y-51323838D01*
X174282628Y-51341233D01*
X174276333Y-51347768D01*
X174255570Y-51366406D01*
X174233814Y-51380715D01*
X174209432Y-51391642D01*
X174190275Y-51397692D01*
X174174591Y-51400824D01*
X174155227Y-51402921D01*
X174133829Y-51403969D01*
X174112042Y-51403955D01*
X174091510Y-51402862D01*
X174073878Y-51400678D01*
X174065186Y-51398786D01*
X174036575Y-51388722D01*
X174011943Y-51375054D01*
X173990856Y-51357399D01*
X173972883Y-51335372D01*
X173957591Y-51308589D01*
X173953374Y-51299366D01*
X173948469Y-51288574D01*
X173945123Y-51282558D01*
X173942956Y-51280769D01*
X173941680Y-51282378D01*
X173930181Y-51308277D01*
X173914956Y-51330018D01*
X173896131Y-51347468D01*
X173873829Y-51360494D01*
X173863957Y-51364439D01*
X173857327Y-51366273D01*
X173846178Y-51368799D01*
X173831584Y-51371798D01*
X173814621Y-51375049D01*
X173796362Y-51378334D01*
X173793195Y-51378882D01*
X173764861Y-51383892D01*
X173741376Y-51388379D01*
X173721962Y-51392532D01*
X173705847Y-51396541D01*
X173692252Y-51400595D01*
X173680405Y-51404884D01*
X173671882Y-51408511D01*
X173662510Y-51412406D01*
X173655101Y-51414835D01*
X173651172Y-51415304D01*
X173651072Y-51415255D01*
X173650547Y-51412177D01*
X173650060Y-51403981D01*
X173649624Y-51391216D01*
X173649248Y-51374431D01*
X173648944Y-51354176D01*
X173648721Y-51331001D01*
X173648591Y-51305456D01*
X173648560Y-51285024D01*
X173648560Y-51156345D01*
X173663440Y-51151814D01*
X173671038Y-51149993D01*
X173683056Y-51147699D01*
X173698284Y-51145139D01*
X173715513Y-51142516D01*
X173732169Y-51140212D01*
X173761320Y-51136215D01*
X173785441Y-51132475D01*
X173805154Y-51128811D01*
X173821080Y-51125040D01*
X173833842Y-51120981D01*
X173844061Y-51116452D01*
X173852359Y-51111270D01*
X173859357Y-51105255D01*
X173862329Y-51102138D01*
X173867992Y-51095121D01*
X173872247Y-51087680D01*
X173875331Y-51078820D01*
X173877485Y-51067543D01*
X173878949Y-51052854D01*
X173879961Y-51033757D01*
X173880182Y-51027878D01*
X173881665Y-50986074D01*
X174045347Y-50986074D01*
X174045347Y-51043661D01*
X174045470Y-51065845D01*
X174045871Y-51083182D01*
X174046600Y-51096484D01*
X174047707Y-51106569D01*
X174049240Y-51114250D01*
X174049720Y-51115972D01*
X174056516Y-51132113D01*
X174066263Y-51143865D01*
X174079425Y-51151541D01*
X174096469Y-51155453D01*
X174109553Y-51156126D01*
X174126974Y-51153997D01*
X174142257Y-51147984D01*
X174154184Y-51138642D01*
X174157770Y-51134057D01*
X174161768Y-51126858D01*
X174164846Y-51118272D01*
X174167106Y-51107525D01*
X174168650Y-51093844D01*
X174169581Y-51076455D01*
X174170001Y-51054584D01*
X174170051Y-51041201D01*
X174170051Y-50986074D01*
X174107699Y-50986074D01*
X174045347Y-50986074D01*
X173881665Y-50986074D01*
X173765113Y-50986074D01*
X173648560Y-50986074D01*
X173648560Y-50864204D01*
X173648560Y-50742334D01*
X173998739Y-50742334D01*
X174107699Y-50742334D01*
G37*
G36*
X173862542Y-49999777D02*
G01*
X173998588Y-49999777D01*
X174127356Y-49999777D01*
X174348932Y-49999777D01*
X174347755Y-50234306D01*
X174347536Y-50277560D01*
X174347325Y-50315565D01*
X174347100Y-50348736D01*
X174346837Y-50377494D01*
X174346515Y-50402255D01*
X174346110Y-50423437D01*
X174345599Y-50441458D01*
X174344959Y-50456737D01*
X174344168Y-50469691D01*
X174343203Y-50480738D01*
X174342041Y-50490296D01*
X174340659Y-50498783D01*
X174339034Y-50506617D01*
X174337143Y-50514216D01*
X174334964Y-50521997D01*
X174332474Y-50530380D01*
X174331377Y-50534021D01*
X174320521Y-50562731D01*
X174306265Y-50588748D01*
X174289150Y-50611345D01*
X174269716Y-50629797D01*
X174250825Y-50642190D01*
X174225550Y-50652710D01*
X174197756Y-50659361D01*
X174168754Y-50662102D01*
X174139853Y-50660892D01*
X174112365Y-50655691D01*
X174089136Y-50647199D01*
X174079519Y-50641612D01*
X174068035Y-50633417D01*
X174056725Y-50624107D01*
X174053457Y-50621117D01*
X174034693Y-50599577D01*
X174019621Y-50573979D01*
X174008489Y-50544772D01*
X174006182Y-50536288D01*
X174001076Y-50515882D01*
X173994845Y-50543374D01*
X173985291Y-50575365D01*
X173972103Y-50603500D01*
X173955481Y-50627556D01*
X173935626Y-50647310D01*
X173912739Y-50662539D01*
X173887021Y-50673019D01*
X173875641Y-50675905D01*
X173848552Y-50679492D01*
X173819995Y-50679438D01*
X173791652Y-50675926D01*
X173765208Y-50669138D01*
X173747757Y-50662067D01*
X173726159Y-50648533D01*
X173706515Y-50630209D01*
X173689372Y-50607796D01*
X173675276Y-50581995D01*
X173665769Y-50556858D01*
X173663171Y-50548287D01*
X173660881Y-50540334D01*
X173658880Y-50532594D01*
X173657145Y-50524661D01*
X173655656Y-50516132D01*
X173654390Y-50506601D01*
X173653328Y-50495663D01*
X173652447Y-50482915D01*
X173651726Y-50467951D01*
X173651145Y-50450366D01*
X173650681Y-50429756D01*
X173650314Y-50405716D01*
X173650022Y-50377841D01*
X173649785Y-50345726D01*
X173649580Y-50308968D01*
X173649386Y-50267160D01*
X173649281Y-50242808D01*
X173649260Y-50237848D01*
X173812943Y-50237848D01*
X173812943Y-50308189D01*
X173813030Y-50332362D01*
X173813315Y-50351566D01*
X173813833Y-50366496D01*
X173814617Y-50377849D01*
X173815702Y-50386320D01*
X173817124Y-50392606D01*
X173817143Y-50392672D01*
X173823753Y-50407466D01*
X173833590Y-50417701D01*
X173846932Y-50423579D01*
X173862662Y-50425310D01*
X173878520Y-50423385D01*
X173890898Y-50417401D01*
X173900127Y-50407044D01*
X173906535Y-50392001D01*
X173909060Y-50381163D01*
X173909975Y-50373303D01*
X173910781Y-50360889D01*
X173911437Y-50345035D01*
X173911899Y-50326855D01*
X173912125Y-50307462D01*
X173912140Y-50301097D01*
X173912140Y-50237848D01*
X174078992Y-50237848D01*
X174079883Y-50306577D01*
X174080199Y-50328340D01*
X174080554Y-50345196D01*
X174081014Y-50357909D01*
X174081640Y-50367242D01*
X174082498Y-50373956D01*
X174083651Y-50378815D01*
X174085163Y-50382581D01*
X174086442Y-50384930D01*
X174094340Y-50395785D01*
X174103464Y-50402480D01*
X174115270Y-50405778D01*
X174127538Y-50406483D01*
X174142471Y-50405381D01*
X174153477Y-50401535D01*
X174161961Y-50394134D01*
X174169324Y-50382369D01*
X174169342Y-50382334D01*
X174171380Y-50378082D01*
X174172931Y-50373795D01*
X174174061Y-50368659D01*
X174174836Y-50361859D01*
X174175324Y-50352578D01*
X174175589Y-50340003D01*
X174175699Y-50323317D01*
X174175719Y-50303851D01*
X174175719Y-50237848D01*
X174127356Y-50237848D01*
X174078992Y-50237848D01*
X173912140Y-50237848D01*
X173862542Y-50237848D01*
X173812943Y-50237848D01*
X173649260Y-50237848D01*
X173648243Y-49999777D01*
X173862542Y-49999777D01*
G37*
G36*
X173800690Y-53186433D02*
G01*
X173849192Y-53190196D01*
X173899266Y-53196942D01*
X173949465Y-53206419D01*
X173998342Y-53218371D01*
X174044452Y-53232545D01*
X174066731Y-53240661D01*
X174113308Y-53260219D01*
X174155192Y-53281214D01*
X174193289Y-53304208D01*
X174228506Y-53329762D01*
X174261750Y-53358436D01*
X174270267Y-53366554D01*
X174303985Y-53402647D01*
X174332323Y-53440220D01*
X174355439Y-53479538D01*
X174373490Y-53520864D01*
X174385615Y-53560311D01*
X174391489Y-53583729D01*
X174380320Y-53617679D01*
X174371239Y-53643848D01*
X174360399Y-53672788D01*
X174348683Y-53702252D01*
X174336973Y-53729996D01*
X174330192Y-53745157D01*
X174321890Y-53762452D01*
X174312735Y-53780216D01*
X174303164Y-53797726D01*
X174293619Y-53814254D01*
X174284539Y-53829077D01*
X174276363Y-53841468D01*
X174269530Y-53850702D01*
X174264482Y-53856054D01*
X174262354Y-53857107D01*
X174259108Y-53856206D01*
X174251136Y-53853642D01*
X174239040Y-53849623D01*
X174223422Y-53844358D01*
X174204886Y-53838056D01*
X174184034Y-53830924D01*
X174161467Y-53823173D01*
X174137789Y-53815010D01*
X174113601Y-53806643D01*
X174089506Y-53798283D01*
X174066106Y-53790136D01*
X174044004Y-53782413D01*
X174023802Y-53775320D01*
X174006103Y-53769068D01*
X173991508Y-53763864D01*
X173980620Y-53759917D01*
X173974042Y-53757436D01*
X173972298Y-53756662D01*
X173972775Y-53753813D01*
X173974571Y-53746320D01*
X173977464Y-53734993D01*
X173981233Y-53720641D01*
X173985655Y-53704077D01*
X173990509Y-53686109D01*
X173995574Y-53667550D01*
X174000629Y-53649208D01*
X174005450Y-53631894D01*
X174009817Y-53616419D01*
X174013508Y-53603594D01*
X174016302Y-53594228D01*
X174017977Y-53589133D01*
X174018296Y-53588458D01*
X174021113Y-53589056D01*
X174028766Y-53591149D01*
X174040673Y-53594563D01*
X174056251Y-53599129D01*
X174074918Y-53604675D01*
X174096091Y-53611029D01*
X174119188Y-53618022D01*
X174126666Y-53620298D01*
X174150295Y-53627484D01*
X174172223Y-53634126D01*
X174191859Y-53640045D01*
X174208613Y-53645066D01*
X174221895Y-53649012D01*
X174231115Y-53651706D01*
X174235683Y-53652971D01*
X174236058Y-53653046D01*
X174236360Y-53650698D01*
X174234449Y-53644315D01*
X174230735Y-53634886D01*
X174225629Y-53623401D01*
X174219539Y-53610851D01*
X174214947Y-53602030D01*
X174192882Y-53566724D01*
X174166298Y-53534637D01*
X174135170Y-53505756D01*
X174099468Y-53480065D01*
X174059165Y-53457549D01*
X174014233Y-53438193D01*
X173964644Y-53421983D01*
X173910371Y-53408904D01*
X173851386Y-53398939D01*
X173833135Y-53396599D01*
X173819176Y-53394997D01*
X173807404Y-53393773D01*
X173798873Y-53393025D01*
X173794642Y-53392855D01*
X173794377Y-53392917D01*
X173795083Y-53395687D01*
X173797420Y-53403344D01*
X173801229Y-53415397D01*
X173806352Y-53431353D01*
X173812629Y-53450722D01*
X173819901Y-53473011D01*
X173828011Y-53497731D01*
X173836797Y-53524388D01*
X173842066Y-53540315D01*
X173851156Y-53567886D01*
X173859629Y-53593829D01*
X173867330Y-53617647D01*
X173874102Y-53638847D01*
X173879788Y-53656932D01*
X173884232Y-53671409D01*
X173887279Y-53681782D01*
X173888772Y-53687556D01*
X173888868Y-53688599D01*
X173885456Y-53690029D01*
X173877473Y-53692489D01*
X173865770Y-53695769D01*
X173851194Y-53699661D01*
X173834595Y-53703953D01*
X173816821Y-53708437D01*
X173798721Y-53712902D01*
X173781145Y-53717139D01*
X173764941Y-53720938D01*
X173750958Y-53724089D01*
X173740044Y-53726382D01*
X173733050Y-53727608D01*
X173730825Y-53727660D01*
X173729499Y-53724662D01*
X173726443Y-53716953D01*
X173721886Y-53705140D01*
X173716052Y-53689832D01*
X173709170Y-53671638D01*
X173701465Y-53651167D01*
X173693164Y-53629026D01*
X173684494Y-53605825D01*
X173675681Y-53582171D01*
X173666953Y-53558674D01*
X173658534Y-53535942D01*
X173650653Y-53514584D01*
X173643536Y-53495207D01*
X173637409Y-53478421D01*
X173632500Y-53464835D01*
X173629034Y-53455056D01*
X173627238Y-53449693D01*
X173627048Y-53448984D01*
X173627845Y-53445549D01*
X173630439Y-53437336D01*
X173634642Y-53424879D01*
X173640267Y-53408710D01*
X173647127Y-53389362D01*
X173655034Y-53367367D01*
X173663802Y-53343259D01*
X173673242Y-53317569D01*
X173673904Y-53315777D01*
X173721561Y-53186822D01*
X173755207Y-53185909D01*
X173800690Y-53186433D01*
G37*
G36*
X174018967Y-51461907D02*
G01*
X174067276Y-51467059D01*
X174113702Y-51476418D01*
X174148362Y-51486788D01*
X174189881Y-51503422D01*
X174227922Y-51523410D01*
X174263542Y-51547421D01*
X174297799Y-51576122D01*
X174313377Y-51591070D01*
X174345067Y-51625896D01*
X174372191Y-51662793D01*
X174395037Y-51702310D01*
X174413892Y-51744997D01*
X174429045Y-51791403D01*
X174438166Y-51829040D01*
X174441711Y-51850109D01*
X174444500Y-51875205D01*
X174446467Y-51902727D01*
X174447550Y-51931076D01*
X174447682Y-51958651D01*
X174446800Y-51983854D01*
X174445159Y-52002585D01*
X174436554Y-52052595D01*
X174423353Y-52099817D01*
X174405666Y-52144016D01*
X174383605Y-52184957D01*
X174357281Y-52222403D01*
X174326806Y-52256120D01*
X174323840Y-52258986D01*
X174289737Y-52287665D01*
X174252054Y-52311956D01*
X174210785Y-52331863D01*
X174165925Y-52347387D01*
X174126121Y-52356915D01*
X174110194Y-52359196D01*
X174090024Y-52360816D01*
X174066995Y-52361776D01*
X174042494Y-52362076D01*
X174017905Y-52361719D01*
X173994615Y-52360704D01*
X173974009Y-52359034D01*
X173957908Y-52356790D01*
X173915666Y-52346763D01*
X173877791Y-52333131D01*
X173844252Y-52315873D01*
X173815021Y-52294964D01*
X173790069Y-52270381D01*
X173769368Y-52242101D01*
X173752889Y-52210102D01*
X173743077Y-52182973D01*
X173739966Y-52172093D01*
X173737825Y-52162493D01*
X173736475Y-52152624D01*
X173735733Y-52140937D01*
X173735420Y-52125884D01*
X173735369Y-52116916D01*
X173735606Y-52095764D01*
X173736528Y-52079003D01*
X173738233Y-52065385D01*
X173740164Y-52056164D01*
X173749831Y-52027514D01*
X173763417Y-52002659D01*
X173780682Y-51981835D01*
X173801387Y-51965276D01*
X173825290Y-51953217D01*
X173852153Y-51945895D01*
X173852744Y-51945794D01*
X173872686Y-51942434D01*
X173859111Y-51935862D01*
X173840446Y-51925223D01*
X173821396Y-51911608D01*
X173804320Y-51896786D01*
X173797406Y-51889638D01*
X173792611Y-51883401D01*
X173906609Y-51883401D01*
X173909541Y-51896193D01*
X173910470Y-51898115D01*
X173919868Y-51910513D01*
X173934043Y-51921692D01*
X173952171Y-51931315D01*
X173973428Y-51939041D01*
X173996991Y-51944532D01*
X174022037Y-51947450D01*
X174031176Y-51947803D01*
X174044854Y-51947827D01*
X174054350Y-51947185D01*
X174061130Y-51945676D01*
X174066661Y-51943097D01*
X174067070Y-51942853D01*
X174076690Y-51934151D01*
X174081732Y-51923098D01*
X174082239Y-51910628D01*
X174078252Y-51897673D01*
X174069815Y-51885168D01*
X174064208Y-51879610D01*
X174050191Y-51869790D01*
X174032691Y-51861336D01*
X174012928Y-51854493D01*
X173992121Y-51849505D01*
X173971491Y-51846618D01*
X173952259Y-51846077D01*
X173935644Y-51848127D01*
X173925262Y-51851695D01*
X173914926Y-51859721D01*
X173908557Y-51870766D01*
X173906609Y-51883401D01*
X173792611Y-51883401D01*
X173779204Y-51865964D01*
X173766405Y-51841206D01*
X173758764Y-51814734D01*
X173756034Y-51785922D01*
X173756020Y-51784006D01*
X173758349Y-51755510D01*
X173765482Y-51729995D01*
X173777455Y-51707405D01*
X173794302Y-51687686D01*
X173816060Y-51670784D01*
X173836829Y-51659347D01*
X173851462Y-51652795D01*
X173864875Y-51647814D01*
X173878232Y-51644202D01*
X173892698Y-51641758D01*
X173909437Y-51640279D01*
X173929612Y-51639563D01*
X173951818Y-51639405D01*
X173952259Y-51639407D01*
X173971614Y-51639484D01*
X173986972Y-51639755D01*
X173999124Y-51640327D01*
X174009298Y-51641312D01*
X174018727Y-51642818D01*
X174028640Y-51644957D01*
X174037162Y-51647050D01*
X174075647Y-51658979D01*
X174110780Y-51674363D01*
X174142238Y-51692940D01*
X174169693Y-51714450D01*
X174192822Y-51738630D01*
X174211299Y-51765220D01*
X174224799Y-51793958D01*
X174226724Y-51799486D01*
X174230668Y-51815300D01*
X174233384Y-51834013D01*
X174234732Y-51853563D01*
X174234570Y-51871890D01*
X174232757Y-51886930D01*
X174232720Y-51887103D01*
X174224761Y-51911401D01*
X174212155Y-51932686D01*
X174195301Y-51950533D01*
X174174595Y-51964514D01*
X174151852Y-51973789D01*
X174140738Y-51977117D01*
X174168857Y-51983496D01*
X174182675Y-51986657D01*
X174196161Y-51989787D01*
X174207229Y-51992399D01*
X174211147Y-51993345D01*
X174225318Y-51996815D01*
X174226061Y-52102528D01*
X174226804Y-52208242D01*
X174218976Y-52206276D01*
X174209342Y-52203932D01*
X174195400Y-52200644D01*
X174177816Y-52196561D01*
X174157259Y-52191835D01*
X174134395Y-52186614D01*
X174109892Y-52181049D01*
X174084417Y-52175290D01*
X174058636Y-52169486D01*
X174033218Y-52163789D01*
X174008829Y-52158347D01*
X173986138Y-52153310D01*
X173965810Y-52148829D01*
X173948513Y-52145054D01*
X173934915Y-52142134D01*
X173925682Y-52140220D01*
X173922059Y-52139540D01*
X173899864Y-52137696D01*
X173881361Y-52139777D01*
X173866709Y-52145704D01*
X173856065Y-52155400D01*
X173849590Y-52168789D01*
X173848150Y-52175498D01*
X173848275Y-52192677D01*
X173853745Y-52208792D01*
X173864285Y-52223514D01*
X173879619Y-52236515D01*
X173899472Y-52247465D01*
X173912781Y-52252690D01*
X173933035Y-52258224D01*
X173957484Y-52262598D01*
X173984756Y-52265735D01*
X174013484Y-52267561D01*
X174042297Y-52267999D01*
X174069825Y-52266975D01*
X174094700Y-52264412D01*
X174102515Y-52263140D01*
X174144997Y-52252937D01*
X174183907Y-52238450D01*
X174219153Y-52219747D01*
X174250640Y-52196895D01*
X174278273Y-52169961D01*
X174301958Y-52139014D01*
X174320211Y-52106996D01*
X174336018Y-52069550D01*
X174347249Y-52030739D01*
X174354042Y-51989835D01*
X174356539Y-51946111D01*
X174356162Y-51921357D01*
X174351893Y-51872394D01*
X174342934Y-51826586D01*
X174329292Y-51783946D01*
X174310973Y-51744489D01*
X174287981Y-51708229D01*
X174260323Y-51675180D01*
X174254733Y-51669457D01*
X174222399Y-51641006D01*
X174187023Y-51617292D01*
X174148577Y-51598303D01*
X174107029Y-51584029D01*
X174062351Y-51574457D01*
X174014514Y-51569579D01*
X173987246Y-51568891D01*
X173948667Y-51570056D01*
X173914075Y-51573728D01*
X173882250Y-51580174D01*
X173851973Y-51589661D01*
X173822023Y-51602454D01*
X173812943Y-51606964D01*
X173778713Y-51627591D01*
X173748006Y-51652509D01*
X173720957Y-51681469D01*
X173697699Y-51714220D01*
X173678367Y-51750510D01*
X173663093Y-51790089D01*
X173652012Y-51832707D01*
X173645258Y-51878111D01*
X173642964Y-51925608D01*
X173645082Y-51968851D01*
X173651718Y-52009506D01*
X173663126Y-52048720D01*
X173678471Y-52085379D01*
X173684329Y-52097783D01*
X173689167Y-52108347D01*
X173692512Y-52116021D01*
X173693895Y-52119754D01*
X173693907Y-52119870D01*
X173691513Y-52122142D01*
X173685063Y-52126214D01*
X173675654Y-52131529D01*
X173664385Y-52137530D01*
X173652355Y-52143657D01*
X173640660Y-52149354D01*
X173630400Y-52154062D01*
X173622672Y-52157224D01*
X173618574Y-52158282D01*
X173618376Y-52158240D01*
X173615404Y-52155033D01*
X173610744Y-52147580D01*
X173604886Y-52136868D01*
X173598314Y-52123887D01*
X173591517Y-52109626D01*
X173584982Y-52095071D01*
X173579196Y-52081213D01*
X173575227Y-52070705D01*
X173568889Y-52051790D01*
X173563926Y-52034394D01*
X173560164Y-52017356D01*
X173557434Y-51999512D01*
X173555564Y-51979701D01*
X173554382Y-51956760D01*
X173553717Y-51929526D01*
X173553641Y-51924191D01*
X173553442Y-51904723D01*
X173553366Y-51886630D01*
X173553407Y-51870858D01*
X173553561Y-51858352D01*
X173553823Y-51850059D01*
X173554008Y-51847668D01*
X173560760Y-51805900D01*
X173570317Y-51764708D01*
X173582253Y-51725660D01*
X173596140Y-51690324D01*
X173597971Y-51686291D01*
X173616833Y-51651153D01*
X173640264Y-51616910D01*
X173667197Y-51584890D01*
X173696562Y-51556424D01*
X173713434Y-51542708D01*
X173731182Y-51530557D01*
X173752644Y-51517895D01*
X173776051Y-51505630D01*
X173799629Y-51494674D01*
X173821608Y-51485936D01*
X173828531Y-51483591D01*
X173873556Y-51471805D01*
X173921025Y-51464270D01*
X173969856Y-51460974D01*
X174018967Y-51461907D01*
G37*
D12*
%TO.C,C2*%
X161201248Y-49265000D02*
X161723752Y-49265000D01*
X161201248Y-50735000D02*
X161723752Y-50735000D01*
%TO.C,D1*%
X144970000Y-59030000D02*
X144970000Y-59160000D01*
X144970000Y-61970000D02*
X144970000Y-61840000D01*
X149390000Y-61970000D02*
X149390000Y-59030000D01*
X149510000Y-61970000D02*
X149510000Y-59030000D01*
X149630000Y-61970000D02*
X149630000Y-59030000D01*
X150410000Y-59030000D02*
X144970000Y-59030000D01*
X150410000Y-59160000D02*
X150410000Y-59030000D01*
X150410000Y-61840000D02*
X150410000Y-61970000D01*
X150410000Y-61970000D02*
X144970000Y-61970000D01*
%TO.C,D6*%
X169665000Y-61540000D02*
X169665000Y-63460000D01*
X169665000Y-63460000D02*
X172525000Y-63460000D01*
X172525000Y-61540000D02*
X169665000Y-61540000D01*
%TO.C,C6*%
X156701248Y-52765000D02*
X157223752Y-52765000D01*
X156701248Y-54235000D02*
X157223752Y-54235000D01*
%TO.C,C4*%
X165701248Y-45765000D02*
X166223752Y-45765000D01*
X165701248Y-47235000D02*
X166223752Y-47235000D01*
%TO.C,R3*%
X156772936Y-63265000D02*
X157227064Y-63265000D01*
X156772936Y-64735000D02*
X157227064Y-64735000D01*
%TO.C,U2*%
X173137500Y-41890000D02*
X172337500Y-41890000D01*
X173137500Y-41890000D02*
X173937500Y-41890000D01*
X173137500Y-45010000D02*
X172337500Y-45010000D01*
X173137500Y-45010000D02*
X173937500Y-45010000D01*
X171837500Y-41940000D02*
X171597500Y-41610000D01*
X172077500Y-41610000D01*
X171837500Y-41940000D01*
G36*
X171837500Y-41940000D02*
G01*
X171597500Y-41610000D01*
X172077500Y-41610000D01*
X171837500Y-41940000D01*
G37*
%TO.C,L1*%
X168390000Y-44500000D02*
X168390000Y-42000000D01*
X170610000Y-42000000D02*
X170610000Y-44500000D01*
%TO.C,C7*%
X156701248Y-56255000D02*
X157223752Y-56255000D01*
X156701248Y-57725000D02*
X157223752Y-57725000D01*
%TO.C,C3*%
X165701248Y-42265000D02*
X166223752Y-42265000D01*
X165701248Y-43735000D02*
X166223752Y-43735000D01*
%TO.C,R4*%
X161272936Y-63265000D02*
X161727064Y-63265000D01*
X161272936Y-64735000D02*
X161727064Y-64735000D01*
%TO.C,R2*%
X161272936Y-52765000D02*
X161727064Y-52765000D01*
X161272936Y-54235000D02*
X161727064Y-54235000D01*
%TO.C,C12*%
X161201248Y-59765000D02*
X161723752Y-59765000D01*
X161201248Y-61235000D02*
X161723752Y-61235000D01*
%TO.C,R1*%
X156772936Y-59765000D02*
X157227064Y-59765000D01*
X156772936Y-61235000D02*
X157227064Y-61235000D01*
D13*
%TO.C,soy*%
G36*
X166284824Y-51780096D02*
G01*
X166316721Y-51809051D01*
X166364318Y-51823452D01*
X166416327Y-51839552D01*
X166440568Y-51862905D01*
X166436417Y-51881940D01*
X166399928Y-51884118D01*
X166358081Y-51877807D01*
X166258747Y-51853000D01*
X166200564Y-51822719D01*
X166186971Y-51788784D01*
X166187392Y-51787410D01*
X166216370Y-51757091D01*
X166257494Y-51754943D01*
X166284824Y-51780096D01*
G37*
G36*
X166376843Y-51926140D02*
G01*
X166443583Y-51946873D01*
X166482069Y-51959665D01*
X166562289Y-51991801D01*
X166595205Y-52019006D01*
X166584488Y-52039902D01*
X166559795Y-52036913D01*
X166502662Y-52025129D01*
X166451945Y-52013400D01*
X166372818Y-51988353D01*
X166330449Y-51961367D01*
X166325427Y-51949304D01*
X166327796Y-51928019D01*
X166341591Y-51920076D01*
X166376843Y-51926140D01*
G37*
G36*
X166101051Y-51245986D02*
G01*
X166129473Y-51264135D01*
X166132638Y-51279558D01*
X166120878Y-51306107D01*
X166078574Y-51304685D01*
X166072351Y-51303187D01*
X165997533Y-51305801D01*
X165918693Y-51335690D01*
X165846333Y-51365631D01*
X165806462Y-51363734D01*
X165795256Y-51333794D01*
X165816675Y-51305206D01*
X165870968Y-51276398D01*
X165943189Y-51253166D01*
X166018390Y-51241307D01*
X166035046Y-51240797D01*
X166101051Y-51245986D01*
G37*
G36*
X166554433Y-52197224D02*
G01*
X166572439Y-52198588D01*
X166649865Y-52210372D01*
X166684211Y-52231431D01*
X166686907Y-52242212D01*
X166674640Y-52262534D01*
X166632203Y-52273464D01*
X166551147Y-52277014D01*
X166540548Y-52277040D01*
X166459049Y-52275101D01*
X166415882Y-52267396D01*
X166401275Y-52251091D01*
X166401981Y-52236864D01*
X166410791Y-52210134D01*
X166431578Y-52196315D01*
X166475679Y-52192860D01*
X166554433Y-52197224D01*
G37*
G36*
X169123166Y-51136373D02*
G01*
X169154008Y-51165171D01*
X169193635Y-51236221D01*
X169217305Y-51345416D01*
X169225166Y-51494799D01*
X169217366Y-51686410D01*
X169203110Y-51842641D01*
X169183590Y-52009284D01*
X169164782Y-52132908D01*
X169145315Y-52218649D01*
X169123819Y-52271641D01*
X169098920Y-52297018D01*
X169080653Y-52301139D01*
X169051671Y-52285603D01*
X169059110Y-52239964D01*
X169081581Y-52197871D01*
X169097579Y-52150789D01*
X169114153Y-52066409D01*
X169130195Y-51955601D01*
X169144596Y-51829233D01*
X169156247Y-51698177D01*
X169164041Y-51573301D01*
X169166869Y-51465475D01*
X169164016Y-51389465D01*
X169149591Y-51308544D01*
X169126316Y-51242511D01*
X169112338Y-51220581D01*
X169080582Y-51172682D01*
X169074052Y-51134529D01*
X169093039Y-51120304D01*
X169123166Y-51136373D01*
G37*
G36*
X168660203Y-53176910D02*
G01*
X168670698Y-53187983D01*
X168698028Y-53243896D01*
X168717554Y-53335004D01*
X168728278Y-53448787D01*
X168729202Y-53572723D01*
X168719326Y-53694294D01*
X168713895Y-53729662D01*
X168688767Y-53830358D01*
X168649011Y-53942809D01*
X168601152Y-54051994D01*
X168551713Y-54142893D01*
X168510898Y-54197014D01*
X168464495Y-54225305D01*
X168415171Y-54233171D01*
X168383228Y-54217976D01*
X168381289Y-54213834D01*
X168393681Y-54188115D01*
X168427215Y-54172657D01*
X168467897Y-54141711D01*
X168515453Y-54072535D01*
X168565333Y-53973724D01*
X168612984Y-53853869D01*
X168639890Y-53771158D01*
X168657003Y-53683811D01*
X168665406Y-53576430D01*
X168665415Y-53463774D01*
X168657347Y-53360598D01*
X168641518Y-53281658D01*
X168628753Y-53252558D01*
X168597050Y-53189966D01*
X168594541Y-53152157D01*
X168617001Y-53145636D01*
X168660203Y-53176910D01*
G37*
G36*
X166211429Y-51427153D02*
G01*
X166257504Y-51461711D01*
X166257172Y-51490137D01*
X166212160Y-51505101D01*
X166192884Y-51505882D01*
X166143193Y-51513883D01*
X166122312Y-51527193D01*
X166137243Y-51539343D01*
X166189072Y-51550607D01*
X166265414Y-51558454D01*
X166354317Y-51569148D01*
X166424609Y-51586842D01*
X166467094Y-51608132D01*
X166472579Y-51629611D01*
X166468413Y-51633641D01*
X166441170Y-51636200D01*
X166377819Y-51635941D01*
X166290359Y-51632989D01*
X166259156Y-51631491D01*
X166150569Y-51623108D01*
X166085895Y-51610944D01*
X166060940Y-51594133D01*
X166060342Y-51590448D01*
X166038548Y-51547089D01*
X165981684Y-51514975D01*
X165902528Y-51499551D01*
X165849478Y-51500589D01*
X165784652Y-51502087D01*
X165749786Y-51492470D01*
X165747059Y-51486893D01*
X165768249Y-51457012D01*
X165832934Y-51439394D01*
X165942781Y-51433587D01*
X165943404Y-51433586D01*
X166022208Y-51429697D01*
X166085325Y-51419833D01*
X166104099Y-51413563D01*
X166160525Y-51409399D01*
X166211429Y-51427153D01*
G37*
G36*
X166650656Y-52999833D02*
G01*
X166654352Y-53015195D01*
X166640763Y-53032429D01*
X166602625Y-53056402D01*
X166532678Y-53091983D01*
X166463995Y-53124931D01*
X166392497Y-53160898D01*
X166342456Y-53189910D01*
X166325427Y-53204663D01*
X166343011Y-53206124D01*
X166372040Y-53193637D01*
X166421848Y-53171421D01*
X166442661Y-53177778D01*
X166445532Y-53198814D01*
X166424907Y-53220935D01*
X166370305Y-53256674D01*
X166292107Y-53300804D01*
X166200695Y-53348097D01*
X166106451Y-53393323D01*
X166019756Y-53431255D01*
X165950993Y-53456664D01*
X165918406Y-53464271D01*
X165866065Y-53459183D01*
X165852422Y-53437139D01*
X165876910Y-53409133D01*
X165922221Y-53390194D01*
X166021615Y-53357288D01*
X166114927Y-53316961D01*
X166191494Y-53274891D01*
X166240656Y-53236756D01*
X166253131Y-53213955D01*
X166258019Y-53185040D01*
X166277903Y-53158798D01*
X166320612Y-53129581D01*
X166393978Y-53091739D01*
X166475548Y-53053511D01*
X166555226Y-53020195D01*
X166616962Y-53000622D01*
X166649069Y-52998377D01*
X166650656Y-52999833D01*
G37*
G36*
X169930140Y-51274682D02*
G01*
X169937087Y-51311070D01*
X169932328Y-51379364D01*
X169925664Y-51446343D01*
X169916330Y-51548440D01*
X169905474Y-51672726D01*
X169894244Y-51806273D01*
X169892196Y-51831214D01*
X169869977Y-52043608D01*
X169839443Y-52248277D01*
X169802436Y-52436682D01*
X169760804Y-52600286D01*
X169716389Y-52730548D01*
X169682833Y-52800425D01*
X169647292Y-52870557D01*
X169626970Y-52941281D01*
X169617558Y-53031349D01*
X169615523Y-53093148D01*
X169608872Y-53217976D01*
X169591792Y-53331603D01*
X169560656Y-53449466D01*
X169511843Y-53587002D01*
X169481810Y-53662714D01*
X169439724Y-53774665D01*
X169398868Y-53896757D01*
X169372101Y-53988046D01*
X169338953Y-54094038D01*
X169305097Y-54167132D01*
X169273510Y-54202166D01*
X169250835Y-54198336D01*
X169250042Y-54168635D01*
X169267742Y-54114558D01*
X169274979Y-54098430D01*
X169302283Y-54025728D01*
X169328490Y-53931714D01*
X169340574Y-53875420D01*
X169364244Y-53778136D01*
X169396291Y-53683297D01*
X169415029Y-53640918D01*
X169472397Y-53501622D01*
X169518388Y-53338964D01*
X169547407Y-53175960D01*
X169554668Y-53066576D01*
X169561528Y-52957667D01*
X169586232Y-52859551D01*
X169627050Y-52762693D01*
X169697673Y-52587649D01*
X169751725Y-52392955D01*
X169791114Y-52169848D01*
X169817746Y-51909560D01*
X169820211Y-51874892D01*
X169833386Y-51686483D01*
X169844606Y-51540840D01*
X169854645Y-51432610D01*
X169864282Y-51356437D01*
X169874294Y-51306970D01*
X169885457Y-51278853D01*
X169898548Y-51266732D01*
X169908732Y-51264896D01*
X169930140Y-51274682D01*
G37*
G36*
X170109101Y-51624727D02*
G01*
X170123631Y-51664553D01*
X170126217Y-51718758D01*
X170118141Y-51801879D01*
X170101148Y-51896261D01*
X170100421Y-51899515D01*
X170078351Y-52001435D01*
X170058560Y-52099346D01*
X170045930Y-52168596D01*
X170030956Y-52240508D01*
X170013761Y-52296186D01*
X170010263Y-52303877D01*
X169998476Y-52342006D01*
X169981307Y-52416796D01*
X169961087Y-52517335D01*
X169940751Y-52629209D01*
X169886808Y-52907816D01*
X169825752Y-53163430D01*
X169759842Y-53387464D01*
X169695853Y-53560690D01*
X169655792Y-53661457D01*
X169608761Y-53788112D01*
X169562125Y-53920527D01*
X169539468Y-53988046D01*
X169483692Y-54150618D01*
X169437113Y-54269482D01*
X169398170Y-54347911D01*
X169365306Y-54389180D01*
X169344330Y-54397723D01*
X169316783Y-54382222D01*
X169324304Y-54335221D01*
X169359504Y-54268025D01*
X169389949Y-54206264D01*
X169425153Y-54117519D01*
X169456480Y-54024194D01*
X169494032Y-53909414D01*
X169544513Y-53767476D01*
X169601537Y-53615380D01*
X169658719Y-53470126D01*
X169709674Y-53348714D01*
X169713150Y-53340857D01*
X169729197Y-53292171D01*
X169752327Y-53205124D01*
X169780387Y-53088662D01*
X169811225Y-52951727D01*
X169842689Y-52803265D01*
X169843639Y-52798637D01*
X169893538Y-52555726D01*
X169934901Y-52355800D01*
X169968656Y-52194585D01*
X169995733Y-52067809D01*
X170017063Y-51971197D01*
X170033576Y-51900476D01*
X170046202Y-51851374D01*
X170055871Y-51819616D01*
X170057999Y-51813717D01*
X170069243Y-51750279D01*
X170066936Y-51680598D01*
X170067456Y-51622000D01*
X170085015Y-51602385D01*
X170109101Y-51624727D01*
G37*
G36*
X166803656Y-50891337D02*
G01*
X166807401Y-50901058D01*
X166787133Y-50923157D01*
X166738031Y-50946961D01*
X166734829Y-50948098D01*
X166665486Y-50994241D01*
X166594657Y-51082406D01*
X166586996Y-51094467D01*
X166537386Y-51164433D01*
X166500749Y-51197122D01*
X166480834Y-51191406D01*
X166481389Y-51146156D01*
X166486071Y-51124851D01*
X166502300Y-51060057D01*
X166407839Y-51139002D01*
X166344747Y-51192433D01*
X166292064Y-51238242D01*
X166275208Y-51253471D01*
X166232106Y-51282481D01*
X166208937Y-51288994D01*
X166182349Y-51276017D01*
X166192416Y-51241340D01*
X166236621Y-51191348D01*
X166253131Y-51176852D01*
X166299425Y-51132774D01*
X166324148Y-51099248D01*
X166325427Y-51094063D01*
X166305488Y-51077375D01*
X166258961Y-51072681D01*
X166205780Y-51079380D01*
X166165881Y-51096875D01*
X166163656Y-51098925D01*
X166125762Y-51112396D01*
X166092127Y-51095106D01*
X166084440Y-51072553D01*
X166104926Y-51052086D01*
X166155352Y-51028540D01*
X166166655Y-51024612D01*
X166224615Y-50998636D01*
X166258748Y-50970591D01*
X166260541Y-50967063D01*
X166290420Y-50941403D01*
X166351090Y-50914464D01*
X166425670Y-50892068D01*
X166497281Y-50880037D01*
X166514988Y-50879317D01*
X166559548Y-50885633D01*
X166561599Y-50901878D01*
X166524758Y-50924000D01*
X166454094Y-50947559D01*
X166385258Y-50970696D01*
X166361819Y-50991791D01*
X166366908Y-51002733D01*
X166406074Y-51014644D01*
X166437055Y-51001970D01*
X166494065Y-50974198D01*
X166572058Y-50942160D01*
X166654948Y-50911746D01*
X166726650Y-50888842D01*
X166771079Y-50879335D01*
X166772145Y-50879317D01*
X166803656Y-50891337D01*
G37*
G36*
X168294062Y-53457989D02*
G01*
X168300298Y-53594756D01*
X168286846Y-53715881D01*
X168286513Y-53718880D01*
X168266718Y-53783698D01*
X168216104Y-53865206D01*
X168149152Y-53901984D01*
X168062263Y-53895784D01*
X168046449Y-53890980D01*
X167974351Y-53856948D01*
X167926177Y-53805527D01*
X167901096Y-53736941D01*
X167966000Y-53736941D01*
X167982702Y-53773387D01*
X167991463Y-53782582D01*
X168039811Y-53811621D01*
X168088016Y-53828209D01*
X168140575Y-53830033D01*
X168180005Y-53798373D01*
X168193311Y-53779464D01*
X168234972Y-53715881D01*
X168141727Y-53730706D01*
X168072156Y-53734883D01*
X168019129Y-53726313D01*
X168012334Y-53722969D01*
X167977639Y-53715102D01*
X167966000Y-53736941D01*
X167901096Y-53736941D01*
X167897889Y-53728170D01*
X167885446Y-53616331D01*
X167883913Y-53547020D01*
X167893951Y-53388554D01*
X167904948Y-53340608D01*
X167971663Y-53340608D01*
X167989569Y-53351582D01*
X168043332Y-53345598D01*
X168043972Y-53345495D01*
X168115752Y-53343877D01*
X168175301Y-53358435D01*
X168176592Y-53359108D01*
X168207594Y-53373839D01*
X168215538Y-53365956D01*
X168202212Y-53326586D01*
X168189431Y-53295453D01*
X168146624Y-53203816D01*
X168110368Y-53156541D01*
X168076384Y-53151024D01*
X168040395Y-53184662D01*
X168030629Y-53198814D01*
X167996234Y-53261976D01*
X167978454Y-53305939D01*
X167971663Y-53340608D01*
X167904948Y-53340608D01*
X167923970Y-53257678D01*
X167971815Y-53160289D01*
X168035329Y-53102284D01*
X168048739Y-53096297D01*
X168101433Y-53077472D01*
X168130977Y-53078393D01*
X168159857Y-53103301D01*
X168175600Y-53120222D01*
X168229675Y-53205883D01*
X168269841Y-53323418D01*
X168277497Y-53365956D01*
X168294062Y-53457989D01*
G37*
G36*
X169631842Y-51329767D02*
G01*
X169644597Y-51343216D01*
X169679107Y-51412879D01*
X169705057Y-51513331D01*
X169720872Y-51628590D01*
X169724978Y-51742674D01*
X169715800Y-51839602D01*
X169698698Y-51892476D01*
X169683691Y-51933039D01*
X169660329Y-52010876D01*
X169631089Y-52116298D01*
X169598446Y-52239616D01*
X169564874Y-52371140D01*
X169532850Y-52501179D01*
X169504849Y-52620044D01*
X169483346Y-52718046D01*
X169471174Y-52783112D01*
X169456043Y-52862982D01*
X169432609Y-52966143D01*
X169407279Y-53065214D01*
X169381357Y-53176650D01*
X169356899Y-53309502D01*
X169338748Y-53437107D01*
X169337224Y-53450792D01*
X169311912Y-53647786D01*
X169282141Y-53811624D01*
X169248894Y-53938567D01*
X169213155Y-54024881D01*
X169175906Y-54066826D01*
X169174993Y-54067261D01*
X169124532Y-54080040D01*
X169100252Y-54068068D01*
X169111168Y-54039498D01*
X169128035Y-54024788D01*
X169159938Y-53981085D01*
X169183049Y-53913974D01*
X169185563Y-53900240D01*
X169199919Y-53833229D01*
X169217176Y-53786060D01*
X169220609Y-53780741D01*
X169233530Y-53744134D01*
X169246516Y-53675237D01*
X169255609Y-53600001D01*
X169278086Y-53423018D01*
X169316804Y-53202021D01*
X169371536Y-52938294D01*
X169376541Y-52915655D01*
X169420724Y-52719916D01*
X169465412Y-52527983D01*
X169508717Y-52347505D01*
X169548753Y-52186135D01*
X169583634Y-52051524D01*
X169611472Y-51951323D01*
X169625070Y-51907757D01*
X169649005Y-51815819D01*
X169661577Y-51723852D01*
X169662037Y-51686622D01*
X169652140Y-51582189D01*
X169636448Y-51490593D01*
X169617560Y-51424047D01*
X169600115Y-51395750D01*
X169581568Y-51366448D01*
X169581684Y-51330257D01*
X169599896Y-51313093D01*
X169631842Y-51329767D01*
G37*
G36*
X168582749Y-51675888D02*
G01*
X168577993Y-51730551D01*
X168551594Y-51931798D01*
X168516612Y-52089782D01*
X168512455Y-52100691D01*
X168473469Y-52203003D01*
X168427351Y-52265974D01*
X168392266Y-52303540D01*
X168389096Y-52323347D01*
X168394195Y-52324476D01*
X168455204Y-52307217D01*
X168523766Y-52261479D01*
X168582348Y-52199934D01*
X168596601Y-52178144D01*
X168641035Y-52120104D01*
X168687744Y-52088207D01*
X168724828Y-52090209D01*
X168727689Y-52092711D01*
X168724065Y-52119902D01*
X168692313Y-52168123D01*
X168641412Y-52227648D01*
X168580340Y-52288747D01*
X168518075Y-52341693D01*
X168467174Y-52374983D01*
X168371910Y-52423583D01*
X168274949Y-52322665D01*
X168220023Y-52261979D01*
X168193172Y-52216904D01*
X168187245Y-52170154D01*
X168190085Y-52143771D01*
X168259838Y-52143771D01*
X168263263Y-52205288D01*
X168280028Y-52244035D01*
X168304056Y-52261871D01*
X168334046Y-52251147D01*
X168377543Y-52213221D01*
X168433072Y-52147979D01*
X168446907Y-52100691D01*
X168419439Y-52074125D01*
X168357352Y-52070421D01*
X168296781Y-52081227D01*
X168268853Y-52106673D01*
X168259838Y-52143771D01*
X168190085Y-52143771D01*
X168192335Y-52122876D01*
X168218600Y-51952218D01*
X168243016Y-51822757D01*
X168268273Y-51727708D01*
X168287945Y-51681626D01*
X168343548Y-51681626D01*
X168400854Y-51713394D01*
X168465574Y-51741727D01*
X168503395Y-51735652D01*
X168522943Y-51693337D01*
X168524196Y-51687189D01*
X168524644Y-51625381D01*
X168496500Y-51601561D01*
X168441739Y-51616447D01*
X168400191Y-51641952D01*
X168343548Y-51681626D01*
X168287945Y-51681626D01*
X168297056Y-51660285D01*
X168332054Y-51613703D01*
X168375953Y-51581174D01*
X168414114Y-51562841D01*
X168469435Y-51540062D01*
X168499574Y-51533403D01*
X168524435Y-51541942D01*
X168549528Y-51556569D01*
X168573100Y-51577545D01*
X168583477Y-51613062D01*
X168583334Y-51625381D01*
X168582749Y-51675888D01*
G37*
G36*
X166139074Y-51995067D02*
G01*
X166197114Y-52060062D01*
X166262375Y-52137324D01*
X166274547Y-52152203D01*
X166398438Y-52304500D01*
X166387755Y-52453436D01*
X166384592Y-52546980D01*
X166387620Y-52632395D01*
X166393422Y-52676503D01*
X166409773Y-52750633D01*
X166512868Y-52705419D01*
X166570570Y-52674692D01*
X166600985Y-52647573D01*
X166602121Y-52637807D01*
X166573140Y-52630699D01*
X166542294Y-52644126D01*
X166495489Y-52661268D01*
X166477439Y-52645024D01*
X166494380Y-52604623D01*
X166506034Y-52590470D01*
X166531151Y-52555753D01*
X166529181Y-52542125D01*
X166524939Y-52529015D01*
X166536926Y-52513776D01*
X166567732Y-52500502D01*
X166608234Y-52524414D01*
X166614042Y-52529561D01*
X166651279Y-52586606D01*
X166661283Y-52653485D01*
X166643441Y-52711326D01*
X166620636Y-52732984D01*
X166598941Y-52752446D01*
X166608587Y-52758281D01*
X166631867Y-52775079D01*
X166636094Y-52778129D01*
X166638710Y-52791327D01*
X166616253Y-52815813D01*
X166555000Y-52840638D01*
X166508030Y-52852885D01*
X166429575Y-52875571D01*
X166368736Y-52902351D01*
X166347119Y-52918555D01*
X166264610Y-52982173D01*
X166152868Y-53016796D01*
X166021789Y-53021574D01*
X165881265Y-52995655D01*
X165798270Y-52965765D01*
X165713629Y-52931594D01*
X165637178Y-52904511D01*
X165598300Y-52893476D01*
X165536456Y-52868385D01*
X165469712Y-52825291D01*
X165461588Y-52818687D01*
X165420338Y-52777509D01*
X165395251Y-52729977D01*
X165379811Y-52660078D01*
X165372313Y-52599315D01*
X165369899Y-52500519D01*
X165421296Y-52500519D01*
X165431338Y-52586359D01*
X165439697Y-52625255D01*
X165466849Y-52706510D01*
X165505076Y-52758372D01*
X165554270Y-52792451D01*
X165606735Y-52821569D01*
X165623510Y-52826807D01*
X165610697Y-52808286D01*
X165597857Y-52793332D01*
X165586741Y-52767831D01*
X166522479Y-52767831D01*
X166526249Y-52775079D01*
X166554849Y-52777963D01*
X166558381Y-52775079D01*
X166555073Y-52760753D01*
X166542315Y-52759013D01*
X166522479Y-52767831D01*
X165586741Y-52767831D01*
X165573586Y-52737650D01*
X165560732Y-52650197D01*
X165558698Y-52545879D01*
X165566883Y-52439601D01*
X165584689Y-52346267D01*
X165611517Y-52280783D01*
X165618833Y-52271302D01*
X165672958Y-52209296D01*
X165713673Y-52160280D01*
X165763993Y-52109080D01*
X165829973Y-52055106D01*
X165843023Y-52045811D01*
X165892203Y-52007943D01*
X165904336Y-51989675D01*
X165885665Y-51989419D01*
X165842434Y-52005588D01*
X165780887Y-52036595D01*
X165708623Y-52079974D01*
X165584319Y-52177624D01*
X165489874Y-52287327D01*
X165432815Y-52399734D01*
X165423891Y-52433681D01*
X165421296Y-52500519D01*
X165369899Y-52500519D01*
X165368468Y-52441941D01*
X165396897Y-52310613D01*
X165461887Y-52196778D01*
X165567725Y-52091885D01*
X165660436Y-52024461D01*
X165773439Y-51963985D01*
X165887346Y-51928232D01*
X165991065Y-51918952D01*
X166073503Y-51937898D01*
X166099589Y-51955109D01*
X166133746Y-51989675D01*
X166139074Y-51995067D01*
G37*
G36*
X167283878Y-52187034D02*
G01*
X167383247Y-52215829D01*
X167404652Y-52227652D01*
X167459933Y-52269228D01*
X167494960Y-52308182D01*
X167497942Y-52314217D01*
X167533479Y-52353086D01*
X167605795Y-52396347D01*
X167704186Y-52440137D01*
X167817947Y-52480592D01*
X167936371Y-52513850D01*
X168048754Y-52536045D01*
X168132828Y-52543346D01*
X168260014Y-52549415D01*
X168363002Y-52563366D01*
X168433760Y-52583635D01*
X168464038Y-52607959D01*
X168457184Y-52621422D01*
X168421167Y-52628236D01*
X168349733Y-52628833D01*
X168237080Y-52623674D01*
X168049424Y-52602379D01*
X167866332Y-52562556D01*
X167698052Y-52507694D01*
X167554827Y-52441283D01*
X167446905Y-52366812D01*
X167427047Y-52347767D01*
X167367355Y-52291146D01*
X167316955Y-52262893D01*
X167255299Y-52253525D01*
X167221545Y-52252941D01*
X167131424Y-52262285D01*
X167060266Y-52286614D01*
X167050963Y-52292408D01*
X167021573Y-52316675D01*
X167006397Y-52345940D01*
X167002884Y-52393371D01*
X167008486Y-52472136D01*
X167011044Y-52498584D01*
X167018015Y-52593907D01*
X167014502Y-52659005D01*
X166998209Y-52711148D01*
X166977682Y-52749679D01*
X166938012Y-52832143D01*
X166935151Y-52893634D01*
X166971348Y-52946772D01*
X167019559Y-52984673D01*
X167092572Y-53028920D01*
X167152990Y-53044020D01*
X167217293Y-53029816D01*
X167301961Y-52986152D01*
X167309181Y-52981926D01*
X167374138Y-52947446D01*
X167434130Y-52927673D01*
X167506561Y-52918948D01*
X167608831Y-52917610D01*
X167614706Y-52917667D01*
X167721645Y-52921579D01*
X167844982Y-52930543D01*
X167976262Y-52943401D01*
X168107033Y-52958999D01*
X168228842Y-52976180D01*
X168333236Y-52993790D01*
X168411761Y-53010673D01*
X168455966Y-53025672D01*
X168462413Y-53033567D01*
X168434170Y-53051907D01*
X168389418Y-53055732D01*
X168346611Y-53055668D01*
X168339449Y-53073019D01*
X168358996Y-53115979D01*
X168382685Y-53175332D01*
X168405378Y-53252980D01*
X168423885Y-53334210D01*
X168435015Y-53404310D01*
X168435577Y-53448568D01*
X168432590Y-53455329D01*
X168410071Y-53451192D01*
X168381276Y-53418319D01*
X168357514Y-53372845D01*
X168349716Y-53337068D01*
X168342234Y-53291760D01*
X168323287Y-53222075D01*
X168311733Y-53186296D01*
X168290014Y-53131682D01*
X168262453Y-53091401D01*
X168221051Y-53061813D01*
X168157809Y-53039277D01*
X168064727Y-53020153D01*
X167933806Y-53000799D01*
X167891841Y-52995181D01*
X167737149Y-52976828D01*
X167619537Y-52969007D01*
X167528898Y-52972432D01*
X167455126Y-52987815D01*
X167388114Y-53015872D01*
X167357311Y-53032915D01*
X167229118Y-53085914D01*
X167106441Y-53092774D01*
X166992875Y-53053417D01*
X166973630Y-53041386D01*
X166918399Y-52995766D01*
X166892464Y-52943270D01*
X166884239Y-52882776D01*
X166890793Y-52781588D01*
X166915313Y-52720294D01*
X166935926Y-52676210D01*
X166944331Y-52617687D01*
X166941898Y-52530910D01*
X166938384Y-52487301D01*
X166931413Y-52395974D01*
X166932530Y-52338534D01*
X166944602Y-52300957D01*
X166970495Y-52269215D01*
X166985961Y-52254455D01*
X167067078Y-52207509D01*
X167172436Y-52184648D01*
X167283878Y-52187034D01*
G37*
G36*
X170999258Y-52527849D02*
G01*
X170983788Y-52759428D01*
X170967032Y-52853861D01*
X170941673Y-52939142D01*
X170896462Y-53057219D01*
X170835729Y-53199197D01*
X170763803Y-53356178D01*
X170685013Y-53519267D01*
X170603689Y-53679566D01*
X170524159Y-53828181D01*
X170450754Y-53956214D01*
X170387801Y-54054770D01*
X170371848Y-54076928D01*
X170311204Y-54152728D01*
X170248756Y-54216944D01*
X170175849Y-54275884D01*
X170083833Y-54335858D01*
X169964055Y-54403175D01*
X169826140Y-54474860D01*
X169702502Y-54536435D01*
X169606505Y-54579540D01*
X169523604Y-54609013D01*
X169439252Y-54629691D01*
X169338903Y-54646409D01*
X169289564Y-54653269D01*
X169141124Y-54670005D01*
X169019170Y-54675065D01*
X168903522Y-54668838D01*
X168843738Y-54661877D01*
X168457260Y-54600900D01*
X168068851Y-54518817D01*
X167955736Y-54491276D01*
X167820726Y-54458574D01*
X167679868Y-54426183D01*
X167552266Y-54398415D01*
X167476966Y-54383254D01*
X167366287Y-54359092D01*
X167256522Y-54329936D01*
X167170161Y-54301800D01*
X167165167Y-54299865D01*
X167062467Y-54266666D01*
X166979418Y-54253896D01*
X166923901Y-54261833D01*
X166903795Y-54290552D01*
X166909186Y-54353671D01*
X166923842Y-54452374D01*
X166945488Y-54575452D01*
X166971850Y-54711692D01*
X167000653Y-54849884D01*
X167029621Y-54978817D01*
X167056480Y-55087280D01*
X167078955Y-55164062D01*
X167083715Y-55177236D01*
X167120471Y-55287946D01*
X167152807Y-55411780D01*
X167166858Y-55482163D01*
X167188400Y-55576492D01*
X167217475Y-55657535D01*
X167241138Y-55699051D01*
X167305128Y-55782546D01*
X167343651Y-55848115D01*
X167363904Y-55913274D01*
X167373086Y-55995535D01*
X167374647Y-56023887D01*
X167383324Y-56140629D01*
X167398799Y-56224715D01*
X167425576Y-56291628D01*
X167468159Y-56356853D01*
X167473582Y-56364039D01*
X167510315Y-56432366D01*
X167528957Y-56508138D01*
X167528324Y-56576368D01*
X167507231Y-56622064D01*
X167494585Y-56630042D01*
X167441319Y-56627027D01*
X167371411Y-56590531D01*
X167294707Y-56527336D01*
X167221058Y-56444224D01*
X167217123Y-56438983D01*
X167132822Y-56325617D01*
X166985896Y-56325617D01*
X166894124Y-56329503D01*
X166836132Y-56343464D01*
X166797958Y-56370954D01*
X166796587Y-56372448D01*
X166742138Y-56411559D01*
X166678384Y-56435774D01*
X166608135Y-56458246D01*
X166555027Y-56485337D01*
X166490375Y-56513393D01*
X166428404Y-56514094D01*
X166386080Y-56488169D01*
X166380652Y-56477861D01*
X166376635Y-56435773D01*
X166380007Y-56360766D01*
X166389990Y-56267422D01*
X166393017Y-56245731D01*
X166420940Y-56054147D01*
X166319523Y-55859210D01*
X166246551Y-55736136D01*
X166156391Y-55608435D01*
X166071966Y-55506947D01*
X165993361Y-55417822D01*
X165901183Y-55306480D01*
X165809510Y-55190178D01*
X165761190Y-55125991D01*
X165649329Y-54984859D01*
X165553022Y-54886229D01*
X165492523Y-54841396D01*
X165420642Y-54790660D01*
X165361095Y-54734058D01*
X165344864Y-54712883D01*
X165305377Y-54665691D01*
X165240154Y-54601640D01*
X165161857Y-54533001D01*
X165144592Y-54518871D01*
X165070449Y-54455088D01*
X164974020Y-54366459D01*
X164866100Y-54263190D01*
X164757482Y-54155489D01*
X164721198Y-54118531D01*
X164596393Y-53993814D01*
X164490099Y-53898658D01*
X164391159Y-53827185D01*
X164288417Y-53773516D01*
X164170718Y-53731770D01*
X164026905Y-53696068D01*
X163855543Y-53662323D01*
X163707417Y-53633052D01*
X163589557Y-53603913D01*
X163484384Y-53569217D01*
X163374320Y-53523270D01*
X163261431Y-53469972D01*
X163040126Y-53375156D01*
X162794767Y-53291868D01*
X162545192Y-53225998D01*
X162311241Y-53183436D01*
X162285545Y-53180221D01*
X162213522Y-53170361D01*
X162105632Y-53153895D01*
X161973461Y-53132668D01*
X161828593Y-53108527D01*
X161734630Y-53092412D01*
X161439771Y-53043543D01*
X161181035Y-53006056D01*
X160947984Y-52978887D01*
X160730179Y-52960971D01*
X160517182Y-52951244D01*
X160324858Y-52948611D01*
X160022548Y-52954288D01*
X159751439Y-52971331D01*
X159516977Y-52999268D01*
X159336812Y-53034554D01*
X159203573Y-53064524D01*
X159099542Y-53081872D01*
X159029986Y-53085998D01*
X159000171Y-53076301D01*
X158999431Y-53073040D01*
X159019878Y-53050621D01*
X159053653Y-53039205D01*
X159100836Y-53029477D01*
X159180878Y-53011896D01*
X159279705Y-52989576D01*
X159324763Y-52979229D01*
X159502100Y-52947852D01*
X159721751Y-52925409D01*
X159915181Y-52914620D01*
X160049415Y-52909066D01*
X160170814Y-52903437D01*
X160269252Y-52898249D01*
X160334606Y-52894015D01*
X160351474Y-52892446D01*
X160405253Y-52891083D01*
X160496742Y-52894111D01*
X160615739Y-52900711D01*
X160752038Y-52910064D01*
X160895437Y-52921349D01*
X161035732Y-52933749D01*
X161162718Y-52946443D01*
X161266191Y-52958612D01*
X161335948Y-52969438D01*
X161349995Y-52972620D01*
X161405723Y-52984693D01*
X161498869Y-53001848D01*
X161619142Y-53022317D01*
X161756251Y-53044330D01*
X161855124Y-53059469D01*
X162118203Y-53100031D01*
X162340421Y-53137168D01*
X162528829Y-53172670D01*
X162690479Y-53208327D01*
X162832426Y-53245929D01*
X162961720Y-53287265D01*
X163085414Y-53334125D01*
X163210561Y-53388298D01*
X163281813Y-53421501D01*
X163409655Y-53479046D01*
X163531639Y-53525900D01*
X163659031Y-53565232D01*
X163803100Y-53600208D01*
X163975112Y-53633994D01*
X164135809Y-53661540D01*
X164283529Y-53704663D01*
X164432846Y-53787049D01*
X164587689Y-53911276D01*
X164720093Y-54044591D01*
X164823421Y-54152042D01*
X164940517Y-54265797D01*
X165054727Y-54370021D01*
X165124885Y-54429512D01*
X165215446Y-54505894D01*
X165297785Y-54580785D01*
X165360555Y-54643594D01*
X165385187Y-54672516D01*
X165446182Y-54736050D01*
X165523606Y-54793940D01*
X165544214Y-54805823D01*
X165619998Y-54858827D01*
X165694019Y-54930316D01*
X165717673Y-54959435D01*
X165775696Y-55038252D01*
X165843143Y-55129771D01*
X165880879Y-55180930D01*
X165948230Y-55266580D01*
X166028833Y-55361309D01*
X166084008Y-55421917D01*
X166249163Y-55621798D01*
X166382485Y-55842888D01*
X166426066Y-55933487D01*
X166463894Y-56022582D01*
X166481176Y-56082223D01*
X166480624Y-56125172D01*
X166472069Y-56150002D01*
X166457203Y-56206586D01*
X166447730Y-56288676D01*
X166445921Y-56341572D01*
X166446764Y-56417347D01*
X166452464Y-56453615D01*
X166467777Y-56459063D01*
X166497458Y-56442381D01*
X166500143Y-56440644D01*
X166565303Y-56408353D01*
X166626661Y-56387889D01*
X166698839Y-56357883D01*
X166751811Y-56320914D01*
X166793073Y-56292818D01*
X166850926Y-56276259D01*
X166938778Y-56268019D01*
X166978445Y-56266523D01*
X167072259Y-56265655D01*
X167130833Y-56271575D01*
X167166946Y-56286956D01*
X167190675Y-56310927D01*
X167245996Y-56376614D01*
X167310056Y-56444707D01*
X167372849Y-56505525D01*
X167424366Y-56549383D01*
X167454602Y-56566597D01*
X167454894Y-56566603D01*
X167479575Y-56549281D01*
X167477889Y-56505170D01*
X167452363Y-56446053D01*
X167418830Y-56398639D01*
X167362712Y-56298514D01*
X167343338Y-56215497D01*
X167332209Y-56148072D01*
X167318311Y-56103755D01*
X167312570Y-56096121D01*
X167303484Y-56067148D01*
X167304323Y-56009773D01*
X167306205Y-55993336D01*
X167308775Y-55934399D01*
X167293923Y-55882444D01*
X167255255Y-55820115D01*
X167229801Y-55785916D01*
X167149240Y-55648249D01*
X167115643Y-55533799D01*
X167096196Y-55446769D01*
X167066790Y-55334275D01*
X167032803Y-55216543D01*
X167021795Y-55180930D01*
X166990367Y-55069863D01*
X166957599Y-54934943D01*
X166925835Y-54788174D01*
X166897420Y-54641557D01*
X166874697Y-54507097D01*
X166860012Y-54396795D01*
X166855598Y-54329982D01*
X166851556Y-54292195D01*
X166833537Y-54261865D01*
X166792703Y-54230994D01*
X166720213Y-54191583D01*
X166680883Y-54171888D01*
X166579524Y-54117765D01*
X166478967Y-54057712D01*
X166400308Y-54004357D01*
X166397723Y-54002394D01*
X166322646Y-53946322D01*
X166227778Y-53877276D01*
X166132971Y-53809694D01*
X166128131Y-53806291D01*
X166046737Y-53750549D01*
X165992046Y-53719168D01*
X165952040Y-53707804D01*
X165914705Y-53712114D01*
X165889573Y-53720074D01*
X165819042Y-53741895D01*
X165782840Y-53744099D01*
X165771346Y-53726854D01*
X165771158Y-53722184D01*
X165790940Y-53695143D01*
X165821575Y-53678658D01*
X165847583Y-53665337D01*
X165845309Y-53648346D01*
X165809829Y-53619412D01*
X165770485Y-53592833D01*
X165706622Y-53554825D01*
X165653427Y-53539518D01*
X165591987Y-53545101D01*
X165509666Y-53567820D01*
X165468655Y-53574693D01*
X165459643Y-53553748D01*
X165461596Y-53540698D01*
X165489505Y-53500832D01*
X165526110Y-53482932D01*
X165582043Y-53469728D01*
X165525984Y-53420053D01*
X165449164Y-53359150D01*
X165568216Y-53359150D01*
X165578700Y-53373929D01*
X165622947Y-53404292D01*
X165647590Y-53409308D01*
X165673328Y-53405345D01*
X165654667Y-53388626D01*
X165651362Y-53386520D01*
X165627791Y-53367348D01*
X165635141Y-53349479D01*
X165679067Y-53321911D01*
X165686812Y-53317570D01*
X165713431Y-53297245D01*
X165701840Y-53290657D01*
X165660151Y-53298235D01*
X165613466Y-53313682D01*
X165570692Y-53335465D01*
X165568216Y-53359150D01*
X165449164Y-53359150D01*
X165444748Y-53355649D01*
X165340603Y-53283855D01*
X165303878Y-53260533D01*
X165268934Y-53242398D01*
X165204791Y-53211840D01*
X165137036Y-53180782D01*
X165064637Y-53143370D01*
X165018112Y-53109778D01*
X165006656Y-53088940D01*
X164992438Y-53063829D01*
X164982413Y-53057668D01*
X165048198Y-53057668D01*
X165067101Y-53073146D01*
X165085597Y-53081491D01*
X165110474Y-53083175D01*
X165108274Y-53072020D01*
X165082499Y-53052043D01*
X165054877Y-53048691D01*
X165048198Y-53057668D01*
X164982413Y-53057668D01*
X164944961Y-53034651D01*
X164919808Y-53024099D01*
X164857370Y-52994331D01*
X164817469Y-52963383D01*
X164812084Y-52954426D01*
X164808448Y-52937294D01*
X164818329Y-52930589D01*
X164850844Y-52935041D01*
X164915110Y-52951385D01*
X164973347Y-52967382D01*
X165031040Y-52983338D01*
X164984431Y-52913348D01*
X164944244Y-52850054D01*
X164912659Y-52795527D01*
X164912466Y-52795161D01*
X164872139Y-52748732D01*
X164823062Y-52715526D01*
X164771001Y-52681175D01*
X164764374Y-52653527D01*
X164803565Y-52635761D01*
X164813236Y-52634171D01*
X164841342Y-52626851D01*
X164837580Y-52612471D01*
X164797635Y-52584247D01*
X164771063Y-52567869D01*
X164704320Y-52533720D01*
X164648321Y-52515887D01*
X164632495Y-52515162D01*
X164596266Y-52506165D01*
X164594478Y-52477616D01*
X164614939Y-52457460D01*
X164617044Y-52433602D01*
X164601128Y-52415953D01*
X164834098Y-52415953D01*
X164842123Y-52439723D01*
X164867777Y-52459135D01*
X164934033Y-52508810D01*
X164967038Y-52545605D01*
X164975902Y-52579223D01*
X164956524Y-52610146D01*
X164938906Y-52614421D01*
X164913503Y-52625794D01*
X164922290Y-52654434D01*
X164958547Y-52692123D01*
X165015556Y-52730643D01*
X165046733Y-52746304D01*
X165112769Y-52781872D01*
X165142580Y-52810642D01*
X165132985Y-52828117D01*
X165106860Y-52831309D01*
X165055857Y-52820306D01*
X165019093Y-52804532D01*
X164995842Y-52796317D01*
X164998452Y-52813235D01*
X165028740Y-52860508D01*
X165048008Y-52887689D01*
X165098209Y-52952122D01*
X165140946Y-52986229D01*
X165193732Y-53000905D01*
X165236310Y-53004836D01*
X165309309Y-53016347D01*
X165349218Y-53035342D01*
X165352108Y-53055979D01*
X165314049Y-53072414D01*
X165284623Y-53076685D01*
X165217025Y-53083175D01*
X165204839Y-53084345D01*
X165264414Y-53118182D01*
X165319931Y-53136485D01*
X165410138Y-53146123D01*
X165541142Y-53147701D01*
X165559623Y-53147383D01*
X165660084Y-53147507D01*
X165739028Y-53151620D01*
X165786303Y-53158968D01*
X165795256Y-53164856D01*
X165773040Y-53176944D01*
X165713628Y-53190524D01*
X165627879Y-53203364D01*
X165584393Y-53208224D01*
X165485283Y-53219064D01*
X165427830Y-53228348D01*
X165405628Y-53238146D01*
X165412274Y-53250526D01*
X165426174Y-53259337D01*
X165491454Y-53276710D01*
X165542900Y-53264827D01*
X165609739Y-53247993D01*
X165692113Y-53237812D01*
X165707144Y-53237074D01*
X165783079Y-53227165D01*
X165845055Y-53206887D01*
X165854841Y-53201188D01*
X165908592Y-53172109D01*
X165935051Y-53179314D01*
X165939848Y-53205298D01*
X165952831Y-53230183D01*
X165997906Y-53227326D01*
X166000095Y-53226784D01*
X166045961Y-53222845D01*
X166060245Y-53246491D01*
X166060342Y-53250424D01*
X166043800Y-53284056D01*
X166027551Y-53289184D01*
X166004720Y-53297245D01*
X165993056Y-53301363D01*
X165935091Y-53332450D01*
X165866402Y-53374272D01*
X165799735Y-53418654D01*
X165747838Y-53457422D01*
X165723457Y-53482402D01*
X165722960Y-53484509D01*
X165744735Y-53508718D01*
X165801160Y-53533619D01*
X165878889Y-53555520D01*
X165964575Y-53570731D01*
X166044870Y-53575559D01*
X166051443Y-53575355D01*
X166144812Y-53575892D01*
X166192205Y-53587384D01*
X166194730Y-53610488D01*
X166161307Y-53640536D01*
X166116321Y-53682177D01*
X166117706Y-53713593D01*
X166161846Y-53736631D01*
X166215536Y-53767817D01*
X166261890Y-53812968D01*
X166291009Y-53845022D01*
X166323281Y-53860890D01*
X166373294Y-53863715D01*
X166455632Y-53856640D01*
X166461620Y-53856001D01*
X166556269Y-53849528D01*
X166605837Y-53855381D01*
X166614611Y-53865634D01*
X166595461Y-53891064D01*
X166584488Y-53893553D01*
X166566729Y-53898397D01*
X166584488Y-53907611D01*
X166611743Y-53939353D01*
X166614611Y-53955821D01*
X166603106Y-53979176D01*
X166561426Y-53981031D01*
X166536291Y-53976863D01*
X166487955Y-53969250D01*
X166481612Y-53974858D01*
X166502897Y-53989737D01*
X166565348Y-54005934D01*
X166663390Y-54002252D01*
X166671253Y-54001249D01*
X166794681Y-53984876D01*
X166735401Y-54047977D01*
X166698675Y-54092373D01*
X166694936Y-54118345D01*
X166711637Y-54133538D01*
X166766098Y-54155121D01*
X166795351Y-54160489D01*
X166877126Y-54169773D01*
X166952465Y-54183169D01*
X167035260Y-54204046D01*
X167139399Y-54235773D01*
X167235365Y-54267217D01*
X167325686Y-54295436D01*
X167402408Y-54316118D01*
X167450591Y-54325288D01*
X167454037Y-54325427D01*
X167491438Y-54330999D01*
X167566633Y-54346399D01*
X167670688Y-54369652D01*
X167794667Y-54398785D01*
X167881575Y-54419905D01*
X168140519Y-54481954D01*
X168360141Y-54530600D01*
X168547074Y-54566975D01*
X168707949Y-54592210D01*
X168849399Y-54607436D01*
X168978056Y-54613787D01*
X169019677Y-54614127D01*
X169213089Y-54609650D01*
X169368553Y-54595900D01*
X169495741Y-54571058D01*
X169604321Y-54533305D01*
X169693033Y-54487437D01*
X169788323Y-54434829D01*
X169889141Y-54385537D01*
X169951398Y-54359063D01*
X170064311Y-54297115D01*
X170191842Y-54191543D01*
X170228533Y-54155867D01*
X170282484Y-54099959D01*
X170329478Y-54045270D01*
X170374016Y-53984567D01*
X170420604Y-53910616D01*
X170473743Y-53816184D01*
X170537939Y-53694036D01*
X170617695Y-53536941D01*
X170633645Y-53505203D01*
X170731220Y-53307135D01*
X170807166Y-53142748D01*
X170864026Y-53004027D01*
X170904346Y-52882956D01*
X170930669Y-52771519D01*
X170945540Y-52661702D01*
X170951502Y-52545488D01*
X170951954Y-52502398D01*
X170943781Y-52386807D01*
X170920923Y-52239387D01*
X170886570Y-52073068D01*
X170843910Y-51900784D01*
X170796131Y-51735465D01*
X170746421Y-51590042D01*
X170700464Y-51482403D01*
X170652841Y-51382203D01*
X170607242Y-51278615D01*
X170577599Y-51204649D01*
X170532200Y-51098618D01*
X170477844Y-51012576D01*
X170403932Y-50933381D01*
X170299867Y-50847886D01*
X170274705Y-50829025D01*
X170204627Y-50778356D01*
X170140822Y-50737004D01*
X170076810Y-50703239D01*
X170006111Y-50675332D01*
X169922244Y-50651552D01*
X169818732Y-50630169D01*
X169689093Y-50609453D01*
X169526848Y-50587675D01*
X169325517Y-50563104D01*
X169241366Y-50553141D01*
X168823559Y-50507657D01*
X168451404Y-50475159D01*
X168124146Y-50455619D01*
X167841028Y-50449011D01*
X167601295Y-50455308D01*
X167404193Y-50474482D01*
X167340747Y-50485057D01*
X167218400Y-50508782D01*
X167137565Y-50526005D01*
X167092270Y-50538486D01*
X167076545Y-50547986D01*
X167084417Y-50556264D01*
X167090560Y-50558799D01*
X167122525Y-50579026D01*
X167111492Y-50596740D01*
X167062661Y-50609342D01*
X166981232Y-50614230D01*
X166979687Y-50614232D01*
X166875547Y-50619985D01*
X166786780Y-50635412D01*
X166723058Y-50657768D01*
X166694054Y-50684304D01*
X166694276Y-50695291D01*
X166727023Y-50718016D01*
X166800052Y-50715693D01*
X166861623Y-50702567D01*
X166911378Y-50696569D01*
X166927742Y-50715681D01*
X166927894Y-50719534D01*
X166904609Y-50747297D01*
X166837831Y-50770851D01*
X166732173Y-50788931D01*
X166644735Y-50797154D01*
X166578034Y-50793523D01*
X166542488Y-50776108D01*
X166543217Y-50752260D01*
X166585341Y-50729332D01*
X166595485Y-50726442D01*
X166631763Y-50711222D01*
X166636068Y-50699952D01*
X166602440Y-50695633D01*
X166551589Y-50713798D01*
X166502041Y-50744603D01*
X166472319Y-50778202D01*
X166470019Y-50788206D01*
X166456110Y-50825840D01*
X166426215Y-50825135D01*
X166409773Y-50807021D01*
X166376205Y-50787770D01*
X166342079Y-50783291D01*
X166308601Y-50787814D01*
X166319666Y-50802866D01*
X166322490Y-50804696D01*
X166343365Y-50835020D01*
X166326771Y-50863248D01*
X166282226Y-50876562D01*
X166269395Y-50876197D01*
X166189416Y-50873575D01*
X166149088Y-50884790D01*
X166141100Y-50912850D01*
X166144687Y-50927514D01*
X166143007Y-50966252D01*
X166114069Y-50975954D01*
X166071584Y-50952982D01*
X166066616Y-50948247D01*
X166037403Y-50938439D01*
X166005600Y-50954695D01*
X165992925Y-50961174D01*
X165963552Y-50984395D01*
X165910906Y-51024482D01*
X165872215Y-51046533D01*
X165865703Y-51048008D01*
X165840545Y-51056874D01*
X165849301Y-51076091D01*
X165882710Y-51094591D01*
X165909725Y-51100629D01*
X165953497Y-51113394D01*
X165963947Y-51132353D01*
X165939896Y-51149318D01*
X165886284Y-51152208D01*
X165795256Y-51141570D01*
X165751081Y-51142064D01*
X165741154Y-51167548D01*
X165742091Y-51174526D01*
X165732444Y-51210085D01*
X165714389Y-51216698D01*
X165676783Y-51229460D01*
X165615024Y-51262526D01*
X165558675Y-51298079D01*
X165518459Y-51325142D01*
X165437743Y-51379460D01*
X165499673Y-51407677D01*
X165540833Y-51435384D01*
X165536606Y-51460890D01*
X165498319Y-51470438D01*
X165437742Y-51447686D01*
X165377091Y-51418382D01*
X165347436Y-51412788D01*
X165337953Y-51430655D01*
X165337382Y-51445360D01*
X165319762Y-51496244D01*
X165278453Y-51546170D01*
X165230781Y-51576002D01*
X165217127Y-51578178D01*
X165163346Y-51594888D01*
X165093634Y-51637614D01*
X165022800Y-51695251D01*
X164965656Y-51756695D01*
X164951408Y-51777410D01*
X164905824Y-51852367D01*
X164977011Y-51895659D01*
X165030561Y-51936936D01*
X165045797Y-51968703D01*
X165021551Y-51984799D01*
X164993976Y-51985020D01*
X164914770Y-51982617D01*
X164872346Y-51995980D01*
X164856548Y-52029928D01*
X164855408Y-52050784D01*
X164859500Y-52091872D01*
X164881199Y-52105260D01*
X164934641Y-52098842D01*
X164939754Y-52097890D01*
X164997609Y-52094862D01*
X165025767Y-52108331D01*
X165016445Y-52132668D01*
X165002263Y-52143099D01*
X164990257Y-52174103D01*
X164993953Y-52208319D01*
X164997823Y-52244423D01*
X164973703Y-52250532D01*
X164946250Y-52244676D01*
X164881539Y-52245848D01*
X164855215Y-52265224D01*
X164838652Y-52293591D01*
X164861216Y-52301113D01*
X164864507Y-52301139D01*
X164898721Y-52309841D01*
X164893973Y-52338804D01*
X164861753Y-52379738D01*
X164834098Y-52415953D01*
X164601128Y-52415953D01*
X164584816Y-52397865D01*
X164548977Y-52357309D01*
X164552738Y-52334050D01*
X164588766Y-52334426D01*
X164634327Y-52355075D01*
X164692140Y-52378067D01*
X164732001Y-52375236D01*
X164747407Y-52356068D01*
X164721606Y-52340138D01*
X164693874Y-52324470D01*
X164701912Y-52301141D01*
X164718955Y-52281361D01*
X164741295Y-52250351D01*
X164732421Y-52227015D01*
X164686582Y-52196448D01*
X164686087Y-52196156D01*
X164632856Y-52156606D01*
X164615590Y-52125446D01*
X164636963Y-52109286D01*
X164650569Y-52108349D01*
X164682617Y-52093975D01*
X164686718Y-52081672D01*
X164704247Y-52065558D01*
X164722866Y-52068867D01*
X164750655Y-52065936D01*
X164759012Y-52023176D01*
X164759014Y-52022335D01*
X164751358Y-51978714D01*
X164718519Y-51967257D01*
X164695270Y-51968870D01*
X164644549Y-51964061D01*
X164620966Y-51945683D01*
X164632162Y-51922102D01*
X164672660Y-51915560D01*
X164721852Y-51901064D01*
X164733279Y-51860575D01*
X164706506Y-51798592D01*
X164686718Y-51770968D01*
X164648596Y-51704521D01*
X164639504Y-51647245D01*
X164659334Y-51610227D01*
X164688341Y-51602277D01*
X164724070Y-51611396D01*
X164723894Y-51647006D01*
X164722215Y-51652525D01*
X164725396Y-51710056D01*
X164760940Y-51760969D01*
X164807077Y-51805627D01*
X164836201Y-51814629D01*
X164861939Y-51789521D01*
X164872270Y-51773600D01*
X164888218Y-51740661D01*
X164869619Y-51736583D01*
X164853968Y-51740263D01*
X164815141Y-51739791D01*
X164808297Y-51716245D01*
X164830832Y-51680116D01*
X164878086Y-51643098D01*
X164924543Y-51612428D01*
X164934846Y-51585352D01*
X164914686Y-51541547D01*
X164909206Y-51531961D01*
X164884506Y-51478891D01*
X164888183Y-51443280D01*
X164901528Y-51424040D01*
X164939722Y-51394694D01*
X164978560Y-51385478D01*
X164999538Y-51400035D01*
X165000000Y-51404668D01*
X164985014Y-51437332D01*
X164975112Y-51448836D01*
X164960812Y-51490470D01*
X164978788Y-51532962D01*
X165019061Y-51553988D01*
X165022169Y-51554080D01*
X165055908Y-51541133D01*
X165100379Y-51509442D01*
X165144215Y-51469730D01*
X165176049Y-51432719D01*
X165184515Y-51409134D01*
X165179224Y-51405920D01*
X165137466Y-51401667D01*
X165110573Y-51399895D01*
X165068718Y-51386013D01*
X165054027Y-51360854D01*
X165071023Y-51340519D01*
X165092964Y-51337192D01*
X165143844Y-51325644D01*
X165144040Y-51325142D01*
X165216888Y-51325142D01*
X165228938Y-51337192D01*
X165240987Y-51325142D01*
X165228938Y-51313093D01*
X165216888Y-51325142D01*
X165144040Y-51325142D01*
X165154601Y-51298157D01*
X165121485Y-51265466D01*
X165118581Y-51263872D01*
X165084675Y-51233946D01*
X165090940Y-51212513D01*
X165130399Y-51206754D01*
X165202968Y-51233799D01*
X165213061Y-51238845D01*
X165283345Y-51273453D01*
X165319349Y-51286050D01*
X165329111Y-51277691D01*
X165322126Y-51253181D01*
X165331811Y-51218544D01*
X165385930Y-51187488D01*
X165480762Y-51161619D01*
X165566319Y-51147847D01*
X165642244Y-51133458D01*
X165673429Y-51117687D01*
X165663156Y-51103289D01*
X165614703Y-51093018D01*
X165531352Y-51089627D01*
X165497952Y-51090441D01*
X165407297Y-51091607D01*
X165357698Y-51085744D01*
X165342386Y-51071799D01*
X165343308Y-51066343D01*
X165372916Y-51036765D01*
X165399625Y-51027006D01*
X165434795Y-51011860D01*
X165530171Y-51011860D01*
X165542220Y-51023909D01*
X165554270Y-51011860D01*
X165542220Y-50999810D01*
X165530171Y-51011860D01*
X165434795Y-51011860D01*
X165448825Y-51005818D01*
X165494258Y-50975005D01*
X165639052Y-50975005D01*
X165642517Y-50999195D01*
X165676026Y-51011860D01*
X165679264Y-51013084D01*
X165735223Y-51015367D01*
X165796325Y-51004736D01*
X165827808Y-50992524D01*
X165903700Y-50954695D01*
X165778605Y-50953154D01*
X165705038Y-50956440D01*
X165653128Y-50966530D01*
X165639052Y-50975005D01*
X165494258Y-50975005D01*
X165507578Y-50965971D01*
X165513946Y-50960735D01*
X165555694Y-50931184D01*
X165603501Y-50913312D01*
X165671154Y-50903951D01*
X165772443Y-50899930D01*
X165779031Y-50899805D01*
X165858919Y-50897096D01*
X165906198Y-50892899D01*
X165914517Y-50887937D01*
X165903700Y-50885623D01*
X165827013Y-50866884D01*
X165793800Y-50840948D01*
X165805882Y-50810325D01*
X165835139Y-50791001D01*
X165895009Y-50771299D01*
X165924684Y-50782217D01*
X165963045Y-50797488D01*
X166027611Y-50804660D01*
X166047088Y-50804679D01*
X166144687Y-50802337D01*
X166054317Y-50765261D01*
X165997626Y-50737681D01*
X165966192Y-50713993D01*
X165963947Y-50708778D01*
X165981566Y-50678419D01*
X166031982Y-50679561D01*
X166106753Y-50709715D01*
X166180977Y-50743116D01*
X166231911Y-50757865D01*
X166253798Y-50754262D01*
X166240877Y-50732607D01*
X166204734Y-50704602D01*
X166146363Y-50659048D01*
X166104298Y-50616087D01*
X166099603Y-50609363D01*
X166083141Y-50566523D01*
X166098036Y-50551993D01*
X166135447Y-50567492D01*
X166169040Y-50595864D01*
X166259487Y-50667800D01*
X166347980Y-50695973D01*
X166444608Y-50683288D01*
X166457676Y-50679004D01*
X166552735Y-50646094D01*
X166414983Y-50602765D01*
X166330667Y-50570341D01*
X166284285Y-50539130D01*
X166277230Y-50523777D01*
X166289916Y-50499962D01*
X166331452Y-50505824D01*
X166398702Y-50518934D01*
X166451945Y-50521654D01*
X166500022Y-50526275D01*
X166518217Y-50538862D01*
X166539442Y-50564086D01*
X166591955Y-50582403D01*
X166659007Y-50590877D01*
X166723851Y-50586571D01*
X166748780Y-50579305D01*
X166792856Y-50558563D01*
X166795647Y-50544808D01*
X166772429Y-50533672D01*
X166724944Y-50529291D01*
X166704204Y-50539098D01*
X166664466Y-50547209D01*
X166592567Y-50530561D01*
X166585705Y-50528190D01*
X166461663Y-50491281D01*
X166339316Y-50466817D01*
X166230784Y-50456277D01*
X166148189Y-50461139D01*
X166117848Y-50471106D01*
X166067853Y-50489850D01*
X166034247Y-50477050D01*
X166029933Y-50472969D01*
X166014445Y-50439498D01*
X166040746Y-50415837D01*
X166103335Y-50402470D01*
X166196716Y-50399881D01*
X166315388Y-50408554D01*
X166453853Y-50428975D01*
X166478164Y-50433496D01*
X166585501Y-50453662D01*
X166650738Y-50464328D01*
X166679036Y-50465436D01*
X166675557Y-50456928D01*
X166645465Y-50438746D01*
X166632685Y-50431757D01*
X166590700Y-50398234D01*
X166566837Y-50360159D01*
X166567467Y-50331653D01*
X166584488Y-50324939D01*
X166613167Y-50335099D01*
X166672933Y-50362125D01*
X166752099Y-50400674D01*
X166771615Y-50410502D01*
X166858246Y-50453117D01*
X166915656Y-50475761D01*
X166957091Y-50481260D01*
X166995792Y-50472443D01*
X167018878Y-50463288D01*
X167097089Y-50430403D01*
X166962307Y-50387917D01*
X166819027Y-50322978D01*
X166704583Y-50230526D01*
X166626397Y-50117314D01*
X166605586Y-50063307D01*
X166582260Y-49995051D01*
X166545019Y-49896984D01*
X166499422Y-49783387D01*
X166460857Y-49691380D01*
X166416927Y-49585871D01*
X166381170Y-49494542D01*
X166357436Y-49427602D01*
X166349526Y-49396171D01*
X166358074Y-49363150D01*
X166378722Y-49369248D01*
X166403975Y-49409549D01*
X166415473Y-49439421D01*
X166436760Y-49497510D01*
X166471015Y-49584192D01*
X166512018Y-49683849D01*
X166526775Y-49718819D01*
X166570953Y-49825649D01*
X166612542Y-49931177D01*
X166644182Y-50016596D01*
X166650218Y-50034235D01*
X166690637Y-50126537D01*
X166748641Y-50201008D01*
X166832455Y-50264406D01*
X166950304Y-50323488D01*
X167050970Y-50363491D01*
X167277325Y-50447710D01*
X167505151Y-50406747D01*
X167567616Y-50396465D01*
X167630734Y-50388608D01*
X167698553Y-50383412D01*
X167775124Y-50381113D01*
X167864497Y-50381947D01*
X167970721Y-50386151D01*
X168097846Y-50393961D01*
X168249923Y-50405614D01*
X168431000Y-50421345D01*
X168645127Y-50441392D01*
X168896355Y-50465989D01*
X169188733Y-50495375D01*
X169410057Y-50517899D01*
X169634718Y-50545351D01*
X169829090Y-50578349D01*
X169987556Y-50615738D01*
X170104504Y-50656364D01*
X170120968Y-50664057D01*
X170231899Y-50729307D01*
X170344139Y-50813158D01*
X170445634Y-50904999D01*
X170524332Y-50994217D01*
X170559937Y-51050516D01*
X170718734Y-51397625D01*
X170841452Y-51716197D01*
X170928703Y-52008948D01*
X170981101Y-52278594D01*
X170997404Y-52502398D01*
X170999258Y-52527849D01*
G37*
D12*
%TO.C,J3*%
X147240000Y-41500000D02*
X147240000Y-42300000D01*
X147480000Y-41740000D02*
X147480000Y-57720000D01*
X148280000Y-41500000D02*
X147240000Y-41500000D01*
X148400000Y-41740000D02*
X148400000Y-57720000D01*
X149400000Y-41740000D02*
X149400000Y-57720000D01*
X152501000Y-41740000D02*
X152501000Y-57720000D01*
X154220000Y-41740000D02*
X147480000Y-41740000D01*
X154220000Y-41740000D02*
X154220000Y-57720000D01*
X154220000Y-57720000D02*
X147480000Y-57720000D01*
%TO.C,C5*%
X156701248Y-49265000D02*
X157223752Y-49265000D01*
X156701248Y-50735000D02*
X157223752Y-50735000D01*
%TO.C,D2*%
X145090000Y-62530000D02*
X150530000Y-62530000D01*
X145090000Y-62660000D02*
X145090000Y-62530000D01*
X145090000Y-65340000D02*
X145090000Y-65470000D01*
X145090000Y-65470000D02*
X150530000Y-65470000D01*
X145870000Y-62530000D02*
X145870000Y-65470000D01*
X145990000Y-62530000D02*
X145990000Y-65470000D01*
X146110000Y-62530000D02*
X146110000Y-65470000D01*
X150530000Y-62530000D02*
X150530000Y-62660000D01*
X150530000Y-65470000D02*
X150530000Y-65340000D01*
%TD*%
M02*
