M48
; DRILL file {KiCad 8.0.4} date 2024-08-17T15:49:19+0200
; FORMAT={-:-/ absolute / metric / decimal}
; #@! TF.CreationDate,2024-08-17T15:49:19+02:00
; #@! TF.GenerationSoftware,Kicad,Pcbnew,8.0.4
; #@! TF.FileFunction,Plated,1,2,PTH
FMAT,2
METRIC
; #@! TA.AperFunction,Plated,PTH,ViaDrill
T1C0.300
; #@! TA.AperFunction,Plated,PTH,ComponentDrill
T2C1.000
; #@! TA.AperFunction,Plated,PTH,ComponentDrill
T3C1.100
; #@! TA.AperFunction,Plated,PTH,ComponentDrill
T4C1.200
%
G90
G05
T1
X153.379Y-51.039
X154.811Y-50.391
X158.863Y-48.985
X159.219Y-60.795
X159.233Y-43.5
X159.333Y-49.995
X159.359Y-53.384
X167.037Y-45.187
X168.114Y-41.765
T2
X135.96Y-47.5
X135.96Y-50.04
X135.96Y-52.58
X135.96Y-55.12
X135.96Y-57.66
X138.5Y-47.5
X138.5Y-50.04
X138.5Y-52.58
X138.5Y-55.12
X138.5Y-57.66
X145.0Y-43.34
X145.0Y-45.88
X145.0Y-48.42
X145.0Y-50.96
X145.0Y-53.5
T3
X143.88Y-60.5
X144.0Y-64.0
X151.5Y-60.5
X151.62Y-64.0
T4
X151.0Y-43.38
X151.0Y-45.92
X151.0Y-48.46
X151.0Y-51.0
X151.0Y-53.54
X151.0Y-56.08
M30
