%TF.GenerationSoftware,KiCad,Pcbnew,8.0.4*%
%TF.CreationDate,2024-08-16T22:25:57+02:00*%
%TF.ProjectId,breakout_pwr,62726561-6b6f-4757-945f-7077722e6b69,rev?*%
%TF.SameCoordinates,Original*%
%TF.FileFunction,Copper,L2,Bot*%
%TF.FilePolarity,Positive*%
%FSLAX46Y46*%
G04 Gerber Fmt 4.6, Leading zero omitted, Abs format (unit mm)*
G04 Created by KiCad (PCBNEW 8.0.4) date 2024-08-16 22:25:57*
%MOMM*%
%LPD*%
G01*
G04 APERTURE LIST*
G04 Aperture macros list*
%AMRoundRect*
0 Rectangle with rounded corners*
0 $1 Rounding radius*
0 $2 $3 $4 $5 $6 $7 $8 $9 X,Y pos of 4 corners*
0 Add a 4 corners polygon primitive as box body*
4,1,4,$2,$3,$4,$5,$6,$7,$8,$9,$2,$3,0*
0 Add four circle primitives for the rounded corners*
1,1,$1+$1,$2,$3*
1,1,$1+$1,$4,$5*
1,1,$1+$1,$6,$7*
1,1,$1+$1,$8,$9*
0 Add four rect primitives between the rounded corners*
20,1,$1+$1,$2,$3,$4,$5,0*
20,1,$1+$1,$4,$5,$6,$7,0*
20,1,$1+$1,$6,$7,$8,$9,0*
20,1,$1+$1,$8,$9,$2,$3,0*%
G04 Aperture macros list end*
%TA.AperFunction,ComponentPad*%
%ADD10R,1.700000X1.700000*%
%TD*%
%TA.AperFunction,ComponentPad*%
%ADD11O,1.700000X1.700000*%
%TD*%
%TA.AperFunction,ComponentPad*%
%ADD12RoundRect,0.250000X-0.600000X-0.600000X0.600000X-0.600000X0.600000X0.600000X-0.600000X0.600000X0*%
%TD*%
%TA.AperFunction,ComponentPad*%
%ADD13C,1.700000*%
%TD*%
%TA.AperFunction,ComponentPad*%
%ADD14R,2.200000X2.200000*%
%TD*%
%TA.AperFunction,ComponentPad*%
%ADD15O,2.200000X2.200000*%
%TD*%
%TA.AperFunction,ComponentPad*%
%ADD16R,2.000000X2.000000*%
%TD*%
%TA.AperFunction,ComponentPad*%
%ADD17C,2.000000*%
%TD*%
%TA.AperFunction,SMDPad,CuDef*%
%ADD18RoundRect,0.250000X-0.850000X-0.350000X0.850000X-0.350000X0.850000X0.350000X-0.850000X0.350000X0*%
%TD*%
%TA.AperFunction,SMDPad,CuDef*%
%ADD19RoundRect,0.250000X-1.275000X-1.125000X1.275000X-1.125000X1.275000X1.125000X-1.275000X1.125000X0*%
%TD*%
%TA.AperFunction,SMDPad,CuDef*%
%ADD20RoundRect,0.249997X-2.950003X-2.650003X2.950003X-2.650003X2.950003X2.650003X-2.950003X2.650003X0*%
%TD*%
%TA.AperFunction,ViaPad*%
%ADD21C,0.600000*%
%TD*%
%TA.AperFunction,Conductor*%
%ADD22C,0.200000*%
%TD*%
G04 APERTURE END LIST*
D10*
%TO.P,J1,1,Pin_1*%
%TO.N,GND*%
X145000000Y-43340000D03*
D11*
%TO.P,J1,2,Pin_2*%
%TO.N,/-12V_PWR*%
X145000000Y-45880000D03*
%TO.P,J1,3,Pin_3*%
%TO.N,/+12V_PWR*%
X145000000Y-48420000D03*
%TO.P,J1,4,Pin_4*%
%TO.N,/+3V3_PWR*%
X145000000Y-50960000D03*
%TO.P,J1,5,Pin_5*%
%TO.N,/+5V_PWR*%
X145000000Y-53500000D03*
%TD*%
D12*
%TO.P,J2,1,Pin_1*%
%TO.N,unconnected-(J2-Pin_1-Pad1)*%
X135960000Y-47500000D03*
D13*
%TO.P,J2,2,Pin_2*%
%TO.N,Net-(D2-K)*%
X138500000Y-47500000D03*
%TO.P,J2,3,Pin_3*%
%TO.N,GND*%
X135960000Y-50040000D03*
%TO.P,J2,4,Pin_4*%
%TO.N,unconnected-(J2-Pin_4-Pad4)*%
X138500000Y-50040000D03*
%TO.P,J2,5,Pin_5*%
%TO.N,GND*%
X135960000Y-52580000D03*
%TO.P,J2,6,Pin_6*%
%TO.N,unconnected-(J2-Pin_6-Pad6)*%
X138500000Y-52580000D03*
%TO.P,J2,7,Pin_7*%
%TO.N,GND*%
X135960000Y-55120000D03*
%TO.P,J2,8,Pin_8*%
%TO.N,unconnected-(J2-Pin_8-Pad8)*%
X138500000Y-55120000D03*
%TO.P,J2,9,Pin_9*%
%TO.N,unconnected-(J2-Pin_9-Pad9)*%
X135960000Y-57660000D03*
%TO.P,J2,10,Pin_10*%
%TO.N,Net-(D1-A)*%
X138500000Y-57660000D03*
%TD*%
D14*
%TO.P,D1,1,K*%
%TO.N,/+12V_PWR*%
X151500000Y-60500000D03*
D15*
%TO.P,D1,2,A*%
%TO.N,Net-(D1-A)*%
X143880000Y-60500000D03*
%TD*%
D16*
%TO.P,J3,1,Pin_1*%
%TO.N,GND*%
X151000000Y-43380000D03*
D17*
%TO.P,J3,2,Pin_2*%
%TO.N,/-12V_PWR*%
X151000000Y-45920000D03*
%TO.P,J3,3,Pin_3*%
%TO.N,/+12V_PWR*%
X151000000Y-48460000D03*
%TO.P,J3,4,Pin_4*%
%TO.N,/+3V3_PWR*%
X151000000Y-51000000D03*
%TO.P,J3,5,Pin_5*%
%TO.N,/+5V_PWR*%
X151000000Y-53540000D03*
%TO.P,J3,6*%
%TO.N,N/C*%
X151000000Y-56080000D03*
%TD*%
D14*
%TO.P,D2,1,K*%
%TO.N,Net-(D2-K)*%
X144000000Y-64000000D03*
D15*
%TO.P,D2,2,A*%
%TO.N,/-12V_PWR*%
X151620000Y-64000000D03*
%TD*%
D18*
%TO.P,U1,1,GND*%
%TO.N,GND*%
X157025000Y-48255000D03*
%TO.P,U1,2,VO*%
%TO.N,/+5V_PWR*%
X157025000Y-45975000D03*
D19*
X161650000Y-44450000D03*
X161650000Y-47500000D03*
D20*
X163325000Y-45975000D03*
D19*
X165000000Y-44450000D03*
X165000000Y-47500000D03*
D18*
%TO.P,U1,3,VI*%
%TO.N,/+12V_PWR*%
X157025000Y-43695000D03*
%TD*%
D21*
%TO.N,/+3V3_PWR*%
X159359400Y-53384100D03*
X153378700Y-51038800D03*
X159218800Y-60794700D03*
%TO.N,/-12V_PWR*%
X167036700Y-45187000D03*
%TO.N,/+5V_PWR*%
X159333300Y-49995000D03*
X168114100Y-41764700D03*
X154811500Y-50391400D03*
%TO.N,/+12V_PWR*%
X159233400Y-43500400D03*
%TO.N,GND*%
X158863000Y-48985400D03*
%TD*%
D22*
%TO.N,Net-(D2-K)*%
X139889800Y-48889800D02*
X138500000Y-47500000D01*
X139889800Y-58575700D02*
X139889800Y-48889800D01*
X143912400Y-62598300D02*
X139889800Y-58575700D01*
X144000000Y-62598300D02*
X143912400Y-62598300D01*
X144000000Y-64000000D02*
X144000000Y-62598300D01*
%TO.N,/+3V3_PWR*%
X159218800Y-53384100D02*
X159218800Y-60794700D01*
X155724000Y-53384100D02*
X159218800Y-53384100D01*
X153378700Y-51038800D02*
X155724000Y-53384100D01*
X159218800Y-53384100D02*
X159359400Y-53384100D01*
%TO.N,/-12V_PWR*%
X151620000Y-64000000D02*
X151620000Y-62598300D01*
X152929200Y-47849200D02*
X152929200Y-50366200D01*
X151000000Y-45920000D02*
X152929200Y-47849200D01*
X152075300Y-62598300D02*
X151620000Y-62598300D01*
X152929200Y-61744400D02*
X152075300Y-62598300D01*
X152929200Y-51648500D02*
X152929200Y-61744400D01*
X152743200Y-51462500D02*
X152929200Y-51648500D01*
X152743200Y-50552200D02*
X152743200Y-51462500D01*
X152929200Y-50366200D02*
X152743200Y-50552200D01*
X153557000Y-50366200D02*
X152929200Y-50366200D01*
X154212100Y-51021300D02*
X153557000Y-50366200D01*
X164679600Y-51021300D02*
X154212100Y-51021300D01*
X167036700Y-48664200D02*
X164679600Y-51021300D01*
X167036700Y-45187000D02*
X167036700Y-48664200D01*
%TO.N,/+5V_PWR*%
X163325000Y-45975000D02*
X163175000Y-45975000D01*
X163175000Y-45975000D02*
X161650000Y-44450000D01*
X165428800Y-44450000D02*
X165000000Y-44450000D01*
X168114100Y-41764700D02*
X165428800Y-44450000D01*
X165000000Y-47500000D02*
X163475000Y-45975000D01*
X163325000Y-45975000D02*
X163475000Y-45975000D01*
X163475000Y-45975000D02*
X165000000Y-44450000D01*
X155207900Y-49995000D02*
X154811500Y-50391400D01*
X159333300Y-49995000D02*
X155207900Y-49995000D01*
X163175000Y-45975000D02*
X161650000Y-47500000D01*
X160735200Y-48414800D02*
X159464800Y-48414800D01*
X161650000Y-47500000D02*
X160735200Y-48414800D01*
X157025000Y-45975000D02*
X159464800Y-48414800D01*
X159464800Y-49863500D02*
X159333300Y-49995000D01*
X159464800Y-48414800D02*
X159464800Y-49863500D01*
%TO.N,/+12V_PWR*%
X152303200Y-58295100D02*
X151500000Y-59098300D01*
X152303200Y-49763200D02*
X152303200Y-58295100D01*
X151000000Y-48460000D02*
X152303200Y-49763200D01*
X151500000Y-60500000D02*
X151500000Y-59098300D01*
X145000000Y-48420000D02*
X146151700Y-48420000D01*
X147439200Y-47132500D02*
X146151700Y-48420000D01*
X149672500Y-47132500D02*
X147439200Y-47132500D01*
X149672500Y-42265100D02*
X149672500Y-47132500D01*
X149859300Y-42078300D02*
X149672500Y-42265100D01*
X155408300Y-42078300D02*
X149859300Y-42078300D01*
X157025000Y-43695000D02*
X155408300Y-42078300D01*
X149672500Y-47132500D02*
X151000000Y-48460000D01*
X157219600Y-43500400D02*
X157025000Y-43695000D01*
X159233400Y-43500400D02*
X157219600Y-43500400D01*
%TO.N,GND*%
X135960000Y-55120000D02*
X135960000Y-52580000D01*
X135960000Y-52580000D02*
X135960000Y-50040000D01*
X151000000Y-43380000D02*
X152301700Y-43380000D01*
X152301700Y-43531700D02*
X157025000Y-48255000D01*
X152301700Y-43380000D02*
X152301700Y-43531700D01*
X158132600Y-48255000D02*
X158863000Y-48985400D01*
X157025000Y-48255000D02*
X158132600Y-48255000D01*
%TD*%
M02*
