%TF.GenerationSoftware,KiCad,Pcbnew,8.0.4*%
%TF.CreationDate,2024-08-15T03:18:53+02:00*%
%TF.ProjectId,breakout_dac,62726561-6b6f-4757-945f-6461632e6b69,rev?*%
%TF.SameCoordinates,Original*%
%TF.FileFunction,Copper,L2,Bot*%
%TF.FilePolarity,Positive*%
%FSLAX46Y46*%
G04 Gerber Fmt 4.6, Leading zero omitted, Abs format (unit mm)*
G04 Created by KiCad (PCBNEW 8.0.4) date 2024-08-15 03:18:53*
%MOMM*%
%LPD*%
G01*
G04 APERTURE LIST*
%TA.AperFunction,ComponentPad*%
%ADD10O,1.700000X1.700000*%
%TD*%
%TA.AperFunction,ComponentPad*%
%ADD11R,1.700000X1.700000*%
%TD*%
%TA.AperFunction,ViaPad*%
%ADD12C,0.600000*%
%TD*%
%TA.AperFunction,Conductor*%
%ADD13C,0.200000*%
%TD*%
G04 APERTURE END LIST*
D10*
%TO.P,VOUT_DAC1,8,Pin_8*%
%TO.N,/CVH_DAC*%
X96500000Y-109240000D03*
%TO.P,VOUT_DAC1,7,Pin_7*%
%TO.N,/CVG_DAC*%
X96500000Y-106700000D03*
%TO.P,VOUT_DAC1,6,Pin_6*%
%TO.N,/CVF_DAC*%
X96500000Y-104160000D03*
%TO.P,VOUT_DAC1,5,Pin_5*%
%TO.N,/CVE_DAC*%
X96500000Y-101620000D03*
%TO.P,VOUT_DAC1,4,Pin_4*%
%TO.N,/CVD_DAC*%
X96500000Y-99080000D03*
%TO.P,VOUT_DAC1,3,Pin_3*%
%TO.N,/CVC_DAC*%
X96500000Y-96540000D03*
%TO.P,VOUT_DAC1,2,Pin_2*%
%TO.N,/CVB_DAC*%
X96500000Y-94000000D03*
D11*
%TO.P,VOUT_DAC1,1,Pin_1*%
%TO.N,/CVA_DAC*%
X96500000Y-91460000D03*
%TD*%
%TO.P,SPIPINS_DAC1,1,Pin_1*%
%TO.N,/SCLK_DAC*%
X92500000Y-98500000D03*
D10*
%TO.P,SPIPINS_DAC1,2,Pin_2*%
%TO.N,/DIN_DAC*%
X92500000Y-101040000D03*
%TO.P,SPIPINS_DAC1,3,Pin_3*%
%TO.N,/SYNC_DAC*%
X92500000Y-103580000D03*
%TO.P,SPIPINS_DAC1,4,Pin_4*%
%TO.N,/LDAC_DAC*%
X92500000Y-106120000D03*
%TO.P,SPIPINS_DAC1,5,Pin_5*%
%TO.N,/CLR_DAC*%
X92500000Y-108660000D03*
%TD*%
D11*
%TO.P,PWRPINS_DAC1,1,Pin_1*%
%TO.N,/V+DAC*%
X87500000Y-99000000D03*
D10*
%TO.P,PWRPINS_DAC1,2,Pin_2*%
%TO.N,/V-DAC*%
X87500000Y-101540000D03*
%TO.P,PWRPINS_DAC1,3,Pin_3*%
%TO.N,GND*%
X87500000Y-104080000D03*
%TO.P,PWRPINS_DAC1,4,Pin_4*%
%TO.N,/VDD_DAC*%
X87500000Y-106620000D03*
%TO.P,PWRPINS_DAC1,5,Pin_5*%
%TO.N,/VREF_2V5_DAC*%
X87500000Y-109160000D03*
%TD*%
D12*
%TO.N,/CVH_DAC*%
X75245000Y-117204000D03*
%TO.N,/CVG_DAC*%
X77124900Y-111201000D03*
%TO.N,/CVF_DAC*%
X68478400Y-111037000D03*
%TO.N,/CVE_DAC*%
X74433600Y-97534800D03*
X73235400Y-117203000D03*
%TO.N,/VOUTH_DAC*%
X62951600Y-110229000D03*
X64147500Y-125672000D03*
%TO.N,/VOUTG_DAC*%
X63746600Y-107340000D03*
X84711600Y-128323000D03*
%TO.N,/VOUTF_DAC*%
X64551600Y-117962000D03*
X78921200Y-123752000D03*
%TO.N,/VOUTE_DAC*%
X63346600Y-113984000D03*
X83296600Y-128470000D03*
%TO.N,/CVD_DAC*%
X75380800Y-103838000D03*
X74767200Y-108634000D03*
%TO.N,/CVC_DAC*%
X68734200Y-97293200D03*
X69283300Y-103420000D03*
%TO.N,/VOUTC_DAC*%
X64395000Y-119310000D03*
X83955400Y-125562000D03*
%TO.N,/VOUTB_DAC*%
X70239900Y-96068800D03*
X79080900Y-122290000D03*
%TO.N,/VDD_DAC*%
X83139100Y-125454000D03*
%TO.N,/V+DAC*%
X73837800Y-121694000D03*
%TO.N,/V-DAC*%
X73955300Y-122983000D03*
%TO.N,Net-(C11-Pad1)*%
X64798300Y-107764000D03*
X69106300Y-124420000D03*
X65786800Y-105521000D03*
X65786800Y-101282000D03*
%TO.N,Net-(C11-Pad2)*%
X71282500Y-114741000D03*
X71336200Y-103680000D03*
X73337000Y-125663000D03*
%TO.N,Net-(C10-Pad2)*%
X70294500Y-112500000D03*
X77567800Y-97226300D03*
X69840400Y-125340000D03*
%TO.N,Net-(C10-Pad1)*%
X67128800Y-113736000D03*
X68791500Y-125403000D03*
%TO.N,Net-(C9-Pad1)*%
X64896100Y-114564000D03*
X66648400Y-111297000D03*
%TO.N,Net-(C9-Pad2)*%
X76816500Y-93884100D03*
X62713000Y-128155000D03*
%TO.N,Net-(C8-Pad1)*%
X74688400Y-92736600D03*
X64816700Y-110414000D03*
%TO.N,/VBIAS_DAC*%
X81159700Y-107834000D03*
X74894700Y-122875000D03*
%TO.N,/VREF_2V5_DAC*%
X85803600Y-125556000D03*
%TO.N,Net-(C4-Pad1)*%
X69057600Y-121000000D03*
X69685300Y-106844000D03*
%TO.N,Net-(C4-Pad2)*%
X69158900Y-107787000D03*
X68414100Y-118586000D03*
%TO.N,Net-(C3-Pad1)*%
X70876000Y-110207000D03*
X70340500Y-99560100D03*
X70487500Y-121049000D03*
%TO.N,Net-(C2-Pad2)*%
X73833600Y-107271000D03*
X72670200Y-96443900D03*
%TO.N,Net-(C2-Pad1)*%
X67953000Y-94081800D03*
X68582000Y-110213000D03*
X74893400Y-113528000D03*
X75382700Y-121062000D03*
%TO.N,Net-(C1-Pad2)*%
X73187300Y-118049000D03*
X70565000Y-93475700D03*
X74514800Y-124219000D03*
%TO.N,Net-(C1-Pad1)*%
X75117000Y-124823000D03*
X69953200Y-94054400D03*
X72336000Y-114064000D03*
%TD*%
D13*
%TO.N,/CVH_DAC*%
X96500000Y-108088000D02*
X96500000Y-109240000D01*
X96768500Y-108088000D02*
X96500000Y-108088000D01*
X97668700Y-107188000D02*
X96768500Y-108088000D01*
X97668700Y-106212000D02*
X97668700Y-107188000D01*
X97005300Y-105548000D02*
X97668700Y-106212000D01*
X96097100Y-105548000D02*
X97005300Y-105548000D01*
X92976000Y-102427000D02*
X96097100Y-105548000D01*
X91513200Y-102427000D02*
X92976000Y-102427000D01*
X91130400Y-102810000D02*
X91513200Y-102427000D01*
X84665100Y-102810000D02*
X91130400Y-102810000D01*
X76523000Y-110952000D02*
X84665100Y-102810000D01*
X76523000Y-115926000D02*
X76523000Y-110952000D01*
X75245000Y-117204000D02*
X76523000Y-115926000D01*
%TO.N,/CVG_DAC*%
X77124900Y-111000000D02*
X77124900Y-111201000D01*
X82672200Y-105452000D02*
X77124900Y-111000000D01*
X89932400Y-105452000D02*
X82672200Y-105452000D01*
X91783700Y-107304000D02*
X89932400Y-105452000D01*
X94744600Y-107304000D02*
X91783700Y-107304000D01*
X95348300Y-106700000D02*
X94744600Y-107304000D01*
X96500000Y-106700000D02*
X95348300Y-106700000D01*
%TO.N,/CVF_DAC*%
X96500000Y-103008000D02*
X96500000Y-104160000D01*
X96787900Y-103008000D02*
X96500000Y-103008000D01*
X98081900Y-101714000D02*
X96787900Y-103008000D01*
X98081900Y-96477100D02*
X98081900Y-101714000D01*
X96915400Y-95310600D02*
X98081900Y-96477100D01*
X76314600Y-95310600D02*
X96915400Y-95310600D01*
X73030700Y-92026700D02*
X76314600Y-95310600D01*
X69136100Y-92026700D02*
X73030700Y-92026700D01*
X67330600Y-93832200D02*
X69136100Y-92026700D01*
X67330600Y-109889000D02*
X67330600Y-93832200D01*
X68478400Y-111037000D02*
X67330600Y-109889000D01*
%TO.N,/CVE_DAC*%
X74803400Y-97904600D02*
X74433600Y-97534800D01*
X84043800Y-97904600D02*
X74803400Y-97904600D01*
X85001800Y-96946600D02*
X84043800Y-97904600D01*
X95277800Y-96946600D02*
X85001800Y-96946600D01*
X96022900Y-97691700D02*
X95277800Y-96946600D01*
X96764500Y-97691700D02*
X96022900Y-97691700D01*
X97656800Y-98584000D02*
X96764500Y-97691700D01*
X97656800Y-99580000D02*
X97656800Y-98584000D01*
X96768500Y-100468000D02*
X97656800Y-99580000D01*
X96500000Y-100468000D02*
X96768500Y-100468000D01*
X96500000Y-101620000D02*
X96500000Y-100468000D01*
X73387400Y-117051000D02*
X73235400Y-117203000D01*
X73387400Y-109163000D02*
X73387400Y-117051000D01*
X74436200Y-108114000D02*
X73387400Y-109163000D01*
X74436200Y-98271800D02*
X74436200Y-108114000D01*
X74803400Y-97904600D02*
X74436200Y-98271800D01*
%TO.N,/VOUTH_DAC*%
X62743100Y-110438000D02*
X62951600Y-110229000D01*
X62743100Y-124268000D02*
X62743100Y-110438000D01*
X64147500Y-125672000D02*
X62743100Y-124268000D01*
%TO.N,/VOUTG_DAC*%
X83747700Y-127359000D02*
X84711600Y-128323000D01*
X68719900Y-127359000D02*
X83747700Y-127359000D01*
X63793300Y-122432000D02*
X68719900Y-127359000D01*
X63793300Y-118764000D02*
X63793300Y-122432000D01*
X63949800Y-118608000D02*
X63793300Y-118764000D01*
X63949800Y-111451000D02*
X63949800Y-118608000D01*
X63746600Y-111247000D02*
X63949800Y-111451000D01*
X63746600Y-107340000D02*
X63746600Y-111247000D01*
%TO.N,/VOUTF_DAC*%
X66307600Y-119718000D02*
X64551600Y-117962000D01*
X66307700Y-119718000D02*
X66307600Y-119718000D01*
X66307700Y-123771000D02*
X66307700Y-119718000D01*
X68810700Y-126274000D02*
X66307700Y-123771000D01*
X76399800Y-126274000D02*
X68810700Y-126274000D01*
X78921200Y-123752000D02*
X76399800Y-126274000D01*
%TO.N,/VOUTE_DAC*%
X69162500Y-128470000D02*
X83296600Y-128470000D01*
X63346600Y-122654000D02*
X69162500Y-128470000D01*
X63346600Y-113984000D02*
X63346600Y-122654000D01*
%TO.N,/CVD_DAC*%
X75380800Y-108020000D02*
X74767200Y-108634000D01*
X75380800Y-103838000D02*
X75380800Y-108020000D01*
X95206600Y-99080000D02*
X96500000Y-99080000D01*
X95206600Y-99079900D02*
X95206600Y-99080000D01*
X93475000Y-97348300D02*
X95206600Y-99079900D01*
X85768900Y-97348300D02*
X93475000Y-97348300D01*
X79279400Y-103838000D02*
X85768900Y-97348300D01*
X75380800Y-103838000D02*
X79279400Y-103838000D01*
%TO.N,/CVC_DAC*%
X68734200Y-93799000D02*
X68734200Y-97293200D01*
X70098300Y-92434900D02*
X68734200Y-93799000D01*
X72748900Y-92434900D02*
X70098300Y-92434900D01*
X76854000Y-96540000D02*
X72748900Y-92434900D01*
X96500000Y-96540000D02*
X76854000Y-96540000D01*
X68734200Y-102871000D02*
X69283300Y-103420000D01*
X68734200Y-97293200D02*
X68734200Y-102871000D01*
%TO.N,/VOUTC_DAC*%
X64395000Y-122446000D02*
X64395000Y-119310000D01*
X68628300Y-126679000D02*
X64395000Y-122446000D01*
X82838300Y-126679000D02*
X68628300Y-126679000D01*
X83955400Y-125562000D02*
X82838300Y-126679000D01*
%TO.N,/VOUTB_DAC*%
X70239900Y-98608600D02*
X70239900Y-96068800D01*
X71937900Y-100307000D02*
X70239900Y-98608600D01*
X71937900Y-112078000D02*
X71937900Y-100307000D01*
X71884300Y-112132000D02*
X71937900Y-112078000D01*
X71884300Y-113665000D02*
X71884300Y-112132000D01*
X71734300Y-113815000D02*
X71884300Y-113665000D01*
X71734300Y-114314000D02*
X71734300Y-113815000D01*
X71884300Y-114464000D02*
X71734300Y-114314000D01*
X71884300Y-116520000D02*
X71884300Y-114464000D01*
X71782200Y-116622000D02*
X71884300Y-116520000D01*
X71782200Y-122942000D02*
X71782200Y-116622000D01*
X74266400Y-125426000D02*
X71782200Y-122942000D01*
X75944700Y-125426000D02*
X74266400Y-125426000D01*
X79080900Y-122290000D02*
X75944700Y-125426000D01*
%TO.N,/VDD_DAC*%
X83139100Y-111845000D02*
X83139100Y-125454000D01*
X87212000Y-107772000D02*
X83139100Y-111845000D01*
X87500000Y-107772000D02*
X87212000Y-107772000D01*
X87500000Y-106620000D02*
X87500000Y-107772000D01*
%TO.N,/V+DAC*%
X73837800Y-111510000D02*
X73837800Y-121694000D01*
X86348300Y-99000000D02*
X73837800Y-111510000D01*
X87500000Y-99000000D02*
X86348300Y-99000000D01*
%TO.N,/V-DAC*%
X85366800Y-101540000D02*
X87500000Y-101540000D01*
X74240000Y-112667000D02*
X85366800Y-101540000D01*
X74240000Y-120877000D02*
X74240000Y-112667000D01*
X74453400Y-121090000D02*
X74240000Y-120877000D01*
X74453400Y-122239000D02*
X74453400Y-121090000D01*
X73955300Y-122737000D02*
X74453400Y-122239000D01*
X73955300Y-122983000D02*
X73955300Y-122737000D01*
%TO.N,Net-(C11-Pad1)*%
X67731800Y-123045000D02*
X69106300Y-124420000D01*
X67731800Y-111512000D02*
X67731800Y-123045000D01*
X66910600Y-110691000D02*
X67731800Y-111512000D01*
X66238700Y-110691000D02*
X66910600Y-110691000D01*
X65882400Y-111047000D02*
X66238700Y-110691000D01*
X64574400Y-111047000D02*
X65882400Y-111047000D01*
X64184600Y-110658000D02*
X64574400Y-111047000D01*
X64184600Y-108378000D02*
X64184600Y-110658000D01*
X64798300Y-107764000D02*
X64184600Y-108378000D01*
X64798300Y-106510000D02*
X64798300Y-107764000D01*
X65786800Y-105521000D02*
X64798300Y-106510000D01*
X65786800Y-105521000D02*
X65786800Y-101282000D01*
%TO.N,Net-(C11-Pad2)*%
X71282500Y-123608000D02*
X73337000Y-125663000D01*
X71282500Y-114741000D02*
X71282500Y-123608000D01*
X71482400Y-103826000D02*
X71336200Y-103680000D01*
X71482400Y-113353000D02*
X71482400Y-103826000D01*
X71282500Y-113553000D02*
X71482400Y-113353000D01*
X71282500Y-114741000D02*
X71282500Y-113553000D01*
%TO.N,Net-(C10-Pad2)*%
X76783300Y-97226300D02*
X77567800Y-97226300D01*
X72430900Y-92873900D02*
X76783300Y-97226300D01*
X70257200Y-92873900D02*
X72430900Y-92873900D01*
X69337000Y-93794100D02*
X70257200Y-92873900D01*
X69337000Y-99727000D02*
X69337000Y-93794100D01*
X70268700Y-100659000D02*
X69337000Y-99727000D01*
X70268700Y-106576000D02*
X70268700Y-100659000D01*
X70287000Y-106595000D02*
X70268700Y-106576000D01*
X70287000Y-107093000D02*
X70287000Y-106595000D01*
X70268700Y-107111000D02*
X70287000Y-107093000D01*
X70268700Y-112474000D02*
X70268700Y-107111000D01*
X70294500Y-112500000D02*
X70268700Y-112474000D01*
X69840400Y-112954000D02*
X69840400Y-125340000D01*
X70294500Y-112500000D02*
X69840400Y-112954000D01*
%TO.N,Net-(C10-Pad1)*%
X67128800Y-123741000D02*
X68791500Y-125403000D01*
X67128800Y-113736000D02*
X67128800Y-123741000D01*
%TO.N,Net-(C9-Pad1)*%
X66648400Y-112812000D02*
X66648400Y-111297000D01*
X64896100Y-114564000D02*
X66648400Y-112812000D01*
%TO.N,Net-(C9-Pad2)*%
X62341400Y-127783000D02*
X62713000Y-128155000D01*
X62341400Y-97667400D02*
X62341400Y-127783000D01*
X68790600Y-91218200D02*
X62341400Y-97667400D01*
X74150600Y-91218200D02*
X68790600Y-91218200D01*
X76816500Y-93884100D02*
X74150600Y-91218200D01*
%TO.N,Net-(C8-Pad1)*%
X73576800Y-91625000D02*
X74688400Y-92736600D01*
X68960700Y-91625000D02*
X73576800Y-91625000D01*
X66867700Y-93718000D02*
X68960700Y-91625000D01*
X66867700Y-108363000D02*
X66867700Y-93718000D01*
X64816700Y-110414000D02*
X66867700Y-108363000D01*
%TO.N,/VBIAS_DAC*%
X81159700Y-116610000D02*
X74894700Y-122875000D01*
X81159700Y-107834000D02*
X81159700Y-116610000D01*
%TO.N,/VREF_2V5_DAC*%
X87500000Y-123859000D02*
X85803600Y-125556000D01*
X87500000Y-109160000D02*
X87500000Y-123859000D01*
%TO.N,Net-(C4-Pad1)*%
X69057600Y-112434000D02*
X69057600Y-121000000D01*
X69760700Y-111731000D02*
X69057600Y-112434000D01*
X69760700Y-106919000D02*
X69760700Y-111731000D01*
X69685300Y-106844000D02*
X69760700Y-106919000D01*
%TO.N,Net-(C4-Pad2)*%
X69238600Y-107867000D02*
X69158900Y-107787000D01*
X69238600Y-111485000D02*
X69238600Y-107867000D01*
X68414100Y-112310000D02*
X69238600Y-111485000D01*
X68414100Y-118586000D02*
X68414100Y-112310000D01*
%TO.N,Net-(C3-Pad1)*%
X70682400Y-99902000D02*
X70340500Y-99560100D01*
X70682400Y-106422000D02*
X70682400Y-99902000D01*
X70876000Y-106616000D02*
X70682400Y-106422000D01*
X70876000Y-110207000D02*
X70876000Y-106616000D01*
X70926800Y-110258000D02*
X70876000Y-110207000D01*
X70926800Y-112856000D02*
X70926800Y-110258000D01*
X70487500Y-113295000D02*
X70926800Y-112856000D01*
X70487500Y-121049000D02*
X70487500Y-113295000D01*
%TO.N,Net-(C2-Pad2)*%
X73833200Y-107270000D02*
X73833600Y-107271000D01*
X73833200Y-97785200D02*
X73833200Y-107270000D01*
X72670200Y-96622200D02*
X73833200Y-97785200D01*
X72670200Y-96443900D02*
X72670200Y-96622200D01*
%TO.N,Net-(C2-Pad1)*%
X67953000Y-109584000D02*
X68582000Y-110213000D01*
X67953000Y-94081800D02*
X67953000Y-109584000D01*
X74641700Y-113780000D02*
X74893400Y-113528000D01*
X74641700Y-120321000D02*
X74641700Y-113780000D01*
X75382700Y-121062000D02*
X74641700Y-120321000D01*
%TO.N,Net-(C1-Pad2)*%
X72585600Y-117447000D02*
X73187300Y-118049000D01*
X72585600Y-116955000D02*
X72585600Y-117447000D01*
X72937700Y-116603000D02*
X72585600Y-116955000D01*
X72937700Y-98999500D02*
X72937700Y-116603000D01*
X71809500Y-97871300D02*
X72937700Y-98999500D01*
X71809500Y-94720200D02*
X71809500Y-97871300D01*
X70565000Y-93475700D02*
X71809500Y-94720200D01*
X74283500Y-124219000D02*
X74514800Y-124219000D01*
X73187300Y-123123000D02*
X74283500Y-124219000D01*
X73187300Y-118049000D02*
X73187300Y-123123000D01*
%TO.N,Net-(C1-Pad1)*%
X71407800Y-95509000D02*
X69953200Y-94054400D01*
X71407800Y-98037800D02*
X71407800Y-95509000D01*
X72339600Y-98969600D02*
X71407800Y-98037800D01*
X72339600Y-114061000D02*
X72339600Y-98969600D01*
X72336000Y-114064000D02*
X72339600Y-114061000D01*
X74263000Y-124823000D02*
X75117000Y-124823000D01*
X72183900Y-122744000D02*
X74263000Y-124823000D01*
X72183900Y-116789000D02*
X72183900Y-122744000D01*
X72336000Y-116637000D02*
X72183900Y-116789000D01*
X72336000Y-114064000D02*
X72336000Y-116637000D01*
%TD*%
M02*
