%TF.GenerationSoftware,KiCad,Pcbnew,8.0.4*%
%TF.CreationDate,2024-08-15T03:18:53+02:00*%
%TF.ProjectId,breakout_dac,62726561-6b6f-4757-945f-6461632e6b69,rev?*%
%TF.SameCoordinates,Original*%
%TF.FileFunction,Paste,Top*%
%TF.FilePolarity,Positive*%
%FSLAX46Y46*%
G04 Gerber Fmt 4.6, Leading zero omitted, Abs format (unit mm)*
G04 Created by KiCad (PCBNEW 8.0.4) date 2024-08-15 03:18:53*
%MOMM*%
%LPD*%
G01*
G04 APERTURE LIST*
G04 Aperture macros list*
%AMRoundRect*
0 Rectangle with rounded corners*
0 $1 Rounding radius*
0 $2 $3 $4 $5 $6 $7 $8 $9 X,Y pos of 4 corners*
0 Add a 4 corners polygon primitive as box body*
4,1,4,$2,$3,$4,$5,$6,$7,$8,$9,$2,$3,0*
0 Add four circle primitives for the rounded corners*
1,1,$1+$1,$2,$3*
1,1,$1+$1,$4,$5*
1,1,$1+$1,$6,$7*
1,1,$1+$1,$8,$9*
0 Add four rect primitives between the rounded corners*
20,1,$1+$1,$2,$3,$4,$5,0*
20,1,$1+$1,$4,$5,$6,$7,0*
20,1,$1+$1,$6,$7,$8,$9,0*
20,1,$1+$1,$8,$9,$2,$3,0*%
G04 Aperture macros list end*
%ADD10RoundRect,0.051250X0.153750X-0.733750X0.153750X0.733750X-0.153750X0.733750X-0.153750X-0.733750X0*%
%ADD11RoundRect,0.150000X-0.835000X-0.150000X0.835000X-0.150000X0.835000X0.150000X-0.835000X0.150000X0*%
%ADD12RoundRect,0.150000X0.835000X0.150000X-0.835000X0.150000X-0.835000X-0.150000X0.835000X-0.150000X0*%
%ADD13RoundRect,0.250000X-0.350000X-0.450000X0.350000X-0.450000X0.350000X0.450000X-0.350000X0.450000X0*%
%ADD14RoundRect,0.250000X-0.337500X-0.475000X0.337500X-0.475000X0.337500X0.475000X-0.337500X0.475000X0*%
G04 APERTURE END LIST*
D10*
%TO.C,dac*%
X81225000Y-126870000D03*
X81875000Y-126870000D03*
X82525000Y-126870000D03*
X83175000Y-126870000D03*
X83825000Y-126870000D03*
X84475000Y-126870000D03*
X85125000Y-126870000D03*
X85775000Y-126870000D03*
X85775000Y-121130000D03*
X85125000Y-121130000D03*
X84475000Y-121130000D03*
X83825000Y-121130000D03*
X83175000Y-121130000D03*
X82525000Y-121130000D03*
X81875000Y-121130000D03*
X81225000Y-121130000D03*
%TD*%
D11*
%TO.C,opa2*%
X62500000Y-119730000D03*
X62500000Y-121000000D03*
X62500000Y-122270000D03*
X62500000Y-123540000D03*
X62500000Y-124810000D03*
X62500000Y-126080000D03*
X62500000Y-127350000D03*
X67450000Y-127350000D03*
X67450000Y-126080000D03*
X67450000Y-124810000D03*
X67450000Y-123540000D03*
X67450000Y-122270000D03*
X67450000Y-121000000D03*
X67450000Y-119730000D03*
%TD*%
D12*
%TO.C,opa1*%
X76925000Y-127500000D03*
X76925000Y-126230000D03*
X76925000Y-124960000D03*
X76925000Y-123690000D03*
X76925000Y-122420000D03*
X76925000Y-121150000D03*
X76925000Y-119880000D03*
X71975000Y-119880000D03*
X71975000Y-121150000D03*
X71975000Y-122420000D03*
X71975000Y-123690000D03*
X71975000Y-124960000D03*
X71975000Y-126230000D03*
X71975000Y-127500000D03*
%TD*%
D13*
%TO.C,R26*%
X71500000Y-116000000D03*
X73500000Y-116000000D03*
%TD*%
%TO.C,R25*%
X71500000Y-112500000D03*
X73500000Y-112500000D03*
%TD*%
%TO.C,R24*%
X71500000Y-102000000D03*
X73500000Y-102000000D03*
%TD*%
%TO.C,R23*%
X71500000Y-98500000D03*
X73500000Y-98500000D03*
%TD*%
%TO.C,R22*%
X67000000Y-105500000D03*
X69000000Y-105500000D03*
%TD*%
%TO.C,R21*%
X67000000Y-109000000D03*
X69000000Y-109000000D03*
%TD*%
%TO.C,R20*%
X67000000Y-112500000D03*
X69000000Y-112500000D03*
%TD*%
%TO.C,R19*%
X67000000Y-116000000D03*
X69000000Y-116000000D03*
%TD*%
%TO.C,R18*%
X80500000Y-91500000D03*
X82500000Y-91500000D03*
%TD*%
%TO.C,R17*%
X80500000Y-95000000D03*
X82500000Y-95000000D03*
%TD*%
%TO.C,R16*%
X62500000Y-109000000D03*
X64500000Y-109000000D03*
%TD*%
%TO.C,R15*%
X62500000Y-105500000D03*
X64500000Y-105500000D03*
%TD*%
%TO.C,R14*%
X64500000Y-116000000D03*
X62500000Y-116000000D03*
%TD*%
%TO.C,R13*%
X62500000Y-112500000D03*
X64500000Y-112500000D03*
%TD*%
%TO.C,R12*%
X71500000Y-109000000D03*
X73500000Y-109000000D03*
%TD*%
%TO.C,R11*%
X71500000Y-105500000D03*
X73500000Y-105500000D03*
%TD*%
%TO.C,R10*%
X71500000Y-95000000D03*
X73500000Y-95000000D03*
%TD*%
%TO.C,R9*%
X71500000Y-91500000D03*
X73500000Y-91500000D03*
%TD*%
%TO.C,R8*%
X67000000Y-102000000D03*
X69000000Y-102000000D03*
%TD*%
%TO.C,R7*%
X67000000Y-98500000D03*
X69000000Y-98500000D03*
%TD*%
%TO.C,R6*%
X67000000Y-95000000D03*
X69000000Y-95000000D03*
%TD*%
%TO.C,R5*%
X67000000Y-91500000D03*
X69000000Y-91500000D03*
%TD*%
%TO.C,R4*%
X62500000Y-102000000D03*
X64500000Y-102000000D03*
%TD*%
%TO.C,R3*%
X62500000Y-98500000D03*
X64500000Y-98500000D03*
%TD*%
%TO.C,R2*%
X62500000Y-95000000D03*
X64500000Y-95000000D03*
%TD*%
%TO.C,R1*%
X62500000Y-91500000D03*
X64500000Y-91500000D03*
%TD*%
D14*
%TO.C,C11*%
X78000000Y-102000000D03*
X75925000Y-102000000D03*
%TD*%
%TO.C,C10*%
X78000000Y-98500000D03*
X75925000Y-98500000D03*
%TD*%
%TO.C,C9*%
X78000000Y-95000000D03*
X75925000Y-95000000D03*
%TD*%
%TO.C,C8*%
X78000000Y-91500000D03*
X75925000Y-91500000D03*
%TD*%
%TO.C,C7*%
X80425000Y-109000000D03*
X82500000Y-109000000D03*
%TD*%
%TO.C,C6*%
X80500000Y-102000000D03*
X82575000Y-102000000D03*
%TD*%
%TO.C,C5*%
X80500000Y-112500000D03*
X82575000Y-112500000D03*
%TD*%
%TO.C,C4*%
X78000000Y-105500000D03*
X75925000Y-105500000D03*
%TD*%
%TO.C,C3*%
X78000000Y-109000000D03*
X75925000Y-109000000D03*
%TD*%
%TO.C,C2*%
X78000000Y-112500000D03*
X75925000Y-112500000D03*
%TD*%
%TO.C,C1*%
X78000000Y-116000000D03*
X75925000Y-116000000D03*
%TD*%
M02*
