%TF.GenerationSoftware,KiCad,Pcbnew,8.0.4*%
%TF.CreationDate,2024-08-15T03:18:53+02:00*%
%TF.ProjectId,breakout_dac,62726561-6b6f-4757-945f-6461632e6b69,rev?*%
%TF.SameCoordinates,Original*%
%TF.FileFunction,Legend,Top*%
%TF.FilePolarity,Positive*%
%FSLAX46Y46*%
G04 Gerber Fmt 4.6, Leading zero omitted, Abs format (unit mm)*
G04 Created by KiCad (PCBNEW 8.0.4) date 2024-08-15 03:18:53*
%MOMM*%
%LPD*%
G01*
G04 APERTURE LIST*
%ADD10C,0.100000*%
%ADD11C,0.150000*%
%ADD12C,0.120000*%
%ADD13C,0.200000*%
%ADD14C,0.127000*%
G04 APERTURE END LIST*
D10*
X83511025Y-90035864D02*
X83891977Y-90035864D01*
X83653882Y-89702531D02*
X83653882Y-90559673D01*
X83653882Y-90559673D02*
X83701501Y-90654912D01*
X83701501Y-90654912D02*
X83796739Y-90702531D01*
X83796739Y-90702531D02*
X83891977Y-90702531D01*
X84225311Y-90702531D02*
X84225311Y-89702531D01*
X84653882Y-90702531D02*
X84653882Y-90178721D01*
X84653882Y-90178721D02*
X84606263Y-90083483D01*
X84606263Y-90083483D02*
X84511025Y-90035864D01*
X84511025Y-90035864D02*
X84368168Y-90035864D01*
X84368168Y-90035864D02*
X84272930Y-90083483D01*
X84272930Y-90083483D02*
X84225311Y-90131102D01*
X85130073Y-90702531D02*
X85130073Y-90035864D01*
X85130073Y-89702531D02*
X85082454Y-89750150D01*
X85082454Y-89750150D02*
X85130073Y-89797769D01*
X85130073Y-89797769D02*
X85177692Y-89750150D01*
X85177692Y-89750150D02*
X85130073Y-89702531D01*
X85130073Y-89702531D02*
X85130073Y-89797769D01*
X85558644Y-90654912D02*
X85653882Y-90702531D01*
X85653882Y-90702531D02*
X85844358Y-90702531D01*
X85844358Y-90702531D02*
X85939596Y-90654912D01*
X85939596Y-90654912D02*
X85987215Y-90559673D01*
X85987215Y-90559673D02*
X85987215Y-90512054D01*
X85987215Y-90512054D02*
X85939596Y-90416816D01*
X85939596Y-90416816D02*
X85844358Y-90369197D01*
X85844358Y-90369197D02*
X85701501Y-90369197D01*
X85701501Y-90369197D02*
X85606263Y-90321578D01*
X85606263Y-90321578D02*
X85558644Y-90226340D01*
X85558644Y-90226340D02*
X85558644Y-90178721D01*
X85558644Y-90178721D02*
X85606263Y-90083483D01*
X85606263Y-90083483D02*
X85701501Y-90035864D01*
X85701501Y-90035864D02*
X85844358Y-90035864D01*
X85844358Y-90035864D02*
X85939596Y-90083483D01*
X87130073Y-90654912D02*
X87225311Y-90702531D01*
X87225311Y-90702531D02*
X87415787Y-90702531D01*
X87415787Y-90702531D02*
X87511025Y-90654912D01*
X87511025Y-90654912D02*
X87558644Y-90559673D01*
X87558644Y-90559673D02*
X87558644Y-90512054D01*
X87558644Y-90512054D02*
X87511025Y-90416816D01*
X87511025Y-90416816D02*
X87415787Y-90369197D01*
X87415787Y-90369197D02*
X87272930Y-90369197D01*
X87272930Y-90369197D02*
X87177692Y-90321578D01*
X87177692Y-90321578D02*
X87130073Y-90226340D01*
X87130073Y-90226340D02*
X87130073Y-90178721D01*
X87130073Y-90178721D02*
X87177692Y-90083483D01*
X87177692Y-90083483D02*
X87272930Y-90035864D01*
X87272930Y-90035864D02*
X87415787Y-90035864D01*
X87415787Y-90035864D02*
X87511025Y-90083483D01*
X87987216Y-90702531D02*
X87987216Y-90035864D01*
X87987216Y-89702531D02*
X87939597Y-89750150D01*
X87939597Y-89750150D02*
X87987216Y-89797769D01*
X87987216Y-89797769D02*
X88034835Y-89750150D01*
X88034835Y-89750150D02*
X87987216Y-89702531D01*
X87987216Y-89702531D02*
X87987216Y-89797769D01*
X88891977Y-90702531D02*
X88891977Y-89702531D01*
X88891977Y-90654912D02*
X88796739Y-90702531D01*
X88796739Y-90702531D02*
X88606263Y-90702531D01*
X88606263Y-90702531D02*
X88511025Y-90654912D01*
X88511025Y-90654912D02*
X88463406Y-90607292D01*
X88463406Y-90607292D02*
X88415787Y-90512054D01*
X88415787Y-90512054D02*
X88415787Y-90226340D01*
X88415787Y-90226340D02*
X88463406Y-90131102D01*
X88463406Y-90131102D02*
X88511025Y-90083483D01*
X88511025Y-90083483D02*
X88606263Y-90035864D01*
X88606263Y-90035864D02*
X88796739Y-90035864D01*
X88796739Y-90035864D02*
X88891977Y-90083483D01*
X89749120Y-90654912D02*
X89653882Y-90702531D01*
X89653882Y-90702531D02*
X89463406Y-90702531D01*
X89463406Y-90702531D02*
X89368168Y-90654912D01*
X89368168Y-90654912D02*
X89320549Y-90559673D01*
X89320549Y-90559673D02*
X89320549Y-90178721D01*
X89320549Y-90178721D02*
X89368168Y-90083483D01*
X89368168Y-90083483D02*
X89463406Y-90035864D01*
X89463406Y-90035864D02*
X89653882Y-90035864D01*
X89653882Y-90035864D02*
X89749120Y-90083483D01*
X89749120Y-90083483D02*
X89796739Y-90178721D01*
X89796739Y-90178721D02*
X89796739Y-90273959D01*
X89796739Y-90273959D02*
X89320549Y-90369197D01*
X90987216Y-90702531D02*
X90987216Y-90035864D01*
X90987216Y-89702531D02*
X90939597Y-89750150D01*
X90939597Y-89750150D02*
X90987216Y-89797769D01*
X90987216Y-89797769D02*
X91034835Y-89750150D01*
X91034835Y-89750150D02*
X90987216Y-89702531D01*
X90987216Y-89702531D02*
X90987216Y-89797769D01*
X91415787Y-90654912D02*
X91511025Y-90702531D01*
X91511025Y-90702531D02*
X91701501Y-90702531D01*
X91701501Y-90702531D02*
X91796739Y-90654912D01*
X91796739Y-90654912D02*
X91844358Y-90559673D01*
X91844358Y-90559673D02*
X91844358Y-90512054D01*
X91844358Y-90512054D02*
X91796739Y-90416816D01*
X91796739Y-90416816D02*
X91701501Y-90369197D01*
X91701501Y-90369197D02*
X91558644Y-90369197D01*
X91558644Y-90369197D02*
X91463406Y-90321578D01*
X91463406Y-90321578D02*
X91415787Y-90226340D01*
X91415787Y-90226340D02*
X91415787Y-90178721D01*
X91415787Y-90178721D02*
X91463406Y-90083483D01*
X91463406Y-90083483D02*
X91558644Y-90035864D01*
X91558644Y-90035864D02*
X91701501Y-90035864D01*
X91701501Y-90035864D02*
X91796739Y-90083483D01*
X93463406Y-90035864D02*
X93463406Y-90702531D01*
X93034835Y-90035864D02*
X93034835Y-90559673D01*
X93034835Y-90559673D02*
X93082454Y-90654912D01*
X93082454Y-90654912D02*
X93177692Y-90702531D01*
X93177692Y-90702531D02*
X93320549Y-90702531D01*
X93320549Y-90702531D02*
X93415787Y-90654912D01*
X93415787Y-90654912D02*
X93463406Y-90607292D01*
X93939597Y-90035864D02*
X93939597Y-91035864D01*
X93939597Y-90083483D02*
X94034835Y-90035864D01*
X94034835Y-90035864D02*
X94225311Y-90035864D01*
X94225311Y-90035864D02*
X94320549Y-90083483D01*
X94320549Y-90083483D02*
X94368168Y-90131102D01*
X94368168Y-90131102D02*
X94415787Y-90226340D01*
X94415787Y-90226340D02*
X94415787Y-90512054D01*
X94415787Y-90512054D02*
X94368168Y-90607292D01*
X94368168Y-90607292D02*
X94320549Y-90654912D01*
X94320549Y-90654912D02*
X94225311Y-90702531D01*
X94225311Y-90702531D02*
X94034835Y-90702531D01*
X94034835Y-90702531D02*
X93939597Y-90654912D01*
X83511025Y-91645808D02*
X83891977Y-91645808D01*
X83653882Y-91312475D02*
X83653882Y-92169617D01*
X83653882Y-92169617D02*
X83701501Y-92264856D01*
X83701501Y-92264856D02*
X83796739Y-92312475D01*
X83796739Y-92312475D02*
X83891977Y-92312475D01*
X84368168Y-92312475D02*
X84272930Y-92264856D01*
X84272930Y-92264856D02*
X84225311Y-92217236D01*
X84225311Y-92217236D02*
X84177692Y-92121998D01*
X84177692Y-92121998D02*
X84177692Y-91836284D01*
X84177692Y-91836284D02*
X84225311Y-91741046D01*
X84225311Y-91741046D02*
X84272930Y-91693427D01*
X84272930Y-91693427D02*
X84368168Y-91645808D01*
X84368168Y-91645808D02*
X84511025Y-91645808D01*
X84511025Y-91645808D02*
X84606263Y-91693427D01*
X84606263Y-91693427D02*
X84653882Y-91741046D01*
X84653882Y-91741046D02*
X84701501Y-91836284D01*
X84701501Y-91836284D02*
X84701501Y-92121998D01*
X84701501Y-92121998D02*
X84653882Y-92217236D01*
X84653882Y-92217236D02*
X84606263Y-92264856D01*
X84606263Y-92264856D02*
X84511025Y-92312475D01*
X84511025Y-92312475D02*
X84368168Y-92312475D01*
X85130073Y-91645808D02*
X85130073Y-92645808D01*
X85130073Y-91693427D02*
X85225311Y-91645808D01*
X85225311Y-91645808D02*
X85415787Y-91645808D01*
X85415787Y-91645808D02*
X85511025Y-91693427D01*
X85511025Y-91693427D02*
X85558644Y-91741046D01*
X85558644Y-91741046D02*
X85606263Y-91836284D01*
X85606263Y-91836284D02*
X85606263Y-92121998D01*
X85606263Y-92121998D02*
X85558644Y-92217236D01*
X85558644Y-92217236D02*
X85511025Y-92264856D01*
X85511025Y-92264856D02*
X85415787Y-92312475D01*
X85415787Y-92312475D02*
X85225311Y-92312475D01*
X85225311Y-92312475D02*
X85130073Y-92264856D01*
X86796740Y-91645808D02*
X86796740Y-92645808D01*
X86796740Y-91693427D02*
X86891978Y-91645808D01*
X86891978Y-91645808D02*
X87082454Y-91645808D01*
X87082454Y-91645808D02*
X87177692Y-91693427D01*
X87177692Y-91693427D02*
X87225311Y-91741046D01*
X87225311Y-91741046D02*
X87272930Y-91836284D01*
X87272930Y-91836284D02*
X87272930Y-92121998D01*
X87272930Y-92121998D02*
X87225311Y-92217236D01*
X87225311Y-92217236D02*
X87177692Y-92264856D01*
X87177692Y-92264856D02*
X87082454Y-92312475D01*
X87082454Y-92312475D02*
X86891978Y-92312475D01*
X86891978Y-92312475D02*
X86796740Y-92264856D01*
X87701502Y-92312475D02*
X87701502Y-91645808D01*
X87701502Y-91312475D02*
X87653883Y-91360094D01*
X87653883Y-91360094D02*
X87701502Y-91407713D01*
X87701502Y-91407713D02*
X87749121Y-91360094D01*
X87749121Y-91360094D02*
X87701502Y-91312475D01*
X87701502Y-91312475D02*
X87701502Y-91407713D01*
X88177692Y-91645808D02*
X88177692Y-92312475D01*
X88177692Y-91741046D02*
X88225311Y-91693427D01*
X88225311Y-91693427D02*
X88320549Y-91645808D01*
X88320549Y-91645808D02*
X88463406Y-91645808D01*
X88463406Y-91645808D02*
X88558644Y-91693427D01*
X88558644Y-91693427D02*
X88606263Y-91788665D01*
X88606263Y-91788665D02*
X88606263Y-92312475D01*
X89844359Y-92312475D02*
X89844359Y-91645808D01*
X89844359Y-91312475D02*
X89796740Y-91360094D01*
X89796740Y-91360094D02*
X89844359Y-91407713D01*
X89844359Y-91407713D02*
X89891978Y-91360094D01*
X89891978Y-91360094D02*
X89844359Y-91312475D01*
X89844359Y-91312475D02*
X89844359Y-91407713D01*
X90272930Y-92264856D02*
X90368168Y-92312475D01*
X90368168Y-92312475D02*
X90558644Y-92312475D01*
X90558644Y-92312475D02*
X90653882Y-92264856D01*
X90653882Y-92264856D02*
X90701501Y-92169617D01*
X90701501Y-92169617D02*
X90701501Y-92121998D01*
X90701501Y-92121998D02*
X90653882Y-92026760D01*
X90653882Y-92026760D02*
X90558644Y-91979141D01*
X90558644Y-91979141D02*
X90415787Y-91979141D01*
X90415787Y-91979141D02*
X90320549Y-91931522D01*
X90320549Y-91931522D02*
X90272930Y-91836284D01*
X90272930Y-91836284D02*
X90272930Y-91788665D01*
X90272930Y-91788665D02*
X90320549Y-91693427D01*
X90320549Y-91693427D02*
X90415787Y-91645808D01*
X90415787Y-91645808D02*
X90558644Y-91645808D01*
X90558644Y-91645808D02*
X90653882Y-91693427D01*
X92415787Y-92312475D02*
X91844359Y-92312475D01*
X92130073Y-92312475D02*
X92130073Y-91312475D01*
X92130073Y-91312475D02*
X92034835Y-91455332D01*
X92034835Y-91455332D02*
X91939597Y-91550570D01*
X91939597Y-91550570D02*
X91844359Y-91598189D01*
X83511025Y-93255752D02*
X83891977Y-93255752D01*
X83653882Y-93922419D02*
X83653882Y-93065276D01*
X83653882Y-93065276D02*
X83701501Y-92970038D01*
X83701501Y-92970038D02*
X83796739Y-92922419D01*
X83796739Y-92922419D02*
X83891977Y-92922419D01*
X84368168Y-93922419D02*
X84272930Y-93874800D01*
X84272930Y-93874800D02*
X84225311Y-93827180D01*
X84225311Y-93827180D02*
X84177692Y-93731942D01*
X84177692Y-93731942D02*
X84177692Y-93446228D01*
X84177692Y-93446228D02*
X84225311Y-93350990D01*
X84225311Y-93350990D02*
X84272930Y-93303371D01*
X84272930Y-93303371D02*
X84368168Y-93255752D01*
X84368168Y-93255752D02*
X84511025Y-93255752D01*
X84511025Y-93255752D02*
X84606263Y-93303371D01*
X84606263Y-93303371D02*
X84653882Y-93350990D01*
X84653882Y-93350990D02*
X84701501Y-93446228D01*
X84701501Y-93446228D02*
X84701501Y-93731942D01*
X84701501Y-93731942D02*
X84653882Y-93827180D01*
X84653882Y-93827180D02*
X84606263Y-93874800D01*
X84606263Y-93874800D02*
X84511025Y-93922419D01*
X84511025Y-93922419D02*
X84368168Y-93922419D01*
X85130073Y-93922419D02*
X85130073Y-93255752D01*
X85130073Y-93446228D02*
X85177692Y-93350990D01*
X85177692Y-93350990D02*
X85225311Y-93303371D01*
X85225311Y-93303371D02*
X85320549Y-93255752D01*
X85320549Y-93255752D02*
X85415787Y-93255752D01*
X86891978Y-93874800D02*
X86796740Y-93922419D01*
X86796740Y-93922419D02*
X86606264Y-93922419D01*
X86606264Y-93922419D02*
X86511026Y-93874800D01*
X86511026Y-93874800D02*
X86463407Y-93779561D01*
X86463407Y-93779561D02*
X86463407Y-93398609D01*
X86463407Y-93398609D02*
X86511026Y-93303371D01*
X86511026Y-93303371D02*
X86606264Y-93255752D01*
X86606264Y-93255752D02*
X86796740Y-93255752D01*
X86796740Y-93255752D02*
X86891978Y-93303371D01*
X86891978Y-93303371D02*
X86939597Y-93398609D01*
X86939597Y-93398609D02*
X86939597Y-93493847D01*
X86939597Y-93493847D02*
X86463407Y-93589085D01*
X87796740Y-93922419D02*
X87796740Y-93398609D01*
X87796740Y-93398609D02*
X87749121Y-93303371D01*
X87749121Y-93303371D02*
X87653883Y-93255752D01*
X87653883Y-93255752D02*
X87463407Y-93255752D01*
X87463407Y-93255752D02*
X87368169Y-93303371D01*
X87796740Y-93874800D02*
X87701502Y-93922419D01*
X87701502Y-93922419D02*
X87463407Y-93922419D01*
X87463407Y-93922419D02*
X87368169Y-93874800D01*
X87368169Y-93874800D02*
X87320550Y-93779561D01*
X87320550Y-93779561D02*
X87320550Y-93684323D01*
X87320550Y-93684323D02*
X87368169Y-93589085D01*
X87368169Y-93589085D02*
X87463407Y-93541466D01*
X87463407Y-93541466D02*
X87701502Y-93541466D01*
X87701502Y-93541466D02*
X87796740Y-93493847D01*
X88701502Y-93874800D02*
X88606264Y-93922419D01*
X88606264Y-93922419D02*
X88415788Y-93922419D01*
X88415788Y-93922419D02*
X88320550Y-93874800D01*
X88320550Y-93874800D02*
X88272931Y-93827180D01*
X88272931Y-93827180D02*
X88225312Y-93731942D01*
X88225312Y-93731942D02*
X88225312Y-93446228D01*
X88225312Y-93446228D02*
X88272931Y-93350990D01*
X88272931Y-93350990D02*
X88320550Y-93303371D01*
X88320550Y-93303371D02*
X88415788Y-93255752D01*
X88415788Y-93255752D02*
X88606264Y-93255752D01*
X88606264Y-93255752D02*
X88701502Y-93303371D01*
X89130074Y-93922419D02*
X89130074Y-92922419D01*
X89558645Y-93922419D02*
X89558645Y-93398609D01*
X89558645Y-93398609D02*
X89511026Y-93303371D01*
X89511026Y-93303371D02*
X89415788Y-93255752D01*
X89415788Y-93255752D02*
X89272931Y-93255752D01*
X89272931Y-93255752D02*
X89177693Y-93303371D01*
X89177693Y-93303371D02*
X89130074Y-93350990D01*
X90796741Y-93922419D02*
X90796741Y-93255752D01*
X90796741Y-93446228D02*
X90844360Y-93350990D01*
X90844360Y-93350990D02*
X90891979Y-93303371D01*
X90891979Y-93303371D02*
X90987217Y-93255752D01*
X90987217Y-93255752D02*
X91082455Y-93255752D01*
X91558646Y-93922419D02*
X91463408Y-93874800D01*
X91463408Y-93874800D02*
X91415789Y-93827180D01*
X91415789Y-93827180D02*
X91368170Y-93731942D01*
X91368170Y-93731942D02*
X91368170Y-93446228D01*
X91368170Y-93446228D02*
X91415789Y-93350990D01*
X91415789Y-93350990D02*
X91463408Y-93303371D01*
X91463408Y-93303371D02*
X91558646Y-93255752D01*
X91558646Y-93255752D02*
X91701503Y-93255752D01*
X91701503Y-93255752D02*
X91796741Y-93303371D01*
X91796741Y-93303371D02*
X91844360Y-93350990D01*
X91844360Y-93350990D02*
X91891979Y-93446228D01*
X91891979Y-93446228D02*
X91891979Y-93731942D01*
X91891979Y-93731942D02*
X91844360Y-93827180D01*
X91844360Y-93827180D02*
X91796741Y-93874800D01*
X91796741Y-93874800D02*
X91701503Y-93922419D01*
X91701503Y-93922419D02*
X91558646Y-93922419D01*
X92225313Y-93255752D02*
X92415789Y-93922419D01*
X92415789Y-93922419D02*
X92606265Y-93446228D01*
X92606265Y-93446228D02*
X92796741Y-93922419D01*
X92796741Y-93922419D02*
X92987217Y-93255752D01*
X88661027Y-123095808D02*
X89041979Y-123095808D01*
X88803884Y-122762475D02*
X88803884Y-123619617D01*
X88803884Y-123619617D02*
X88851503Y-123714856D01*
X88851503Y-123714856D02*
X88946741Y-123762475D01*
X88946741Y-123762475D02*
X89041979Y-123762475D01*
X89375313Y-123762475D02*
X89375313Y-123095808D01*
X89375313Y-122762475D02*
X89327694Y-122810094D01*
X89327694Y-122810094D02*
X89375313Y-122857713D01*
X89375313Y-122857713D02*
X89422932Y-122810094D01*
X89422932Y-122810094D02*
X89375313Y-122762475D01*
X89375313Y-122762475D02*
X89375313Y-122857713D01*
X89851503Y-123762475D02*
X89851503Y-123095808D01*
X89851503Y-123191046D02*
X89899122Y-123143427D01*
X89899122Y-123143427D02*
X89994360Y-123095808D01*
X89994360Y-123095808D02*
X90137217Y-123095808D01*
X90137217Y-123095808D02*
X90232455Y-123143427D01*
X90232455Y-123143427D02*
X90280074Y-123238665D01*
X90280074Y-123238665D02*
X90280074Y-123762475D01*
X90280074Y-123238665D02*
X90327693Y-123143427D01*
X90327693Y-123143427D02*
X90422931Y-123095808D01*
X90422931Y-123095808D02*
X90565788Y-123095808D01*
X90565788Y-123095808D02*
X90661027Y-123143427D01*
X90661027Y-123143427D02*
X90708646Y-123238665D01*
X90708646Y-123238665D02*
X90708646Y-123762475D01*
X91565788Y-123714856D02*
X91470550Y-123762475D01*
X91470550Y-123762475D02*
X91280074Y-123762475D01*
X91280074Y-123762475D02*
X91184836Y-123714856D01*
X91184836Y-123714856D02*
X91137217Y-123619617D01*
X91137217Y-123619617D02*
X91137217Y-123238665D01*
X91137217Y-123238665D02*
X91184836Y-123143427D01*
X91184836Y-123143427D02*
X91280074Y-123095808D01*
X91280074Y-123095808D02*
X91470550Y-123095808D01*
X91470550Y-123095808D02*
X91565788Y-123143427D01*
X91565788Y-123143427D02*
X91613407Y-123238665D01*
X91613407Y-123238665D02*
X91613407Y-123333903D01*
X91613407Y-123333903D02*
X91137217Y-123429141D01*
X92661027Y-123095808D02*
X93041979Y-123095808D01*
X92803884Y-123762475D02*
X92803884Y-122905332D01*
X92803884Y-122905332D02*
X92851503Y-122810094D01*
X92851503Y-122810094D02*
X92946741Y-122762475D01*
X92946741Y-122762475D02*
X93041979Y-122762475D01*
X93518170Y-123762475D02*
X93422932Y-123714856D01*
X93422932Y-123714856D02*
X93375313Y-123667236D01*
X93375313Y-123667236D02*
X93327694Y-123571998D01*
X93327694Y-123571998D02*
X93327694Y-123286284D01*
X93327694Y-123286284D02*
X93375313Y-123191046D01*
X93375313Y-123191046D02*
X93422932Y-123143427D01*
X93422932Y-123143427D02*
X93518170Y-123095808D01*
X93518170Y-123095808D02*
X93661027Y-123095808D01*
X93661027Y-123095808D02*
X93756265Y-123143427D01*
X93756265Y-123143427D02*
X93803884Y-123191046D01*
X93803884Y-123191046D02*
X93851503Y-123286284D01*
X93851503Y-123286284D02*
X93851503Y-123571998D01*
X93851503Y-123571998D02*
X93803884Y-123667236D01*
X93803884Y-123667236D02*
X93756265Y-123714856D01*
X93756265Y-123714856D02*
X93661027Y-123762475D01*
X93661027Y-123762475D02*
X93518170Y-123762475D01*
X94280075Y-123762475D02*
X94280075Y-123095808D01*
X94280075Y-123286284D02*
X94327694Y-123191046D01*
X94327694Y-123191046D02*
X94375313Y-123143427D01*
X94375313Y-123143427D02*
X94470551Y-123095808D01*
X94470551Y-123095808D02*
X94565789Y-123095808D01*
X88803884Y-125372419D02*
X88803884Y-124705752D01*
X88803884Y-124800990D02*
X88851503Y-124753371D01*
X88851503Y-124753371D02*
X88946741Y-124705752D01*
X88946741Y-124705752D02*
X89089598Y-124705752D01*
X89089598Y-124705752D02*
X89184836Y-124753371D01*
X89184836Y-124753371D02*
X89232455Y-124848609D01*
X89232455Y-124848609D02*
X89232455Y-125372419D01*
X89232455Y-124848609D02*
X89280074Y-124753371D01*
X89280074Y-124753371D02*
X89375312Y-124705752D01*
X89375312Y-124705752D02*
X89518169Y-124705752D01*
X89518169Y-124705752D02*
X89613408Y-124753371D01*
X89613408Y-124753371D02*
X89661027Y-124848609D01*
X89661027Y-124848609D02*
X89661027Y-125372419D01*
X90280074Y-125372419D02*
X90184836Y-125324800D01*
X90184836Y-125324800D02*
X90137217Y-125277180D01*
X90137217Y-125277180D02*
X90089598Y-125181942D01*
X90089598Y-125181942D02*
X90089598Y-124896228D01*
X90089598Y-124896228D02*
X90137217Y-124800990D01*
X90137217Y-124800990D02*
X90184836Y-124753371D01*
X90184836Y-124753371D02*
X90280074Y-124705752D01*
X90280074Y-124705752D02*
X90422931Y-124705752D01*
X90422931Y-124705752D02*
X90518169Y-124753371D01*
X90518169Y-124753371D02*
X90565788Y-124800990D01*
X90565788Y-124800990D02*
X90613407Y-124896228D01*
X90613407Y-124896228D02*
X90613407Y-125181942D01*
X90613407Y-125181942D02*
X90565788Y-125277180D01*
X90565788Y-125277180D02*
X90518169Y-125324800D01*
X90518169Y-125324800D02*
X90422931Y-125372419D01*
X90422931Y-125372419D02*
X90280074Y-125372419D01*
X91041979Y-124705752D02*
X91041979Y-125372419D01*
X91041979Y-124800990D02*
X91089598Y-124753371D01*
X91089598Y-124753371D02*
X91184836Y-124705752D01*
X91184836Y-124705752D02*
X91327693Y-124705752D01*
X91327693Y-124705752D02*
X91422931Y-124753371D01*
X91422931Y-124753371D02*
X91470550Y-124848609D01*
X91470550Y-124848609D02*
X91470550Y-125372419D01*
X91946741Y-125372419D02*
X91946741Y-124372419D01*
X92041979Y-124991466D02*
X92327693Y-125372419D01*
X92327693Y-124705752D02*
X91946741Y-125086704D01*
X93137217Y-125324800D02*
X93041979Y-125372419D01*
X93041979Y-125372419D02*
X92851503Y-125372419D01*
X92851503Y-125372419D02*
X92756265Y-125324800D01*
X92756265Y-125324800D02*
X92708646Y-125229561D01*
X92708646Y-125229561D02*
X92708646Y-124848609D01*
X92708646Y-124848609D02*
X92756265Y-124753371D01*
X92756265Y-124753371D02*
X92851503Y-124705752D01*
X92851503Y-124705752D02*
X93041979Y-124705752D01*
X93041979Y-124705752D02*
X93137217Y-124753371D01*
X93137217Y-124753371D02*
X93184836Y-124848609D01*
X93184836Y-124848609D02*
X93184836Y-124943847D01*
X93184836Y-124943847D02*
X92708646Y-125039085D01*
X93518170Y-124705752D02*
X93756265Y-125372419D01*
X93994360Y-124705752D02*
X93756265Y-125372419D01*
X93756265Y-125372419D02*
X93661027Y-125610514D01*
X93661027Y-125610514D02*
X93613408Y-125658133D01*
X93613408Y-125658133D02*
X93518170Y-125705752D01*
X95137218Y-125372419D02*
X95137218Y-124372419D01*
X95137218Y-124753371D02*
X95232456Y-124705752D01*
X95232456Y-124705752D02*
X95422932Y-124705752D01*
X95422932Y-124705752D02*
X95518170Y-124753371D01*
X95518170Y-124753371D02*
X95565789Y-124800990D01*
X95565789Y-124800990D02*
X95613408Y-124896228D01*
X95613408Y-124896228D02*
X95613408Y-125181942D01*
X95613408Y-125181942D02*
X95565789Y-125277180D01*
X95565789Y-125277180D02*
X95518170Y-125324800D01*
X95518170Y-125324800D02*
X95422932Y-125372419D01*
X95422932Y-125372419D02*
X95232456Y-125372419D01*
X95232456Y-125372419D02*
X95137218Y-125324800D01*
X96422932Y-125324800D02*
X96327694Y-125372419D01*
X96327694Y-125372419D02*
X96137218Y-125372419D01*
X96137218Y-125372419D02*
X96041980Y-125324800D01*
X96041980Y-125324800D02*
X95994361Y-125229561D01*
X95994361Y-125229561D02*
X95994361Y-124848609D01*
X95994361Y-124848609D02*
X96041980Y-124753371D01*
X96041980Y-124753371D02*
X96137218Y-124705752D01*
X96137218Y-124705752D02*
X96327694Y-124705752D01*
X96327694Y-124705752D02*
X96422932Y-124753371D01*
X96422932Y-124753371D02*
X96470551Y-124848609D01*
X96470551Y-124848609D02*
X96470551Y-124943847D01*
X96470551Y-124943847D02*
X95994361Y-125039085D01*
X97327694Y-125372419D02*
X97327694Y-124848609D01*
X97327694Y-124848609D02*
X97280075Y-124753371D01*
X97280075Y-124753371D02*
X97184837Y-124705752D01*
X97184837Y-124705752D02*
X96994361Y-124705752D01*
X96994361Y-124705752D02*
X96899123Y-124753371D01*
X97327694Y-125324800D02*
X97232456Y-125372419D01*
X97232456Y-125372419D02*
X96994361Y-125372419D01*
X96994361Y-125372419D02*
X96899123Y-125324800D01*
X96899123Y-125324800D02*
X96851504Y-125229561D01*
X96851504Y-125229561D02*
X96851504Y-125134323D01*
X96851504Y-125134323D02*
X96899123Y-125039085D01*
X96899123Y-125039085D02*
X96994361Y-124991466D01*
X96994361Y-124991466D02*
X97232456Y-124991466D01*
X97232456Y-124991466D02*
X97327694Y-124943847D01*
X97661028Y-124705752D02*
X98041980Y-124705752D01*
X97803885Y-124372419D02*
X97803885Y-125229561D01*
X97803885Y-125229561D02*
X97851504Y-125324800D01*
X97851504Y-125324800D02*
X97946742Y-125372419D01*
X97946742Y-125372419D02*
X98041980Y-125372419D01*
X98327695Y-125324800D02*
X98422933Y-125372419D01*
X98422933Y-125372419D02*
X98613409Y-125372419D01*
X98613409Y-125372419D02*
X98708647Y-125324800D01*
X98708647Y-125324800D02*
X98756266Y-125229561D01*
X98756266Y-125229561D02*
X98756266Y-125181942D01*
X98756266Y-125181942D02*
X98708647Y-125086704D01*
X98708647Y-125086704D02*
X98613409Y-125039085D01*
X98613409Y-125039085D02*
X98470552Y-125039085D01*
X98470552Y-125039085D02*
X98375314Y-124991466D01*
X98375314Y-124991466D02*
X98327695Y-124896228D01*
X98327695Y-124896228D02*
X98327695Y-124848609D01*
X98327695Y-124848609D02*
X98375314Y-124753371D01*
X98375314Y-124753371D02*
X98470552Y-124705752D01*
X98470552Y-124705752D02*
X98613409Y-124705752D01*
X98613409Y-124705752D02*
X98708647Y-124753371D01*
D11*
X97454819Y-120547618D02*
X98454819Y-120214285D01*
X98454819Y-120214285D02*
X97454819Y-119880952D01*
X97454819Y-119357142D02*
X97454819Y-119166666D01*
X97454819Y-119166666D02*
X97502438Y-119071428D01*
X97502438Y-119071428D02*
X97597676Y-118976190D01*
X97597676Y-118976190D02*
X97788152Y-118928571D01*
X97788152Y-118928571D02*
X98121485Y-118928571D01*
X98121485Y-118928571D02*
X98311961Y-118976190D01*
X98311961Y-118976190D02*
X98407200Y-119071428D01*
X98407200Y-119071428D02*
X98454819Y-119166666D01*
X98454819Y-119166666D02*
X98454819Y-119357142D01*
X98454819Y-119357142D02*
X98407200Y-119452380D01*
X98407200Y-119452380D02*
X98311961Y-119547618D01*
X98311961Y-119547618D02*
X98121485Y-119595237D01*
X98121485Y-119595237D02*
X97788152Y-119595237D01*
X97788152Y-119595237D02*
X97597676Y-119547618D01*
X97597676Y-119547618D02*
X97502438Y-119452380D01*
X97502438Y-119452380D02*
X97454819Y-119357142D01*
X97454819Y-118499999D02*
X98264342Y-118499999D01*
X98264342Y-118499999D02*
X98359580Y-118452380D01*
X98359580Y-118452380D02*
X98407200Y-118404761D01*
X98407200Y-118404761D02*
X98454819Y-118309523D01*
X98454819Y-118309523D02*
X98454819Y-118119047D01*
X98454819Y-118119047D02*
X98407200Y-118023809D01*
X98407200Y-118023809D02*
X98359580Y-117976190D01*
X98359580Y-117976190D02*
X98264342Y-117928571D01*
X98264342Y-117928571D02*
X97454819Y-117928571D01*
X97454819Y-117595237D02*
X97454819Y-117023809D01*
X98454819Y-117309523D02*
X97454819Y-117309523D01*
X98550057Y-116928571D02*
X98550057Y-116166666D01*
X98454819Y-115928570D02*
X97454819Y-115928570D01*
X97454819Y-115928570D02*
X97454819Y-115690475D01*
X97454819Y-115690475D02*
X97502438Y-115547618D01*
X97502438Y-115547618D02*
X97597676Y-115452380D01*
X97597676Y-115452380D02*
X97692914Y-115404761D01*
X97692914Y-115404761D02*
X97883390Y-115357142D01*
X97883390Y-115357142D02*
X98026247Y-115357142D01*
X98026247Y-115357142D02*
X98216723Y-115404761D01*
X98216723Y-115404761D02*
X98311961Y-115452380D01*
X98311961Y-115452380D02*
X98407200Y-115547618D01*
X98407200Y-115547618D02*
X98454819Y-115690475D01*
X98454819Y-115690475D02*
X98454819Y-115928570D01*
X98169104Y-114976189D02*
X98169104Y-114499999D01*
X98454819Y-115071427D02*
X97454819Y-114738094D01*
X97454819Y-114738094D02*
X98454819Y-114404761D01*
X98359580Y-113499999D02*
X98407200Y-113547618D01*
X98407200Y-113547618D02*
X98454819Y-113690475D01*
X98454819Y-113690475D02*
X98454819Y-113785713D01*
X98454819Y-113785713D02*
X98407200Y-113928570D01*
X98407200Y-113928570D02*
X98311961Y-114023808D01*
X98311961Y-114023808D02*
X98216723Y-114071427D01*
X98216723Y-114071427D02*
X98026247Y-114119046D01*
X98026247Y-114119046D02*
X97883390Y-114119046D01*
X97883390Y-114119046D02*
X97692914Y-114071427D01*
X97692914Y-114071427D02*
X97597676Y-114023808D01*
X97597676Y-114023808D02*
X97502438Y-113928570D01*
X97502438Y-113928570D02*
X97454819Y-113785713D01*
X97454819Y-113785713D02*
X97454819Y-113690475D01*
X97454819Y-113690475D02*
X97502438Y-113547618D01*
X97502438Y-113547618D02*
X97550057Y-113499999D01*
X98454819Y-112547618D02*
X98454819Y-113119046D01*
X98454819Y-112833332D02*
X97454819Y-112833332D01*
X97454819Y-112833332D02*
X97597676Y-112928570D01*
X97597676Y-112928570D02*
X97692914Y-113023808D01*
X97692914Y-113023808D02*
X97740533Y-113119046D01*
X87954819Y-124166666D02*
X86954819Y-124166666D01*
X87907200Y-124166666D02*
X87954819Y-124261904D01*
X87954819Y-124261904D02*
X87954819Y-124452380D01*
X87954819Y-124452380D02*
X87907200Y-124547618D01*
X87907200Y-124547618D02*
X87859580Y-124595237D01*
X87859580Y-124595237D02*
X87764342Y-124642856D01*
X87764342Y-124642856D02*
X87478628Y-124642856D01*
X87478628Y-124642856D02*
X87383390Y-124595237D01*
X87383390Y-124595237D02*
X87335771Y-124547618D01*
X87335771Y-124547618D02*
X87288152Y-124452380D01*
X87288152Y-124452380D02*
X87288152Y-124261904D01*
X87288152Y-124261904D02*
X87335771Y-124166666D01*
X87954819Y-123261904D02*
X87431009Y-123261904D01*
X87431009Y-123261904D02*
X87335771Y-123309523D01*
X87335771Y-123309523D02*
X87288152Y-123404761D01*
X87288152Y-123404761D02*
X87288152Y-123595237D01*
X87288152Y-123595237D02*
X87335771Y-123690475D01*
X87907200Y-123261904D02*
X87954819Y-123357142D01*
X87954819Y-123357142D02*
X87954819Y-123595237D01*
X87954819Y-123595237D02*
X87907200Y-123690475D01*
X87907200Y-123690475D02*
X87811961Y-123738094D01*
X87811961Y-123738094D02*
X87716723Y-123738094D01*
X87716723Y-123738094D02*
X87621485Y-123690475D01*
X87621485Y-123690475D02*
X87573866Y-123595237D01*
X87573866Y-123595237D02*
X87573866Y-123357142D01*
X87573866Y-123357142D02*
X87526247Y-123261904D01*
X87907200Y-122357142D02*
X87954819Y-122452380D01*
X87954819Y-122452380D02*
X87954819Y-122642856D01*
X87954819Y-122642856D02*
X87907200Y-122738094D01*
X87907200Y-122738094D02*
X87859580Y-122785713D01*
X87859580Y-122785713D02*
X87764342Y-122833332D01*
X87764342Y-122833332D02*
X87478628Y-122833332D01*
X87478628Y-122833332D02*
X87383390Y-122785713D01*
X87383390Y-122785713D02*
X87335771Y-122738094D01*
X87335771Y-122738094D02*
X87288152Y-122642856D01*
X87288152Y-122642856D02*
X87288152Y-122452380D01*
X87288152Y-122452380D02*
X87335771Y-122357142D01*
X70404819Y-125452380D02*
X70357200Y-125547618D01*
X70357200Y-125547618D02*
X70309580Y-125595237D01*
X70309580Y-125595237D02*
X70214342Y-125642856D01*
X70214342Y-125642856D02*
X69928628Y-125642856D01*
X69928628Y-125642856D02*
X69833390Y-125595237D01*
X69833390Y-125595237D02*
X69785771Y-125547618D01*
X69785771Y-125547618D02*
X69738152Y-125452380D01*
X69738152Y-125452380D02*
X69738152Y-125309523D01*
X69738152Y-125309523D02*
X69785771Y-125214285D01*
X69785771Y-125214285D02*
X69833390Y-125166666D01*
X69833390Y-125166666D02*
X69928628Y-125119047D01*
X69928628Y-125119047D02*
X70214342Y-125119047D01*
X70214342Y-125119047D02*
X70309580Y-125166666D01*
X70309580Y-125166666D02*
X70357200Y-125214285D01*
X70357200Y-125214285D02*
X70404819Y-125309523D01*
X70404819Y-125309523D02*
X70404819Y-125452380D01*
X69738152Y-124690475D02*
X70738152Y-124690475D01*
X69785771Y-124690475D02*
X69738152Y-124595237D01*
X69738152Y-124595237D02*
X69738152Y-124404761D01*
X69738152Y-124404761D02*
X69785771Y-124309523D01*
X69785771Y-124309523D02*
X69833390Y-124261904D01*
X69833390Y-124261904D02*
X69928628Y-124214285D01*
X69928628Y-124214285D02*
X70214342Y-124214285D01*
X70214342Y-124214285D02*
X70309580Y-124261904D01*
X70309580Y-124261904D02*
X70357200Y-124309523D01*
X70357200Y-124309523D02*
X70404819Y-124404761D01*
X70404819Y-124404761D02*
X70404819Y-124595237D01*
X70404819Y-124595237D02*
X70357200Y-124690475D01*
X70404819Y-123357142D02*
X69881009Y-123357142D01*
X69881009Y-123357142D02*
X69785771Y-123404761D01*
X69785771Y-123404761D02*
X69738152Y-123499999D01*
X69738152Y-123499999D02*
X69738152Y-123690475D01*
X69738152Y-123690475D02*
X69785771Y-123785713D01*
X70357200Y-123357142D02*
X70404819Y-123452380D01*
X70404819Y-123452380D02*
X70404819Y-123690475D01*
X70404819Y-123690475D02*
X70357200Y-123785713D01*
X70357200Y-123785713D02*
X70261961Y-123833332D01*
X70261961Y-123833332D02*
X70166723Y-123833332D01*
X70166723Y-123833332D02*
X70071485Y-123785713D01*
X70071485Y-123785713D02*
X70023866Y-123690475D01*
X70023866Y-123690475D02*
X70023866Y-123452380D01*
X70023866Y-123452380D02*
X69976247Y-123357142D01*
X69500057Y-122928570D02*
X69452438Y-122880951D01*
X69452438Y-122880951D02*
X69404819Y-122785713D01*
X69404819Y-122785713D02*
X69404819Y-122547618D01*
X69404819Y-122547618D02*
X69452438Y-122452380D01*
X69452438Y-122452380D02*
X69500057Y-122404761D01*
X69500057Y-122404761D02*
X69595295Y-122357142D01*
X69595295Y-122357142D02*
X69690533Y-122357142D01*
X69690533Y-122357142D02*
X69833390Y-122404761D01*
X69833390Y-122404761D02*
X70404819Y-122976189D01*
X70404819Y-122976189D02*
X70404819Y-122357142D01*
X79904819Y-125452380D02*
X79857200Y-125547618D01*
X79857200Y-125547618D02*
X79809580Y-125595237D01*
X79809580Y-125595237D02*
X79714342Y-125642856D01*
X79714342Y-125642856D02*
X79428628Y-125642856D01*
X79428628Y-125642856D02*
X79333390Y-125595237D01*
X79333390Y-125595237D02*
X79285771Y-125547618D01*
X79285771Y-125547618D02*
X79238152Y-125452380D01*
X79238152Y-125452380D02*
X79238152Y-125309523D01*
X79238152Y-125309523D02*
X79285771Y-125214285D01*
X79285771Y-125214285D02*
X79333390Y-125166666D01*
X79333390Y-125166666D02*
X79428628Y-125119047D01*
X79428628Y-125119047D02*
X79714342Y-125119047D01*
X79714342Y-125119047D02*
X79809580Y-125166666D01*
X79809580Y-125166666D02*
X79857200Y-125214285D01*
X79857200Y-125214285D02*
X79904819Y-125309523D01*
X79904819Y-125309523D02*
X79904819Y-125452380D01*
X79238152Y-124690475D02*
X80238152Y-124690475D01*
X79285771Y-124690475D02*
X79238152Y-124595237D01*
X79238152Y-124595237D02*
X79238152Y-124404761D01*
X79238152Y-124404761D02*
X79285771Y-124309523D01*
X79285771Y-124309523D02*
X79333390Y-124261904D01*
X79333390Y-124261904D02*
X79428628Y-124214285D01*
X79428628Y-124214285D02*
X79714342Y-124214285D01*
X79714342Y-124214285D02*
X79809580Y-124261904D01*
X79809580Y-124261904D02*
X79857200Y-124309523D01*
X79857200Y-124309523D02*
X79904819Y-124404761D01*
X79904819Y-124404761D02*
X79904819Y-124595237D01*
X79904819Y-124595237D02*
X79857200Y-124690475D01*
X79904819Y-123357142D02*
X79381009Y-123357142D01*
X79381009Y-123357142D02*
X79285771Y-123404761D01*
X79285771Y-123404761D02*
X79238152Y-123499999D01*
X79238152Y-123499999D02*
X79238152Y-123690475D01*
X79238152Y-123690475D02*
X79285771Y-123785713D01*
X79857200Y-123357142D02*
X79904819Y-123452380D01*
X79904819Y-123452380D02*
X79904819Y-123690475D01*
X79904819Y-123690475D02*
X79857200Y-123785713D01*
X79857200Y-123785713D02*
X79761961Y-123833332D01*
X79761961Y-123833332D02*
X79666723Y-123833332D01*
X79666723Y-123833332D02*
X79571485Y-123785713D01*
X79571485Y-123785713D02*
X79523866Y-123690475D01*
X79523866Y-123690475D02*
X79523866Y-123452380D01*
X79523866Y-123452380D02*
X79476247Y-123357142D01*
X79904819Y-122357142D02*
X79904819Y-122928570D01*
X79904819Y-122642856D02*
X78904819Y-122642856D01*
X78904819Y-122642856D02*
X79047676Y-122738094D01*
X79047676Y-122738094D02*
X79142914Y-122833332D01*
X79142914Y-122833332D02*
X79190533Y-122928570D01*
X90407200Y-110547618D02*
X90454819Y-110404761D01*
X90454819Y-110404761D02*
X90454819Y-110166666D01*
X90454819Y-110166666D02*
X90407200Y-110071428D01*
X90407200Y-110071428D02*
X90359580Y-110023809D01*
X90359580Y-110023809D02*
X90264342Y-109976190D01*
X90264342Y-109976190D02*
X90169104Y-109976190D01*
X90169104Y-109976190D02*
X90073866Y-110023809D01*
X90073866Y-110023809D02*
X90026247Y-110071428D01*
X90026247Y-110071428D02*
X89978628Y-110166666D01*
X89978628Y-110166666D02*
X89931009Y-110357142D01*
X89931009Y-110357142D02*
X89883390Y-110452380D01*
X89883390Y-110452380D02*
X89835771Y-110499999D01*
X89835771Y-110499999D02*
X89740533Y-110547618D01*
X89740533Y-110547618D02*
X89645295Y-110547618D01*
X89645295Y-110547618D02*
X89550057Y-110499999D01*
X89550057Y-110499999D02*
X89502438Y-110452380D01*
X89502438Y-110452380D02*
X89454819Y-110357142D01*
X89454819Y-110357142D02*
X89454819Y-110119047D01*
X89454819Y-110119047D02*
X89502438Y-109976190D01*
X90454819Y-109547618D02*
X89454819Y-109547618D01*
X89454819Y-109547618D02*
X89454819Y-109166666D01*
X89454819Y-109166666D02*
X89502438Y-109071428D01*
X89502438Y-109071428D02*
X89550057Y-109023809D01*
X89550057Y-109023809D02*
X89645295Y-108976190D01*
X89645295Y-108976190D02*
X89788152Y-108976190D01*
X89788152Y-108976190D02*
X89883390Y-109023809D01*
X89883390Y-109023809D02*
X89931009Y-109071428D01*
X89931009Y-109071428D02*
X89978628Y-109166666D01*
X89978628Y-109166666D02*
X89978628Y-109547618D01*
X90454819Y-108547618D02*
X89454819Y-108547618D01*
X90454819Y-108071428D02*
X89454819Y-108071428D01*
X89454819Y-108071428D02*
X89454819Y-107690476D01*
X89454819Y-107690476D02*
X89502438Y-107595238D01*
X89502438Y-107595238D02*
X89550057Y-107547619D01*
X89550057Y-107547619D02*
X89645295Y-107500000D01*
X89645295Y-107500000D02*
X89788152Y-107500000D01*
X89788152Y-107500000D02*
X89883390Y-107547619D01*
X89883390Y-107547619D02*
X89931009Y-107595238D01*
X89931009Y-107595238D02*
X89978628Y-107690476D01*
X89978628Y-107690476D02*
X89978628Y-108071428D01*
X90454819Y-107071428D02*
X89454819Y-107071428D01*
X90454819Y-106595238D02*
X89454819Y-106595238D01*
X89454819Y-106595238D02*
X90454819Y-106023810D01*
X90454819Y-106023810D02*
X89454819Y-106023810D01*
X90407200Y-105595238D02*
X90454819Y-105452381D01*
X90454819Y-105452381D02*
X90454819Y-105214286D01*
X90454819Y-105214286D02*
X90407200Y-105119048D01*
X90407200Y-105119048D02*
X90359580Y-105071429D01*
X90359580Y-105071429D02*
X90264342Y-105023810D01*
X90264342Y-105023810D02*
X90169104Y-105023810D01*
X90169104Y-105023810D02*
X90073866Y-105071429D01*
X90073866Y-105071429D02*
X90026247Y-105119048D01*
X90026247Y-105119048D02*
X89978628Y-105214286D01*
X89978628Y-105214286D02*
X89931009Y-105404762D01*
X89931009Y-105404762D02*
X89883390Y-105500000D01*
X89883390Y-105500000D02*
X89835771Y-105547619D01*
X89835771Y-105547619D02*
X89740533Y-105595238D01*
X89740533Y-105595238D02*
X89645295Y-105595238D01*
X89645295Y-105595238D02*
X89550057Y-105547619D01*
X89550057Y-105547619D02*
X89502438Y-105500000D01*
X89502438Y-105500000D02*
X89454819Y-105404762D01*
X89454819Y-105404762D02*
X89454819Y-105166667D01*
X89454819Y-105166667D02*
X89502438Y-105023810D01*
X90550057Y-104833334D02*
X90550057Y-104071429D01*
X90454819Y-103833333D02*
X89454819Y-103833333D01*
X89454819Y-103833333D02*
X89454819Y-103595238D01*
X89454819Y-103595238D02*
X89502438Y-103452381D01*
X89502438Y-103452381D02*
X89597676Y-103357143D01*
X89597676Y-103357143D02*
X89692914Y-103309524D01*
X89692914Y-103309524D02*
X89883390Y-103261905D01*
X89883390Y-103261905D02*
X90026247Y-103261905D01*
X90026247Y-103261905D02*
X90216723Y-103309524D01*
X90216723Y-103309524D02*
X90311961Y-103357143D01*
X90311961Y-103357143D02*
X90407200Y-103452381D01*
X90407200Y-103452381D02*
X90454819Y-103595238D01*
X90454819Y-103595238D02*
X90454819Y-103833333D01*
X90169104Y-102880952D02*
X90169104Y-102404762D01*
X90454819Y-102976190D02*
X89454819Y-102642857D01*
X89454819Y-102642857D02*
X90454819Y-102309524D01*
X90359580Y-101404762D02*
X90407200Y-101452381D01*
X90407200Y-101452381D02*
X90454819Y-101595238D01*
X90454819Y-101595238D02*
X90454819Y-101690476D01*
X90454819Y-101690476D02*
X90407200Y-101833333D01*
X90407200Y-101833333D02*
X90311961Y-101928571D01*
X90311961Y-101928571D02*
X90216723Y-101976190D01*
X90216723Y-101976190D02*
X90026247Y-102023809D01*
X90026247Y-102023809D02*
X89883390Y-102023809D01*
X89883390Y-102023809D02*
X89692914Y-101976190D01*
X89692914Y-101976190D02*
X89597676Y-101928571D01*
X89597676Y-101928571D02*
X89502438Y-101833333D01*
X89502438Y-101833333D02*
X89454819Y-101690476D01*
X89454819Y-101690476D02*
X89454819Y-101595238D01*
X89454819Y-101595238D02*
X89502438Y-101452381D01*
X89502438Y-101452381D02*
X89550057Y-101404762D01*
X90454819Y-100452381D02*
X90454819Y-101023809D01*
X90454819Y-100738095D02*
X89454819Y-100738095D01*
X89454819Y-100738095D02*
X89597676Y-100833333D01*
X89597676Y-100833333D02*
X89692914Y-100928571D01*
X89692914Y-100928571D02*
X89740533Y-101023809D01*
X71857142Y-114804819D02*
X71523809Y-114328628D01*
X71285714Y-114804819D02*
X71285714Y-113804819D01*
X71285714Y-113804819D02*
X71666666Y-113804819D01*
X71666666Y-113804819D02*
X71761904Y-113852438D01*
X71761904Y-113852438D02*
X71809523Y-113900057D01*
X71809523Y-113900057D02*
X71857142Y-113995295D01*
X71857142Y-113995295D02*
X71857142Y-114138152D01*
X71857142Y-114138152D02*
X71809523Y-114233390D01*
X71809523Y-114233390D02*
X71761904Y-114281009D01*
X71761904Y-114281009D02*
X71666666Y-114328628D01*
X71666666Y-114328628D02*
X71285714Y-114328628D01*
X72238095Y-113900057D02*
X72285714Y-113852438D01*
X72285714Y-113852438D02*
X72380952Y-113804819D01*
X72380952Y-113804819D02*
X72619047Y-113804819D01*
X72619047Y-113804819D02*
X72714285Y-113852438D01*
X72714285Y-113852438D02*
X72761904Y-113900057D01*
X72761904Y-113900057D02*
X72809523Y-113995295D01*
X72809523Y-113995295D02*
X72809523Y-114090533D01*
X72809523Y-114090533D02*
X72761904Y-114233390D01*
X72761904Y-114233390D02*
X72190476Y-114804819D01*
X72190476Y-114804819D02*
X72809523Y-114804819D01*
X73666666Y-113804819D02*
X73476190Y-113804819D01*
X73476190Y-113804819D02*
X73380952Y-113852438D01*
X73380952Y-113852438D02*
X73333333Y-113900057D01*
X73333333Y-113900057D02*
X73238095Y-114042914D01*
X73238095Y-114042914D02*
X73190476Y-114233390D01*
X73190476Y-114233390D02*
X73190476Y-114614342D01*
X73190476Y-114614342D02*
X73238095Y-114709580D01*
X73238095Y-114709580D02*
X73285714Y-114757200D01*
X73285714Y-114757200D02*
X73380952Y-114804819D01*
X73380952Y-114804819D02*
X73571428Y-114804819D01*
X73571428Y-114804819D02*
X73666666Y-114757200D01*
X73666666Y-114757200D02*
X73714285Y-114709580D01*
X73714285Y-114709580D02*
X73761904Y-114614342D01*
X73761904Y-114614342D02*
X73761904Y-114376247D01*
X73761904Y-114376247D02*
X73714285Y-114281009D01*
X73714285Y-114281009D02*
X73666666Y-114233390D01*
X73666666Y-114233390D02*
X73571428Y-114185771D01*
X73571428Y-114185771D02*
X73380952Y-114185771D01*
X73380952Y-114185771D02*
X73285714Y-114233390D01*
X73285714Y-114233390D02*
X73238095Y-114281009D01*
X73238095Y-114281009D02*
X73190476Y-114376247D01*
X71857142Y-111304819D02*
X71523809Y-110828628D01*
X71285714Y-111304819D02*
X71285714Y-110304819D01*
X71285714Y-110304819D02*
X71666666Y-110304819D01*
X71666666Y-110304819D02*
X71761904Y-110352438D01*
X71761904Y-110352438D02*
X71809523Y-110400057D01*
X71809523Y-110400057D02*
X71857142Y-110495295D01*
X71857142Y-110495295D02*
X71857142Y-110638152D01*
X71857142Y-110638152D02*
X71809523Y-110733390D01*
X71809523Y-110733390D02*
X71761904Y-110781009D01*
X71761904Y-110781009D02*
X71666666Y-110828628D01*
X71666666Y-110828628D02*
X71285714Y-110828628D01*
X72238095Y-110400057D02*
X72285714Y-110352438D01*
X72285714Y-110352438D02*
X72380952Y-110304819D01*
X72380952Y-110304819D02*
X72619047Y-110304819D01*
X72619047Y-110304819D02*
X72714285Y-110352438D01*
X72714285Y-110352438D02*
X72761904Y-110400057D01*
X72761904Y-110400057D02*
X72809523Y-110495295D01*
X72809523Y-110495295D02*
X72809523Y-110590533D01*
X72809523Y-110590533D02*
X72761904Y-110733390D01*
X72761904Y-110733390D02*
X72190476Y-111304819D01*
X72190476Y-111304819D02*
X72809523Y-111304819D01*
X73714285Y-110304819D02*
X73238095Y-110304819D01*
X73238095Y-110304819D02*
X73190476Y-110781009D01*
X73190476Y-110781009D02*
X73238095Y-110733390D01*
X73238095Y-110733390D02*
X73333333Y-110685771D01*
X73333333Y-110685771D02*
X73571428Y-110685771D01*
X73571428Y-110685771D02*
X73666666Y-110733390D01*
X73666666Y-110733390D02*
X73714285Y-110781009D01*
X73714285Y-110781009D02*
X73761904Y-110876247D01*
X73761904Y-110876247D02*
X73761904Y-111114342D01*
X73761904Y-111114342D02*
X73714285Y-111209580D01*
X73714285Y-111209580D02*
X73666666Y-111257200D01*
X73666666Y-111257200D02*
X73571428Y-111304819D01*
X73571428Y-111304819D02*
X73333333Y-111304819D01*
X73333333Y-111304819D02*
X73238095Y-111257200D01*
X73238095Y-111257200D02*
X73190476Y-111209580D01*
X71857142Y-100804819D02*
X71523809Y-100328628D01*
X71285714Y-100804819D02*
X71285714Y-99804819D01*
X71285714Y-99804819D02*
X71666666Y-99804819D01*
X71666666Y-99804819D02*
X71761904Y-99852438D01*
X71761904Y-99852438D02*
X71809523Y-99900057D01*
X71809523Y-99900057D02*
X71857142Y-99995295D01*
X71857142Y-99995295D02*
X71857142Y-100138152D01*
X71857142Y-100138152D02*
X71809523Y-100233390D01*
X71809523Y-100233390D02*
X71761904Y-100281009D01*
X71761904Y-100281009D02*
X71666666Y-100328628D01*
X71666666Y-100328628D02*
X71285714Y-100328628D01*
X72238095Y-99900057D02*
X72285714Y-99852438D01*
X72285714Y-99852438D02*
X72380952Y-99804819D01*
X72380952Y-99804819D02*
X72619047Y-99804819D01*
X72619047Y-99804819D02*
X72714285Y-99852438D01*
X72714285Y-99852438D02*
X72761904Y-99900057D01*
X72761904Y-99900057D02*
X72809523Y-99995295D01*
X72809523Y-99995295D02*
X72809523Y-100090533D01*
X72809523Y-100090533D02*
X72761904Y-100233390D01*
X72761904Y-100233390D02*
X72190476Y-100804819D01*
X72190476Y-100804819D02*
X72809523Y-100804819D01*
X73666666Y-100138152D02*
X73666666Y-100804819D01*
X73428571Y-99757200D02*
X73190476Y-100471485D01*
X73190476Y-100471485D02*
X73809523Y-100471485D01*
X71857142Y-97304819D02*
X71523809Y-96828628D01*
X71285714Y-97304819D02*
X71285714Y-96304819D01*
X71285714Y-96304819D02*
X71666666Y-96304819D01*
X71666666Y-96304819D02*
X71761904Y-96352438D01*
X71761904Y-96352438D02*
X71809523Y-96400057D01*
X71809523Y-96400057D02*
X71857142Y-96495295D01*
X71857142Y-96495295D02*
X71857142Y-96638152D01*
X71857142Y-96638152D02*
X71809523Y-96733390D01*
X71809523Y-96733390D02*
X71761904Y-96781009D01*
X71761904Y-96781009D02*
X71666666Y-96828628D01*
X71666666Y-96828628D02*
X71285714Y-96828628D01*
X72238095Y-96400057D02*
X72285714Y-96352438D01*
X72285714Y-96352438D02*
X72380952Y-96304819D01*
X72380952Y-96304819D02*
X72619047Y-96304819D01*
X72619047Y-96304819D02*
X72714285Y-96352438D01*
X72714285Y-96352438D02*
X72761904Y-96400057D01*
X72761904Y-96400057D02*
X72809523Y-96495295D01*
X72809523Y-96495295D02*
X72809523Y-96590533D01*
X72809523Y-96590533D02*
X72761904Y-96733390D01*
X72761904Y-96733390D02*
X72190476Y-97304819D01*
X72190476Y-97304819D02*
X72809523Y-97304819D01*
X73142857Y-96304819D02*
X73761904Y-96304819D01*
X73761904Y-96304819D02*
X73428571Y-96685771D01*
X73428571Y-96685771D02*
X73571428Y-96685771D01*
X73571428Y-96685771D02*
X73666666Y-96733390D01*
X73666666Y-96733390D02*
X73714285Y-96781009D01*
X73714285Y-96781009D02*
X73761904Y-96876247D01*
X73761904Y-96876247D02*
X73761904Y-97114342D01*
X73761904Y-97114342D02*
X73714285Y-97209580D01*
X73714285Y-97209580D02*
X73666666Y-97257200D01*
X73666666Y-97257200D02*
X73571428Y-97304819D01*
X73571428Y-97304819D02*
X73285714Y-97304819D01*
X73285714Y-97304819D02*
X73190476Y-97257200D01*
X73190476Y-97257200D02*
X73142857Y-97209580D01*
X67357142Y-104304819D02*
X67023809Y-103828628D01*
X66785714Y-104304819D02*
X66785714Y-103304819D01*
X66785714Y-103304819D02*
X67166666Y-103304819D01*
X67166666Y-103304819D02*
X67261904Y-103352438D01*
X67261904Y-103352438D02*
X67309523Y-103400057D01*
X67309523Y-103400057D02*
X67357142Y-103495295D01*
X67357142Y-103495295D02*
X67357142Y-103638152D01*
X67357142Y-103638152D02*
X67309523Y-103733390D01*
X67309523Y-103733390D02*
X67261904Y-103781009D01*
X67261904Y-103781009D02*
X67166666Y-103828628D01*
X67166666Y-103828628D02*
X66785714Y-103828628D01*
X67738095Y-103400057D02*
X67785714Y-103352438D01*
X67785714Y-103352438D02*
X67880952Y-103304819D01*
X67880952Y-103304819D02*
X68119047Y-103304819D01*
X68119047Y-103304819D02*
X68214285Y-103352438D01*
X68214285Y-103352438D02*
X68261904Y-103400057D01*
X68261904Y-103400057D02*
X68309523Y-103495295D01*
X68309523Y-103495295D02*
X68309523Y-103590533D01*
X68309523Y-103590533D02*
X68261904Y-103733390D01*
X68261904Y-103733390D02*
X67690476Y-104304819D01*
X67690476Y-104304819D02*
X68309523Y-104304819D01*
X68690476Y-103400057D02*
X68738095Y-103352438D01*
X68738095Y-103352438D02*
X68833333Y-103304819D01*
X68833333Y-103304819D02*
X69071428Y-103304819D01*
X69071428Y-103304819D02*
X69166666Y-103352438D01*
X69166666Y-103352438D02*
X69214285Y-103400057D01*
X69214285Y-103400057D02*
X69261904Y-103495295D01*
X69261904Y-103495295D02*
X69261904Y-103590533D01*
X69261904Y-103590533D02*
X69214285Y-103733390D01*
X69214285Y-103733390D02*
X68642857Y-104304819D01*
X68642857Y-104304819D02*
X69261904Y-104304819D01*
X67357142Y-107804819D02*
X67023809Y-107328628D01*
X66785714Y-107804819D02*
X66785714Y-106804819D01*
X66785714Y-106804819D02*
X67166666Y-106804819D01*
X67166666Y-106804819D02*
X67261904Y-106852438D01*
X67261904Y-106852438D02*
X67309523Y-106900057D01*
X67309523Y-106900057D02*
X67357142Y-106995295D01*
X67357142Y-106995295D02*
X67357142Y-107138152D01*
X67357142Y-107138152D02*
X67309523Y-107233390D01*
X67309523Y-107233390D02*
X67261904Y-107281009D01*
X67261904Y-107281009D02*
X67166666Y-107328628D01*
X67166666Y-107328628D02*
X66785714Y-107328628D01*
X67738095Y-106900057D02*
X67785714Y-106852438D01*
X67785714Y-106852438D02*
X67880952Y-106804819D01*
X67880952Y-106804819D02*
X68119047Y-106804819D01*
X68119047Y-106804819D02*
X68214285Y-106852438D01*
X68214285Y-106852438D02*
X68261904Y-106900057D01*
X68261904Y-106900057D02*
X68309523Y-106995295D01*
X68309523Y-106995295D02*
X68309523Y-107090533D01*
X68309523Y-107090533D02*
X68261904Y-107233390D01*
X68261904Y-107233390D02*
X67690476Y-107804819D01*
X67690476Y-107804819D02*
X68309523Y-107804819D01*
X69261904Y-107804819D02*
X68690476Y-107804819D01*
X68976190Y-107804819D02*
X68976190Y-106804819D01*
X68976190Y-106804819D02*
X68880952Y-106947676D01*
X68880952Y-106947676D02*
X68785714Y-107042914D01*
X68785714Y-107042914D02*
X68690476Y-107090533D01*
X67357142Y-111304819D02*
X67023809Y-110828628D01*
X66785714Y-111304819D02*
X66785714Y-110304819D01*
X66785714Y-110304819D02*
X67166666Y-110304819D01*
X67166666Y-110304819D02*
X67261904Y-110352438D01*
X67261904Y-110352438D02*
X67309523Y-110400057D01*
X67309523Y-110400057D02*
X67357142Y-110495295D01*
X67357142Y-110495295D02*
X67357142Y-110638152D01*
X67357142Y-110638152D02*
X67309523Y-110733390D01*
X67309523Y-110733390D02*
X67261904Y-110781009D01*
X67261904Y-110781009D02*
X67166666Y-110828628D01*
X67166666Y-110828628D02*
X66785714Y-110828628D01*
X67738095Y-110400057D02*
X67785714Y-110352438D01*
X67785714Y-110352438D02*
X67880952Y-110304819D01*
X67880952Y-110304819D02*
X68119047Y-110304819D01*
X68119047Y-110304819D02*
X68214285Y-110352438D01*
X68214285Y-110352438D02*
X68261904Y-110400057D01*
X68261904Y-110400057D02*
X68309523Y-110495295D01*
X68309523Y-110495295D02*
X68309523Y-110590533D01*
X68309523Y-110590533D02*
X68261904Y-110733390D01*
X68261904Y-110733390D02*
X67690476Y-111304819D01*
X67690476Y-111304819D02*
X68309523Y-111304819D01*
X68928571Y-110304819D02*
X69023809Y-110304819D01*
X69023809Y-110304819D02*
X69119047Y-110352438D01*
X69119047Y-110352438D02*
X69166666Y-110400057D01*
X69166666Y-110400057D02*
X69214285Y-110495295D01*
X69214285Y-110495295D02*
X69261904Y-110685771D01*
X69261904Y-110685771D02*
X69261904Y-110923866D01*
X69261904Y-110923866D02*
X69214285Y-111114342D01*
X69214285Y-111114342D02*
X69166666Y-111209580D01*
X69166666Y-111209580D02*
X69119047Y-111257200D01*
X69119047Y-111257200D02*
X69023809Y-111304819D01*
X69023809Y-111304819D02*
X68928571Y-111304819D01*
X68928571Y-111304819D02*
X68833333Y-111257200D01*
X68833333Y-111257200D02*
X68785714Y-111209580D01*
X68785714Y-111209580D02*
X68738095Y-111114342D01*
X68738095Y-111114342D02*
X68690476Y-110923866D01*
X68690476Y-110923866D02*
X68690476Y-110685771D01*
X68690476Y-110685771D02*
X68738095Y-110495295D01*
X68738095Y-110495295D02*
X68785714Y-110400057D01*
X68785714Y-110400057D02*
X68833333Y-110352438D01*
X68833333Y-110352438D02*
X68928571Y-110304819D01*
X67357142Y-114804819D02*
X67023809Y-114328628D01*
X66785714Y-114804819D02*
X66785714Y-113804819D01*
X66785714Y-113804819D02*
X67166666Y-113804819D01*
X67166666Y-113804819D02*
X67261904Y-113852438D01*
X67261904Y-113852438D02*
X67309523Y-113900057D01*
X67309523Y-113900057D02*
X67357142Y-113995295D01*
X67357142Y-113995295D02*
X67357142Y-114138152D01*
X67357142Y-114138152D02*
X67309523Y-114233390D01*
X67309523Y-114233390D02*
X67261904Y-114281009D01*
X67261904Y-114281009D02*
X67166666Y-114328628D01*
X67166666Y-114328628D02*
X66785714Y-114328628D01*
X68309523Y-114804819D02*
X67738095Y-114804819D01*
X68023809Y-114804819D02*
X68023809Y-113804819D01*
X68023809Y-113804819D02*
X67928571Y-113947676D01*
X67928571Y-113947676D02*
X67833333Y-114042914D01*
X67833333Y-114042914D02*
X67738095Y-114090533D01*
X68785714Y-114804819D02*
X68976190Y-114804819D01*
X68976190Y-114804819D02*
X69071428Y-114757200D01*
X69071428Y-114757200D02*
X69119047Y-114709580D01*
X69119047Y-114709580D02*
X69214285Y-114566723D01*
X69214285Y-114566723D02*
X69261904Y-114376247D01*
X69261904Y-114376247D02*
X69261904Y-113995295D01*
X69261904Y-113995295D02*
X69214285Y-113900057D01*
X69214285Y-113900057D02*
X69166666Y-113852438D01*
X69166666Y-113852438D02*
X69071428Y-113804819D01*
X69071428Y-113804819D02*
X68880952Y-113804819D01*
X68880952Y-113804819D02*
X68785714Y-113852438D01*
X68785714Y-113852438D02*
X68738095Y-113900057D01*
X68738095Y-113900057D02*
X68690476Y-113995295D01*
X68690476Y-113995295D02*
X68690476Y-114233390D01*
X68690476Y-114233390D02*
X68738095Y-114328628D01*
X68738095Y-114328628D02*
X68785714Y-114376247D01*
X68785714Y-114376247D02*
X68880952Y-114423866D01*
X68880952Y-114423866D02*
X69071428Y-114423866D01*
X69071428Y-114423866D02*
X69166666Y-114376247D01*
X69166666Y-114376247D02*
X69214285Y-114328628D01*
X69214285Y-114328628D02*
X69261904Y-114233390D01*
X80857142Y-90304819D02*
X80523809Y-89828628D01*
X80285714Y-90304819D02*
X80285714Y-89304819D01*
X80285714Y-89304819D02*
X80666666Y-89304819D01*
X80666666Y-89304819D02*
X80761904Y-89352438D01*
X80761904Y-89352438D02*
X80809523Y-89400057D01*
X80809523Y-89400057D02*
X80857142Y-89495295D01*
X80857142Y-89495295D02*
X80857142Y-89638152D01*
X80857142Y-89638152D02*
X80809523Y-89733390D01*
X80809523Y-89733390D02*
X80761904Y-89781009D01*
X80761904Y-89781009D02*
X80666666Y-89828628D01*
X80666666Y-89828628D02*
X80285714Y-89828628D01*
X81809523Y-90304819D02*
X81238095Y-90304819D01*
X81523809Y-90304819D02*
X81523809Y-89304819D01*
X81523809Y-89304819D02*
X81428571Y-89447676D01*
X81428571Y-89447676D02*
X81333333Y-89542914D01*
X81333333Y-89542914D02*
X81238095Y-89590533D01*
X82380952Y-89733390D02*
X82285714Y-89685771D01*
X82285714Y-89685771D02*
X82238095Y-89638152D01*
X82238095Y-89638152D02*
X82190476Y-89542914D01*
X82190476Y-89542914D02*
X82190476Y-89495295D01*
X82190476Y-89495295D02*
X82238095Y-89400057D01*
X82238095Y-89400057D02*
X82285714Y-89352438D01*
X82285714Y-89352438D02*
X82380952Y-89304819D01*
X82380952Y-89304819D02*
X82571428Y-89304819D01*
X82571428Y-89304819D02*
X82666666Y-89352438D01*
X82666666Y-89352438D02*
X82714285Y-89400057D01*
X82714285Y-89400057D02*
X82761904Y-89495295D01*
X82761904Y-89495295D02*
X82761904Y-89542914D01*
X82761904Y-89542914D02*
X82714285Y-89638152D01*
X82714285Y-89638152D02*
X82666666Y-89685771D01*
X82666666Y-89685771D02*
X82571428Y-89733390D01*
X82571428Y-89733390D02*
X82380952Y-89733390D01*
X82380952Y-89733390D02*
X82285714Y-89781009D01*
X82285714Y-89781009D02*
X82238095Y-89828628D01*
X82238095Y-89828628D02*
X82190476Y-89923866D01*
X82190476Y-89923866D02*
X82190476Y-90114342D01*
X82190476Y-90114342D02*
X82238095Y-90209580D01*
X82238095Y-90209580D02*
X82285714Y-90257200D01*
X82285714Y-90257200D02*
X82380952Y-90304819D01*
X82380952Y-90304819D02*
X82571428Y-90304819D01*
X82571428Y-90304819D02*
X82666666Y-90257200D01*
X82666666Y-90257200D02*
X82714285Y-90209580D01*
X82714285Y-90209580D02*
X82761904Y-90114342D01*
X82761904Y-90114342D02*
X82761904Y-89923866D01*
X82761904Y-89923866D02*
X82714285Y-89828628D01*
X82714285Y-89828628D02*
X82666666Y-89781009D01*
X82666666Y-89781009D02*
X82571428Y-89733390D01*
X80857142Y-93804819D02*
X80523809Y-93328628D01*
X80285714Y-93804819D02*
X80285714Y-92804819D01*
X80285714Y-92804819D02*
X80666666Y-92804819D01*
X80666666Y-92804819D02*
X80761904Y-92852438D01*
X80761904Y-92852438D02*
X80809523Y-92900057D01*
X80809523Y-92900057D02*
X80857142Y-92995295D01*
X80857142Y-92995295D02*
X80857142Y-93138152D01*
X80857142Y-93138152D02*
X80809523Y-93233390D01*
X80809523Y-93233390D02*
X80761904Y-93281009D01*
X80761904Y-93281009D02*
X80666666Y-93328628D01*
X80666666Y-93328628D02*
X80285714Y-93328628D01*
X81809523Y-93804819D02*
X81238095Y-93804819D01*
X81523809Y-93804819D02*
X81523809Y-92804819D01*
X81523809Y-92804819D02*
X81428571Y-92947676D01*
X81428571Y-92947676D02*
X81333333Y-93042914D01*
X81333333Y-93042914D02*
X81238095Y-93090533D01*
X82142857Y-92804819D02*
X82809523Y-92804819D01*
X82809523Y-92804819D02*
X82380952Y-93804819D01*
X62857142Y-107804819D02*
X62523809Y-107328628D01*
X62285714Y-107804819D02*
X62285714Y-106804819D01*
X62285714Y-106804819D02*
X62666666Y-106804819D01*
X62666666Y-106804819D02*
X62761904Y-106852438D01*
X62761904Y-106852438D02*
X62809523Y-106900057D01*
X62809523Y-106900057D02*
X62857142Y-106995295D01*
X62857142Y-106995295D02*
X62857142Y-107138152D01*
X62857142Y-107138152D02*
X62809523Y-107233390D01*
X62809523Y-107233390D02*
X62761904Y-107281009D01*
X62761904Y-107281009D02*
X62666666Y-107328628D01*
X62666666Y-107328628D02*
X62285714Y-107328628D01*
X63809523Y-107804819D02*
X63238095Y-107804819D01*
X63523809Y-107804819D02*
X63523809Y-106804819D01*
X63523809Y-106804819D02*
X63428571Y-106947676D01*
X63428571Y-106947676D02*
X63333333Y-107042914D01*
X63333333Y-107042914D02*
X63238095Y-107090533D01*
X64666666Y-106804819D02*
X64476190Y-106804819D01*
X64476190Y-106804819D02*
X64380952Y-106852438D01*
X64380952Y-106852438D02*
X64333333Y-106900057D01*
X64333333Y-106900057D02*
X64238095Y-107042914D01*
X64238095Y-107042914D02*
X64190476Y-107233390D01*
X64190476Y-107233390D02*
X64190476Y-107614342D01*
X64190476Y-107614342D02*
X64238095Y-107709580D01*
X64238095Y-107709580D02*
X64285714Y-107757200D01*
X64285714Y-107757200D02*
X64380952Y-107804819D01*
X64380952Y-107804819D02*
X64571428Y-107804819D01*
X64571428Y-107804819D02*
X64666666Y-107757200D01*
X64666666Y-107757200D02*
X64714285Y-107709580D01*
X64714285Y-107709580D02*
X64761904Y-107614342D01*
X64761904Y-107614342D02*
X64761904Y-107376247D01*
X64761904Y-107376247D02*
X64714285Y-107281009D01*
X64714285Y-107281009D02*
X64666666Y-107233390D01*
X64666666Y-107233390D02*
X64571428Y-107185771D01*
X64571428Y-107185771D02*
X64380952Y-107185771D01*
X64380952Y-107185771D02*
X64285714Y-107233390D01*
X64285714Y-107233390D02*
X64238095Y-107281009D01*
X64238095Y-107281009D02*
X64190476Y-107376247D01*
X62857142Y-104304819D02*
X62523809Y-103828628D01*
X62285714Y-104304819D02*
X62285714Y-103304819D01*
X62285714Y-103304819D02*
X62666666Y-103304819D01*
X62666666Y-103304819D02*
X62761904Y-103352438D01*
X62761904Y-103352438D02*
X62809523Y-103400057D01*
X62809523Y-103400057D02*
X62857142Y-103495295D01*
X62857142Y-103495295D02*
X62857142Y-103638152D01*
X62857142Y-103638152D02*
X62809523Y-103733390D01*
X62809523Y-103733390D02*
X62761904Y-103781009D01*
X62761904Y-103781009D02*
X62666666Y-103828628D01*
X62666666Y-103828628D02*
X62285714Y-103828628D01*
X63809523Y-104304819D02*
X63238095Y-104304819D01*
X63523809Y-104304819D02*
X63523809Y-103304819D01*
X63523809Y-103304819D02*
X63428571Y-103447676D01*
X63428571Y-103447676D02*
X63333333Y-103542914D01*
X63333333Y-103542914D02*
X63238095Y-103590533D01*
X64714285Y-103304819D02*
X64238095Y-103304819D01*
X64238095Y-103304819D02*
X64190476Y-103781009D01*
X64190476Y-103781009D02*
X64238095Y-103733390D01*
X64238095Y-103733390D02*
X64333333Y-103685771D01*
X64333333Y-103685771D02*
X64571428Y-103685771D01*
X64571428Y-103685771D02*
X64666666Y-103733390D01*
X64666666Y-103733390D02*
X64714285Y-103781009D01*
X64714285Y-103781009D02*
X64761904Y-103876247D01*
X64761904Y-103876247D02*
X64761904Y-104114342D01*
X64761904Y-104114342D02*
X64714285Y-104209580D01*
X64714285Y-104209580D02*
X64666666Y-104257200D01*
X64666666Y-104257200D02*
X64571428Y-104304819D01*
X64571428Y-104304819D02*
X64333333Y-104304819D01*
X64333333Y-104304819D02*
X64238095Y-104257200D01*
X64238095Y-104257200D02*
X64190476Y-104209580D01*
X62857142Y-114804819D02*
X62523809Y-114328628D01*
X62285714Y-114804819D02*
X62285714Y-113804819D01*
X62285714Y-113804819D02*
X62666666Y-113804819D01*
X62666666Y-113804819D02*
X62761904Y-113852438D01*
X62761904Y-113852438D02*
X62809523Y-113900057D01*
X62809523Y-113900057D02*
X62857142Y-113995295D01*
X62857142Y-113995295D02*
X62857142Y-114138152D01*
X62857142Y-114138152D02*
X62809523Y-114233390D01*
X62809523Y-114233390D02*
X62761904Y-114281009D01*
X62761904Y-114281009D02*
X62666666Y-114328628D01*
X62666666Y-114328628D02*
X62285714Y-114328628D01*
X63809523Y-114804819D02*
X63238095Y-114804819D01*
X63523809Y-114804819D02*
X63523809Y-113804819D01*
X63523809Y-113804819D02*
X63428571Y-113947676D01*
X63428571Y-113947676D02*
X63333333Y-114042914D01*
X63333333Y-114042914D02*
X63238095Y-114090533D01*
X64666666Y-114138152D02*
X64666666Y-114804819D01*
X64428571Y-113757200D02*
X64190476Y-114471485D01*
X64190476Y-114471485D02*
X64809523Y-114471485D01*
X62857142Y-111304819D02*
X62523809Y-110828628D01*
X62285714Y-111304819D02*
X62285714Y-110304819D01*
X62285714Y-110304819D02*
X62666666Y-110304819D01*
X62666666Y-110304819D02*
X62761904Y-110352438D01*
X62761904Y-110352438D02*
X62809523Y-110400057D01*
X62809523Y-110400057D02*
X62857142Y-110495295D01*
X62857142Y-110495295D02*
X62857142Y-110638152D01*
X62857142Y-110638152D02*
X62809523Y-110733390D01*
X62809523Y-110733390D02*
X62761904Y-110781009D01*
X62761904Y-110781009D02*
X62666666Y-110828628D01*
X62666666Y-110828628D02*
X62285714Y-110828628D01*
X63809523Y-111304819D02*
X63238095Y-111304819D01*
X63523809Y-111304819D02*
X63523809Y-110304819D01*
X63523809Y-110304819D02*
X63428571Y-110447676D01*
X63428571Y-110447676D02*
X63333333Y-110542914D01*
X63333333Y-110542914D02*
X63238095Y-110590533D01*
X64142857Y-110304819D02*
X64761904Y-110304819D01*
X64761904Y-110304819D02*
X64428571Y-110685771D01*
X64428571Y-110685771D02*
X64571428Y-110685771D01*
X64571428Y-110685771D02*
X64666666Y-110733390D01*
X64666666Y-110733390D02*
X64714285Y-110781009D01*
X64714285Y-110781009D02*
X64761904Y-110876247D01*
X64761904Y-110876247D02*
X64761904Y-111114342D01*
X64761904Y-111114342D02*
X64714285Y-111209580D01*
X64714285Y-111209580D02*
X64666666Y-111257200D01*
X64666666Y-111257200D02*
X64571428Y-111304819D01*
X64571428Y-111304819D02*
X64285714Y-111304819D01*
X64285714Y-111304819D02*
X64190476Y-111257200D01*
X64190476Y-111257200D02*
X64142857Y-111209580D01*
X71857142Y-107804819D02*
X71523809Y-107328628D01*
X71285714Y-107804819D02*
X71285714Y-106804819D01*
X71285714Y-106804819D02*
X71666666Y-106804819D01*
X71666666Y-106804819D02*
X71761904Y-106852438D01*
X71761904Y-106852438D02*
X71809523Y-106900057D01*
X71809523Y-106900057D02*
X71857142Y-106995295D01*
X71857142Y-106995295D02*
X71857142Y-107138152D01*
X71857142Y-107138152D02*
X71809523Y-107233390D01*
X71809523Y-107233390D02*
X71761904Y-107281009D01*
X71761904Y-107281009D02*
X71666666Y-107328628D01*
X71666666Y-107328628D02*
X71285714Y-107328628D01*
X72809523Y-107804819D02*
X72238095Y-107804819D01*
X72523809Y-107804819D02*
X72523809Y-106804819D01*
X72523809Y-106804819D02*
X72428571Y-106947676D01*
X72428571Y-106947676D02*
X72333333Y-107042914D01*
X72333333Y-107042914D02*
X72238095Y-107090533D01*
X73190476Y-106900057D02*
X73238095Y-106852438D01*
X73238095Y-106852438D02*
X73333333Y-106804819D01*
X73333333Y-106804819D02*
X73571428Y-106804819D01*
X73571428Y-106804819D02*
X73666666Y-106852438D01*
X73666666Y-106852438D02*
X73714285Y-106900057D01*
X73714285Y-106900057D02*
X73761904Y-106995295D01*
X73761904Y-106995295D02*
X73761904Y-107090533D01*
X73761904Y-107090533D02*
X73714285Y-107233390D01*
X73714285Y-107233390D02*
X73142857Y-107804819D01*
X73142857Y-107804819D02*
X73761904Y-107804819D01*
X71857142Y-104304819D02*
X71523809Y-103828628D01*
X71285714Y-104304819D02*
X71285714Y-103304819D01*
X71285714Y-103304819D02*
X71666666Y-103304819D01*
X71666666Y-103304819D02*
X71761904Y-103352438D01*
X71761904Y-103352438D02*
X71809523Y-103400057D01*
X71809523Y-103400057D02*
X71857142Y-103495295D01*
X71857142Y-103495295D02*
X71857142Y-103638152D01*
X71857142Y-103638152D02*
X71809523Y-103733390D01*
X71809523Y-103733390D02*
X71761904Y-103781009D01*
X71761904Y-103781009D02*
X71666666Y-103828628D01*
X71666666Y-103828628D02*
X71285714Y-103828628D01*
X72809523Y-104304819D02*
X72238095Y-104304819D01*
X72523809Y-104304819D02*
X72523809Y-103304819D01*
X72523809Y-103304819D02*
X72428571Y-103447676D01*
X72428571Y-103447676D02*
X72333333Y-103542914D01*
X72333333Y-103542914D02*
X72238095Y-103590533D01*
X73761904Y-104304819D02*
X73190476Y-104304819D01*
X73476190Y-104304819D02*
X73476190Y-103304819D01*
X73476190Y-103304819D02*
X73380952Y-103447676D01*
X73380952Y-103447676D02*
X73285714Y-103542914D01*
X73285714Y-103542914D02*
X73190476Y-103590533D01*
X71857142Y-93804819D02*
X71523809Y-93328628D01*
X71285714Y-93804819D02*
X71285714Y-92804819D01*
X71285714Y-92804819D02*
X71666666Y-92804819D01*
X71666666Y-92804819D02*
X71761904Y-92852438D01*
X71761904Y-92852438D02*
X71809523Y-92900057D01*
X71809523Y-92900057D02*
X71857142Y-92995295D01*
X71857142Y-92995295D02*
X71857142Y-93138152D01*
X71857142Y-93138152D02*
X71809523Y-93233390D01*
X71809523Y-93233390D02*
X71761904Y-93281009D01*
X71761904Y-93281009D02*
X71666666Y-93328628D01*
X71666666Y-93328628D02*
X71285714Y-93328628D01*
X72809523Y-93804819D02*
X72238095Y-93804819D01*
X72523809Y-93804819D02*
X72523809Y-92804819D01*
X72523809Y-92804819D02*
X72428571Y-92947676D01*
X72428571Y-92947676D02*
X72333333Y-93042914D01*
X72333333Y-93042914D02*
X72238095Y-93090533D01*
X73428571Y-92804819D02*
X73523809Y-92804819D01*
X73523809Y-92804819D02*
X73619047Y-92852438D01*
X73619047Y-92852438D02*
X73666666Y-92900057D01*
X73666666Y-92900057D02*
X73714285Y-92995295D01*
X73714285Y-92995295D02*
X73761904Y-93185771D01*
X73761904Y-93185771D02*
X73761904Y-93423866D01*
X73761904Y-93423866D02*
X73714285Y-93614342D01*
X73714285Y-93614342D02*
X73666666Y-93709580D01*
X73666666Y-93709580D02*
X73619047Y-93757200D01*
X73619047Y-93757200D02*
X73523809Y-93804819D01*
X73523809Y-93804819D02*
X73428571Y-93804819D01*
X73428571Y-93804819D02*
X73333333Y-93757200D01*
X73333333Y-93757200D02*
X73285714Y-93709580D01*
X73285714Y-93709580D02*
X73238095Y-93614342D01*
X73238095Y-93614342D02*
X73190476Y-93423866D01*
X73190476Y-93423866D02*
X73190476Y-93185771D01*
X73190476Y-93185771D02*
X73238095Y-92995295D01*
X73238095Y-92995295D02*
X73285714Y-92900057D01*
X73285714Y-92900057D02*
X73333333Y-92852438D01*
X73333333Y-92852438D02*
X73428571Y-92804819D01*
X72333333Y-90304819D02*
X72000000Y-89828628D01*
X71761905Y-90304819D02*
X71761905Y-89304819D01*
X71761905Y-89304819D02*
X72142857Y-89304819D01*
X72142857Y-89304819D02*
X72238095Y-89352438D01*
X72238095Y-89352438D02*
X72285714Y-89400057D01*
X72285714Y-89400057D02*
X72333333Y-89495295D01*
X72333333Y-89495295D02*
X72333333Y-89638152D01*
X72333333Y-89638152D02*
X72285714Y-89733390D01*
X72285714Y-89733390D02*
X72238095Y-89781009D01*
X72238095Y-89781009D02*
X72142857Y-89828628D01*
X72142857Y-89828628D02*
X71761905Y-89828628D01*
X72809524Y-90304819D02*
X73000000Y-90304819D01*
X73000000Y-90304819D02*
X73095238Y-90257200D01*
X73095238Y-90257200D02*
X73142857Y-90209580D01*
X73142857Y-90209580D02*
X73238095Y-90066723D01*
X73238095Y-90066723D02*
X73285714Y-89876247D01*
X73285714Y-89876247D02*
X73285714Y-89495295D01*
X73285714Y-89495295D02*
X73238095Y-89400057D01*
X73238095Y-89400057D02*
X73190476Y-89352438D01*
X73190476Y-89352438D02*
X73095238Y-89304819D01*
X73095238Y-89304819D02*
X72904762Y-89304819D01*
X72904762Y-89304819D02*
X72809524Y-89352438D01*
X72809524Y-89352438D02*
X72761905Y-89400057D01*
X72761905Y-89400057D02*
X72714286Y-89495295D01*
X72714286Y-89495295D02*
X72714286Y-89733390D01*
X72714286Y-89733390D02*
X72761905Y-89828628D01*
X72761905Y-89828628D02*
X72809524Y-89876247D01*
X72809524Y-89876247D02*
X72904762Y-89923866D01*
X72904762Y-89923866D02*
X73095238Y-89923866D01*
X73095238Y-89923866D02*
X73190476Y-89876247D01*
X73190476Y-89876247D02*
X73238095Y-89828628D01*
X73238095Y-89828628D02*
X73285714Y-89733390D01*
X67833333Y-100804819D02*
X67500000Y-100328628D01*
X67261905Y-100804819D02*
X67261905Y-99804819D01*
X67261905Y-99804819D02*
X67642857Y-99804819D01*
X67642857Y-99804819D02*
X67738095Y-99852438D01*
X67738095Y-99852438D02*
X67785714Y-99900057D01*
X67785714Y-99900057D02*
X67833333Y-99995295D01*
X67833333Y-99995295D02*
X67833333Y-100138152D01*
X67833333Y-100138152D02*
X67785714Y-100233390D01*
X67785714Y-100233390D02*
X67738095Y-100281009D01*
X67738095Y-100281009D02*
X67642857Y-100328628D01*
X67642857Y-100328628D02*
X67261905Y-100328628D01*
X68404762Y-100233390D02*
X68309524Y-100185771D01*
X68309524Y-100185771D02*
X68261905Y-100138152D01*
X68261905Y-100138152D02*
X68214286Y-100042914D01*
X68214286Y-100042914D02*
X68214286Y-99995295D01*
X68214286Y-99995295D02*
X68261905Y-99900057D01*
X68261905Y-99900057D02*
X68309524Y-99852438D01*
X68309524Y-99852438D02*
X68404762Y-99804819D01*
X68404762Y-99804819D02*
X68595238Y-99804819D01*
X68595238Y-99804819D02*
X68690476Y-99852438D01*
X68690476Y-99852438D02*
X68738095Y-99900057D01*
X68738095Y-99900057D02*
X68785714Y-99995295D01*
X68785714Y-99995295D02*
X68785714Y-100042914D01*
X68785714Y-100042914D02*
X68738095Y-100138152D01*
X68738095Y-100138152D02*
X68690476Y-100185771D01*
X68690476Y-100185771D02*
X68595238Y-100233390D01*
X68595238Y-100233390D02*
X68404762Y-100233390D01*
X68404762Y-100233390D02*
X68309524Y-100281009D01*
X68309524Y-100281009D02*
X68261905Y-100328628D01*
X68261905Y-100328628D02*
X68214286Y-100423866D01*
X68214286Y-100423866D02*
X68214286Y-100614342D01*
X68214286Y-100614342D02*
X68261905Y-100709580D01*
X68261905Y-100709580D02*
X68309524Y-100757200D01*
X68309524Y-100757200D02*
X68404762Y-100804819D01*
X68404762Y-100804819D02*
X68595238Y-100804819D01*
X68595238Y-100804819D02*
X68690476Y-100757200D01*
X68690476Y-100757200D02*
X68738095Y-100709580D01*
X68738095Y-100709580D02*
X68785714Y-100614342D01*
X68785714Y-100614342D02*
X68785714Y-100423866D01*
X68785714Y-100423866D02*
X68738095Y-100328628D01*
X68738095Y-100328628D02*
X68690476Y-100281009D01*
X68690476Y-100281009D02*
X68595238Y-100233390D01*
X67833333Y-97304819D02*
X67500000Y-96828628D01*
X67261905Y-97304819D02*
X67261905Y-96304819D01*
X67261905Y-96304819D02*
X67642857Y-96304819D01*
X67642857Y-96304819D02*
X67738095Y-96352438D01*
X67738095Y-96352438D02*
X67785714Y-96400057D01*
X67785714Y-96400057D02*
X67833333Y-96495295D01*
X67833333Y-96495295D02*
X67833333Y-96638152D01*
X67833333Y-96638152D02*
X67785714Y-96733390D01*
X67785714Y-96733390D02*
X67738095Y-96781009D01*
X67738095Y-96781009D02*
X67642857Y-96828628D01*
X67642857Y-96828628D02*
X67261905Y-96828628D01*
X68166667Y-96304819D02*
X68833333Y-96304819D01*
X68833333Y-96304819D02*
X68404762Y-97304819D01*
X67833333Y-93804819D02*
X67500000Y-93328628D01*
X67261905Y-93804819D02*
X67261905Y-92804819D01*
X67261905Y-92804819D02*
X67642857Y-92804819D01*
X67642857Y-92804819D02*
X67738095Y-92852438D01*
X67738095Y-92852438D02*
X67785714Y-92900057D01*
X67785714Y-92900057D02*
X67833333Y-92995295D01*
X67833333Y-92995295D02*
X67833333Y-93138152D01*
X67833333Y-93138152D02*
X67785714Y-93233390D01*
X67785714Y-93233390D02*
X67738095Y-93281009D01*
X67738095Y-93281009D02*
X67642857Y-93328628D01*
X67642857Y-93328628D02*
X67261905Y-93328628D01*
X68690476Y-92804819D02*
X68500000Y-92804819D01*
X68500000Y-92804819D02*
X68404762Y-92852438D01*
X68404762Y-92852438D02*
X68357143Y-92900057D01*
X68357143Y-92900057D02*
X68261905Y-93042914D01*
X68261905Y-93042914D02*
X68214286Y-93233390D01*
X68214286Y-93233390D02*
X68214286Y-93614342D01*
X68214286Y-93614342D02*
X68261905Y-93709580D01*
X68261905Y-93709580D02*
X68309524Y-93757200D01*
X68309524Y-93757200D02*
X68404762Y-93804819D01*
X68404762Y-93804819D02*
X68595238Y-93804819D01*
X68595238Y-93804819D02*
X68690476Y-93757200D01*
X68690476Y-93757200D02*
X68738095Y-93709580D01*
X68738095Y-93709580D02*
X68785714Y-93614342D01*
X68785714Y-93614342D02*
X68785714Y-93376247D01*
X68785714Y-93376247D02*
X68738095Y-93281009D01*
X68738095Y-93281009D02*
X68690476Y-93233390D01*
X68690476Y-93233390D02*
X68595238Y-93185771D01*
X68595238Y-93185771D02*
X68404762Y-93185771D01*
X68404762Y-93185771D02*
X68309524Y-93233390D01*
X68309524Y-93233390D02*
X68261905Y-93281009D01*
X68261905Y-93281009D02*
X68214286Y-93376247D01*
X67833333Y-90304819D02*
X67500000Y-89828628D01*
X67261905Y-90304819D02*
X67261905Y-89304819D01*
X67261905Y-89304819D02*
X67642857Y-89304819D01*
X67642857Y-89304819D02*
X67738095Y-89352438D01*
X67738095Y-89352438D02*
X67785714Y-89400057D01*
X67785714Y-89400057D02*
X67833333Y-89495295D01*
X67833333Y-89495295D02*
X67833333Y-89638152D01*
X67833333Y-89638152D02*
X67785714Y-89733390D01*
X67785714Y-89733390D02*
X67738095Y-89781009D01*
X67738095Y-89781009D02*
X67642857Y-89828628D01*
X67642857Y-89828628D02*
X67261905Y-89828628D01*
X68738095Y-89304819D02*
X68261905Y-89304819D01*
X68261905Y-89304819D02*
X68214286Y-89781009D01*
X68214286Y-89781009D02*
X68261905Y-89733390D01*
X68261905Y-89733390D02*
X68357143Y-89685771D01*
X68357143Y-89685771D02*
X68595238Y-89685771D01*
X68595238Y-89685771D02*
X68690476Y-89733390D01*
X68690476Y-89733390D02*
X68738095Y-89781009D01*
X68738095Y-89781009D02*
X68785714Y-89876247D01*
X68785714Y-89876247D02*
X68785714Y-90114342D01*
X68785714Y-90114342D02*
X68738095Y-90209580D01*
X68738095Y-90209580D02*
X68690476Y-90257200D01*
X68690476Y-90257200D02*
X68595238Y-90304819D01*
X68595238Y-90304819D02*
X68357143Y-90304819D01*
X68357143Y-90304819D02*
X68261905Y-90257200D01*
X68261905Y-90257200D02*
X68214286Y-90209580D01*
X63333333Y-100804819D02*
X63000000Y-100328628D01*
X62761905Y-100804819D02*
X62761905Y-99804819D01*
X62761905Y-99804819D02*
X63142857Y-99804819D01*
X63142857Y-99804819D02*
X63238095Y-99852438D01*
X63238095Y-99852438D02*
X63285714Y-99900057D01*
X63285714Y-99900057D02*
X63333333Y-99995295D01*
X63333333Y-99995295D02*
X63333333Y-100138152D01*
X63333333Y-100138152D02*
X63285714Y-100233390D01*
X63285714Y-100233390D02*
X63238095Y-100281009D01*
X63238095Y-100281009D02*
X63142857Y-100328628D01*
X63142857Y-100328628D02*
X62761905Y-100328628D01*
X64190476Y-100138152D02*
X64190476Y-100804819D01*
X63952381Y-99757200D02*
X63714286Y-100471485D01*
X63714286Y-100471485D02*
X64333333Y-100471485D01*
X63333333Y-97304819D02*
X63000000Y-96828628D01*
X62761905Y-97304819D02*
X62761905Y-96304819D01*
X62761905Y-96304819D02*
X63142857Y-96304819D01*
X63142857Y-96304819D02*
X63238095Y-96352438D01*
X63238095Y-96352438D02*
X63285714Y-96400057D01*
X63285714Y-96400057D02*
X63333333Y-96495295D01*
X63333333Y-96495295D02*
X63333333Y-96638152D01*
X63333333Y-96638152D02*
X63285714Y-96733390D01*
X63285714Y-96733390D02*
X63238095Y-96781009D01*
X63238095Y-96781009D02*
X63142857Y-96828628D01*
X63142857Y-96828628D02*
X62761905Y-96828628D01*
X63666667Y-96304819D02*
X64285714Y-96304819D01*
X64285714Y-96304819D02*
X63952381Y-96685771D01*
X63952381Y-96685771D02*
X64095238Y-96685771D01*
X64095238Y-96685771D02*
X64190476Y-96733390D01*
X64190476Y-96733390D02*
X64238095Y-96781009D01*
X64238095Y-96781009D02*
X64285714Y-96876247D01*
X64285714Y-96876247D02*
X64285714Y-97114342D01*
X64285714Y-97114342D02*
X64238095Y-97209580D01*
X64238095Y-97209580D02*
X64190476Y-97257200D01*
X64190476Y-97257200D02*
X64095238Y-97304819D01*
X64095238Y-97304819D02*
X63809524Y-97304819D01*
X63809524Y-97304819D02*
X63714286Y-97257200D01*
X63714286Y-97257200D02*
X63666667Y-97209580D01*
X63333333Y-93804819D02*
X63000000Y-93328628D01*
X62761905Y-93804819D02*
X62761905Y-92804819D01*
X62761905Y-92804819D02*
X63142857Y-92804819D01*
X63142857Y-92804819D02*
X63238095Y-92852438D01*
X63238095Y-92852438D02*
X63285714Y-92900057D01*
X63285714Y-92900057D02*
X63333333Y-92995295D01*
X63333333Y-92995295D02*
X63333333Y-93138152D01*
X63333333Y-93138152D02*
X63285714Y-93233390D01*
X63285714Y-93233390D02*
X63238095Y-93281009D01*
X63238095Y-93281009D02*
X63142857Y-93328628D01*
X63142857Y-93328628D02*
X62761905Y-93328628D01*
X63714286Y-92900057D02*
X63761905Y-92852438D01*
X63761905Y-92852438D02*
X63857143Y-92804819D01*
X63857143Y-92804819D02*
X64095238Y-92804819D01*
X64095238Y-92804819D02*
X64190476Y-92852438D01*
X64190476Y-92852438D02*
X64238095Y-92900057D01*
X64238095Y-92900057D02*
X64285714Y-92995295D01*
X64285714Y-92995295D02*
X64285714Y-93090533D01*
X64285714Y-93090533D02*
X64238095Y-93233390D01*
X64238095Y-93233390D02*
X63666667Y-93804819D01*
X63666667Y-93804819D02*
X64285714Y-93804819D01*
X63333333Y-90304819D02*
X63000000Y-89828628D01*
X62761905Y-90304819D02*
X62761905Y-89304819D01*
X62761905Y-89304819D02*
X63142857Y-89304819D01*
X63142857Y-89304819D02*
X63238095Y-89352438D01*
X63238095Y-89352438D02*
X63285714Y-89400057D01*
X63285714Y-89400057D02*
X63333333Y-89495295D01*
X63333333Y-89495295D02*
X63333333Y-89638152D01*
X63333333Y-89638152D02*
X63285714Y-89733390D01*
X63285714Y-89733390D02*
X63238095Y-89781009D01*
X63238095Y-89781009D02*
X63142857Y-89828628D01*
X63142857Y-89828628D02*
X62761905Y-89828628D01*
X64285714Y-90304819D02*
X63714286Y-90304819D01*
X64000000Y-90304819D02*
X64000000Y-89304819D01*
X64000000Y-89304819D02*
X63904762Y-89447676D01*
X63904762Y-89447676D02*
X63809524Y-89542914D01*
X63809524Y-89542914D02*
X63714286Y-89590533D01*
X84954819Y-110357142D02*
X83954819Y-110357142D01*
X83954819Y-110357142D02*
X83954819Y-109976190D01*
X83954819Y-109976190D02*
X84002438Y-109880952D01*
X84002438Y-109880952D02*
X84050057Y-109833333D01*
X84050057Y-109833333D02*
X84145295Y-109785714D01*
X84145295Y-109785714D02*
X84288152Y-109785714D01*
X84288152Y-109785714D02*
X84383390Y-109833333D01*
X84383390Y-109833333D02*
X84431009Y-109880952D01*
X84431009Y-109880952D02*
X84478628Y-109976190D01*
X84478628Y-109976190D02*
X84478628Y-110357142D01*
X83954819Y-109452380D02*
X84954819Y-109214285D01*
X84954819Y-109214285D02*
X84240533Y-109023809D01*
X84240533Y-109023809D02*
X84954819Y-108833333D01*
X84954819Y-108833333D02*
X83954819Y-108595238D01*
X84954819Y-107642857D02*
X84478628Y-107976190D01*
X84954819Y-108214285D02*
X83954819Y-108214285D01*
X83954819Y-108214285D02*
X83954819Y-107833333D01*
X83954819Y-107833333D02*
X84002438Y-107738095D01*
X84002438Y-107738095D02*
X84050057Y-107690476D01*
X84050057Y-107690476D02*
X84145295Y-107642857D01*
X84145295Y-107642857D02*
X84288152Y-107642857D01*
X84288152Y-107642857D02*
X84383390Y-107690476D01*
X84383390Y-107690476D02*
X84431009Y-107738095D01*
X84431009Y-107738095D02*
X84478628Y-107833333D01*
X84478628Y-107833333D02*
X84478628Y-108214285D01*
X84954819Y-107214285D02*
X83954819Y-107214285D01*
X83954819Y-107214285D02*
X83954819Y-106833333D01*
X83954819Y-106833333D02*
X84002438Y-106738095D01*
X84002438Y-106738095D02*
X84050057Y-106690476D01*
X84050057Y-106690476D02*
X84145295Y-106642857D01*
X84145295Y-106642857D02*
X84288152Y-106642857D01*
X84288152Y-106642857D02*
X84383390Y-106690476D01*
X84383390Y-106690476D02*
X84431009Y-106738095D01*
X84431009Y-106738095D02*
X84478628Y-106833333D01*
X84478628Y-106833333D02*
X84478628Y-107214285D01*
X84954819Y-106214285D02*
X83954819Y-106214285D01*
X84954819Y-105738095D02*
X83954819Y-105738095D01*
X83954819Y-105738095D02*
X84954819Y-105166667D01*
X84954819Y-105166667D02*
X83954819Y-105166667D01*
X84907200Y-104738095D02*
X84954819Y-104595238D01*
X84954819Y-104595238D02*
X84954819Y-104357143D01*
X84954819Y-104357143D02*
X84907200Y-104261905D01*
X84907200Y-104261905D02*
X84859580Y-104214286D01*
X84859580Y-104214286D02*
X84764342Y-104166667D01*
X84764342Y-104166667D02*
X84669104Y-104166667D01*
X84669104Y-104166667D02*
X84573866Y-104214286D01*
X84573866Y-104214286D02*
X84526247Y-104261905D01*
X84526247Y-104261905D02*
X84478628Y-104357143D01*
X84478628Y-104357143D02*
X84431009Y-104547619D01*
X84431009Y-104547619D02*
X84383390Y-104642857D01*
X84383390Y-104642857D02*
X84335771Y-104690476D01*
X84335771Y-104690476D02*
X84240533Y-104738095D01*
X84240533Y-104738095D02*
X84145295Y-104738095D01*
X84145295Y-104738095D02*
X84050057Y-104690476D01*
X84050057Y-104690476D02*
X84002438Y-104642857D01*
X84002438Y-104642857D02*
X83954819Y-104547619D01*
X83954819Y-104547619D02*
X83954819Y-104309524D01*
X83954819Y-104309524D02*
X84002438Y-104166667D01*
X85050057Y-103976191D02*
X85050057Y-103214286D01*
X84954819Y-102976190D02*
X83954819Y-102976190D01*
X83954819Y-102976190D02*
X83954819Y-102738095D01*
X83954819Y-102738095D02*
X84002438Y-102595238D01*
X84002438Y-102595238D02*
X84097676Y-102500000D01*
X84097676Y-102500000D02*
X84192914Y-102452381D01*
X84192914Y-102452381D02*
X84383390Y-102404762D01*
X84383390Y-102404762D02*
X84526247Y-102404762D01*
X84526247Y-102404762D02*
X84716723Y-102452381D01*
X84716723Y-102452381D02*
X84811961Y-102500000D01*
X84811961Y-102500000D02*
X84907200Y-102595238D01*
X84907200Y-102595238D02*
X84954819Y-102738095D01*
X84954819Y-102738095D02*
X84954819Y-102976190D01*
X84669104Y-102023809D02*
X84669104Y-101547619D01*
X84954819Y-102119047D02*
X83954819Y-101785714D01*
X83954819Y-101785714D02*
X84954819Y-101452381D01*
X84859580Y-100547619D02*
X84907200Y-100595238D01*
X84907200Y-100595238D02*
X84954819Y-100738095D01*
X84954819Y-100738095D02*
X84954819Y-100833333D01*
X84954819Y-100833333D02*
X84907200Y-100976190D01*
X84907200Y-100976190D02*
X84811961Y-101071428D01*
X84811961Y-101071428D02*
X84716723Y-101119047D01*
X84716723Y-101119047D02*
X84526247Y-101166666D01*
X84526247Y-101166666D02*
X84383390Y-101166666D01*
X84383390Y-101166666D02*
X84192914Y-101119047D01*
X84192914Y-101119047D02*
X84097676Y-101071428D01*
X84097676Y-101071428D02*
X84002438Y-100976190D01*
X84002438Y-100976190D02*
X83954819Y-100833333D01*
X83954819Y-100833333D02*
X83954819Y-100738095D01*
X83954819Y-100738095D02*
X84002438Y-100595238D01*
X84002438Y-100595238D02*
X84050057Y-100547619D01*
X84954819Y-99595238D02*
X84954819Y-100166666D01*
X84954819Y-99880952D02*
X83954819Y-99880952D01*
X83954819Y-99880952D02*
X84097676Y-99976190D01*
X84097676Y-99976190D02*
X84192914Y-100071428D01*
X84192914Y-100071428D02*
X84240533Y-100166666D01*
X76319642Y-100679580D02*
X76272023Y-100727200D01*
X76272023Y-100727200D02*
X76129166Y-100774819D01*
X76129166Y-100774819D02*
X76033928Y-100774819D01*
X76033928Y-100774819D02*
X75891071Y-100727200D01*
X75891071Y-100727200D02*
X75795833Y-100631961D01*
X75795833Y-100631961D02*
X75748214Y-100536723D01*
X75748214Y-100536723D02*
X75700595Y-100346247D01*
X75700595Y-100346247D02*
X75700595Y-100203390D01*
X75700595Y-100203390D02*
X75748214Y-100012914D01*
X75748214Y-100012914D02*
X75795833Y-99917676D01*
X75795833Y-99917676D02*
X75891071Y-99822438D01*
X75891071Y-99822438D02*
X76033928Y-99774819D01*
X76033928Y-99774819D02*
X76129166Y-99774819D01*
X76129166Y-99774819D02*
X76272023Y-99822438D01*
X76272023Y-99822438D02*
X76319642Y-99870057D01*
X77272023Y-100774819D02*
X76700595Y-100774819D01*
X76986309Y-100774819D02*
X76986309Y-99774819D01*
X76986309Y-99774819D02*
X76891071Y-99917676D01*
X76891071Y-99917676D02*
X76795833Y-100012914D01*
X76795833Y-100012914D02*
X76700595Y-100060533D01*
X78224404Y-100774819D02*
X77652976Y-100774819D01*
X77938690Y-100774819D02*
X77938690Y-99774819D01*
X77938690Y-99774819D02*
X77843452Y-99917676D01*
X77843452Y-99917676D02*
X77748214Y-100012914D01*
X77748214Y-100012914D02*
X77652976Y-100060533D01*
X76319642Y-97179580D02*
X76272023Y-97227200D01*
X76272023Y-97227200D02*
X76129166Y-97274819D01*
X76129166Y-97274819D02*
X76033928Y-97274819D01*
X76033928Y-97274819D02*
X75891071Y-97227200D01*
X75891071Y-97227200D02*
X75795833Y-97131961D01*
X75795833Y-97131961D02*
X75748214Y-97036723D01*
X75748214Y-97036723D02*
X75700595Y-96846247D01*
X75700595Y-96846247D02*
X75700595Y-96703390D01*
X75700595Y-96703390D02*
X75748214Y-96512914D01*
X75748214Y-96512914D02*
X75795833Y-96417676D01*
X75795833Y-96417676D02*
X75891071Y-96322438D01*
X75891071Y-96322438D02*
X76033928Y-96274819D01*
X76033928Y-96274819D02*
X76129166Y-96274819D01*
X76129166Y-96274819D02*
X76272023Y-96322438D01*
X76272023Y-96322438D02*
X76319642Y-96370057D01*
X77272023Y-97274819D02*
X76700595Y-97274819D01*
X76986309Y-97274819D02*
X76986309Y-96274819D01*
X76986309Y-96274819D02*
X76891071Y-96417676D01*
X76891071Y-96417676D02*
X76795833Y-96512914D01*
X76795833Y-96512914D02*
X76700595Y-96560533D01*
X77891071Y-96274819D02*
X77986309Y-96274819D01*
X77986309Y-96274819D02*
X78081547Y-96322438D01*
X78081547Y-96322438D02*
X78129166Y-96370057D01*
X78129166Y-96370057D02*
X78176785Y-96465295D01*
X78176785Y-96465295D02*
X78224404Y-96655771D01*
X78224404Y-96655771D02*
X78224404Y-96893866D01*
X78224404Y-96893866D02*
X78176785Y-97084342D01*
X78176785Y-97084342D02*
X78129166Y-97179580D01*
X78129166Y-97179580D02*
X78081547Y-97227200D01*
X78081547Y-97227200D02*
X77986309Y-97274819D01*
X77986309Y-97274819D02*
X77891071Y-97274819D01*
X77891071Y-97274819D02*
X77795833Y-97227200D01*
X77795833Y-97227200D02*
X77748214Y-97179580D01*
X77748214Y-97179580D02*
X77700595Y-97084342D01*
X77700595Y-97084342D02*
X77652976Y-96893866D01*
X77652976Y-96893866D02*
X77652976Y-96655771D01*
X77652976Y-96655771D02*
X77700595Y-96465295D01*
X77700595Y-96465295D02*
X77748214Y-96370057D01*
X77748214Y-96370057D02*
X77795833Y-96322438D01*
X77795833Y-96322438D02*
X77891071Y-96274819D01*
X76795833Y-93679580D02*
X76748214Y-93727200D01*
X76748214Y-93727200D02*
X76605357Y-93774819D01*
X76605357Y-93774819D02*
X76510119Y-93774819D01*
X76510119Y-93774819D02*
X76367262Y-93727200D01*
X76367262Y-93727200D02*
X76272024Y-93631961D01*
X76272024Y-93631961D02*
X76224405Y-93536723D01*
X76224405Y-93536723D02*
X76176786Y-93346247D01*
X76176786Y-93346247D02*
X76176786Y-93203390D01*
X76176786Y-93203390D02*
X76224405Y-93012914D01*
X76224405Y-93012914D02*
X76272024Y-92917676D01*
X76272024Y-92917676D02*
X76367262Y-92822438D01*
X76367262Y-92822438D02*
X76510119Y-92774819D01*
X76510119Y-92774819D02*
X76605357Y-92774819D01*
X76605357Y-92774819D02*
X76748214Y-92822438D01*
X76748214Y-92822438D02*
X76795833Y-92870057D01*
X77272024Y-93774819D02*
X77462500Y-93774819D01*
X77462500Y-93774819D02*
X77557738Y-93727200D01*
X77557738Y-93727200D02*
X77605357Y-93679580D01*
X77605357Y-93679580D02*
X77700595Y-93536723D01*
X77700595Y-93536723D02*
X77748214Y-93346247D01*
X77748214Y-93346247D02*
X77748214Y-92965295D01*
X77748214Y-92965295D02*
X77700595Y-92870057D01*
X77700595Y-92870057D02*
X77652976Y-92822438D01*
X77652976Y-92822438D02*
X77557738Y-92774819D01*
X77557738Y-92774819D02*
X77367262Y-92774819D01*
X77367262Y-92774819D02*
X77272024Y-92822438D01*
X77272024Y-92822438D02*
X77224405Y-92870057D01*
X77224405Y-92870057D02*
X77176786Y-92965295D01*
X77176786Y-92965295D02*
X77176786Y-93203390D01*
X77176786Y-93203390D02*
X77224405Y-93298628D01*
X77224405Y-93298628D02*
X77272024Y-93346247D01*
X77272024Y-93346247D02*
X77367262Y-93393866D01*
X77367262Y-93393866D02*
X77557738Y-93393866D01*
X77557738Y-93393866D02*
X77652976Y-93346247D01*
X77652976Y-93346247D02*
X77700595Y-93298628D01*
X77700595Y-93298628D02*
X77748214Y-93203390D01*
X76795833Y-90179580D02*
X76748214Y-90227200D01*
X76748214Y-90227200D02*
X76605357Y-90274819D01*
X76605357Y-90274819D02*
X76510119Y-90274819D01*
X76510119Y-90274819D02*
X76367262Y-90227200D01*
X76367262Y-90227200D02*
X76272024Y-90131961D01*
X76272024Y-90131961D02*
X76224405Y-90036723D01*
X76224405Y-90036723D02*
X76176786Y-89846247D01*
X76176786Y-89846247D02*
X76176786Y-89703390D01*
X76176786Y-89703390D02*
X76224405Y-89512914D01*
X76224405Y-89512914D02*
X76272024Y-89417676D01*
X76272024Y-89417676D02*
X76367262Y-89322438D01*
X76367262Y-89322438D02*
X76510119Y-89274819D01*
X76510119Y-89274819D02*
X76605357Y-89274819D01*
X76605357Y-89274819D02*
X76748214Y-89322438D01*
X76748214Y-89322438D02*
X76795833Y-89370057D01*
X77367262Y-89703390D02*
X77272024Y-89655771D01*
X77272024Y-89655771D02*
X77224405Y-89608152D01*
X77224405Y-89608152D02*
X77176786Y-89512914D01*
X77176786Y-89512914D02*
X77176786Y-89465295D01*
X77176786Y-89465295D02*
X77224405Y-89370057D01*
X77224405Y-89370057D02*
X77272024Y-89322438D01*
X77272024Y-89322438D02*
X77367262Y-89274819D01*
X77367262Y-89274819D02*
X77557738Y-89274819D01*
X77557738Y-89274819D02*
X77652976Y-89322438D01*
X77652976Y-89322438D02*
X77700595Y-89370057D01*
X77700595Y-89370057D02*
X77748214Y-89465295D01*
X77748214Y-89465295D02*
X77748214Y-89512914D01*
X77748214Y-89512914D02*
X77700595Y-89608152D01*
X77700595Y-89608152D02*
X77652976Y-89655771D01*
X77652976Y-89655771D02*
X77557738Y-89703390D01*
X77557738Y-89703390D02*
X77367262Y-89703390D01*
X77367262Y-89703390D02*
X77272024Y-89751009D01*
X77272024Y-89751009D02*
X77224405Y-89798628D01*
X77224405Y-89798628D02*
X77176786Y-89893866D01*
X77176786Y-89893866D02*
X77176786Y-90084342D01*
X77176786Y-90084342D02*
X77224405Y-90179580D01*
X77224405Y-90179580D02*
X77272024Y-90227200D01*
X77272024Y-90227200D02*
X77367262Y-90274819D01*
X77367262Y-90274819D02*
X77557738Y-90274819D01*
X77557738Y-90274819D02*
X77652976Y-90227200D01*
X77652976Y-90227200D02*
X77700595Y-90179580D01*
X77700595Y-90179580D02*
X77748214Y-90084342D01*
X77748214Y-90084342D02*
X77748214Y-89893866D01*
X77748214Y-89893866D02*
X77700595Y-89798628D01*
X77700595Y-89798628D02*
X77652976Y-89751009D01*
X77652976Y-89751009D02*
X77557738Y-89703390D01*
X81295833Y-107679580D02*
X81248214Y-107727200D01*
X81248214Y-107727200D02*
X81105357Y-107774819D01*
X81105357Y-107774819D02*
X81010119Y-107774819D01*
X81010119Y-107774819D02*
X80867262Y-107727200D01*
X80867262Y-107727200D02*
X80772024Y-107631961D01*
X80772024Y-107631961D02*
X80724405Y-107536723D01*
X80724405Y-107536723D02*
X80676786Y-107346247D01*
X80676786Y-107346247D02*
X80676786Y-107203390D01*
X80676786Y-107203390D02*
X80724405Y-107012914D01*
X80724405Y-107012914D02*
X80772024Y-106917676D01*
X80772024Y-106917676D02*
X80867262Y-106822438D01*
X80867262Y-106822438D02*
X81010119Y-106774819D01*
X81010119Y-106774819D02*
X81105357Y-106774819D01*
X81105357Y-106774819D02*
X81248214Y-106822438D01*
X81248214Y-106822438D02*
X81295833Y-106870057D01*
X81629167Y-106774819D02*
X82295833Y-106774819D01*
X82295833Y-106774819D02*
X81867262Y-107774819D01*
X81370833Y-100679580D02*
X81323214Y-100727200D01*
X81323214Y-100727200D02*
X81180357Y-100774819D01*
X81180357Y-100774819D02*
X81085119Y-100774819D01*
X81085119Y-100774819D02*
X80942262Y-100727200D01*
X80942262Y-100727200D02*
X80847024Y-100631961D01*
X80847024Y-100631961D02*
X80799405Y-100536723D01*
X80799405Y-100536723D02*
X80751786Y-100346247D01*
X80751786Y-100346247D02*
X80751786Y-100203390D01*
X80751786Y-100203390D02*
X80799405Y-100012914D01*
X80799405Y-100012914D02*
X80847024Y-99917676D01*
X80847024Y-99917676D02*
X80942262Y-99822438D01*
X80942262Y-99822438D02*
X81085119Y-99774819D01*
X81085119Y-99774819D02*
X81180357Y-99774819D01*
X81180357Y-99774819D02*
X81323214Y-99822438D01*
X81323214Y-99822438D02*
X81370833Y-99870057D01*
X82227976Y-99774819D02*
X82037500Y-99774819D01*
X82037500Y-99774819D02*
X81942262Y-99822438D01*
X81942262Y-99822438D02*
X81894643Y-99870057D01*
X81894643Y-99870057D02*
X81799405Y-100012914D01*
X81799405Y-100012914D02*
X81751786Y-100203390D01*
X81751786Y-100203390D02*
X81751786Y-100584342D01*
X81751786Y-100584342D02*
X81799405Y-100679580D01*
X81799405Y-100679580D02*
X81847024Y-100727200D01*
X81847024Y-100727200D02*
X81942262Y-100774819D01*
X81942262Y-100774819D02*
X82132738Y-100774819D01*
X82132738Y-100774819D02*
X82227976Y-100727200D01*
X82227976Y-100727200D02*
X82275595Y-100679580D01*
X82275595Y-100679580D02*
X82323214Y-100584342D01*
X82323214Y-100584342D02*
X82323214Y-100346247D01*
X82323214Y-100346247D02*
X82275595Y-100251009D01*
X82275595Y-100251009D02*
X82227976Y-100203390D01*
X82227976Y-100203390D02*
X82132738Y-100155771D01*
X82132738Y-100155771D02*
X81942262Y-100155771D01*
X81942262Y-100155771D02*
X81847024Y-100203390D01*
X81847024Y-100203390D02*
X81799405Y-100251009D01*
X81799405Y-100251009D02*
X81751786Y-100346247D01*
X81370833Y-111179580D02*
X81323214Y-111227200D01*
X81323214Y-111227200D02*
X81180357Y-111274819D01*
X81180357Y-111274819D02*
X81085119Y-111274819D01*
X81085119Y-111274819D02*
X80942262Y-111227200D01*
X80942262Y-111227200D02*
X80847024Y-111131961D01*
X80847024Y-111131961D02*
X80799405Y-111036723D01*
X80799405Y-111036723D02*
X80751786Y-110846247D01*
X80751786Y-110846247D02*
X80751786Y-110703390D01*
X80751786Y-110703390D02*
X80799405Y-110512914D01*
X80799405Y-110512914D02*
X80847024Y-110417676D01*
X80847024Y-110417676D02*
X80942262Y-110322438D01*
X80942262Y-110322438D02*
X81085119Y-110274819D01*
X81085119Y-110274819D02*
X81180357Y-110274819D01*
X81180357Y-110274819D02*
X81323214Y-110322438D01*
X81323214Y-110322438D02*
X81370833Y-110370057D01*
X82275595Y-110274819D02*
X81799405Y-110274819D01*
X81799405Y-110274819D02*
X81751786Y-110751009D01*
X81751786Y-110751009D02*
X81799405Y-110703390D01*
X81799405Y-110703390D02*
X81894643Y-110655771D01*
X81894643Y-110655771D02*
X82132738Y-110655771D01*
X82132738Y-110655771D02*
X82227976Y-110703390D01*
X82227976Y-110703390D02*
X82275595Y-110751009D01*
X82275595Y-110751009D02*
X82323214Y-110846247D01*
X82323214Y-110846247D02*
X82323214Y-111084342D01*
X82323214Y-111084342D02*
X82275595Y-111179580D01*
X82275595Y-111179580D02*
X82227976Y-111227200D01*
X82227976Y-111227200D02*
X82132738Y-111274819D01*
X82132738Y-111274819D02*
X81894643Y-111274819D01*
X81894643Y-111274819D02*
X81799405Y-111227200D01*
X81799405Y-111227200D02*
X81751786Y-111179580D01*
X76795833Y-104179580D02*
X76748214Y-104227200D01*
X76748214Y-104227200D02*
X76605357Y-104274819D01*
X76605357Y-104274819D02*
X76510119Y-104274819D01*
X76510119Y-104274819D02*
X76367262Y-104227200D01*
X76367262Y-104227200D02*
X76272024Y-104131961D01*
X76272024Y-104131961D02*
X76224405Y-104036723D01*
X76224405Y-104036723D02*
X76176786Y-103846247D01*
X76176786Y-103846247D02*
X76176786Y-103703390D01*
X76176786Y-103703390D02*
X76224405Y-103512914D01*
X76224405Y-103512914D02*
X76272024Y-103417676D01*
X76272024Y-103417676D02*
X76367262Y-103322438D01*
X76367262Y-103322438D02*
X76510119Y-103274819D01*
X76510119Y-103274819D02*
X76605357Y-103274819D01*
X76605357Y-103274819D02*
X76748214Y-103322438D01*
X76748214Y-103322438D02*
X76795833Y-103370057D01*
X77652976Y-103608152D02*
X77652976Y-104274819D01*
X77414881Y-103227200D02*
X77176786Y-103941485D01*
X77176786Y-103941485D02*
X77795833Y-103941485D01*
X76795833Y-107679580D02*
X76748214Y-107727200D01*
X76748214Y-107727200D02*
X76605357Y-107774819D01*
X76605357Y-107774819D02*
X76510119Y-107774819D01*
X76510119Y-107774819D02*
X76367262Y-107727200D01*
X76367262Y-107727200D02*
X76272024Y-107631961D01*
X76272024Y-107631961D02*
X76224405Y-107536723D01*
X76224405Y-107536723D02*
X76176786Y-107346247D01*
X76176786Y-107346247D02*
X76176786Y-107203390D01*
X76176786Y-107203390D02*
X76224405Y-107012914D01*
X76224405Y-107012914D02*
X76272024Y-106917676D01*
X76272024Y-106917676D02*
X76367262Y-106822438D01*
X76367262Y-106822438D02*
X76510119Y-106774819D01*
X76510119Y-106774819D02*
X76605357Y-106774819D01*
X76605357Y-106774819D02*
X76748214Y-106822438D01*
X76748214Y-106822438D02*
X76795833Y-106870057D01*
X77129167Y-106774819D02*
X77748214Y-106774819D01*
X77748214Y-106774819D02*
X77414881Y-107155771D01*
X77414881Y-107155771D02*
X77557738Y-107155771D01*
X77557738Y-107155771D02*
X77652976Y-107203390D01*
X77652976Y-107203390D02*
X77700595Y-107251009D01*
X77700595Y-107251009D02*
X77748214Y-107346247D01*
X77748214Y-107346247D02*
X77748214Y-107584342D01*
X77748214Y-107584342D02*
X77700595Y-107679580D01*
X77700595Y-107679580D02*
X77652976Y-107727200D01*
X77652976Y-107727200D02*
X77557738Y-107774819D01*
X77557738Y-107774819D02*
X77272024Y-107774819D01*
X77272024Y-107774819D02*
X77176786Y-107727200D01*
X77176786Y-107727200D02*
X77129167Y-107679580D01*
X76795833Y-111179580D02*
X76748214Y-111227200D01*
X76748214Y-111227200D02*
X76605357Y-111274819D01*
X76605357Y-111274819D02*
X76510119Y-111274819D01*
X76510119Y-111274819D02*
X76367262Y-111227200D01*
X76367262Y-111227200D02*
X76272024Y-111131961D01*
X76272024Y-111131961D02*
X76224405Y-111036723D01*
X76224405Y-111036723D02*
X76176786Y-110846247D01*
X76176786Y-110846247D02*
X76176786Y-110703390D01*
X76176786Y-110703390D02*
X76224405Y-110512914D01*
X76224405Y-110512914D02*
X76272024Y-110417676D01*
X76272024Y-110417676D02*
X76367262Y-110322438D01*
X76367262Y-110322438D02*
X76510119Y-110274819D01*
X76510119Y-110274819D02*
X76605357Y-110274819D01*
X76605357Y-110274819D02*
X76748214Y-110322438D01*
X76748214Y-110322438D02*
X76795833Y-110370057D01*
X77176786Y-110370057D02*
X77224405Y-110322438D01*
X77224405Y-110322438D02*
X77319643Y-110274819D01*
X77319643Y-110274819D02*
X77557738Y-110274819D01*
X77557738Y-110274819D02*
X77652976Y-110322438D01*
X77652976Y-110322438D02*
X77700595Y-110370057D01*
X77700595Y-110370057D02*
X77748214Y-110465295D01*
X77748214Y-110465295D02*
X77748214Y-110560533D01*
X77748214Y-110560533D02*
X77700595Y-110703390D01*
X77700595Y-110703390D02*
X77129167Y-111274819D01*
X77129167Y-111274819D02*
X77748214Y-111274819D01*
X76795833Y-114679580D02*
X76748214Y-114727200D01*
X76748214Y-114727200D02*
X76605357Y-114774819D01*
X76605357Y-114774819D02*
X76510119Y-114774819D01*
X76510119Y-114774819D02*
X76367262Y-114727200D01*
X76367262Y-114727200D02*
X76272024Y-114631961D01*
X76272024Y-114631961D02*
X76224405Y-114536723D01*
X76224405Y-114536723D02*
X76176786Y-114346247D01*
X76176786Y-114346247D02*
X76176786Y-114203390D01*
X76176786Y-114203390D02*
X76224405Y-114012914D01*
X76224405Y-114012914D02*
X76272024Y-113917676D01*
X76272024Y-113917676D02*
X76367262Y-113822438D01*
X76367262Y-113822438D02*
X76510119Y-113774819D01*
X76510119Y-113774819D02*
X76605357Y-113774819D01*
X76605357Y-113774819D02*
X76748214Y-113822438D01*
X76748214Y-113822438D02*
X76795833Y-113870057D01*
X77748214Y-114774819D02*
X77176786Y-114774819D01*
X77462500Y-114774819D02*
X77462500Y-113774819D01*
X77462500Y-113774819D02*
X77367262Y-113917676D01*
X77367262Y-113917676D02*
X77272024Y-114012914D01*
X77272024Y-114012914D02*
X77176786Y-114060533D01*
D12*
%TO.C,VOUT_DAC1*%
X97830000Y-92730000D02*
X97830000Y-110570000D01*
X95170000Y-110570000D02*
X97830000Y-110570000D01*
X95170000Y-92730000D02*
X97830000Y-92730000D01*
X95170000Y-92730000D02*
X95170000Y-110570000D01*
X95170000Y-91460000D02*
X95170000Y-90130000D01*
X95170000Y-90130000D02*
X96500000Y-90130000D01*
D13*
%TO.C,dac*%
X81325000Y-128190000D02*
G75*
G02*
X81125000Y-128190000I-100000J0D01*
G01*
X81125000Y-128190000D02*
G75*
G02*
X81325000Y-128190000I100000J0D01*
G01*
D14*
X81000000Y-125765000D02*
X81000000Y-122235000D01*
X86000000Y-122235000D02*
X86000000Y-125765000D01*
%TO.C,opa2*%
X63805000Y-127865000D02*
X66145000Y-127865000D01*
X63805000Y-119215000D02*
X66145000Y-119215000D01*
D13*
X60925000Y-119740000D02*
G75*
G02*
X60725000Y-119740000I-100000J0D01*
G01*
X60725000Y-119740000D02*
G75*
G02*
X60925000Y-119740000I100000J0D01*
G01*
D14*
%TO.C,opa1*%
X75620000Y-119365000D02*
X73280000Y-119365000D01*
X75620000Y-128015000D02*
X73280000Y-128015000D01*
D13*
X78700000Y-127490000D02*
G75*
G02*
X78500000Y-127490000I-100000J0D01*
G01*
X78500000Y-127490000D02*
G75*
G02*
X78700000Y-127490000I100000J0D01*
G01*
D12*
%TO.C,SPIPINS_DAC1*%
X91170000Y-97170000D02*
X92500000Y-97170000D01*
X91170000Y-98500000D02*
X91170000Y-97170000D01*
X91170000Y-99770000D02*
X91170000Y-109990000D01*
X91170000Y-99770000D02*
X93830000Y-99770000D01*
X91170000Y-109990000D02*
X93830000Y-109990000D01*
X93830000Y-99770000D02*
X93830000Y-109990000D01*
%TO.C,R26*%
X72272936Y-115265000D02*
X72727064Y-115265000D01*
X72272936Y-116735000D02*
X72727064Y-116735000D01*
%TO.C,R25*%
X72272936Y-111765000D02*
X72727064Y-111765000D01*
X72272936Y-113235000D02*
X72727064Y-113235000D01*
%TO.C,R24*%
X72272936Y-101265000D02*
X72727064Y-101265000D01*
X72272936Y-102735000D02*
X72727064Y-102735000D01*
%TO.C,R23*%
X72272936Y-97765000D02*
X72727064Y-97765000D01*
X72272936Y-99235000D02*
X72727064Y-99235000D01*
%TO.C,R22*%
X67772936Y-104765000D02*
X68227064Y-104765000D01*
X67772936Y-106235000D02*
X68227064Y-106235000D01*
%TO.C,R21*%
X67772936Y-108265000D02*
X68227064Y-108265000D01*
X67772936Y-109735000D02*
X68227064Y-109735000D01*
%TO.C,R20*%
X67772936Y-111765000D02*
X68227064Y-111765000D01*
X67772936Y-113235000D02*
X68227064Y-113235000D01*
%TO.C,R19*%
X67772936Y-115265000D02*
X68227064Y-115265000D01*
X67772936Y-116735000D02*
X68227064Y-116735000D01*
%TO.C,R18*%
X81272936Y-90765000D02*
X81727064Y-90765000D01*
X81272936Y-92235000D02*
X81727064Y-92235000D01*
%TO.C,R17*%
X81272936Y-94265000D02*
X81727064Y-94265000D01*
X81272936Y-95735000D02*
X81727064Y-95735000D01*
%TO.C,R16*%
X63272936Y-108265000D02*
X63727064Y-108265000D01*
X63272936Y-109735000D02*
X63727064Y-109735000D01*
%TO.C,R15*%
X63272936Y-104765000D02*
X63727064Y-104765000D01*
X63272936Y-106235000D02*
X63727064Y-106235000D01*
%TO.C,R14*%
X63272936Y-116735000D02*
X63727064Y-116735000D01*
X63272936Y-115265000D02*
X63727064Y-115265000D01*
%TO.C,R13*%
X63272936Y-111765000D02*
X63727064Y-111765000D01*
X63272936Y-113235000D02*
X63727064Y-113235000D01*
%TO.C,R12*%
X72272936Y-108265000D02*
X72727064Y-108265000D01*
X72272936Y-109735000D02*
X72727064Y-109735000D01*
%TO.C,R11*%
X72272936Y-104765000D02*
X72727064Y-104765000D01*
X72272936Y-106235000D02*
X72727064Y-106235000D01*
%TO.C,R10*%
X72272936Y-94265000D02*
X72727064Y-94265000D01*
X72272936Y-95735000D02*
X72727064Y-95735000D01*
%TO.C,R9*%
X72272936Y-90765000D02*
X72727064Y-90765000D01*
X72272936Y-92235000D02*
X72727064Y-92235000D01*
%TO.C,R8*%
X67772936Y-101265000D02*
X68227064Y-101265000D01*
X67772936Y-102735000D02*
X68227064Y-102735000D01*
%TO.C,R7*%
X67772936Y-97765000D02*
X68227064Y-97765000D01*
X67772936Y-99235000D02*
X68227064Y-99235000D01*
%TO.C,R6*%
X67772936Y-94265000D02*
X68227064Y-94265000D01*
X67772936Y-95735000D02*
X68227064Y-95735000D01*
%TO.C,R5*%
X67772936Y-90765000D02*
X68227064Y-90765000D01*
X67772936Y-92235000D02*
X68227064Y-92235000D01*
%TO.C,R4*%
X63272936Y-101265000D02*
X63727064Y-101265000D01*
X63272936Y-102735000D02*
X63727064Y-102735000D01*
%TO.C,R3*%
X63272936Y-97765000D02*
X63727064Y-97765000D01*
X63272936Y-99235000D02*
X63727064Y-99235000D01*
%TO.C,R2*%
X63272936Y-94265000D02*
X63727064Y-94265000D01*
X63272936Y-95735000D02*
X63727064Y-95735000D01*
%TO.C,R1*%
X63272936Y-90765000D02*
X63727064Y-90765000D01*
X63272936Y-92235000D02*
X63727064Y-92235000D01*
%TO.C,PWRPINS_DAC1*%
X86170000Y-97670000D02*
X87500000Y-97670000D01*
X86170000Y-99000000D02*
X86170000Y-97670000D01*
X86170000Y-100270000D02*
X86170000Y-110490000D01*
X86170000Y-100270000D02*
X88830000Y-100270000D01*
X86170000Y-110490000D02*
X88830000Y-110490000D01*
X88830000Y-100270000D02*
X88830000Y-110490000D01*
%TO.C,C11*%
X76701248Y-102735000D02*
X77223752Y-102735000D01*
X76701248Y-101265000D02*
X77223752Y-101265000D01*
%TO.C,C10*%
X76701248Y-99235000D02*
X77223752Y-99235000D01*
X76701248Y-97765000D02*
X77223752Y-97765000D01*
%TO.C,C9*%
X76701248Y-95735000D02*
X77223752Y-95735000D01*
X76701248Y-94265000D02*
X77223752Y-94265000D01*
%TO.C,C8*%
X76701248Y-92235000D02*
X77223752Y-92235000D01*
X76701248Y-90765000D02*
X77223752Y-90765000D01*
%TO.C,C7*%
X81201248Y-108265000D02*
X81723752Y-108265000D01*
X81201248Y-109735000D02*
X81723752Y-109735000D01*
%TO.C,C6*%
X81276248Y-101265000D02*
X81798752Y-101265000D01*
X81276248Y-102735000D02*
X81798752Y-102735000D01*
%TO.C,C5*%
X81276248Y-111765000D02*
X81798752Y-111765000D01*
X81276248Y-113235000D02*
X81798752Y-113235000D01*
%TO.C,C4*%
X76701248Y-106235000D02*
X77223752Y-106235000D01*
X76701248Y-104765000D02*
X77223752Y-104765000D01*
%TO.C,C3*%
X76701248Y-109735000D02*
X77223752Y-109735000D01*
X76701248Y-108265000D02*
X77223752Y-108265000D01*
%TO.C,C2*%
X76701248Y-113235000D02*
X77223752Y-113235000D01*
X76701248Y-111765000D02*
X77223752Y-111765000D01*
%TO.C,C1*%
X76701248Y-116735000D02*
X77223752Y-116735000D01*
X76701248Y-115265000D02*
X77223752Y-115265000D01*
%TD*%
M02*
