%TF.GenerationSoftware,KiCad,Pcbnew,8.0.4*%
%TF.CreationDate,2024-08-16T22:28:16+02:00*%
%TF.ProjectId,breakout_dac,62726561-6b6f-4757-945f-6461632e6b69,1.1*%
%TF.SameCoordinates,Original*%
%TF.FileFunction,Copper,L2,Bot*%
%TF.FilePolarity,Positive*%
%FSLAX46Y46*%
G04 Gerber Fmt 4.6, Leading zero omitted, Abs format (unit mm)*
G04 Created by KiCad (PCBNEW 8.0.4) date 2024-08-16 22:28:16*
%MOMM*%
%LPD*%
G01*
G04 APERTURE LIST*
%TA.AperFunction,ComponentPad*%
%ADD10R,1.700000X1.700000*%
%TD*%
%TA.AperFunction,ComponentPad*%
%ADD11O,1.700000X1.700000*%
%TD*%
%TA.AperFunction,ViaPad*%
%ADD12C,0.457200*%
%TD*%
%TA.AperFunction,Conductor*%
%ADD13C,0.152400*%
%TD*%
G04 APERTURE END LIST*
D10*
%TO.P,PWRPINS_DAC1,1,Pin_1*%
%TO.N,/V+DAC*%
X85500000Y-99340000D03*
D11*
%TO.P,PWRPINS_DAC1,2,Pin_2*%
%TO.N,/V-DAC*%
X85500000Y-101880000D03*
%TO.P,PWRPINS_DAC1,3,Pin_3*%
%TO.N,GND*%
X85500000Y-104420000D03*
%TO.P,PWRPINS_DAC1,4,Pin_4*%
%TO.N,/VDD_DAC*%
X85500000Y-106960000D03*
%TO.P,PWRPINS_DAC1,5,Pin_5*%
%TO.N,/VREF_2V5_DAC*%
X85500000Y-109500000D03*
%TD*%
D10*
%TO.P,VOUT_DAC1,1,Pin_1*%
%TO.N,/CVA_DAC*%
X96500000Y-91720000D03*
D11*
%TO.P,VOUT_DAC1,2,Pin_2*%
%TO.N,/CVB_DAC*%
X96500000Y-94260000D03*
%TO.P,VOUT_DAC1,3,Pin_3*%
%TO.N,/CVC_DAC*%
X96500000Y-96800000D03*
%TO.P,VOUT_DAC1,4,Pin_4*%
%TO.N,/CVD_DAC*%
X96500000Y-99340000D03*
%TO.P,VOUT_DAC1,5,Pin_5*%
%TO.N,/CVE_DAC*%
X96500000Y-101880000D03*
%TO.P,VOUT_DAC1,6,Pin_6*%
%TO.N,/CVF_DAC*%
X96500000Y-104420000D03*
%TO.P,VOUT_DAC1,7,Pin_7*%
%TO.N,/CVG_DAC*%
X96500000Y-106960000D03*
%TO.P,VOUT_DAC1,8,Pin_8*%
%TO.N,/CVH_DAC*%
X96500000Y-109500000D03*
%TD*%
D10*
%TO.P,SPIPINS_DAC1,1,Pin_1*%
%TO.N,/SCLK_DAC*%
X91500000Y-99340000D03*
D11*
%TO.P,SPIPINS_DAC1,2,Pin_2*%
%TO.N,/DIN_DAC*%
X91500000Y-101880000D03*
%TO.P,SPIPINS_DAC1,3,Pin_3*%
%TO.N,/SYNC_DAC*%
X91500000Y-104420000D03*
%TO.P,SPIPINS_DAC1,4,Pin_4*%
%TO.N,/LDAC_DAC*%
X91500000Y-106960000D03*
%TO.P,SPIPINS_DAC1,5,Pin_5*%
%TO.N,/CLR_DAC*%
X91500000Y-109500000D03*
%TD*%
D12*
%TO.N,Net-(C1-Pad1)*%
X75867500Y-114866000D03*
X66834900Y-92606100D03*
%TO.N,Net-(C1-Pad2)*%
X73681200Y-92601400D03*
X77226000Y-113453000D03*
%TO.N,Net-(C2-Pad1)*%
X69190200Y-97146200D03*
X74929400Y-111875000D03*
%TO.N,Net-(C2-Pad2)*%
X76816500Y-111509000D03*
X73008500Y-96997200D03*
%TO.N,Net-(C3-Pad2)*%
X74242400Y-106898000D03*
X75719500Y-110854000D03*
%TO.N,Net-(C3-Pad1)*%
X73257400Y-111241000D03*
X73419100Y-120880000D03*
%TO.N,Net-(C4-Pad1)*%
X68192400Y-116957000D03*
X68352100Y-103352000D03*
X71607900Y-106722000D03*
%TO.N,GND*%
X83267700Y-108043000D03*
%TO.N,/VREF_2V5_DAC*%
X83493000Y-105260000D03*
X85584100Y-124822000D03*
X83019400Y-107421000D03*
%TO.N,/VBIAS_DAC*%
X80727200Y-99246700D03*
X79068700Y-109869000D03*
X75540000Y-121224000D03*
%TO.N,Net-(C8-Pad2)*%
X63645800Y-118635000D03*
X70007000Y-98498800D03*
%TO.N,Net-(C9-Pad2)*%
X64708300Y-125507000D03*
X71882600Y-100573000D03*
%TO.N,Net-(C9-Pad1)*%
X70688800Y-100648000D03*
X67331300Y-111408000D03*
%TO.N,Net-(C10-Pad1)*%
X64918700Y-104328000D03*
X72532300Y-100574000D03*
X64575900Y-123358000D03*
%TO.N,Net-(C10-Pad2)*%
X73120800Y-104343000D03*
X70513000Y-112699000D03*
X74402000Y-122546000D03*
%TO.N,Net-(C11-Pad2)*%
X75206800Y-123192000D03*
X78405100Y-103653000D03*
X74264500Y-117217000D03*
%TO.N,Net-(C11-Pad1)*%
X72845200Y-103260000D03*
X65781500Y-108878000D03*
X70273800Y-125508000D03*
%TO.N,/V-DAC*%
X75344700Y-122068000D03*
%TO.N,/V+DAC*%
X78281200Y-123156000D03*
%TO.N,/VOUTB_DAC*%
X67478700Y-93568600D03*
X76592600Y-110782000D03*
%TO.N,/VOUTC_DAC*%
X78440600Y-128230000D03*
X63185400Y-100014000D03*
%TO.N,/VOUTD_DAC*%
X79537900Y-123989000D03*
X66872400Y-104097000D03*
%TO.N,/CVD_DAC*%
X75824700Y-107491000D03*
%TO.N,/VOUTH_DAC*%
X66001100Y-114296000D03*
X82240200Y-124229000D03*
%TO.N,/CVE_DAC*%
X74758700Y-97088400D03*
X73722300Y-118034000D03*
%TO.N,/CVF_DAC*%
X70042600Y-111840000D03*
X72152200Y-103304000D03*
%TO.N,/CVH_DAC*%
X69582800Y-107397000D03*
X72491800Y-116498000D03*
%TO.N,/DIN_DAC*%
X81969800Y-119955000D03*
%TO.N,/SCLK_DAC*%
X81251400Y-119933000D03*
%TD*%
D13*
%TO.N,Net-(C1-Pad1)*%
X73917200Y-100656000D02*
X66834900Y-93574000D01*
X73917200Y-106574000D02*
X73917200Y-100656000D01*
X73783500Y-109994000D02*
X73783500Y-106708000D01*
X66834900Y-93574000D02*
X66834900Y-92606100D01*
X75867500Y-112078000D02*
X73783500Y-109994000D01*
X73783500Y-106708000D02*
X73917200Y-106574000D01*
X75867500Y-114866000D02*
X75867500Y-112078000D01*
%TO.N,Net-(C1-Pad2)*%
X77358000Y-113321000D02*
X77226000Y-113453000D01*
X75365700Y-100372000D02*
X75365700Y-107774000D01*
X73681200Y-92601400D02*
X73681200Y-98687900D01*
X73681200Y-98687900D02*
X75365700Y-100372000D01*
X75365700Y-107774000D02*
X77358000Y-109766000D01*
X77358000Y-109766000D02*
X77358000Y-113321000D01*
%TO.N,Net-(C2-Pad1)*%
X69765500Y-97146200D02*
X69190200Y-97146200D01*
X73594900Y-100976000D02*
X69765500Y-97146200D01*
X74929400Y-111875000D02*
X73477000Y-110422000D01*
X73477000Y-106581000D02*
X73594900Y-106463000D01*
X73594900Y-106463000D02*
X73594900Y-100976000D01*
X73477000Y-110422000D02*
X73477000Y-106581000D01*
%TO.N,Net-(C2-Pad2)*%
X73008500Y-98448700D02*
X73008500Y-96997200D01*
X75059200Y-108600000D02*
X75059200Y-100499000D01*
X77051500Y-110592000D02*
X75059200Y-108600000D01*
X76816500Y-111509000D02*
X77051500Y-111274000D01*
X77051500Y-111274000D02*
X77051500Y-110592000D01*
X75059200Y-100499000D02*
X73008500Y-98448700D01*
%TO.N,Net-(C3-Pad2)*%
X74242500Y-109377000D02*
X74242500Y-106898000D01*
X75719500Y-110854000D02*
X74242500Y-109377000D01*
X74242500Y-106898000D02*
X74242400Y-106898000D01*
%TO.N,Net-(C3-Pad1)*%
X73257400Y-120719000D02*
X73257400Y-111241000D01*
X73419100Y-120880000D02*
X73257400Y-120719000D01*
%TO.N,Net-(C4-Pad1)*%
X68192400Y-106997000D02*
X68467900Y-106722000D01*
X68192400Y-116957000D02*
X68192400Y-106997000D01*
X68467900Y-106722000D02*
X68352100Y-106606000D01*
X68352100Y-106606000D02*
X68352100Y-103352000D01*
X71607900Y-106722000D02*
X68467900Y-106722000D01*
%TO.N,GND*%
X83267700Y-108043000D02*
X83478300Y-107832000D01*
X83478300Y-106442000D02*
X85500000Y-104420000D01*
X83478300Y-107832000D02*
X83478300Y-106442000D01*
%TO.N,/VREF_2V5_DAC*%
X85500000Y-110580000D02*
X85584100Y-110664000D01*
X85500000Y-109500000D02*
X85500000Y-110580000D01*
X83493000Y-105260000D02*
X83019400Y-105734000D01*
X83019400Y-105734000D02*
X83019400Y-107421000D01*
X85584100Y-110664000D02*
X85584100Y-124822000D01*
%TO.N,/VBIAS_DAC*%
X79068700Y-100905000D02*
X80727200Y-99246700D01*
X79068700Y-117695000D02*
X75540000Y-121224000D01*
X79068700Y-109869000D02*
X79068700Y-117695000D01*
X79068700Y-109869000D02*
X79068700Y-100905000D01*
%TO.N,Net-(C8-Pad2)*%
X63645800Y-118635000D02*
X63645800Y-104860000D01*
X63645800Y-104860000D02*
X70007000Y-98498800D01*
%TO.N,Net-(C9-Pad2)*%
X65097900Y-125117000D02*
X65097900Y-104916000D01*
X64708300Y-125507000D02*
X65097900Y-125117000D01*
X70083000Y-99791000D02*
X71100400Y-99791000D01*
X65422900Y-104451000D02*
X70083000Y-99791000D01*
X65097900Y-104916000D02*
X65422900Y-104591000D01*
X71100400Y-99791000D02*
X71882600Y-100573000D01*
X65422900Y-104591000D02*
X65422900Y-104451000D01*
%TO.N,Net-(C9-Pad1)*%
X70379000Y-100648000D02*
X67331300Y-103696000D01*
X70688800Y-100648000D02*
X70379000Y-100648000D01*
X67331300Y-103696000D02*
X67331300Y-111408000D01*
%TO.N,Net-(C10-Pad1)*%
X64575900Y-123358000D02*
X64575900Y-104671000D01*
X64918700Y-104328000D02*
X69810900Y-99436200D01*
X64575900Y-104671000D02*
X64918700Y-104328000D01*
X72532300Y-100487000D02*
X72532300Y-100574000D01*
X71481600Y-99436200D02*
X72532300Y-100487000D01*
X69810900Y-99436200D02*
X71481600Y-99436200D01*
%TO.N,Net-(C10-Pad2)*%
X70513000Y-112699000D02*
X72950800Y-115136000D01*
X73120800Y-104343000D02*
X73120800Y-110091000D01*
X72950800Y-121095000D02*
X74402000Y-122546000D01*
X72950800Y-115136000D02*
X72950800Y-121095000D01*
X73120800Y-110091000D02*
X70513000Y-112699000D01*
%TO.N,Net-(C11-Pad2)*%
X78405100Y-103653000D02*
X78405100Y-113651000D01*
X74838900Y-117217000D02*
X74838900Y-122217000D01*
X78405100Y-113651000D02*
X74838900Y-117217000D01*
X75206800Y-122585000D02*
X75206800Y-123192000D01*
X74838900Y-117217000D02*
X74264500Y-117217000D01*
X74838900Y-122217000D02*
X75206800Y-122585000D01*
%TO.N,Net-(C11-Pad1)*%
X65781500Y-108878000D02*
X65542200Y-109117000D01*
X70150100Y-100170000D02*
X70863600Y-100170000D01*
X70863600Y-100170000D02*
X71423700Y-100730000D01*
X65542200Y-120776000D02*
X70273800Y-125508000D01*
X65781500Y-104538000D02*
X70150100Y-100170000D01*
X71423700Y-101838000D02*
X72845200Y-103260000D01*
X71423700Y-100730000D02*
X71423700Y-101838000D01*
X65781500Y-108878000D02*
X65781500Y-104538000D01*
X65542200Y-109117000D02*
X65542200Y-120776000D01*
%TO.N,/V-DAC*%
X79775800Y-107874000D02*
X79775800Y-117637000D01*
X85500000Y-102960000D02*
X84689800Y-102960000D01*
X85500000Y-101880000D02*
X85500000Y-102960000D01*
X84689800Y-102960000D02*
X79775800Y-107874000D01*
X79775800Y-117637000D02*
X75344700Y-122068000D01*
%TO.N,/V+DAC*%
X84836100Y-103268000D02*
X85718500Y-103268000D01*
X80513500Y-107591000D02*
X84836100Y-103268000D01*
X85718500Y-103268000D02*
X86601600Y-102385000D01*
X80513500Y-120924000D02*
X80513500Y-107591000D01*
X86601600Y-102385000D02*
X86601600Y-101387000D01*
X85500000Y-100420000D02*
X85500000Y-99340000D01*
X78281200Y-123156000D02*
X80513500Y-120924000D01*
X85635000Y-100420000D02*
X85500000Y-100420000D01*
X86601600Y-101387000D02*
X85635000Y-100420000D01*
%TO.N,/VOUTB_DAC*%
X76592600Y-110782000D02*
X74701500Y-108891000D01*
X74701500Y-100791000D02*
X67478700Y-93568600D01*
X74701500Y-108891000D02*
X74701500Y-100791000D01*
%TO.N,/VOUTC_DAC*%
X63185400Y-100014000D02*
X63185400Y-124664000D01*
X66750900Y-128230000D02*
X78440600Y-128230000D01*
X63185400Y-124664000D02*
X66750900Y-128230000D01*
%TO.N,/VOUTD_DAC*%
X74542600Y-123989000D02*
X66872400Y-116319000D01*
X66872400Y-116319000D02*
X66872400Y-104097000D01*
X79537900Y-123989000D02*
X74542600Y-123989000D01*
%TO.N,/CVD_DAC*%
X74267100Y-96864800D02*
X74267100Y-97783600D01*
X74267100Y-97783600D02*
X75824700Y-99341200D01*
X74505000Y-96626900D02*
X74267100Y-96864800D01*
X96500000Y-99340000D02*
X95419700Y-99340000D01*
X95419700Y-99340000D02*
X92706600Y-96626900D01*
X75824700Y-99341200D02*
X75824700Y-107491000D01*
X92706600Y-96626900D02*
X74505000Y-96626900D01*
%TO.N,/VOUTH_DAC*%
X81989300Y-124480000D02*
X82240200Y-124229000D01*
X66001100Y-114296000D02*
X66001100Y-115980000D01*
X74501000Y-124480000D02*
X81989300Y-124480000D01*
X66001100Y-115980000D02*
X74501000Y-124480000D01*
%TO.N,/CVE_DAC*%
X95959900Y-101880000D02*
X95959900Y-101764000D01*
X77741400Y-98257200D02*
X77741400Y-113702000D01*
X75688900Y-115755000D02*
X75077800Y-115755000D01*
X74758700Y-97088400D02*
X76572600Y-97088400D01*
X95959900Y-101764000D02*
X92453400Y-98257200D01*
X75077800Y-115755000D02*
X73722300Y-117110000D01*
X96500000Y-101880000D02*
X95959900Y-101880000D01*
X92453400Y-98257200D02*
X77741400Y-98257200D01*
X73722300Y-117110000D02*
X73722300Y-118034000D01*
X76572600Y-97088400D02*
X77741400Y-98257200D01*
X77741400Y-113702000D02*
X75688900Y-115755000D01*
%TO.N,/CVF_DAC*%
X70042600Y-111840000D02*
X72152200Y-109731000D01*
X72152200Y-109731000D02*
X72152200Y-103304000D01*
%TO.N,/CVH_DAC*%
X69582800Y-113590000D02*
X69582800Y-107397000D01*
X85412800Y-125300000D02*
X85759100Y-125300000D01*
X72491800Y-116498000D02*
X69582800Y-113590000D01*
X72491800Y-121285000D02*
X74863700Y-123657000D01*
X83605300Y-123492000D02*
X85412800Y-125300000D01*
X72491800Y-116498000D02*
X72491800Y-121285000D01*
X85759100Y-125300000D02*
X96500000Y-114559000D01*
X96500000Y-114559000D02*
X96500000Y-109500000D01*
X74863700Y-123657000D02*
X79066400Y-123657000D01*
X79231200Y-123492000D02*
X83605300Y-123492000D01*
X79066400Y-123657000D02*
X79231200Y-123492000D01*
%TO.N,/DIN_DAC*%
X81969800Y-111497000D02*
X81969800Y-119955000D01*
X91500000Y-101880000D02*
X91500000Y-102960000D01*
X91500000Y-102960000D02*
X91045600Y-102960000D01*
X85344600Y-108122000D02*
X81969800Y-111497000D01*
X91045600Y-102960000D02*
X85883800Y-108122000D01*
X85883800Y-108122000D02*
X85344600Y-108122000D01*
%TO.N,/SCLK_DAC*%
X91047400Y-100420000D02*
X91500000Y-100420000D01*
X83889100Y-108611000D02*
X83889100Y-107015000D01*
X85777700Y-105690000D02*
X91047400Y-100420000D01*
X83889100Y-107015000D02*
X85213800Y-105690000D01*
X81251400Y-111249000D02*
X83889100Y-108611000D01*
X85213800Y-105690000D02*
X85777700Y-105690000D01*
X81251400Y-119933000D02*
X81251400Y-111249000D01*
X91500000Y-100420000D02*
X91500000Y-99340000D01*
%TD*%
M02*
