%TF.GenerationSoftware,KiCad,Pcbnew,8.0.4*%
%TF.CreationDate,2024-08-16T22:28:16+02:00*%
%TF.ProjectId,breakout_dac,62726561-6b6f-4757-945f-6461632e6b69,1.1*%
%TF.SameCoordinates,Original*%
%TF.FileFunction,Copper,L1,Top*%
%TF.FilePolarity,Positive*%
%FSLAX46Y46*%
G04 Gerber Fmt 4.6, Leading zero omitted, Abs format (unit mm)*
G04 Created by KiCad (PCBNEW 8.0.4) date 2024-08-16 22:28:16*
%MOMM*%
%LPD*%
G01*
G04 APERTURE LIST*
G04 Aperture macros list*
%AMRoundRect*
0 Rectangle with rounded corners*
0 $1 Rounding radius*
0 $2 $3 $4 $5 $6 $7 $8 $9 X,Y pos of 4 corners*
0 Add a 4 corners polygon primitive as box body*
4,1,4,$2,$3,$4,$5,$6,$7,$8,$9,$2,$3,0*
0 Add four circle primitives for the rounded corners*
1,1,$1+$1,$2,$3*
1,1,$1+$1,$4,$5*
1,1,$1+$1,$6,$7*
1,1,$1+$1,$8,$9*
0 Add four rect primitives between the rounded corners*
20,1,$1+$1,$2,$3,$4,$5,0*
20,1,$1+$1,$4,$5,$6,$7,0*
20,1,$1+$1,$6,$7,$8,$9,0*
20,1,$1+$1,$8,$9,$2,$3,0*%
G04 Aperture macros list end*
%TA.AperFunction,SMDPad,CuDef*%
%ADD10RoundRect,0.150000X0.835000X0.150000X-0.835000X0.150000X-0.835000X-0.150000X0.835000X-0.150000X0*%
%TD*%
%TA.AperFunction,SMDPad,CuDef*%
%ADD11RoundRect,0.250000X-0.350000X-0.450000X0.350000X-0.450000X0.350000X0.450000X-0.350000X0.450000X0*%
%TD*%
%TA.AperFunction,SMDPad,CuDef*%
%ADD12RoundRect,0.250000X-0.337500X-0.475000X0.337500X-0.475000X0.337500X0.475000X-0.337500X0.475000X0*%
%TD*%
%TA.AperFunction,SMDPad,CuDef*%
%ADD13RoundRect,0.150000X-0.835000X-0.150000X0.835000X-0.150000X0.835000X0.150000X-0.835000X0.150000X0*%
%TD*%
%TA.AperFunction,ComponentPad*%
%ADD14R,1.700000X1.700000*%
%TD*%
%TA.AperFunction,ComponentPad*%
%ADD15O,1.700000X1.700000*%
%TD*%
%TA.AperFunction,SMDPad,CuDef*%
%ADD16RoundRect,0.051250X0.153750X-0.733750X0.153750X0.733750X-0.153750X0.733750X-0.153750X-0.733750X0*%
%TD*%
%TA.AperFunction,ViaPad*%
%ADD17C,0.457200*%
%TD*%
%TA.AperFunction,Conductor*%
%ADD18C,0.152400*%
%TD*%
G04 APERTURE END LIST*
D10*
%TO.P,U1,1*%
%TO.N,Net-(C1-Pad2)*%
X76925000Y-127500000D03*
%TO.P,U1,2*%
%TO.N,Net-(C1-Pad1)*%
X76925000Y-126230000D03*
%TO.P,U1,3*%
%TO.N,/VBIAS_DAC*%
X76925000Y-124960000D03*
%TO.P,U1,4*%
%TO.N,/V+DAC*%
X76925000Y-123690000D03*
%TO.P,U1,5*%
%TO.N,/VBIAS_DAC*%
X76925000Y-122420000D03*
%TO.P,U1,6*%
%TO.N,Net-(C2-Pad1)*%
X76925000Y-121150000D03*
%TO.P,U1,7*%
%TO.N,Net-(C2-Pad2)*%
X76925000Y-119880000D03*
%TO.P,U1,8*%
%TO.N,Net-(C3-Pad2)*%
X71975000Y-119880000D03*
%TO.P,U1,9*%
%TO.N,Net-(C3-Pad1)*%
X71975000Y-121150000D03*
%TO.P,U1,10*%
%TO.N,/VBIAS_DAC*%
X71975000Y-122420000D03*
%TO.P,U1,11*%
%TO.N,/V-DAC*%
X71975000Y-123690000D03*
%TO.P,U1,12*%
%TO.N,/VBIAS_DAC*%
X71975000Y-124960000D03*
%TO.P,U1,13*%
%TO.N,Net-(C11-Pad1)*%
X71975000Y-126230000D03*
%TO.P,U1,14*%
%TO.N,Net-(C11-Pad2)*%
X71975000Y-127500000D03*
%TD*%
D11*
%TO.P,R22,1*%
%TO.N,Net-(C11-Pad1)*%
X67000000Y-105500000D03*
%TO.P,R22,2*%
%TO.N,/CVH_DAC*%
X69000000Y-105500000D03*
%TD*%
%TO.P,R20,1*%
%TO.N,Net-(C9-Pad1)*%
X67000000Y-112500000D03*
%TO.P,R20,2*%
%TO.N,/CVF_DAC*%
X69000000Y-112500000D03*
%TD*%
D12*
%TO.P,C9,1*%
%TO.N,Net-(C9-Pad1)*%
X75925000Y-95000000D03*
%TO.P,C9,2*%
%TO.N,Net-(C9-Pad2)*%
X78000000Y-95000000D03*
%TD*%
D11*
%TO.P,R19,1*%
%TO.N,Net-(C8-Pad1)*%
X67000000Y-116000000D03*
%TO.P,R19,2*%
%TO.N,/CVE_DAC*%
X69000000Y-116000000D03*
%TD*%
D12*
%TO.P,C8,1*%
%TO.N,Net-(C8-Pad1)*%
X75925000Y-91500000D03*
%TO.P,C8,2*%
%TO.N,Net-(C8-Pad2)*%
X78000000Y-91500000D03*
%TD*%
D11*
%TO.P,R14,1*%
%TO.N,/VOUTF_DAC*%
X62500000Y-116000000D03*
%TO.P,R14,2*%
%TO.N,Net-(C9-Pad1)*%
X64500000Y-116000000D03*
%TD*%
D13*
%TO.P,U2,1*%
%TO.N,Net-(C8-Pad2)*%
X62500000Y-119730000D03*
%TO.P,U2,2*%
%TO.N,Net-(C8-Pad1)*%
X62500000Y-121000000D03*
%TO.P,U2,3*%
%TO.N,/VBIAS_DAC*%
X62500000Y-122270000D03*
%TO.P,U2,4*%
%TO.N,/V+DAC*%
X62500000Y-123540000D03*
%TO.P,U2,5*%
%TO.N,/VBIAS_DAC*%
X62500000Y-124810000D03*
%TO.P,U2,6*%
%TO.N,Net-(C9-Pad1)*%
X62500000Y-126080000D03*
%TO.P,U2,7*%
%TO.N,Net-(C9-Pad2)*%
X62500000Y-127350000D03*
%TO.P,U2,8*%
%TO.N,Net-(C10-Pad2)*%
X67450000Y-127350000D03*
%TO.P,U2,9*%
%TO.N,Net-(C10-Pad1)*%
X67450000Y-126080000D03*
%TO.P,U2,10*%
%TO.N,/VBIAS_DAC*%
X67450000Y-124810000D03*
%TO.P,U2,11*%
%TO.N,/V-DAC*%
X67450000Y-123540000D03*
%TO.P,U2,12*%
%TO.N,/VBIAS_DAC*%
X67450000Y-122270000D03*
%TO.P,U2,13*%
%TO.N,Net-(C4-Pad1)*%
X67450000Y-121000000D03*
%TO.P,U2,14*%
%TO.N,Net-(C4-Pad2)*%
X67450000Y-119730000D03*
%TD*%
D11*
%TO.P,R18,1*%
%TO.N,/VREF_2V5_DAC*%
X80500000Y-91500000D03*
%TO.P,R18,2*%
%TO.N,/VBIAS_DAC*%
X82500000Y-91500000D03*
%TD*%
%TO.P,R25,1*%
%TO.N,Net-(C10-Pad2)*%
X71500000Y-112500000D03*
%TO.P,R25,2*%
%TO.N,/CVG_DAC*%
X73500000Y-112500000D03*
%TD*%
%TO.P,R1,1*%
%TO.N,/VOUTA_DAC*%
X62500000Y-91500000D03*
%TO.P,R1,2*%
%TO.N,Net-(C1-Pad1)*%
X64500000Y-91500000D03*
%TD*%
D14*
%TO.P,PWRPINS_DAC1,1,Pin_1*%
%TO.N,/V+DAC*%
X85500000Y-99340000D03*
D15*
%TO.P,PWRPINS_DAC1,2,Pin_2*%
%TO.N,/V-DAC*%
X85500000Y-101880000D03*
%TO.P,PWRPINS_DAC1,3,Pin_3*%
%TO.N,GND*%
X85500000Y-104420000D03*
%TO.P,PWRPINS_DAC1,4,Pin_4*%
%TO.N,/VDD_DAC*%
X85500000Y-106960000D03*
%TO.P,PWRPINS_DAC1,5,Pin_5*%
%TO.N,/VREF_2V5_DAC*%
X85500000Y-109500000D03*
%TD*%
D12*
%TO.P,C2,1*%
%TO.N,Net-(C2-Pad1)*%
X75925000Y-112500000D03*
%TO.P,C2,2*%
%TO.N,Net-(C2-Pad2)*%
X78000000Y-112500000D03*
%TD*%
%TO.P,C10,1*%
%TO.N,Net-(C10-Pad1)*%
X75925000Y-98500000D03*
%TO.P,C10,2*%
%TO.N,Net-(C10-Pad2)*%
X78000000Y-98500000D03*
%TD*%
D11*
%TO.P,R17,1*%
%TO.N,/VBIAS_DAC*%
X80500000Y-95000000D03*
%TO.P,R17,2*%
%TO.N,GND*%
X82500000Y-95000000D03*
%TD*%
%TO.P,R8,1*%
%TO.N,Net-(C4-Pad1)*%
X67000000Y-102000000D03*
%TO.P,R8,2*%
%TO.N,/CVD_DAC*%
X69000000Y-102000000D03*
%TD*%
%TO.P,R24,1*%
%TO.N,Net-(C9-Pad2)*%
X71500000Y-102000000D03*
%TO.P,R24,2*%
%TO.N,/CVF_DAC*%
X73500000Y-102000000D03*
%TD*%
%TO.P,R5,1*%
%TO.N,Net-(C1-Pad1)*%
X67000000Y-91500000D03*
%TO.P,R5,2*%
%TO.N,/CVA_DAC*%
X69000000Y-91500000D03*
%TD*%
D12*
%TO.P,C1,1*%
%TO.N,Net-(C1-Pad1)*%
X75925000Y-116000000D03*
%TO.P,C1,2*%
%TO.N,Net-(C1-Pad2)*%
X78000000Y-116000000D03*
%TD*%
D11*
%TO.P,R7,1*%
%TO.N,Net-(C3-Pad1)*%
X67000000Y-98500000D03*
%TO.P,R7,2*%
%TO.N,/CVC_DAC*%
X69000000Y-98500000D03*
%TD*%
%TO.P,R26,1*%
%TO.N,Net-(C11-Pad2)*%
X71500000Y-116000000D03*
%TO.P,R26,2*%
%TO.N,/CVH_DAC*%
X73500000Y-116000000D03*
%TD*%
%TO.P,R4,1*%
%TO.N,/VOUTD_DAC*%
X62500000Y-102000000D03*
%TO.P,R4,2*%
%TO.N,Net-(C4-Pad1)*%
X64500000Y-102000000D03*
%TD*%
%TO.P,R9,1*%
%TO.N,Net-(C1-Pad2)*%
X71500000Y-91500000D03*
%TO.P,R9,2*%
%TO.N,/CVA_DAC*%
X73500000Y-91500000D03*
%TD*%
%TO.P,R16,1*%
%TO.N,/VOUTH_DAC*%
X62500000Y-109000000D03*
%TO.P,R16,2*%
%TO.N,Net-(C11-Pad1)*%
X64500000Y-109000000D03*
%TD*%
%TO.P,R12,1*%
%TO.N,Net-(C4-Pad2)*%
X71500000Y-109000000D03*
%TO.P,R12,2*%
%TO.N,/CVD_DAC*%
X73500000Y-109000000D03*
%TD*%
%TO.P,R13,1*%
%TO.N,/VOUTE_DAC*%
X62500000Y-112500000D03*
%TO.P,R13,2*%
%TO.N,Net-(C8-Pad1)*%
X64500000Y-112500000D03*
%TD*%
%TO.P,R3,1*%
%TO.N,/VOUTC_DAC*%
X62500000Y-98500000D03*
%TO.P,R3,2*%
%TO.N,Net-(C3-Pad1)*%
X64500000Y-98500000D03*
%TD*%
%TO.P,R2,1*%
%TO.N,/VOUTB_DAC*%
X62500000Y-95000000D03*
%TO.P,R2,2*%
%TO.N,Net-(C2-Pad1)*%
X64500000Y-95000000D03*
%TD*%
D12*
%TO.P,C4,1*%
%TO.N,Net-(C4-Pad1)*%
X75925000Y-105500000D03*
%TO.P,C4,2*%
%TO.N,Net-(C4-Pad2)*%
X78000000Y-105500000D03*
%TD*%
%TO.P,C6,1*%
%TO.N,/VREF_2V5_DAC*%
X80500000Y-102000000D03*
%TO.P,C6,2*%
%TO.N,GND*%
X82575000Y-102000000D03*
%TD*%
%TO.P,C11,1*%
%TO.N,Net-(C11-Pad1)*%
X75925000Y-102000000D03*
%TO.P,C11,2*%
%TO.N,Net-(C11-Pad2)*%
X78000000Y-102000000D03*
%TD*%
%TO.P,C7,1*%
%TO.N,/VBIAS_DAC*%
X80425000Y-109000000D03*
%TO.P,C7,2*%
%TO.N,GND*%
X82500000Y-109000000D03*
%TD*%
D11*
%TO.P,R10,1*%
%TO.N,Net-(C2-Pad2)*%
X71500000Y-95000000D03*
%TO.P,R10,2*%
%TO.N,/CVB_DAC*%
X73500000Y-95000000D03*
%TD*%
%TO.P,R15,1*%
%TO.N,/VOUTG_DAC*%
X62500000Y-105500000D03*
%TO.P,R15,2*%
%TO.N,Net-(C10-Pad1)*%
X64500000Y-105500000D03*
%TD*%
D16*
%TO.P,U3,1,~{LDAC}*%
%TO.N,/LDAC_DAC*%
X81225000Y-126870000D03*
%TO.P,U3,2,~{SYNC}*%
%TO.N,/SYNC_DAC*%
X81875000Y-126870000D03*
%TO.P,U3,3,AVDD*%
%TO.N,/VDD_DAC*%
X82525000Y-126870000D03*
%TO.P,U3,4,VOUTA*%
%TO.N,/VOUTA_DAC*%
X83175000Y-126870000D03*
%TO.P,U3,5,VOUTC*%
%TO.N,/VOUTC_DAC*%
X83825000Y-126870000D03*
%TO.P,U3,6,VOUTE*%
%TO.N,/VOUTE_DAC*%
X84475000Y-126870000D03*
%TO.P,U3,7,VOUTG*%
%TO.N,/VOUTG_DAC*%
X85125000Y-126870000D03*
%TO.P,U3,8,VREFIN/VREFOUT*%
%TO.N,/VREF_2V5_DAC*%
X85775000Y-126870000D03*
%TO.P,U3,9,~{CLR}*%
%TO.N,/CLR_DAC*%
X85775000Y-121130000D03*
%TO.P,U3,10,VOUTH*%
%TO.N,/VOUTH_DAC*%
X85125000Y-121130000D03*
%TO.P,U3,11,VOUTF*%
%TO.N,/VOUTF_DAC*%
X84475000Y-121130000D03*
%TO.P,U3,12,VOUTD*%
%TO.N,/VOUTD_DAC*%
X83825000Y-121130000D03*
%TO.P,U3,13,VOUTB*%
%TO.N,/VOUTB_DAC*%
X83175000Y-121130000D03*
%TO.P,U3,14,GND*%
%TO.N,GND*%
X82525000Y-121130000D03*
%TO.P,U3,15,DIN*%
%TO.N,/DIN_DAC*%
X81875000Y-121130000D03*
%TO.P,U3,16,SCLK*%
%TO.N,/SCLK_DAC*%
X81225000Y-121130000D03*
%TD*%
D14*
%TO.P,VOUT_DAC1,1,Pin_1*%
%TO.N,/CVA_DAC*%
X96500000Y-91720000D03*
D15*
%TO.P,VOUT_DAC1,2,Pin_2*%
%TO.N,/CVB_DAC*%
X96500000Y-94260000D03*
%TO.P,VOUT_DAC1,3,Pin_3*%
%TO.N,/CVC_DAC*%
X96500000Y-96800000D03*
%TO.P,VOUT_DAC1,4,Pin_4*%
%TO.N,/CVD_DAC*%
X96500000Y-99340000D03*
%TO.P,VOUT_DAC1,5,Pin_5*%
%TO.N,/CVE_DAC*%
X96500000Y-101880000D03*
%TO.P,VOUT_DAC1,6,Pin_6*%
%TO.N,/CVF_DAC*%
X96500000Y-104420000D03*
%TO.P,VOUT_DAC1,7,Pin_7*%
%TO.N,/CVG_DAC*%
X96500000Y-106960000D03*
%TO.P,VOUT_DAC1,8,Pin_8*%
%TO.N,/CVH_DAC*%
X96500000Y-109500000D03*
%TD*%
D11*
%TO.P,R21,1*%
%TO.N,Net-(C10-Pad1)*%
X67000000Y-109000000D03*
%TO.P,R21,2*%
%TO.N,/CVG_DAC*%
X69000000Y-109000000D03*
%TD*%
%TO.P,R6,1*%
%TO.N,Net-(C2-Pad1)*%
X67000000Y-95000000D03*
%TO.P,R6,2*%
%TO.N,/CVB_DAC*%
X69000000Y-95000000D03*
%TD*%
D12*
%TO.P,C5,1*%
%TO.N,/VREF_2V5_DAC*%
X80500000Y-112500000D03*
%TO.P,C5,2*%
%TO.N,GND*%
X82575000Y-112500000D03*
%TD*%
D11*
%TO.P,R23,1*%
%TO.N,Net-(C8-Pad2)*%
X71500000Y-98500000D03*
%TO.P,R23,2*%
%TO.N,/CVE_DAC*%
X73500000Y-98500000D03*
%TD*%
D14*
%TO.P,SPIPINS_DAC1,1,Pin_1*%
%TO.N,/SCLK_DAC*%
X91500000Y-99340000D03*
D15*
%TO.P,SPIPINS_DAC1,2,Pin_2*%
%TO.N,/DIN_DAC*%
X91500000Y-101880000D03*
%TO.P,SPIPINS_DAC1,3,Pin_3*%
%TO.N,/SYNC_DAC*%
X91500000Y-104420000D03*
%TO.P,SPIPINS_DAC1,4,Pin_4*%
%TO.N,/LDAC_DAC*%
X91500000Y-106960000D03*
%TO.P,SPIPINS_DAC1,5,Pin_5*%
%TO.N,/CLR_DAC*%
X91500000Y-109500000D03*
%TD*%
D11*
%TO.P,R11,1*%
%TO.N,Net-(C3-Pad2)*%
X71500000Y-105500000D03*
%TO.P,R11,2*%
%TO.N,/CVC_DAC*%
X73500000Y-105500000D03*
%TD*%
D12*
%TO.P,C3,1*%
%TO.N,Net-(C3-Pad1)*%
X75925000Y-109000000D03*
%TO.P,C3,2*%
%TO.N,Net-(C3-Pad2)*%
X78000000Y-109000000D03*
%TD*%
D17*
%TO.N,Net-(C1-Pad1)*%
X75867500Y-114866000D03*
X66834900Y-92606100D03*
%TO.N,Net-(C1-Pad2)*%
X73681200Y-92601400D03*
X77226000Y-113453000D03*
%TO.N,Net-(C2-Pad1)*%
X69190200Y-97146200D03*
X74929400Y-111875000D03*
%TO.N,Net-(C2-Pad2)*%
X76816500Y-111509000D03*
X73008500Y-96997200D03*
%TO.N,Net-(C3-Pad2)*%
X74242400Y-106898000D03*
X75719500Y-110854000D03*
%TO.N,Net-(C3-Pad1)*%
X73257400Y-111241000D03*
X73419100Y-120880000D03*
%TO.N,Net-(C4-Pad1)*%
X68192400Y-116957000D03*
X68352100Y-103352000D03*
X71607900Y-106722000D03*
%TO.N,GND*%
X83267700Y-108043000D03*
%TO.N,/VREF_2V5_DAC*%
X83493000Y-105260000D03*
X85584100Y-124822000D03*
X83019400Y-107421000D03*
%TO.N,/VBIAS_DAC*%
X80727200Y-99246700D03*
X79068700Y-109869000D03*
X75540000Y-121224000D03*
%TO.N,Net-(C8-Pad2)*%
X63645800Y-118635000D03*
X70007000Y-98498800D03*
%TO.N,Net-(C9-Pad2)*%
X64708300Y-125507000D03*
X71882600Y-100573000D03*
%TO.N,Net-(C9-Pad1)*%
X70688800Y-100648000D03*
X67331300Y-111408000D03*
%TO.N,Net-(C10-Pad1)*%
X64918700Y-104328000D03*
X72532300Y-100574000D03*
X64575900Y-123358000D03*
%TO.N,Net-(C10-Pad2)*%
X73120800Y-104343000D03*
X70513000Y-112699000D03*
X74402000Y-122546000D03*
%TO.N,Net-(C11-Pad2)*%
X75206800Y-123192000D03*
X78405100Y-103653000D03*
X74264500Y-117217000D03*
%TO.N,Net-(C11-Pad1)*%
X72845200Y-103260000D03*
X65781500Y-108878000D03*
X70273800Y-125508000D03*
%TO.N,/V-DAC*%
X75344700Y-122068000D03*
%TO.N,/V+DAC*%
X78281200Y-123156000D03*
%TO.N,/VOUTB_DAC*%
X67478700Y-93568600D03*
X76592600Y-110782000D03*
%TO.N,/VOUTC_DAC*%
X78440600Y-128230000D03*
X63185400Y-100014000D03*
%TO.N,/VOUTD_DAC*%
X79537900Y-123989000D03*
X66872400Y-104097000D03*
%TO.N,/CVD_DAC*%
X75824700Y-107491000D03*
%TO.N,/VOUTH_DAC*%
X66001100Y-114296000D03*
X82240200Y-124229000D03*
%TO.N,/CVE_DAC*%
X74758700Y-97088400D03*
X73722300Y-118034000D03*
%TO.N,/CVF_DAC*%
X70042600Y-111840000D03*
X72152200Y-103304000D03*
%TO.N,/CVH_DAC*%
X69582800Y-107397000D03*
X72491800Y-116498000D03*
%TO.N,/DIN_DAC*%
X81969800Y-119955000D03*
%TO.N,/SCLK_DAC*%
X81251400Y-119933000D03*
%TD*%
D18*
%TO.N,Net-(C1-Pad1)*%
X76012600Y-120515000D02*
X77860700Y-120515000D01*
X78748400Y-121403000D02*
X78748400Y-125164000D01*
X75925000Y-116000000D02*
X75684900Y-116240000D01*
X77860700Y-120515000D02*
X78748400Y-121403000D01*
X75925000Y-114923000D02*
X75867500Y-114866000D01*
X75684900Y-116240000D02*
X75684900Y-120187000D01*
X75684900Y-120187000D02*
X76012600Y-120515000D01*
X66834900Y-91622900D02*
X66834900Y-92606100D01*
X77682000Y-126230000D02*
X76925000Y-126230000D01*
X64500000Y-91500000D02*
X64622900Y-91622900D01*
X66877100Y-91622900D02*
X67000000Y-91500000D01*
X66834900Y-91622900D02*
X66877100Y-91622900D01*
X75925000Y-116000000D02*
X75925000Y-114923000D01*
X64622900Y-91622900D02*
X66834900Y-91622900D01*
X78748400Y-125164000D02*
X77682000Y-126230000D01*
%TO.N,Net-(C1-Pad2)*%
X71500000Y-91500000D02*
X72601400Y-92601400D01*
X72601400Y-92601400D02*
X73681200Y-92601400D01*
X78000000Y-114227000D02*
X77226000Y-113453000D01*
X78000000Y-116002000D02*
X79061100Y-117063000D01*
X79061100Y-125631000D02*
X77192300Y-127500000D01*
X78000000Y-116000000D02*
X78000000Y-116002000D01*
X77192300Y-127500000D02*
X76925000Y-127500000D01*
X78000000Y-116000000D02*
X78000000Y-114227000D01*
X79061100Y-117063000D02*
X79061100Y-125631000D01*
%TO.N,Net-(C2-Pad1)*%
X64500000Y-95000000D02*
X67000000Y-95000000D01*
X74929400Y-111875000D02*
X75299800Y-111875000D01*
X75087500Y-113338000D02*
X75087500Y-120116000D01*
X75925000Y-112500000D02*
X75087500Y-113338000D01*
X76121800Y-121150000D02*
X76925000Y-121150000D01*
X67000000Y-95000000D02*
X69146200Y-97146200D01*
X75299800Y-111875000D02*
X75925000Y-112500000D01*
X69146200Y-97146200D02*
X69190200Y-97146200D01*
X75087500Y-120116000D02*
X76121800Y-121150000D01*
%TO.N,Net-(C2-Pad2)*%
X73008500Y-96997200D02*
X71500000Y-95488700D01*
X78000000Y-112500000D02*
X77530400Y-112500000D01*
X71500000Y-95488700D02*
X71500000Y-95000000D01*
X77530400Y-112223000D02*
X76816500Y-111509000D01*
X77530400Y-112500000D02*
X77530400Y-112223000D01*
X76767100Y-119722000D02*
X76925000Y-119880000D01*
X77530400Y-112500000D02*
X76767100Y-113263000D01*
X76767100Y-113263000D02*
X76767100Y-119722000D01*
%TO.N,Net-(C3-Pad2)*%
X75301100Y-110854000D02*
X75719500Y-110854000D01*
X74470500Y-111685000D02*
X75301100Y-110854000D01*
X76296000Y-110278000D02*
X75719500Y-110854000D01*
X74470500Y-112065000D02*
X74470500Y-111685000D01*
X71500000Y-105500000D02*
X72898100Y-106898000D01*
X74723400Y-117759000D02*
X74723400Y-112318000D01*
X72898100Y-106898000D02*
X74242400Y-106898000D01*
X76722300Y-110278000D02*
X76296000Y-110278000D01*
X71975000Y-119880000D02*
X72602000Y-119880000D01*
X72602000Y-119880000D02*
X74723400Y-117759000D01*
X78000000Y-109000000D02*
X76722300Y-110278000D01*
X74723400Y-112318000D02*
X74470500Y-112065000D01*
%TO.N,Net-(C3-Pad1)*%
X70656300Y-106426000D02*
X70656300Y-103577000D01*
X72676900Y-107664000D02*
X72425900Y-107413000D01*
X73683800Y-111241000D02*
X73257400Y-111241000D01*
X75925000Y-109000000D02*
X73683800Y-111241000D01*
X64500000Y-98500000D02*
X67000000Y-98500000D01*
X72425900Y-107413000D02*
X71642600Y-107413000D01*
X70656300Y-103577000D02*
X69938900Y-102859000D01*
X69938900Y-102859000D02*
X69938900Y-101439000D01*
X75925000Y-109000000D02*
X76303900Y-108621000D01*
X75190900Y-107032000D02*
X74559500Y-107664000D01*
X76303900Y-108621000D02*
X76303900Y-107321000D01*
X76014800Y-107032000D02*
X75190900Y-107032000D01*
X69938900Y-101439000D02*
X67000000Y-98500000D01*
X71975000Y-121150000D02*
X73149500Y-121150000D01*
X76303900Y-107321000D02*
X76014800Y-107032000D01*
X71642600Y-107413000D02*
X70656300Y-106426000D01*
X73149500Y-121150000D02*
X73419100Y-120880000D01*
X74559500Y-107664000D02*
X72676900Y-107664000D01*
%TO.N,Net-(C4-Pad2)*%
X68149700Y-113218000D02*
X68149700Y-108351000D01*
X63950800Y-102931000D02*
X66418100Y-102931000D01*
X78000000Y-105500000D02*
X77043700Y-104544000D01*
X68149700Y-108351000D02*
X68475400Y-108026000D01*
X74394000Y-106086000D02*
X74045800Y-106435000D01*
X72392100Y-104879000D02*
X70275500Y-102762000D01*
X69860700Y-114929000D02*
X68149700Y-113218000D01*
X74045800Y-106435000D02*
X72910500Y-106435000D01*
X63909200Y-97554500D02*
X63664900Y-97798800D01*
X70525500Y-108026000D02*
X71500000Y-109000000D01*
X70275500Y-102762000D02*
X70275500Y-101332000D01*
X75360900Y-104544000D02*
X74394000Y-105511000D01*
X74394000Y-105511000D02*
X74394000Y-106086000D01*
X67450000Y-119730000D02*
X69860700Y-117319000D01*
X77043700Y-104544000D02*
X75360900Y-104544000D01*
X63664900Y-102645000D02*
X63950800Y-102931000D01*
X68158300Y-107708000D02*
X68475400Y-108026000D01*
X68158300Y-104672000D02*
X68158300Y-107708000D01*
X66418100Y-102931000D02*
X68158300Y-104672000D01*
X69860700Y-117319000D02*
X69860700Y-114929000D01*
X72910500Y-106435000D02*
X72392100Y-105916000D01*
X63664900Y-97798800D02*
X63664900Y-102645000D01*
X67859300Y-98915700D02*
X67859300Y-97848500D01*
X67859300Y-97848500D02*
X67565300Y-97554500D01*
X67565300Y-97554500D02*
X63909200Y-97554500D01*
X68475400Y-108026000D02*
X70525500Y-108026000D01*
X70275500Y-101332000D02*
X67859300Y-98915700D01*
X72392100Y-105916000D02*
X72392100Y-104879000D01*
%TO.N,Net-(C4-Pad1)*%
X64500000Y-102000000D02*
X67000000Y-102000000D01*
X75925000Y-105500000D02*
X75925000Y-105865000D01*
X65896000Y-119253000D02*
X68192400Y-116957000D01*
X75925000Y-105865000D02*
X74432500Y-107357000D01*
X72168600Y-106722000D02*
X71607900Y-106722000D01*
X72803900Y-107357000D02*
X72168600Y-106722000D01*
X67450000Y-121000000D02*
X66750000Y-121000000D01*
X67000000Y-102000000D02*
X68352100Y-103352000D01*
X74432500Y-107357000D02*
X72803900Y-107357000D01*
X65896000Y-120146000D02*
X65896000Y-119253000D01*
X66750000Y-121000000D02*
X65896000Y-120146000D01*
%TO.N,GND*%
X84419700Y-104420000D02*
X84419700Y-103845000D01*
X82500000Y-112425000D02*
X82500000Y-109000000D01*
X82500000Y-95000000D02*
X82575000Y-95075000D01*
X84419700Y-103845000D02*
X82575000Y-102000000D01*
X82575000Y-112500000D02*
X82500000Y-112425000D01*
X82575000Y-112500000D02*
X82575000Y-121080000D01*
X82500000Y-109000000D02*
X83267700Y-108232000D01*
X85500000Y-104420000D02*
X84419700Y-104420000D01*
X82575000Y-121080000D02*
X82525000Y-121130000D01*
X82575000Y-95075000D02*
X82575000Y-102000000D01*
X83267700Y-108232000D02*
X83267700Y-108043000D01*
%TO.N,/VREF_2V5_DAC*%
X85584100Y-126679000D02*
X85584100Y-124822000D01*
X81462500Y-111538000D02*
X80500000Y-112500000D01*
X84419700Y-109500000D02*
X84419700Y-108540000D01*
X80500000Y-102000000D02*
X79668200Y-101168000D01*
X83019400Y-107530000D02*
X82463000Y-107530000D01*
X83019400Y-107530000D02*
X83019400Y-107421000D01*
X82463000Y-107530000D02*
X81462500Y-108530000D01*
X81462500Y-108530000D02*
X81462500Y-111538000D01*
X85500000Y-109500000D02*
X84419700Y-109500000D01*
X79668200Y-92331800D02*
X80500000Y-91500000D01*
X83493000Y-105260000D02*
X80500000Y-102267000D01*
X83409400Y-107530000D02*
X83019400Y-107530000D01*
X85775000Y-126870000D02*
X85584100Y-126679000D01*
X79668200Y-101168000D02*
X79668200Y-92331800D01*
X80500000Y-102267000D02*
X80500000Y-102000000D01*
X84419700Y-108540000D02*
X83409400Y-107530000D01*
%TO.N,/VBIAS_DAC*%
X66224900Y-123841000D02*
X67193600Y-124810000D01*
X61271700Y-123168000D02*
X61271700Y-123856000D01*
X62225600Y-124810000D02*
X62500000Y-124810000D01*
X72678400Y-124960000D02*
X71975000Y-124960000D01*
X71825000Y-122270000D02*
X71975000Y-122420000D01*
X79068700Y-109869000D02*
X79556400Y-109869000D01*
X72653500Y-121742000D02*
X71975000Y-122420000D01*
X74911300Y-122727000D02*
X72678400Y-124960000D01*
X80500000Y-93500000D02*
X82500000Y-91500000D01*
X79556400Y-109869000D02*
X80425000Y-109000000D01*
X74558400Y-121742000D02*
X72653500Y-121742000D01*
X75811500Y-122606000D02*
X75690300Y-122727000D01*
X67190700Y-122270000D02*
X67450000Y-122270000D01*
X75540000Y-121589000D02*
X75540000Y-121224000D01*
X74711300Y-121589000D02*
X74558400Y-121742000D01*
X76658400Y-124960000D02*
X75690300Y-123992000D01*
X76925000Y-124960000D02*
X76658400Y-124960000D01*
X75690300Y-122727000D02*
X74911300Y-122727000D01*
X75811500Y-122420000D02*
X76925000Y-122420000D01*
X66224900Y-123236000D02*
X67190700Y-122270000D01*
X75690300Y-123992000D02*
X75690300Y-122727000D01*
X66224900Y-123236000D02*
X65259100Y-122270000D01*
X62170200Y-122270000D02*
X61271700Y-123168000D01*
X75811500Y-122420000D02*
X75811500Y-122606000D01*
X66224900Y-123236000D02*
X66224900Y-123841000D01*
X80727200Y-99246700D02*
X80500000Y-99019500D01*
X65259100Y-122270000D02*
X62500000Y-122270000D01*
X80500000Y-99019500D02*
X80500000Y-95000000D01*
X61271700Y-123856000D02*
X62225600Y-124810000D01*
X75540000Y-121589000D02*
X74711300Y-121589000D01*
X67193600Y-124810000D02*
X67450000Y-124810000D01*
X67450000Y-122270000D02*
X71825000Y-122270000D01*
X75811500Y-122420000D02*
X75811500Y-121860000D01*
X75811500Y-121860000D02*
X75540000Y-121589000D01*
X80500000Y-95000000D02*
X80500000Y-93500000D01*
X62500000Y-122270000D02*
X62170200Y-122270000D01*
%TO.N,Net-(C8-Pad2)*%
X62550500Y-119730000D02*
X63645800Y-118635000D01*
X68145900Y-94361400D02*
X68145900Y-95669400D01*
X68704200Y-96227700D02*
X68938200Y-96227700D01*
X68145900Y-95669400D02*
X68704200Y-96227700D01*
X75928500Y-93571500D02*
X68935800Y-93571500D01*
X70007000Y-98498800D02*
X71498800Y-98498800D01*
X78000000Y-91500000D02*
X75928500Y-93571500D01*
X68935800Y-93571500D02*
X68145900Y-94361400D01*
X70007000Y-97296500D02*
X70007000Y-98498800D01*
X68938200Y-96227700D02*
X70007000Y-97296500D01*
X71498800Y-98498800D02*
X71500000Y-98500000D01*
X62500000Y-119730000D02*
X62550500Y-119730000D01*
%TO.N,Net-(C8-Pad1)*%
X63585100Y-115396000D02*
X63929900Y-115051000D01*
X61648900Y-103148000D02*
X61648900Y-97458100D01*
X61648900Y-97458100D02*
X63392100Y-95714900D01*
X63432400Y-111432000D02*
X63432400Y-104931000D01*
X66486300Y-114043000D02*
X64943200Y-112500000D01*
X63585100Y-116692000D02*
X63585100Y-115396000D01*
X64943200Y-112500000D02*
X64500000Y-112500000D01*
X66486300Y-114615000D02*
X66486300Y-114043000D01*
X74346900Y-93078100D02*
X75925000Y-91500000D01*
X63929900Y-115051000D02*
X66050700Y-115051000D01*
X63392100Y-95714900D02*
X63392100Y-94610200D01*
X63392100Y-94610200D02*
X63945200Y-94057100D01*
X67641100Y-94057100D02*
X68620100Y-93078100D01*
X62500000Y-121000000D02*
X62807500Y-121000000D01*
X68620100Y-93078100D02*
X74346900Y-93078100D01*
X64114100Y-117221000D02*
X63585100Y-116692000D01*
X62807500Y-121000000D02*
X64114100Y-119693000D01*
X64500000Y-112500000D02*
X63432400Y-111432000D01*
X63432400Y-104931000D02*
X61648900Y-103148000D01*
X64114100Y-119693000D02*
X64114100Y-117221000D01*
X66050700Y-115051000D02*
X67000000Y-116000000D01*
X66050700Y-115051000D02*
X66486300Y-114615000D01*
X63945200Y-94057100D02*
X67641100Y-94057100D01*
%TO.N,Net-(C9-Pad2)*%
X75071500Y-97858100D02*
X75071500Y-98858700D01*
X73902200Y-100028000D02*
X72427800Y-100028000D01*
X62500000Y-127350000D02*
X62865300Y-127350000D01*
X71882600Y-100573000D02*
X71500000Y-100956000D01*
X72427800Y-100028000D02*
X71882600Y-100573000D01*
X62865300Y-127350000D02*
X64708300Y-125507000D01*
X77929500Y-95000000D02*
X77929500Y-95000100D01*
X71500000Y-100956000D02*
X71500000Y-102000000D01*
X77929500Y-95000100D02*
X75071500Y-97858100D01*
X78000000Y-95000000D02*
X77929500Y-95000000D01*
X75071500Y-98858700D02*
X73902200Y-100028000D01*
%TO.N,Net-(C9-Pad1)*%
X61501600Y-121635000D02*
X63454400Y-121635000D01*
X65179100Y-116934000D02*
X67558800Y-116934000D01*
X67000000Y-111740000D02*
X67331300Y-111408000D01*
X62500000Y-126080000D02*
X62229000Y-126080000D01*
X63454400Y-121635000D02*
X65179100Y-119910000D01*
X75925000Y-95000000D02*
X73468900Y-97456100D01*
X67000000Y-112500000D02*
X67000000Y-111740000D01*
X73059900Y-97456100D02*
X72500000Y-98016000D01*
X62229000Y-126080000D02*
X60952800Y-124804000D01*
X72500000Y-99003300D02*
X71717200Y-99786100D01*
X60952800Y-124804000D02*
X60952800Y-122184000D01*
X65179100Y-116934000D02*
X65179100Y-116679000D01*
X67842500Y-113342000D02*
X67000000Y-112500000D01*
X65179100Y-116679000D02*
X64500000Y-116000000D01*
X65179100Y-119910000D02*
X65179100Y-116934000D01*
X67842500Y-116650000D02*
X67842500Y-113342000D01*
X60952800Y-122184000D02*
X61501600Y-121635000D01*
X73468900Y-97456100D02*
X73059900Y-97456100D01*
X71717200Y-99786100D02*
X71550600Y-99786100D01*
X72500000Y-98016000D02*
X72500000Y-99003300D01*
X67558800Y-116934000D02*
X67842500Y-116650000D01*
X71550600Y-99786100D02*
X70688800Y-100648000D01*
%TO.N,Net-(C10-Pad1)*%
X67181200Y-126080000D02*
X64575900Y-123475000D01*
X67839900Y-104859000D02*
X67549200Y-104569000D01*
X75925000Y-98500000D02*
X73850700Y-100574000D01*
X73850700Y-100574000D02*
X72532300Y-100574000D01*
X64575900Y-123475000D02*
X64575900Y-123358000D01*
X65295200Y-104705000D02*
X64918700Y-104328000D01*
X67000000Y-107107000D02*
X67839900Y-106267000D01*
X67549200Y-104569000D02*
X65431300Y-104569000D01*
X65431300Y-104569000D02*
X65295200Y-104705000D01*
X67839900Y-106267000D02*
X67839900Y-104859000D01*
X67000000Y-109000000D02*
X67000000Y-107107000D01*
X65295200Y-104705000D02*
X64500000Y-105500000D01*
X67450000Y-126080000D02*
X67181200Y-126080000D01*
%TO.N,Net-(C10-Pad2)*%
X71301400Y-112699000D02*
X70513000Y-112699000D01*
X78000000Y-98500000D02*
X77115100Y-99384900D01*
X74402000Y-122798000D02*
X74402000Y-122546000D01*
X72875000Y-124325000D02*
X74402000Y-122798000D01*
X77115100Y-99384900D02*
X77115100Y-102404000D01*
X76135300Y-103281000D02*
X75072900Y-104343000D01*
X77115100Y-102404000D02*
X76238800Y-103281000D01*
X67743400Y-127350000D02*
X70768400Y-124325000D01*
X71500000Y-112500000D02*
X71301400Y-112699000D01*
X75072900Y-104343000D02*
X73120800Y-104343000D01*
X67450000Y-127350000D02*
X67743400Y-127350000D01*
X70768400Y-124325000D02*
X72875000Y-124325000D01*
X76238800Y-103281000D02*
X76135300Y-103281000D01*
%TO.N,Net-(C11-Pad2)*%
X78405100Y-102405000D02*
X78405100Y-103653000D01*
X74264500Y-117217000D02*
X72487800Y-117217000D01*
X72487800Y-117217000D02*
X71500000Y-116229000D01*
X72232500Y-127500000D02*
X71975000Y-127500000D01*
X75206800Y-124526000D02*
X72232500Y-127500000D01*
X78000000Y-102000000D02*
X78405100Y-102405000D01*
X75206800Y-123192000D02*
X75206800Y-124526000D01*
X71500000Y-116229000D02*
X71500000Y-116000000D01*
%TO.N,Net-(C11-Pad1)*%
X74665100Y-103260000D02*
X72845200Y-103260000D01*
X71252900Y-125508000D02*
X70273800Y-125508000D01*
X71975000Y-126230000D02*
X71252900Y-125508000D01*
X75925000Y-102000000D02*
X74665100Y-103260000D01*
X65781500Y-106718000D02*
X67000000Y-105500000D01*
X65781500Y-108878000D02*
X65781500Y-106718000D01*
X65659200Y-109000000D02*
X65781500Y-108878000D01*
X64500000Y-109000000D02*
X65659200Y-109000000D01*
%TO.N,/V-DAC*%
X67600000Y-123690000D02*
X67450000Y-123540000D01*
X71975000Y-123690000D02*
X72606300Y-123690000D01*
X71975000Y-123690000D02*
X67600000Y-123690000D01*
X72606300Y-123690000D02*
X74227900Y-122068000D01*
X74227900Y-122068000D02*
X75344700Y-122068000D01*
%TO.N,/V+DAC*%
X78181400Y-123690000D02*
X78181400Y-125270000D01*
X63392700Y-123540000D02*
X62500000Y-123540000D01*
X78181400Y-125270000D02*
X77834100Y-125618000D01*
X75792200Y-125618000D02*
X73373500Y-128036000D01*
X78181400Y-123256000D02*
X78281200Y-123156000D01*
X77834100Y-125618000D02*
X75792200Y-125618000D01*
X66597800Y-128036000D02*
X65168400Y-126607000D01*
X65168400Y-125316000D02*
X63392700Y-123540000D01*
X73373500Y-128036000D02*
X66597800Y-128036000D01*
X65168400Y-126607000D02*
X65168400Y-125316000D01*
X78181400Y-123690000D02*
X78181400Y-123256000D01*
X76925000Y-123690000D02*
X78181400Y-123690000D01*
%TO.N,/VDD_DAC*%
X80789500Y-125984000D02*
X82086000Y-124688000D01*
X84875700Y-123333000D02*
X92593700Y-115615000D01*
X91931700Y-108360000D02*
X87980400Y-108360000D01*
X82158100Y-127905000D02*
X80952800Y-127905000D01*
X92593700Y-109022000D02*
X91931700Y-108360000D01*
X84533800Y-123333000D02*
X84875700Y-123333000D01*
X92593700Y-115615000D02*
X92593700Y-109022000D01*
X87980400Y-108360000D02*
X86580300Y-106960000D01*
X83179400Y-124688000D02*
X84533800Y-123333000D01*
X86580300Y-106960000D02*
X85500000Y-106960000D01*
X80789500Y-127742000D02*
X80789500Y-125984000D01*
X80952800Y-127905000D02*
X80789500Y-127742000D01*
X82525000Y-126870000D02*
X82525000Y-127538000D01*
X82086000Y-124688000D02*
X83179400Y-124688000D01*
X82525000Y-127538000D02*
X82158100Y-127905000D01*
%TO.N,/VOUTA_DAC*%
X86220600Y-124723000D02*
X86220600Y-127717000D01*
X61656400Y-129431000D02*
X59660600Y-127435000D01*
X59660600Y-94339400D02*
X62500000Y-91500000D01*
X83175000Y-126870000D02*
X83175000Y-126234000D01*
X59660600Y-127435000D02*
X59660600Y-94339400D01*
X85060300Y-124349000D02*
X85846000Y-124349000D01*
X83175000Y-126234000D02*
X85060300Y-124349000D01*
X84506800Y-129431000D02*
X61656400Y-129431000D01*
X86220600Y-127717000D02*
X84506800Y-129431000D01*
X85846000Y-124349000D02*
X86220600Y-124723000D01*
%TO.N,/VOUTB_DAC*%
X77775300Y-110782000D02*
X76592600Y-110782000D01*
X80626900Y-118196000D02*
X79252400Y-116821000D01*
X79252400Y-112259000D02*
X77775300Y-110782000D01*
X67478700Y-93568600D02*
X63931400Y-93568600D01*
X63931400Y-93568600D02*
X62500000Y-95000000D01*
X83175000Y-121130000D02*
X83175000Y-121778000D01*
X83175000Y-121778000D02*
X82798000Y-122155000D01*
X80626900Y-121900000D02*
X80626900Y-118196000D01*
X79252400Y-116821000D02*
X79252400Y-112259000D01*
X82798000Y-122155000D02*
X80882200Y-122155000D01*
X80882200Y-122155000D02*
X80626900Y-121900000D01*
%TO.N,/VOUTC_DAC*%
X62500000Y-98500000D02*
X62500000Y-99328800D01*
X83825000Y-127578000D02*
X83173300Y-128230000D01*
X62500000Y-99328800D02*
X63185400Y-100014000D01*
X83825000Y-126870000D02*
X83825000Y-127578000D01*
X83173300Y-128230000D02*
X78440600Y-128230000D01*
%TO.N,/VOUTD_DAC*%
X62500000Y-102000000D02*
X64160700Y-103661000D01*
X66436500Y-103661000D02*
X66872400Y-104097000D01*
X79537900Y-123989000D02*
X80871200Y-122656000D01*
X83825000Y-121778000D02*
X83825000Y-121130000D01*
X82946800Y-122656000D02*
X83825000Y-121778000D01*
X80871200Y-122656000D02*
X82946800Y-122656000D01*
X64160700Y-103661000D02*
X66436500Y-103661000D01*
%TO.N,/CVA_DAC*%
X69935500Y-90564500D02*
X69000000Y-91500000D01*
X72564500Y-90564500D02*
X69935500Y-90564500D01*
X95419700Y-91720000D02*
X93616700Y-89917000D01*
X96500000Y-91720000D02*
X95419700Y-91720000D01*
X93616700Y-89917000D02*
X75083000Y-89917000D01*
X73500000Y-91500000D02*
X72564500Y-90564500D01*
X75083000Y-89917000D02*
X73500000Y-91500000D01*
%TO.N,/CVB_DAC*%
X69935000Y-94065000D02*
X69000000Y-95000000D01*
X73500000Y-95000000D02*
X74515600Y-93984400D01*
X95419700Y-94260000D02*
X96500000Y-94260000D01*
X73500000Y-95000000D02*
X72565000Y-94065000D01*
X74515600Y-93984400D02*
X77008600Y-93984400D01*
X78981700Y-91085300D02*
X79839700Y-90227300D01*
X78981700Y-92011300D02*
X78981700Y-91085300D01*
X91387000Y-90227300D02*
X95419700Y-94260000D01*
X72565000Y-94065000D02*
X69935000Y-94065000D01*
X77008600Y-93984400D02*
X78981700Y-92011300D01*
X79839700Y-90227300D02*
X91387000Y-90227300D01*
%TO.N,/CVC_DAC*%
X89167100Y-90547400D02*
X79953100Y-90547400D01*
X73775200Y-99721500D02*
X72215300Y-99721500D01*
X70877800Y-101108000D02*
X70632700Y-101108000D01*
X77016600Y-94420700D02*
X77016600Y-95479500D01*
X69000000Y-99610500D02*
X70497400Y-101108000D01*
X79668700Y-90831800D02*
X79668700Y-91768600D01*
X69000000Y-98500000D02*
X69000000Y-99610500D01*
X73500000Y-105500000D02*
X70632700Y-102633000D01*
X77016600Y-95479500D02*
X74713200Y-97782900D01*
X72215300Y-99721500D02*
X71844200Y-100093000D01*
X74713200Y-98783500D02*
X73775200Y-99721500D01*
X95419700Y-96800000D02*
X89167100Y-90547400D01*
X71423700Y-100562000D02*
X70877800Y-101108000D01*
X71423700Y-100383000D02*
X71423700Y-100562000D01*
X79953100Y-90547400D02*
X79668700Y-90831800D01*
X71844200Y-100093000D02*
X71714300Y-100093000D01*
X71714300Y-100093000D02*
X71423700Y-100383000D01*
X70632700Y-102633000D02*
X70632700Y-101108000D01*
X70497400Y-101108000D02*
X70632700Y-101108000D01*
X74713200Y-97782900D02*
X74713200Y-98783500D01*
X96500000Y-96800000D02*
X95419700Y-96800000D01*
X79668700Y-91768600D02*
X77016600Y-94420700D01*
%TO.N,/CVD_DAC*%
X71506600Y-107720000D02*
X70096100Y-106310000D01*
X75824700Y-107491000D02*
X74315800Y-109000000D01*
X73500000Y-109000000D02*
X72220500Y-107720000D01*
X69000000Y-102747000D02*
X69000000Y-102000000D01*
X72220500Y-107720000D02*
X71506600Y-107720000D01*
X74315800Y-109000000D02*
X73500000Y-109000000D01*
X70096100Y-106310000D02*
X70096100Y-103843000D01*
X70096100Y-103843000D02*
X69000000Y-102747000D01*
%TO.N,/VOUTE_DAC*%
X84475000Y-127510000D02*
X83240100Y-128745000D01*
X84475000Y-126870000D02*
X84475000Y-127510000D01*
X61891900Y-128745000D02*
X60292500Y-127146000D01*
X83240100Y-128745000D02*
X61891900Y-128745000D01*
X60292500Y-114708000D02*
X62500000Y-112500000D01*
X60292500Y-127146000D02*
X60292500Y-114708000D01*
%TO.N,/VOUTF_DAC*%
X82493200Y-123770000D02*
X82050200Y-123770000D01*
X60622800Y-117877000D02*
X62500000Y-116000000D01*
X60622800Y-127018000D02*
X60622800Y-117877000D01*
X61977700Y-128373000D02*
X60622800Y-127018000D01*
X81781300Y-124229000D02*
X77636800Y-128373000D01*
X84475000Y-121788000D02*
X82493200Y-123770000D01*
X81781300Y-124039000D02*
X81781300Y-124229000D01*
X82050200Y-123770000D02*
X81781300Y-124039000D01*
X84475000Y-121130000D02*
X84475000Y-121788000D01*
X77636800Y-128373000D02*
X61977700Y-128373000D01*
%TO.N,/VOUTG_DAC*%
X59984500Y-108016000D02*
X62500000Y-105500000D01*
X83556600Y-129082000D02*
X61793500Y-129082000D01*
X85125000Y-127514000D02*
X83556600Y-129082000D01*
X61793500Y-129082000D02*
X59984500Y-127273000D01*
X59984500Y-127273000D02*
X59984500Y-108016000D01*
X85125000Y-126870000D02*
X85125000Y-127514000D01*
%TO.N,/VOUTH_DAC*%
X64765500Y-114296000D02*
X66001100Y-114296000D01*
X62500000Y-109000000D02*
X62500000Y-110976000D01*
X63415100Y-111891000D02*
X63415100Y-112946000D01*
X63415100Y-112946000D02*
X64765500Y-114296000D01*
X82684800Y-124229000D02*
X82240200Y-124229000D01*
X85125000Y-121130000D02*
X85125000Y-121789000D01*
X85125000Y-121789000D02*
X82684800Y-124229000D01*
X62500000Y-110976000D02*
X63415100Y-111891000D01*
%TO.N,/CVE_DAC*%
X66202500Y-120019000D02*
X66467700Y-120284000D01*
X66832700Y-118751000D02*
X66202500Y-119381000D01*
X73500000Y-98347100D02*
X74758700Y-97088400D01*
X71421500Y-118034000D02*
X73722300Y-118034000D01*
X69171300Y-120284000D02*
X71421500Y-118034000D01*
X69000000Y-116000000D02*
X69000000Y-116846000D01*
X73500000Y-98500000D02*
X73500000Y-98347100D01*
X66467700Y-120284000D02*
X69171300Y-120284000D01*
X66202500Y-119381000D02*
X66202500Y-120019000D01*
X67095200Y-118751000D02*
X66832700Y-118751000D01*
X69000000Y-116846000D02*
X67095200Y-118751000D01*
%TO.N,/CVF_DAC*%
X70042600Y-111840000D02*
X69659700Y-111840000D01*
X79138300Y-98141600D02*
X79138300Y-102165000D01*
X82701700Y-105729000D02*
X83894700Y-105729000D01*
X73456200Y-102000000D02*
X72152200Y-103304000D01*
X94319000Y-105521000D02*
X95419700Y-104420000D01*
X78516100Y-97519400D02*
X79138300Y-98141600D01*
X69659700Y-111840000D02*
X69000000Y-112500000D01*
X84102600Y-105521000D02*
X94319000Y-105521000D01*
X83894700Y-105729000D02*
X84102600Y-105521000D01*
X77434200Y-97519400D02*
X78516100Y-97519400D01*
X95419700Y-104420000D02*
X96500000Y-104420000D01*
X73500000Y-102000000D02*
X73992900Y-102000000D01*
X76810100Y-99182800D02*
X76810100Y-98143500D01*
X73992900Y-102000000D02*
X76810100Y-99182800D01*
X79138300Y-102165000D02*
X82701700Y-105729000D01*
X76810100Y-98143500D02*
X77434200Y-97519400D01*
X73500000Y-102000000D02*
X73456200Y-102000000D01*
%TO.N,/CVG_DAC*%
X71257000Y-109979000D02*
X73500000Y-112222000D01*
X79260200Y-106202000D02*
X77070400Y-108391000D01*
X95419700Y-106960000D02*
X94313900Y-105854000D01*
X73500000Y-112222000D02*
X73500000Y-112500000D01*
X69000000Y-109000000D02*
X69978800Y-109979000D01*
X94313900Y-105854000D02*
X84318000Y-105854000D01*
X76476400Y-109971000D02*
X75750600Y-109971000D01*
X77070400Y-109377000D02*
X76476400Y-109971000D01*
X84318000Y-105854000D02*
X83970600Y-106202000D01*
X77070400Y-108391000D02*
X77070400Y-109377000D01*
X96500000Y-106960000D02*
X95419700Y-106960000D01*
X75750600Y-109971000D02*
X73500000Y-112222000D01*
X69978800Y-109979000D02*
X71257000Y-109979000D01*
X83970600Y-106202000D02*
X79260200Y-106202000D01*
%TO.N,/CVH_DAC*%
X73500000Y-116000000D02*
X73001500Y-116498000D01*
X69000000Y-106814000D02*
X69000000Y-105500000D01*
X69582800Y-107397000D02*
X69000000Y-106814000D01*
X73001500Y-116498000D02*
X72491800Y-116498000D01*
%TO.N,/CLR_DAC*%
X91500000Y-109500000D02*
X91500000Y-110580000D01*
X91500000Y-110580000D02*
X85775000Y-116305000D01*
X85775000Y-116305000D02*
X85775000Y-121130000D01*
%TO.N,/DIN_DAC*%
X81875000Y-121130000D02*
X81875000Y-120050000D01*
X81875000Y-120050000D02*
X81969800Y-119955000D01*
%TO.N,/SCLK_DAC*%
X81251400Y-121104000D02*
X81251400Y-119933000D01*
X81225000Y-121130000D02*
X81251400Y-121104000D01*
%TO.N,/LDAC_DAC*%
X81225000Y-126208000D02*
X82438300Y-124994000D01*
X92045400Y-108040000D02*
X91500000Y-108040000D01*
X92902400Y-115742000D02*
X92902400Y-108897000D01*
X81225000Y-126870000D02*
X81225000Y-126208000D01*
X91500000Y-108040000D02*
X91500000Y-106960000D01*
X82438300Y-124994000D02*
X83306400Y-124994000D01*
X92902400Y-108897000D02*
X92045400Y-108040000D01*
X84660800Y-123640000D02*
X85004900Y-123640000D01*
X85004900Y-123640000D02*
X92902400Y-115742000D01*
X83306400Y-124994000D02*
X84660800Y-123640000D01*
%TO.N,/SYNC_DAC*%
X81875000Y-126232000D02*
X81875000Y-126870000D01*
X85219200Y-123946000D02*
X84787900Y-123946000D01*
X92580300Y-104420000D02*
X93665300Y-103335000D01*
X82348100Y-125759000D02*
X81875000Y-126232000D01*
X84787900Y-123946000D02*
X82975400Y-125759000D01*
X93665300Y-103335000D02*
X96999800Y-103335000D01*
X91500000Y-104420000D02*
X92580300Y-104420000D01*
X97604300Y-103940000D02*
X97604300Y-111561000D01*
X82975400Y-125759000D02*
X82348100Y-125759000D01*
X96999800Y-103335000D02*
X97604300Y-103940000D01*
X97604300Y-111561000D02*
X85219200Y-123946000D01*
%TD*%
M02*
