M48
; DRILL file {KiCad 8.0.4} date 2024-08-17T15:48:40+0200
; FORMAT={-:-/ absolute / metric / decimal}
; #@! TF.CreationDate,2024-08-17T15:48:40+02:00
; #@! TF.GenerationSoftware,Kicad,Pcbnew,8.0.4
; #@! TF.FileFunction,Plated,1,2,PTH
FMAT,2
METRIC
; #@! TA.AperFunction,Plated,PTH,ViaDrill
T1C0.254
; #@! TA.AperFunction,Plated,PTH,ComponentDrill
T2C1.000
%
G90
G05
T1
X63.185Y-100.014
X63.646Y-118.635
X64.576Y-123.358
X64.708Y-125.507
X64.919Y-104.328
X65.781Y-108.878
X66.001Y-114.296
X66.835Y-92.606
X66.872Y-104.097
X67.331Y-111.408
X67.479Y-93.569
X68.192Y-116.957
X68.352Y-103.352
X69.19Y-97.146
X69.583Y-107.397
X70.007Y-98.499
X70.043Y-111.84
X70.274Y-125.508
X70.513Y-112.699
X70.689Y-100.648
X71.608Y-106.722
X71.883Y-100.573
X72.152Y-103.304
X72.492Y-116.498
X72.532Y-100.574
X72.845Y-103.26
X73.008Y-96.997
X73.121Y-104.343
X73.257Y-111.241
X73.419Y-120.88
X73.681Y-92.601
X73.722Y-118.034
X74.242Y-106.898
X74.264Y-117.217
X74.402Y-122.546
X74.759Y-97.088
X74.929Y-111.875
X75.207Y-123.192
X75.345Y-122.068
X75.54Y-121.224
X75.719Y-110.854
X75.825Y-107.491
X75.867Y-114.866
X76.593Y-110.782
X76.816Y-111.509
X77.226Y-113.453
X78.281Y-123.156
X78.405Y-103.653
X78.441Y-128.23
X79.069Y-109.869
X79.538Y-123.989
X80.727Y-99.247
X81.251Y-119.933
X81.97Y-119.955
X82.24Y-124.229
X83.019Y-107.421
X83.268Y-108.043
X83.493Y-105.26
X85.584Y-124.822
T2
X85.5Y-99.34
X85.5Y-101.88
X85.5Y-104.42
X85.5Y-106.96
X85.5Y-109.5
X91.5Y-99.34
X91.5Y-101.88
X91.5Y-104.42
X91.5Y-106.96
X91.5Y-109.5
X96.5Y-91.72
X96.5Y-94.26
X96.5Y-96.8
X96.5Y-99.34
X96.5Y-101.88
X96.5Y-104.42
X96.5Y-106.96
X96.5Y-109.5
M30
