%TF.GenerationSoftware,KiCad,Pcbnew,8.0.4*%
%TF.CreationDate,2024-08-16T22:28:16+02:00*%
%TF.ProjectId,breakout_dac,62726561-6b6f-4757-945f-6461632e6b69,1.1*%
%TF.SameCoordinates,Original*%
%TF.FileFunction,Legend,Top*%
%TF.FilePolarity,Positive*%
%FSLAX46Y46*%
G04 Gerber Fmt 4.6, Leading zero omitted, Abs format (unit mm)*
G04 Created by KiCad (PCBNEW 8.0.4) date 2024-08-16 22:28:16*
%MOMM*%
%LPD*%
G01*
G04 APERTURE LIST*
%ADD10C,0.100000*%
%ADD11C,0.150000*%
%ADD12C,0.127000*%
%ADD13C,0.200000*%
%ADD14C,0.120000*%
%ADD15C,0.000000*%
G04 APERTURE END LIST*
D10*
X83661027Y-91985864D02*
X84041979Y-91985864D01*
X83803884Y-91652531D02*
X83803884Y-92509673D01*
X83803884Y-92509673D02*
X83851503Y-92604912D01*
X83851503Y-92604912D02*
X83946741Y-92652531D01*
X83946741Y-92652531D02*
X84041979Y-92652531D01*
X84375313Y-92652531D02*
X84375313Y-91652531D01*
X84803884Y-92652531D02*
X84803884Y-92128721D01*
X84803884Y-92128721D02*
X84756265Y-92033483D01*
X84756265Y-92033483D02*
X84661027Y-91985864D01*
X84661027Y-91985864D02*
X84518170Y-91985864D01*
X84518170Y-91985864D02*
X84422932Y-92033483D01*
X84422932Y-92033483D02*
X84375313Y-92081102D01*
X85280075Y-92652531D02*
X85280075Y-91985864D01*
X85280075Y-91652531D02*
X85232456Y-91700150D01*
X85232456Y-91700150D02*
X85280075Y-91747769D01*
X85280075Y-91747769D02*
X85327694Y-91700150D01*
X85327694Y-91700150D02*
X85280075Y-91652531D01*
X85280075Y-91652531D02*
X85280075Y-91747769D01*
X85708646Y-92604912D02*
X85803884Y-92652531D01*
X85803884Y-92652531D02*
X85994360Y-92652531D01*
X85994360Y-92652531D02*
X86089598Y-92604912D01*
X86089598Y-92604912D02*
X86137217Y-92509673D01*
X86137217Y-92509673D02*
X86137217Y-92462054D01*
X86137217Y-92462054D02*
X86089598Y-92366816D01*
X86089598Y-92366816D02*
X85994360Y-92319197D01*
X85994360Y-92319197D02*
X85851503Y-92319197D01*
X85851503Y-92319197D02*
X85756265Y-92271578D01*
X85756265Y-92271578D02*
X85708646Y-92176340D01*
X85708646Y-92176340D02*
X85708646Y-92128721D01*
X85708646Y-92128721D02*
X85756265Y-92033483D01*
X85756265Y-92033483D02*
X85851503Y-91985864D01*
X85851503Y-91985864D02*
X85994360Y-91985864D01*
X85994360Y-91985864D02*
X86089598Y-92033483D01*
X87280075Y-92604912D02*
X87375313Y-92652531D01*
X87375313Y-92652531D02*
X87565789Y-92652531D01*
X87565789Y-92652531D02*
X87661027Y-92604912D01*
X87661027Y-92604912D02*
X87708646Y-92509673D01*
X87708646Y-92509673D02*
X87708646Y-92462054D01*
X87708646Y-92462054D02*
X87661027Y-92366816D01*
X87661027Y-92366816D02*
X87565789Y-92319197D01*
X87565789Y-92319197D02*
X87422932Y-92319197D01*
X87422932Y-92319197D02*
X87327694Y-92271578D01*
X87327694Y-92271578D02*
X87280075Y-92176340D01*
X87280075Y-92176340D02*
X87280075Y-92128721D01*
X87280075Y-92128721D02*
X87327694Y-92033483D01*
X87327694Y-92033483D02*
X87422932Y-91985864D01*
X87422932Y-91985864D02*
X87565789Y-91985864D01*
X87565789Y-91985864D02*
X87661027Y-92033483D01*
X88137218Y-92652531D02*
X88137218Y-91985864D01*
X88137218Y-91652531D02*
X88089599Y-91700150D01*
X88089599Y-91700150D02*
X88137218Y-91747769D01*
X88137218Y-91747769D02*
X88184837Y-91700150D01*
X88184837Y-91700150D02*
X88137218Y-91652531D01*
X88137218Y-91652531D02*
X88137218Y-91747769D01*
X89041979Y-92652531D02*
X89041979Y-91652531D01*
X89041979Y-92604912D02*
X88946741Y-92652531D01*
X88946741Y-92652531D02*
X88756265Y-92652531D01*
X88756265Y-92652531D02*
X88661027Y-92604912D01*
X88661027Y-92604912D02*
X88613408Y-92557292D01*
X88613408Y-92557292D02*
X88565789Y-92462054D01*
X88565789Y-92462054D02*
X88565789Y-92176340D01*
X88565789Y-92176340D02*
X88613408Y-92081102D01*
X88613408Y-92081102D02*
X88661027Y-92033483D01*
X88661027Y-92033483D02*
X88756265Y-91985864D01*
X88756265Y-91985864D02*
X88946741Y-91985864D01*
X88946741Y-91985864D02*
X89041979Y-92033483D01*
X89899122Y-92604912D02*
X89803884Y-92652531D01*
X89803884Y-92652531D02*
X89613408Y-92652531D01*
X89613408Y-92652531D02*
X89518170Y-92604912D01*
X89518170Y-92604912D02*
X89470551Y-92509673D01*
X89470551Y-92509673D02*
X89470551Y-92128721D01*
X89470551Y-92128721D02*
X89518170Y-92033483D01*
X89518170Y-92033483D02*
X89613408Y-91985864D01*
X89613408Y-91985864D02*
X89803884Y-91985864D01*
X89803884Y-91985864D02*
X89899122Y-92033483D01*
X89899122Y-92033483D02*
X89946741Y-92128721D01*
X89946741Y-92128721D02*
X89946741Y-92223959D01*
X89946741Y-92223959D02*
X89470551Y-92319197D01*
X91137218Y-92652531D02*
X91137218Y-91985864D01*
X91137218Y-91652531D02*
X91089599Y-91700150D01*
X91089599Y-91700150D02*
X91137218Y-91747769D01*
X91137218Y-91747769D02*
X91184837Y-91700150D01*
X91184837Y-91700150D02*
X91137218Y-91652531D01*
X91137218Y-91652531D02*
X91137218Y-91747769D01*
X91565789Y-92604912D02*
X91661027Y-92652531D01*
X91661027Y-92652531D02*
X91851503Y-92652531D01*
X91851503Y-92652531D02*
X91946741Y-92604912D01*
X91946741Y-92604912D02*
X91994360Y-92509673D01*
X91994360Y-92509673D02*
X91994360Y-92462054D01*
X91994360Y-92462054D02*
X91946741Y-92366816D01*
X91946741Y-92366816D02*
X91851503Y-92319197D01*
X91851503Y-92319197D02*
X91708646Y-92319197D01*
X91708646Y-92319197D02*
X91613408Y-92271578D01*
X91613408Y-92271578D02*
X91565789Y-92176340D01*
X91565789Y-92176340D02*
X91565789Y-92128721D01*
X91565789Y-92128721D02*
X91613408Y-92033483D01*
X91613408Y-92033483D02*
X91708646Y-91985864D01*
X91708646Y-91985864D02*
X91851503Y-91985864D01*
X91851503Y-91985864D02*
X91946741Y-92033483D01*
X93613408Y-91985864D02*
X93613408Y-92652531D01*
X93184837Y-91985864D02*
X93184837Y-92509673D01*
X93184837Y-92509673D02*
X93232456Y-92604912D01*
X93232456Y-92604912D02*
X93327694Y-92652531D01*
X93327694Y-92652531D02*
X93470551Y-92652531D01*
X93470551Y-92652531D02*
X93565789Y-92604912D01*
X93565789Y-92604912D02*
X93613408Y-92557292D01*
X94089599Y-91985864D02*
X94089599Y-92985864D01*
X94089599Y-92033483D02*
X94184837Y-91985864D01*
X94184837Y-91985864D02*
X94375313Y-91985864D01*
X94375313Y-91985864D02*
X94470551Y-92033483D01*
X94470551Y-92033483D02*
X94518170Y-92081102D01*
X94518170Y-92081102D02*
X94565789Y-92176340D01*
X94565789Y-92176340D02*
X94565789Y-92462054D01*
X94565789Y-92462054D02*
X94518170Y-92557292D01*
X94518170Y-92557292D02*
X94470551Y-92604912D01*
X94470551Y-92604912D02*
X94375313Y-92652531D01*
X94375313Y-92652531D02*
X94184837Y-92652531D01*
X94184837Y-92652531D02*
X94089599Y-92604912D01*
X83661027Y-93595808D02*
X84041979Y-93595808D01*
X83803884Y-93262475D02*
X83803884Y-94119617D01*
X83803884Y-94119617D02*
X83851503Y-94214856D01*
X83851503Y-94214856D02*
X83946741Y-94262475D01*
X83946741Y-94262475D02*
X84041979Y-94262475D01*
X84518170Y-94262475D02*
X84422932Y-94214856D01*
X84422932Y-94214856D02*
X84375313Y-94167236D01*
X84375313Y-94167236D02*
X84327694Y-94071998D01*
X84327694Y-94071998D02*
X84327694Y-93786284D01*
X84327694Y-93786284D02*
X84375313Y-93691046D01*
X84375313Y-93691046D02*
X84422932Y-93643427D01*
X84422932Y-93643427D02*
X84518170Y-93595808D01*
X84518170Y-93595808D02*
X84661027Y-93595808D01*
X84661027Y-93595808D02*
X84756265Y-93643427D01*
X84756265Y-93643427D02*
X84803884Y-93691046D01*
X84803884Y-93691046D02*
X84851503Y-93786284D01*
X84851503Y-93786284D02*
X84851503Y-94071998D01*
X84851503Y-94071998D02*
X84803884Y-94167236D01*
X84803884Y-94167236D02*
X84756265Y-94214856D01*
X84756265Y-94214856D02*
X84661027Y-94262475D01*
X84661027Y-94262475D02*
X84518170Y-94262475D01*
X85280075Y-93595808D02*
X85280075Y-94595808D01*
X85280075Y-93643427D02*
X85375313Y-93595808D01*
X85375313Y-93595808D02*
X85565789Y-93595808D01*
X85565789Y-93595808D02*
X85661027Y-93643427D01*
X85661027Y-93643427D02*
X85708646Y-93691046D01*
X85708646Y-93691046D02*
X85756265Y-93786284D01*
X85756265Y-93786284D02*
X85756265Y-94071998D01*
X85756265Y-94071998D02*
X85708646Y-94167236D01*
X85708646Y-94167236D02*
X85661027Y-94214856D01*
X85661027Y-94214856D02*
X85565789Y-94262475D01*
X85565789Y-94262475D02*
X85375313Y-94262475D01*
X85375313Y-94262475D02*
X85280075Y-94214856D01*
X86946742Y-93595808D02*
X86946742Y-94595808D01*
X86946742Y-93643427D02*
X87041980Y-93595808D01*
X87041980Y-93595808D02*
X87232456Y-93595808D01*
X87232456Y-93595808D02*
X87327694Y-93643427D01*
X87327694Y-93643427D02*
X87375313Y-93691046D01*
X87375313Y-93691046D02*
X87422932Y-93786284D01*
X87422932Y-93786284D02*
X87422932Y-94071998D01*
X87422932Y-94071998D02*
X87375313Y-94167236D01*
X87375313Y-94167236D02*
X87327694Y-94214856D01*
X87327694Y-94214856D02*
X87232456Y-94262475D01*
X87232456Y-94262475D02*
X87041980Y-94262475D01*
X87041980Y-94262475D02*
X86946742Y-94214856D01*
X87851504Y-94262475D02*
X87851504Y-93595808D01*
X87851504Y-93262475D02*
X87803885Y-93310094D01*
X87803885Y-93310094D02*
X87851504Y-93357713D01*
X87851504Y-93357713D02*
X87899123Y-93310094D01*
X87899123Y-93310094D02*
X87851504Y-93262475D01*
X87851504Y-93262475D02*
X87851504Y-93357713D01*
X88327694Y-93595808D02*
X88327694Y-94262475D01*
X88327694Y-93691046D02*
X88375313Y-93643427D01*
X88375313Y-93643427D02*
X88470551Y-93595808D01*
X88470551Y-93595808D02*
X88613408Y-93595808D01*
X88613408Y-93595808D02*
X88708646Y-93643427D01*
X88708646Y-93643427D02*
X88756265Y-93738665D01*
X88756265Y-93738665D02*
X88756265Y-94262475D01*
X89994361Y-94262475D02*
X89994361Y-93595808D01*
X89994361Y-93262475D02*
X89946742Y-93310094D01*
X89946742Y-93310094D02*
X89994361Y-93357713D01*
X89994361Y-93357713D02*
X90041980Y-93310094D01*
X90041980Y-93310094D02*
X89994361Y-93262475D01*
X89994361Y-93262475D02*
X89994361Y-93357713D01*
X90422932Y-94214856D02*
X90518170Y-94262475D01*
X90518170Y-94262475D02*
X90708646Y-94262475D01*
X90708646Y-94262475D02*
X90803884Y-94214856D01*
X90803884Y-94214856D02*
X90851503Y-94119617D01*
X90851503Y-94119617D02*
X90851503Y-94071998D01*
X90851503Y-94071998D02*
X90803884Y-93976760D01*
X90803884Y-93976760D02*
X90708646Y-93929141D01*
X90708646Y-93929141D02*
X90565789Y-93929141D01*
X90565789Y-93929141D02*
X90470551Y-93881522D01*
X90470551Y-93881522D02*
X90422932Y-93786284D01*
X90422932Y-93786284D02*
X90422932Y-93738665D01*
X90422932Y-93738665D02*
X90470551Y-93643427D01*
X90470551Y-93643427D02*
X90565789Y-93595808D01*
X90565789Y-93595808D02*
X90708646Y-93595808D01*
X90708646Y-93595808D02*
X90803884Y-93643427D01*
X92565789Y-94262475D02*
X91994361Y-94262475D01*
X92280075Y-94262475D02*
X92280075Y-93262475D01*
X92280075Y-93262475D02*
X92184837Y-93405332D01*
X92184837Y-93405332D02*
X92089599Y-93500570D01*
X92089599Y-93500570D02*
X91994361Y-93548189D01*
X83661027Y-95205752D02*
X84041979Y-95205752D01*
X83803884Y-95872419D02*
X83803884Y-95015276D01*
X83803884Y-95015276D02*
X83851503Y-94920038D01*
X83851503Y-94920038D02*
X83946741Y-94872419D01*
X83946741Y-94872419D02*
X84041979Y-94872419D01*
X84518170Y-95872419D02*
X84422932Y-95824800D01*
X84422932Y-95824800D02*
X84375313Y-95777180D01*
X84375313Y-95777180D02*
X84327694Y-95681942D01*
X84327694Y-95681942D02*
X84327694Y-95396228D01*
X84327694Y-95396228D02*
X84375313Y-95300990D01*
X84375313Y-95300990D02*
X84422932Y-95253371D01*
X84422932Y-95253371D02*
X84518170Y-95205752D01*
X84518170Y-95205752D02*
X84661027Y-95205752D01*
X84661027Y-95205752D02*
X84756265Y-95253371D01*
X84756265Y-95253371D02*
X84803884Y-95300990D01*
X84803884Y-95300990D02*
X84851503Y-95396228D01*
X84851503Y-95396228D02*
X84851503Y-95681942D01*
X84851503Y-95681942D02*
X84803884Y-95777180D01*
X84803884Y-95777180D02*
X84756265Y-95824800D01*
X84756265Y-95824800D02*
X84661027Y-95872419D01*
X84661027Y-95872419D02*
X84518170Y-95872419D01*
X85280075Y-95872419D02*
X85280075Y-95205752D01*
X85280075Y-95396228D02*
X85327694Y-95300990D01*
X85327694Y-95300990D02*
X85375313Y-95253371D01*
X85375313Y-95253371D02*
X85470551Y-95205752D01*
X85470551Y-95205752D02*
X85565789Y-95205752D01*
X87041980Y-95824800D02*
X86946742Y-95872419D01*
X86946742Y-95872419D02*
X86756266Y-95872419D01*
X86756266Y-95872419D02*
X86661028Y-95824800D01*
X86661028Y-95824800D02*
X86613409Y-95729561D01*
X86613409Y-95729561D02*
X86613409Y-95348609D01*
X86613409Y-95348609D02*
X86661028Y-95253371D01*
X86661028Y-95253371D02*
X86756266Y-95205752D01*
X86756266Y-95205752D02*
X86946742Y-95205752D01*
X86946742Y-95205752D02*
X87041980Y-95253371D01*
X87041980Y-95253371D02*
X87089599Y-95348609D01*
X87089599Y-95348609D02*
X87089599Y-95443847D01*
X87089599Y-95443847D02*
X86613409Y-95539085D01*
X87946742Y-95872419D02*
X87946742Y-95348609D01*
X87946742Y-95348609D02*
X87899123Y-95253371D01*
X87899123Y-95253371D02*
X87803885Y-95205752D01*
X87803885Y-95205752D02*
X87613409Y-95205752D01*
X87613409Y-95205752D02*
X87518171Y-95253371D01*
X87946742Y-95824800D02*
X87851504Y-95872419D01*
X87851504Y-95872419D02*
X87613409Y-95872419D01*
X87613409Y-95872419D02*
X87518171Y-95824800D01*
X87518171Y-95824800D02*
X87470552Y-95729561D01*
X87470552Y-95729561D02*
X87470552Y-95634323D01*
X87470552Y-95634323D02*
X87518171Y-95539085D01*
X87518171Y-95539085D02*
X87613409Y-95491466D01*
X87613409Y-95491466D02*
X87851504Y-95491466D01*
X87851504Y-95491466D02*
X87946742Y-95443847D01*
X88851504Y-95824800D02*
X88756266Y-95872419D01*
X88756266Y-95872419D02*
X88565790Y-95872419D01*
X88565790Y-95872419D02*
X88470552Y-95824800D01*
X88470552Y-95824800D02*
X88422933Y-95777180D01*
X88422933Y-95777180D02*
X88375314Y-95681942D01*
X88375314Y-95681942D02*
X88375314Y-95396228D01*
X88375314Y-95396228D02*
X88422933Y-95300990D01*
X88422933Y-95300990D02*
X88470552Y-95253371D01*
X88470552Y-95253371D02*
X88565790Y-95205752D01*
X88565790Y-95205752D02*
X88756266Y-95205752D01*
X88756266Y-95205752D02*
X88851504Y-95253371D01*
X89280076Y-95872419D02*
X89280076Y-94872419D01*
X89708647Y-95872419D02*
X89708647Y-95348609D01*
X89708647Y-95348609D02*
X89661028Y-95253371D01*
X89661028Y-95253371D02*
X89565790Y-95205752D01*
X89565790Y-95205752D02*
X89422933Y-95205752D01*
X89422933Y-95205752D02*
X89327695Y-95253371D01*
X89327695Y-95253371D02*
X89280076Y-95300990D01*
X90946743Y-95872419D02*
X90946743Y-95205752D01*
X90946743Y-95396228D02*
X90994362Y-95300990D01*
X90994362Y-95300990D02*
X91041981Y-95253371D01*
X91041981Y-95253371D02*
X91137219Y-95205752D01*
X91137219Y-95205752D02*
X91232457Y-95205752D01*
X91708648Y-95872419D02*
X91613410Y-95824800D01*
X91613410Y-95824800D02*
X91565791Y-95777180D01*
X91565791Y-95777180D02*
X91518172Y-95681942D01*
X91518172Y-95681942D02*
X91518172Y-95396228D01*
X91518172Y-95396228D02*
X91565791Y-95300990D01*
X91565791Y-95300990D02*
X91613410Y-95253371D01*
X91613410Y-95253371D02*
X91708648Y-95205752D01*
X91708648Y-95205752D02*
X91851505Y-95205752D01*
X91851505Y-95205752D02*
X91946743Y-95253371D01*
X91946743Y-95253371D02*
X91994362Y-95300990D01*
X91994362Y-95300990D02*
X92041981Y-95396228D01*
X92041981Y-95396228D02*
X92041981Y-95681942D01*
X92041981Y-95681942D02*
X91994362Y-95777180D01*
X91994362Y-95777180D02*
X91946743Y-95824800D01*
X91946743Y-95824800D02*
X91851505Y-95872419D01*
X91851505Y-95872419D02*
X91708648Y-95872419D01*
X92375315Y-95205752D02*
X92565791Y-95872419D01*
X92565791Y-95872419D02*
X92756267Y-95396228D01*
X92756267Y-95396228D02*
X92946743Y-95872419D01*
X92946743Y-95872419D02*
X93137219Y-95205752D01*
D11*
X68954819Y-124261904D02*
X69764342Y-124261904D01*
X69764342Y-124261904D02*
X69859580Y-124214285D01*
X69859580Y-124214285D02*
X69907200Y-124166666D01*
X69907200Y-124166666D02*
X69954819Y-124071428D01*
X69954819Y-124071428D02*
X69954819Y-123880952D01*
X69954819Y-123880952D02*
X69907200Y-123785714D01*
X69907200Y-123785714D02*
X69859580Y-123738095D01*
X69859580Y-123738095D02*
X69764342Y-123690476D01*
X69764342Y-123690476D02*
X68954819Y-123690476D01*
X69954819Y-122690476D02*
X69954819Y-123261904D01*
X69954819Y-122976190D02*
X68954819Y-122976190D01*
X68954819Y-122976190D02*
X69097676Y-123071428D01*
X69097676Y-123071428D02*
X69192914Y-123166666D01*
X69192914Y-123166666D02*
X69240533Y-123261904D01*
X67357142Y-104304819D02*
X67023809Y-103828628D01*
X66785714Y-104304819D02*
X66785714Y-103304819D01*
X66785714Y-103304819D02*
X67166666Y-103304819D01*
X67166666Y-103304819D02*
X67261904Y-103352438D01*
X67261904Y-103352438D02*
X67309523Y-103400057D01*
X67309523Y-103400057D02*
X67357142Y-103495295D01*
X67357142Y-103495295D02*
X67357142Y-103638152D01*
X67357142Y-103638152D02*
X67309523Y-103733390D01*
X67309523Y-103733390D02*
X67261904Y-103781009D01*
X67261904Y-103781009D02*
X67166666Y-103828628D01*
X67166666Y-103828628D02*
X66785714Y-103828628D01*
X67738095Y-103400057D02*
X67785714Y-103352438D01*
X67785714Y-103352438D02*
X67880952Y-103304819D01*
X67880952Y-103304819D02*
X68119047Y-103304819D01*
X68119047Y-103304819D02*
X68214285Y-103352438D01*
X68214285Y-103352438D02*
X68261904Y-103400057D01*
X68261904Y-103400057D02*
X68309523Y-103495295D01*
X68309523Y-103495295D02*
X68309523Y-103590533D01*
X68309523Y-103590533D02*
X68261904Y-103733390D01*
X68261904Y-103733390D02*
X67690476Y-104304819D01*
X67690476Y-104304819D02*
X68309523Y-104304819D01*
X68690476Y-103400057D02*
X68738095Y-103352438D01*
X68738095Y-103352438D02*
X68833333Y-103304819D01*
X68833333Y-103304819D02*
X69071428Y-103304819D01*
X69071428Y-103304819D02*
X69166666Y-103352438D01*
X69166666Y-103352438D02*
X69214285Y-103400057D01*
X69214285Y-103400057D02*
X69261904Y-103495295D01*
X69261904Y-103495295D02*
X69261904Y-103590533D01*
X69261904Y-103590533D02*
X69214285Y-103733390D01*
X69214285Y-103733390D02*
X68642857Y-104304819D01*
X68642857Y-104304819D02*
X69261904Y-104304819D01*
X67357142Y-111304819D02*
X67023809Y-110828628D01*
X66785714Y-111304819D02*
X66785714Y-110304819D01*
X66785714Y-110304819D02*
X67166666Y-110304819D01*
X67166666Y-110304819D02*
X67261904Y-110352438D01*
X67261904Y-110352438D02*
X67309523Y-110400057D01*
X67309523Y-110400057D02*
X67357142Y-110495295D01*
X67357142Y-110495295D02*
X67357142Y-110638152D01*
X67357142Y-110638152D02*
X67309523Y-110733390D01*
X67309523Y-110733390D02*
X67261904Y-110781009D01*
X67261904Y-110781009D02*
X67166666Y-110828628D01*
X67166666Y-110828628D02*
X66785714Y-110828628D01*
X67738095Y-110400057D02*
X67785714Y-110352438D01*
X67785714Y-110352438D02*
X67880952Y-110304819D01*
X67880952Y-110304819D02*
X68119047Y-110304819D01*
X68119047Y-110304819D02*
X68214285Y-110352438D01*
X68214285Y-110352438D02*
X68261904Y-110400057D01*
X68261904Y-110400057D02*
X68309523Y-110495295D01*
X68309523Y-110495295D02*
X68309523Y-110590533D01*
X68309523Y-110590533D02*
X68261904Y-110733390D01*
X68261904Y-110733390D02*
X67690476Y-111304819D01*
X67690476Y-111304819D02*
X68309523Y-111304819D01*
X68928571Y-110304819D02*
X69023809Y-110304819D01*
X69023809Y-110304819D02*
X69119047Y-110352438D01*
X69119047Y-110352438D02*
X69166666Y-110400057D01*
X69166666Y-110400057D02*
X69214285Y-110495295D01*
X69214285Y-110495295D02*
X69261904Y-110685771D01*
X69261904Y-110685771D02*
X69261904Y-110923866D01*
X69261904Y-110923866D02*
X69214285Y-111114342D01*
X69214285Y-111114342D02*
X69166666Y-111209580D01*
X69166666Y-111209580D02*
X69119047Y-111257200D01*
X69119047Y-111257200D02*
X69023809Y-111304819D01*
X69023809Y-111304819D02*
X68928571Y-111304819D01*
X68928571Y-111304819D02*
X68833333Y-111257200D01*
X68833333Y-111257200D02*
X68785714Y-111209580D01*
X68785714Y-111209580D02*
X68738095Y-111114342D01*
X68738095Y-111114342D02*
X68690476Y-110923866D01*
X68690476Y-110923866D02*
X68690476Y-110685771D01*
X68690476Y-110685771D02*
X68738095Y-110495295D01*
X68738095Y-110495295D02*
X68785714Y-110400057D01*
X68785714Y-110400057D02*
X68833333Y-110352438D01*
X68833333Y-110352438D02*
X68928571Y-110304819D01*
X76795833Y-93679580D02*
X76748214Y-93727200D01*
X76748214Y-93727200D02*
X76605357Y-93774819D01*
X76605357Y-93774819D02*
X76510119Y-93774819D01*
X76510119Y-93774819D02*
X76367262Y-93727200D01*
X76367262Y-93727200D02*
X76272024Y-93631961D01*
X76272024Y-93631961D02*
X76224405Y-93536723D01*
X76224405Y-93536723D02*
X76176786Y-93346247D01*
X76176786Y-93346247D02*
X76176786Y-93203390D01*
X76176786Y-93203390D02*
X76224405Y-93012914D01*
X76224405Y-93012914D02*
X76272024Y-92917676D01*
X76272024Y-92917676D02*
X76367262Y-92822438D01*
X76367262Y-92822438D02*
X76510119Y-92774819D01*
X76510119Y-92774819D02*
X76605357Y-92774819D01*
X76605357Y-92774819D02*
X76748214Y-92822438D01*
X76748214Y-92822438D02*
X76795833Y-92870057D01*
X77272024Y-93774819D02*
X77462500Y-93774819D01*
X77462500Y-93774819D02*
X77557738Y-93727200D01*
X77557738Y-93727200D02*
X77605357Y-93679580D01*
X77605357Y-93679580D02*
X77700595Y-93536723D01*
X77700595Y-93536723D02*
X77748214Y-93346247D01*
X77748214Y-93346247D02*
X77748214Y-92965295D01*
X77748214Y-92965295D02*
X77700595Y-92870057D01*
X77700595Y-92870057D02*
X77652976Y-92822438D01*
X77652976Y-92822438D02*
X77557738Y-92774819D01*
X77557738Y-92774819D02*
X77367262Y-92774819D01*
X77367262Y-92774819D02*
X77272024Y-92822438D01*
X77272024Y-92822438D02*
X77224405Y-92870057D01*
X77224405Y-92870057D02*
X77176786Y-92965295D01*
X77176786Y-92965295D02*
X77176786Y-93203390D01*
X77176786Y-93203390D02*
X77224405Y-93298628D01*
X77224405Y-93298628D02*
X77272024Y-93346247D01*
X77272024Y-93346247D02*
X77367262Y-93393866D01*
X77367262Y-93393866D02*
X77557738Y-93393866D01*
X77557738Y-93393866D02*
X77652976Y-93346247D01*
X77652976Y-93346247D02*
X77700595Y-93298628D01*
X77700595Y-93298628D02*
X77748214Y-93203390D01*
X67357142Y-114804819D02*
X67023809Y-114328628D01*
X66785714Y-114804819D02*
X66785714Y-113804819D01*
X66785714Y-113804819D02*
X67166666Y-113804819D01*
X67166666Y-113804819D02*
X67261904Y-113852438D01*
X67261904Y-113852438D02*
X67309523Y-113900057D01*
X67309523Y-113900057D02*
X67357142Y-113995295D01*
X67357142Y-113995295D02*
X67357142Y-114138152D01*
X67357142Y-114138152D02*
X67309523Y-114233390D01*
X67309523Y-114233390D02*
X67261904Y-114281009D01*
X67261904Y-114281009D02*
X67166666Y-114328628D01*
X67166666Y-114328628D02*
X66785714Y-114328628D01*
X68309523Y-114804819D02*
X67738095Y-114804819D01*
X68023809Y-114804819D02*
X68023809Y-113804819D01*
X68023809Y-113804819D02*
X67928571Y-113947676D01*
X67928571Y-113947676D02*
X67833333Y-114042914D01*
X67833333Y-114042914D02*
X67738095Y-114090533D01*
X68785714Y-114804819D02*
X68976190Y-114804819D01*
X68976190Y-114804819D02*
X69071428Y-114757200D01*
X69071428Y-114757200D02*
X69119047Y-114709580D01*
X69119047Y-114709580D02*
X69214285Y-114566723D01*
X69214285Y-114566723D02*
X69261904Y-114376247D01*
X69261904Y-114376247D02*
X69261904Y-113995295D01*
X69261904Y-113995295D02*
X69214285Y-113900057D01*
X69214285Y-113900057D02*
X69166666Y-113852438D01*
X69166666Y-113852438D02*
X69071428Y-113804819D01*
X69071428Y-113804819D02*
X68880952Y-113804819D01*
X68880952Y-113804819D02*
X68785714Y-113852438D01*
X68785714Y-113852438D02*
X68738095Y-113900057D01*
X68738095Y-113900057D02*
X68690476Y-113995295D01*
X68690476Y-113995295D02*
X68690476Y-114233390D01*
X68690476Y-114233390D02*
X68738095Y-114328628D01*
X68738095Y-114328628D02*
X68785714Y-114376247D01*
X68785714Y-114376247D02*
X68880952Y-114423866D01*
X68880952Y-114423866D02*
X69071428Y-114423866D01*
X69071428Y-114423866D02*
X69166666Y-114376247D01*
X69166666Y-114376247D02*
X69214285Y-114328628D01*
X69214285Y-114328628D02*
X69261904Y-114233390D01*
X76795833Y-90179580D02*
X76748214Y-90227200D01*
X76748214Y-90227200D02*
X76605357Y-90274819D01*
X76605357Y-90274819D02*
X76510119Y-90274819D01*
X76510119Y-90274819D02*
X76367262Y-90227200D01*
X76367262Y-90227200D02*
X76272024Y-90131961D01*
X76272024Y-90131961D02*
X76224405Y-90036723D01*
X76224405Y-90036723D02*
X76176786Y-89846247D01*
X76176786Y-89846247D02*
X76176786Y-89703390D01*
X76176786Y-89703390D02*
X76224405Y-89512914D01*
X76224405Y-89512914D02*
X76272024Y-89417676D01*
X76272024Y-89417676D02*
X76367262Y-89322438D01*
X76367262Y-89322438D02*
X76510119Y-89274819D01*
X76510119Y-89274819D02*
X76605357Y-89274819D01*
X76605357Y-89274819D02*
X76748214Y-89322438D01*
X76748214Y-89322438D02*
X76795833Y-89370057D01*
X77367262Y-89703390D02*
X77272024Y-89655771D01*
X77272024Y-89655771D02*
X77224405Y-89608152D01*
X77224405Y-89608152D02*
X77176786Y-89512914D01*
X77176786Y-89512914D02*
X77176786Y-89465295D01*
X77176786Y-89465295D02*
X77224405Y-89370057D01*
X77224405Y-89370057D02*
X77272024Y-89322438D01*
X77272024Y-89322438D02*
X77367262Y-89274819D01*
X77367262Y-89274819D02*
X77557738Y-89274819D01*
X77557738Y-89274819D02*
X77652976Y-89322438D01*
X77652976Y-89322438D02*
X77700595Y-89370057D01*
X77700595Y-89370057D02*
X77748214Y-89465295D01*
X77748214Y-89465295D02*
X77748214Y-89512914D01*
X77748214Y-89512914D02*
X77700595Y-89608152D01*
X77700595Y-89608152D02*
X77652976Y-89655771D01*
X77652976Y-89655771D02*
X77557738Y-89703390D01*
X77557738Y-89703390D02*
X77367262Y-89703390D01*
X77367262Y-89703390D02*
X77272024Y-89751009D01*
X77272024Y-89751009D02*
X77224405Y-89798628D01*
X77224405Y-89798628D02*
X77176786Y-89893866D01*
X77176786Y-89893866D02*
X77176786Y-90084342D01*
X77176786Y-90084342D02*
X77224405Y-90179580D01*
X77224405Y-90179580D02*
X77272024Y-90227200D01*
X77272024Y-90227200D02*
X77367262Y-90274819D01*
X77367262Y-90274819D02*
X77557738Y-90274819D01*
X77557738Y-90274819D02*
X77652976Y-90227200D01*
X77652976Y-90227200D02*
X77700595Y-90179580D01*
X77700595Y-90179580D02*
X77748214Y-90084342D01*
X77748214Y-90084342D02*
X77748214Y-89893866D01*
X77748214Y-89893866D02*
X77700595Y-89798628D01*
X77700595Y-89798628D02*
X77652976Y-89751009D01*
X77652976Y-89751009D02*
X77557738Y-89703390D01*
X62857142Y-114804819D02*
X62523809Y-114328628D01*
X62285714Y-114804819D02*
X62285714Y-113804819D01*
X62285714Y-113804819D02*
X62666666Y-113804819D01*
X62666666Y-113804819D02*
X62761904Y-113852438D01*
X62761904Y-113852438D02*
X62809523Y-113900057D01*
X62809523Y-113900057D02*
X62857142Y-113995295D01*
X62857142Y-113995295D02*
X62857142Y-114138152D01*
X62857142Y-114138152D02*
X62809523Y-114233390D01*
X62809523Y-114233390D02*
X62761904Y-114281009D01*
X62761904Y-114281009D02*
X62666666Y-114328628D01*
X62666666Y-114328628D02*
X62285714Y-114328628D01*
X63809523Y-114804819D02*
X63238095Y-114804819D01*
X63523809Y-114804819D02*
X63523809Y-113804819D01*
X63523809Y-113804819D02*
X63428571Y-113947676D01*
X63428571Y-113947676D02*
X63333333Y-114042914D01*
X63333333Y-114042914D02*
X63238095Y-114090533D01*
X64666666Y-114138152D02*
X64666666Y-114804819D01*
X64428571Y-113757200D02*
X64190476Y-114471485D01*
X64190476Y-114471485D02*
X64809523Y-114471485D01*
X59454819Y-124261904D02*
X60264342Y-124261904D01*
X60264342Y-124261904D02*
X60359580Y-124214285D01*
X60359580Y-124214285D02*
X60407200Y-124166666D01*
X60407200Y-124166666D02*
X60454819Y-124071428D01*
X60454819Y-124071428D02*
X60454819Y-123880952D01*
X60454819Y-123880952D02*
X60407200Y-123785714D01*
X60407200Y-123785714D02*
X60359580Y-123738095D01*
X60359580Y-123738095D02*
X60264342Y-123690476D01*
X60264342Y-123690476D02*
X59454819Y-123690476D01*
X59550057Y-123261904D02*
X59502438Y-123214285D01*
X59502438Y-123214285D02*
X59454819Y-123119047D01*
X59454819Y-123119047D02*
X59454819Y-122880952D01*
X59454819Y-122880952D02*
X59502438Y-122785714D01*
X59502438Y-122785714D02*
X59550057Y-122738095D01*
X59550057Y-122738095D02*
X59645295Y-122690476D01*
X59645295Y-122690476D02*
X59740533Y-122690476D01*
X59740533Y-122690476D02*
X59883390Y-122738095D01*
X59883390Y-122738095D02*
X60454819Y-123309523D01*
X60454819Y-123309523D02*
X60454819Y-122690476D01*
X80857142Y-90304819D02*
X80523809Y-89828628D01*
X80285714Y-90304819D02*
X80285714Y-89304819D01*
X80285714Y-89304819D02*
X80666666Y-89304819D01*
X80666666Y-89304819D02*
X80761904Y-89352438D01*
X80761904Y-89352438D02*
X80809523Y-89400057D01*
X80809523Y-89400057D02*
X80857142Y-89495295D01*
X80857142Y-89495295D02*
X80857142Y-89638152D01*
X80857142Y-89638152D02*
X80809523Y-89733390D01*
X80809523Y-89733390D02*
X80761904Y-89781009D01*
X80761904Y-89781009D02*
X80666666Y-89828628D01*
X80666666Y-89828628D02*
X80285714Y-89828628D01*
X81809523Y-90304819D02*
X81238095Y-90304819D01*
X81523809Y-90304819D02*
X81523809Y-89304819D01*
X81523809Y-89304819D02*
X81428571Y-89447676D01*
X81428571Y-89447676D02*
X81333333Y-89542914D01*
X81333333Y-89542914D02*
X81238095Y-89590533D01*
X82380952Y-89733390D02*
X82285714Y-89685771D01*
X82285714Y-89685771D02*
X82238095Y-89638152D01*
X82238095Y-89638152D02*
X82190476Y-89542914D01*
X82190476Y-89542914D02*
X82190476Y-89495295D01*
X82190476Y-89495295D02*
X82238095Y-89400057D01*
X82238095Y-89400057D02*
X82285714Y-89352438D01*
X82285714Y-89352438D02*
X82380952Y-89304819D01*
X82380952Y-89304819D02*
X82571428Y-89304819D01*
X82571428Y-89304819D02*
X82666666Y-89352438D01*
X82666666Y-89352438D02*
X82714285Y-89400057D01*
X82714285Y-89400057D02*
X82761904Y-89495295D01*
X82761904Y-89495295D02*
X82761904Y-89542914D01*
X82761904Y-89542914D02*
X82714285Y-89638152D01*
X82714285Y-89638152D02*
X82666666Y-89685771D01*
X82666666Y-89685771D02*
X82571428Y-89733390D01*
X82571428Y-89733390D02*
X82380952Y-89733390D01*
X82380952Y-89733390D02*
X82285714Y-89781009D01*
X82285714Y-89781009D02*
X82238095Y-89828628D01*
X82238095Y-89828628D02*
X82190476Y-89923866D01*
X82190476Y-89923866D02*
X82190476Y-90114342D01*
X82190476Y-90114342D02*
X82238095Y-90209580D01*
X82238095Y-90209580D02*
X82285714Y-90257200D01*
X82285714Y-90257200D02*
X82380952Y-90304819D01*
X82380952Y-90304819D02*
X82571428Y-90304819D01*
X82571428Y-90304819D02*
X82666666Y-90257200D01*
X82666666Y-90257200D02*
X82714285Y-90209580D01*
X82714285Y-90209580D02*
X82761904Y-90114342D01*
X82761904Y-90114342D02*
X82761904Y-89923866D01*
X82761904Y-89923866D02*
X82714285Y-89828628D01*
X82714285Y-89828628D02*
X82666666Y-89781009D01*
X82666666Y-89781009D02*
X82571428Y-89733390D01*
X71857142Y-111304819D02*
X71523809Y-110828628D01*
X71285714Y-111304819D02*
X71285714Y-110304819D01*
X71285714Y-110304819D02*
X71666666Y-110304819D01*
X71666666Y-110304819D02*
X71761904Y-110352438D01*
X71761904Y-110352438D02*
X71809523Y-110400057D01*
X71809523Y-110400057D02*
X71857142Y-110495295D01*
X71857142Y-110495295D02*
X71857142Y-110638152D01*
X71857142Y-110638152D02*
X71809523Y-110733390D01*
X71809523Y-110733390D02*
X71761904Y-110781009D01*
X71761904Y-110781009D02*
X71666666Y-110828628D01*
X71666666Y-110828628D02*
X71285714Y-110828628D01*
X72238095Y-110400057D02*
X72285714Y-110352438D01*
X72285714Y-110352438D02*
X72380952Y-110304819D01*
X72380952Y-110304819D02*
X72619047Y-110304819D01*
X72619047Y-110304819D02*
X72714285Y-110352438D01*
X72714285Y-110352438D02*
X72761904Y-110400057D01*
X72761904Y-110400057D02*
X72809523Y-110495295D01*
X72809523Y-110495295D02*
X72809523Y-110590533D01*
X72809523Y-110590533D02*
X72761904Y-110733390D01*
X72761904Y-110733390D02*
X72190476Y-111304819D01*
X72190476Y-111304819D02*
X72809523Y-111304819D01*
X73714285Y-110304819D02*
X73238095Y-110304819D01*
X73238095Y-110304819D02*
X73190476Y-110781009D01*
X73190476Y-110781009D02*
X73238095Y-110733390D01*
X73238095Y-110733390D02*
X73333333Y-110685771D01*
X73333333Y-110685771D02*
X73571428Y-110685771D01*
X73571428Y-110685771D02*
X73666666Y-110733390D01*
X73666666Y-110733390D02*
X73714285Y-110781009D01*
X73714285Y-110781009D02*
X73761904Y-110876247D01*
X73761904Y-110876247D02*
X73761904Y-111114342D01*
X73761904Y-111114342D02*
X73714285Y-111209580D01*
X73714285Y-111209580D02*
X73666666Y-111257200D01*
X73666666Y-111257200D02*
X73571428Y-111304819D01*
X73571428Y-111304819D02*
X73333333Y-111304819D01*
X73333333Y-111304819D02*
X73238095Y-111257200D01*
X73238095Y-111257200D02*
X73190476Y-111209580D01*
X63333333Y-90304819D02*
X63000000Y-89828628D01*
X62761905Y-90304819D02*
X62761905Y-89304819D01*
X62761905Y-89304819D02*
X63142857Y-89304819D01*
X63142857Y-89304819D02*
X63238095Y-89352438D01*
X63238095Y-89352438D02*
X63285714Y-89400057D01*
X63285714Y-89400057D02*
X63333333Y-89495295D01*
X63333333Y-89495295D02*
X63333333Y-89638152D01*
X63333333Y-89638152D02*
X63285714Y-89733390D01*
X63285714Y-89733390D02*
X63238095Y-89781009D01*
X63238095Y-89781009D02*
X63142857Y-89828628D01*
X63142857Y-89828628D02*
X62761905Y-89828628D01*
X64285714Y-90304819D02*
X63714286Y-90304819D01*
X64000000Y-90304819D02*
X64000000Y-89304819D01*
X64000000Y-89304819D02*
X63904762Y-89447676D01*
X63904762Y-89447676D02*
X63809524Y-89542914D01*
X63809524Y-89542914D02*
X63714286Y-89590533D01*
X88954819Y-111197142D02*
X87954819Y-111197142D01*
X87954819Y-111197142D02*
X87954819Y-110816190D01*
X87954819Y-110816190D02*
X88002438Y-110720952D01*
X88002438Y-110720952D02*
X88050057Y-110673333D01*
X88050057Y-110673333D02*
X88145295Y-110625714D01*
X88145295Y-110625714D02*
X88288152Y-110625714D01*
X88288152Y-110625714D02*
X88383390Y-110673333D01*
X88383390Y-110673333D02*
X88431009Y-110720952D01*
X88431009Y-110720952D02*
X88478628Y-110816190D01*
X88478628Y-110816190D02*
X88478628Y-111197142D01*
X87954819Y-110292380D02*
X88954819Y-110054285D01*
X88954819Y-110054285D02*
X88240533Y-109863809D01*
X88240533Y-109863809D02*
X88954819Y-109673333D01*
X88954819Y-109673333D02*
X87954819Y-109435238D01*
X88954819Y-108482857D02*
X88478628Y-108816190D01*
X88954819Y-109054285D02*
X87954819Y-109054285D01*
X87954819Y-109054285D02*
X87954819Y-108673333D01*
X87954819Y-108673333D02*
X88002438Y-108578095D01*
X88002438Y-108578095D02*
X88050057Y-108530476D01*
X88050057Y-108530476D02*
X88145295Y-108482857D01*
X88145295Y-108482857D02*
X88288152Y-108482857D01*
X88288152Y-108482857D02*
X88383390Y-108530476D01*
X88383390Y-108530476D02*
X88431009Y-108578095D01*
X88431009Y-108578095D02*
X88478628Y-108673333D01*
X88478628Y-108673333D02*
X88478628Y-109054285D01*
X88954819Y-108054285D02*
X87954819Y-108054285D01*
X87954819Y-108054285D02*
X87954819Y-107673333D01*
X87954819Y-107673333D02*
X88002438Y-107578095D01*
X88002438Y-107578095D02*
X88050057Y-107530476D01*
X88050057Y-107530476D02*
X88145295Y-107482857D01*
X88145295Y-107482857D02*
X88288152Y-107482857D01*
X88288152Y-107482857D02*
X88383390Y-107530476D01*
X88383390Y-107530476D02*
X88431009Y-107578095D01*
X88431009Y-107578095D02*
X88478628Y-107673333D01*
X88478628Y-107673333D02*
X88478628Y-108054285D01*
X88954819Y-107054285D02*
X87954819Y-107054285D01*
X88954819Y-106578095D02*
X87954819Y-106578095D01*
X87954819Y-106578095D02*
X88954819Y-106006667D01*
X88954819Y-106006667D02*
X87954819Y-106006667D01*
X88907200Y-105578095D02*
X88954819Y-105435238D01*
X88954819Y-105435238D02*
X88954819Y-105197143D01*
X88954819Y-105197143D02*
X88907200Y-105101905D01*
X88907200Y-105101905D02*
X88859580Y-105054286D01*
X88859580Y-105054286D02*
X88764342Y-105006667D01*
X88764342Y-105006667D02*
X88669104Y-105006667D01*
X88669104Y-105006667D02*
X88573866Y-105054286D01*
X88573866Y-105054286D02*
X88526247Y-105101905D01*
X88526247Y-105101905D02*
X88478628Y-105197143D01*
X88478628Y-105197143D02*
X88431009Y-105387619D01*
X88431009Y-105387619D02*
X88383390Y-105482857D01*
X88383390Y-105482857D02*
X88335771Y-105530476D01*
X88335771Y-105530476D02*
X88240533Y-105578095D01*
X88240533Y-105578095D02*
X88145295Y-105578095D01*
X88145295Y-105578095D02*
X88050057Y-105530476D01*
X88050057Y-105530476D02*
X88002438Y-105482857D01*
X88002438Y-105482857D02*
X87954819Y-105387619D01*
X87954819Y-105387619D02*
X87954819Y-105149524D01*
X87954819Y-105149524D02*
X88002438Y-105006667D01*
X89050057Y-104816191D02*
X89050057Y-104054286D01*
X88954819Y-103816190D02*
X87954819Y-103816190D01*
X87954819Y-103816190D02*
X87954819Y-103578095D01*
X87954819Y-103578095D02*
X88002438Y-103435238D01*
X88002438Y-103435238D02*
X88097676Y-103340000D01*
X88097676Y-103340000D02*
X88192914Y-103292381D01*
X88192914Y-103292381D02*
X88383390Y-103244762D01*
X88383390Y-103244762D02*
X88526247Y-103244762D01*
X88526247Y-103244762D02*
X88716723Y-103292381D01*
X88716723Y-103292381D02*
X88811961Y-103340000D01*
X88811961Y-103340000D02*
X88907200Y-103435238D01*
X88907200Y-103435238D02*
X88954819Y-103578095D01*
X88954819Y-103578095D02*
X88954819Y-103816190D01*
X88669104Y-102863809D02*
X88669104Y-102387619D01*
X88954819Y-102959047D02*
X87954819Y-102625714D01*
X87954819Y-102625714D02*
X88954819Y-102292381D01*
X88859580Y-101387619D02*
X88907200Y-101435238D01*
X88907200Y-101435238D02*
X88954819Y-101578095D01*
X88954819Y-101578095D02*
X88954819Y-101673333D01*
X88954819Y-101673333D02*
X88907200Y-101816190D01*
X88907200Y-101816190D02*
X88811961Y-101911428D01*
X88811961Y-101911428D02*
X88716723Y-101959047D01*
X88716723Y-101959047D02*
X88526247Y-102006666D01*
X88526247Y-102006666D02*
X88383390Y-102006666D01*
X88383390Y-102006666D02*
X88192914Y-101959047D01*
X88192914Y-101959047D02*
X88097676Y-101911428D01*
X88097676Y-101911428D02*
X88002438Y-101816190D01*
X88002438Y-101816190D02*
X87954819Y-101673333D01*
X87954819Y-101673333D02*
X87954819Y-101578095D01*
X87954819Y-101578095D02*
X88002438Y-101435238D01*
X88002438Y-101435238D02*
X88050057Y-101387619D01*
X88954819Y-100435238D02*
X88954819Y-101006666D01*
X88954819Y-100720952D02*
X87954819Y-100720952D01*
X87954819Y-100720952D02*
X88097676Y-100816190D01*
X88097676Y-100816190D02*
X88192914Y-100911428D01*
X88192914Y-100911428D02*
X88240533Y-101006666D01*
X76795833Y-111179580D02*
X76748214Y-111227200D01*
X76748214Y-111227200D02*
X76605357Y-111274819D01*
X76605357Y-111274819D02*
X76510119Y-111274819D01*
X76510119Y-111274819D02*
X76367262Y-111227200D01*
X76367262Y-111227200D02*
X76272024Y-111131961D01*
X76272024Y-111131961D02*
X76224405Y-111036723D01*
X76224405Y-111036723D02*
X76176786Y-110846247D01*
X76176786Y-110846247D02*
X76176786Y-110703390D01*
X76176786Y-110703390D02*
X76224405Y-110512914D01*
X76224405Y-110512914D02*
X76272024Y-110417676D01*
X76272024Y-110417676D02*
X76367262Y-110322438D01*
X76367262Y-110322438D02*
X76510119Y-110274819D01*
X76510119Y-110274819D02*
X76605357Y-110274819D01*
X76605357Y-110274819D02*
X76748214Y-110322438D01*
X76748214Y-110322438D02*
X76795833Y-110370057D01*
X77176786Y-110370057D02*
X77224405Y-110322438D01*
X77224405Y-110322438D02*
X77319643Y-110274819D01*
X77319643Y-110274819D02*
X77557738Y-110274819D01*
X77557738Y-110274819D02*
X77652976Y-110322438D01*
X77652976Y-110322438D02*
X77700595Y-110370057D01*
X77700595Y-110370057D02*
X77748214Y-110465295D01*
X77748214Y-110465295D02*
X77748214Y-110560533D01*
X77748214Y-110560533D02*
X77700595Y-110703390D01*
X77700595Y-110703390D02*
X77129167Y-111274819D01*
X77129167Y-111274819D02*
X77748214Y-111274819D01*
X76319642Y-97179580D02*
X76272023Y-97227200D01*
X76272023Y-97227200D02*
X76129166Y-97274819D01*
X76129166Y-97274819D02*
X76033928Y-97274819D01*
X76033928Y-97274819D02*
X75891071Y-97227200D01*
X75891071Y-97227200D02*
X75795833Y-97131961D01*
X75795833Y-97131961D02*
X75748214Y-97036723D01*
X75748214Y-97036723D02*
X75700595Y-96846247D01*
X75700595Y-96846247D02*
X75700595Y-96703390D01*
X75700595Y-96703390D02*
X75748214Y-96512914D01*
X75748214Y-96512914D02*
X75795833Y-96417676D01*
X75795833Y-96417676D02*
X75891071Y-96322438D01*
X75891071Y-96322438D02*
X76033928Y-96274819D01*
X76033928Y-96274819D02*
X76129166Y-96274819D01*
X76129166Y-96274819D02*
X76272023Y-96322438D01*
X76272023Y-96322438D02*
X76319642Y-96370057D01*
X77272023Y-97274819D02*
X76700595Y-97274819D01*
X76986309Y-97274819D02*
X76986309Y-96274819D01*
X76986309Y-96274819D02*
X76891071Y-96417676D01*
X76891071Y-96417676D02*
X76795833Y-96512914D01*
X76795833Y-96512914D02*
X76700595Y-96560533D01*
X77891071Y-96274819D02*
X77986309Y-96274819D01*
X77986309Y-96274819D02*
X78081547Y-96322438D01*
X78081547Y-96322438D02*
X78129166Y-96370057D01*
X78129166Y-96370057D02*
X78176785Y-96465295D01*
X78176785Y-96465295D02*
X78224404Y-96655771D01*
X78224404Y-96655771D02*
X78224404Y-96893866D01*
X78224404Y-96893866D02*
X78176785Y-97084342D01*
X78176785Y-97084342D02*
X78129166Y-97179580D01*
X78129166Y-97179580D02*
X78081547Y-97227200D01*
X78081547Y-97227200D02*
X77986309Y-97274819D01*
X77986309Y-97274819D02*
X77891071Y-97274819D01*
X77891071Y-97274819D02*
X77795833Y-97227200D01*
X77795833Y-97227200D02*
X77748214Y-97179580D01*
X77748214Y-97179580D02*
X77700595Y-97084342D01*
X77700595Y-97084342D02*
X77652976Y-96893866D01*
X77652976Y-96893866D02*
X77652976Y-96655771D01*
X77652976Y-96655771D02*
X77700595Y-96465295D01*
X77700595Y-96465295D02*
X77748214Y-96370057D01*
X77748214Y-96370057D02*
X77795833Y-96322438D01*
X77795833Y-96322438D02*
X77891071Y-96274819D01*
X80857142Y-93804819D02*
X80523809Y-93328628D01*
X80285714Y-93804819D02*
X80285714Y-92804819D01*
X80285714Y-92804819D02*
X80666666Y-92804819D01*
X80666666Y-92804819D02*
X80761904Y-92852438D01*
X80761904Y-92852438D02*
X80809523Y-92900057D01*
X80809523Y-92900057D02*
X80857142Y-92995295D01*
X80857142Y-92995295D02*
X80857142Y-93138152D01*
X80857142Y-93138152D02*
X80809523Y-93233390D01*
X80809523Y-93233390D02*
X80761904Y-93281009D01*
X80761904Y-93281009D02*
X80666666Y-93328628D01*
X80666666Y-93328628D02*
X80285714Y-93328628D01*
X81809523Y-93804819D02*
X81238095Y-93804819D01*
X81523809Y-93804819D02*
X81523809Y-92804819D01*
X81523809Y-92804819D02*
X81428571Y-92947676D01*
X81428571Y-92947676D02*
X81333333Y-93042914D01*
X81333333Y-93042914D02*
X81238095Y-93090533D01*
X82142857Y-92804819D02*
X82809523Y-92804819D01*
X82809523Y-92804819D02*
X82380952Y-93804819D01*
X67833333Y-100804819D02*
X67500000Y-100328628D01*
X67261905Y-100804819D02*
X67261905Y-99804819D01*
X67261905Y-99804819D02*
X67642857Y-99804819D01*
X67642857Y-99804819D02*
X67738095Y-99852438D01*
X67738095Y-99852438D02*
X67785714Y-99900057D01*
X67785714Y-99900057D02*
X67833333Y-99995295D01*
X67833333Y-99995295D02*
X67833333Y-100138152D01*
X67833333Y-100138152D02*
X67785714Y-100233390D01*
X67785714Y-100233390D02*
X67738095Y-100281009D01*
X67738095Y-100281009D02*
X67642857Y-100328628D01*
X67642857Y-100328628D02*
X67261905Y-100328628D01*
X68404762Y-100233390D02*
X68309524Y-100185771D01*
X68309524Y-100185771D02*
X68261905Y-100138152D01*
X68261905Y-100138152D02*
X68214286Y-100042914D01*
X68214286Y-100042914D02*
X68214286Y-99995295D01*
X68214286Y-99995295D02*
X68261905Y-99900057D01*
X68261905Y-99900057D02*
X68309524Y-99852438D01*
X68309524Y-99852438D02*
X68404762Y-99804819D01*
X68404762Y-99804819D02*
X68595238Y-99804819D01*
X68595238Y-99804819D02*
X68690476Y-99852438D01*
X68690476Y-99852438D02*
X68738095Y-99900057D01*
X68738095Y-99900057D02*
X68785714Y-99995295D01*
X68785714Y-99995295D02*
X68785714Y-100042914D01*
X68785714Y-100042914D02*
X68738095Y-100138152D01*
X68738095Y-100138152D02*
X68690476Y-100185771D01*
X68690476Y-100185771D02*
X68595238Y-100233390D01*
X68595238Y-100233390D02*
X68404762Y-100233390D01*
X68404762Y-100233390D02*
X68309524Y-100281009D01*
X68309524Y-100281009D02*
X68261905Y-100328628D01*
X68261905Y-100328628D02*
X68214286Y-100423866D01*
X68214286Y-100423866D02*
X68214286Y-100614342D01*
X68214286Y-100614342D02*
X68261905Y-100709580D01*
X68261905Y-100709580D02*
X68309524Y-100757200D01*
X68309524Y-100757200D02*
X68404762Y-100804819D01*
X68404762Y-100804819D02*
X68595238Y-100804819D01*
X68595238Y-100804819D02*
X68690476Y-100757200D01*
X68690476Y-100757200D02*
X68738095Y-100709580D01*
X68738095Y-100709580D02*
X68785714Y-100614342D01*
X68785714Y-100614342D02*
X68785714Y-100423866D01*
X68785714Y-100423866D02*
X68738095Y-100328628D01*
X68738095Y-100328628D02*
X68690476Y-100281009D01*
X68690476Y-100281009D02*
X68595238Y-100233390D01*
X71857142Y-100804819D02*
X71523809Y-100328628D01*
X71285714Y-100804819D02*
X71285714Y-99804819D01*
X71285714Y-99804819D02*
X71666666Y-99804819D01*
X71666666Y-99804819D02*
X71761904Y-99852438D01*
X71761904Y-99852438D02*
X71809523Y-99900057D01*
X71809523Y-99900057D02*
X71857142Y-99995295D01*
X71857142Y-99995295D02*
X71857142Y-100138152D01*
X71857142Y-100138152D02*
X71809523Y-100233390D01*
X71809523Y-100233390D02*
X71761904Y-100281009D01*
X71761904Y-100281009D02*
X71666666Y-100328628D01*
X71666666Y-100328628D02*
X71285714Y-100328628D01*
X72238095Y-99900057D02*
X72285714Y-99852438D01*
X72285714Y-99852438D02*
X72380952Y-99804819D01*
X72380952Y-99804819D02*
X72619047Y-99804819D01*
X72619047Y-99804819D02*
X72714285Y-99852438D01*
X72714285Y-99852438D02*
X72761904Y-99900057D01*
X72761904Y-99900057D02*
X72809523Y-99995295D01*
X72809523Y-99995295D02*
X72809523Y-100090533D01*
X72809523Y-100090533D02*
X72761904Y-100233390D01*
X72761904Y-100233390D02*
X72190476Y-100804819D01*
X72190476Y-100804819D02*
X72809523Y-100804819D01*
X73666666Y-100138152D02*
X73666666Y-100804819D01*
X73428571Y-99757200D02*
X73190476Y-100471485D01*
X73190476Y-100471485D02*
X73809523Y-100471485D01*
X67833333Y-90304819D02*
X67500000Y-89828628D01*
X67261905Y-90304819D02*
X67261905Y-89304819D01*
X67261905Y-89304819D02*
X67642857Y-89304819D01*
X67642857Y-89304819D02*
X67738095Y-89352438D01*
X67738095Y-89352438D02*
X67785714Y-89400057D01*
X67785714Y-89400057D02*
X67833333Y-89495295D01*
X67833333Y-89495295D02*
X67833333Y-89638152D01*
X67833333Y-89638152D02*
X67785714Y-89733390D01*
X67785714Y-89733390D02*
X67738095Y-89781009D01*
X67738095Y-89781009D02*
X67642857Y-89828628D01*
X67642857Y-89828628D02*
X67261905Y-89828628D01*
X68738095Y-89304819D02*
X68261905Y-89304819D01*
X68261905Y-89304819D02*
X68214286Y-89781009D01*
X68214286Y-89781009D02*
X68261905Y-89733390D01*
X68261905Y-89733390D02*
X68357143Y-89685771D01*
X68357143Y-89685771D02*
X68595238Y-89685771D01*
X68595238Y-89685771D02*
X68690476Y-89733390D01*
X68690476Y-89733390D02*
X68738095Y-89781009D01*
X68738095Y-89781009D02*
X68785714Y-89876247D01*
X68785714Y-89876247D02*
X68785714Y-90114342D01*
X68785714Y-90114342D02*
X68738095Y-90209580D01*
X68738095Y-90209580D02*
X68690476Y-90257200D01*
X68690476Y-90257200D02*
X68595238Y-90304819D01*
X68595238Y-90304819D02*
X68357143Y-90304819D01*
X68357143Y-90304819D02*
X68261905Y-90257200D01*
X68261905Y-90257200D02*
X68214286Y-90209580D01*
X76795833Y-114679580D02*
X76748214Y-114727200D01*
X76748214Y-114727200D02*
X76605357Y-114774819D01*
X76605357Y-114774819D02*
X76510119Y-114774819D01*
X76510119Y-114774819D02*
X76367262Y-114727200D01*
X76367262Y-114727200D02*
X76272024Y-114631961D01*
X76272024Y-114631961D02*
X76224405Y-114536723D01*
X76224405Y-114536723D02*
X76176786Y-114346247D01*
X76176786Y-114346247D02*
X76176786Y-114203390D01*
X76176786Y-114203390D02*
X76224405Y-114012914D01*
X76224405Y-114012914D02*
X76272024Y-113917676D01*
X76272024Y-113917676D02*
X76367262Y-113822438D01*
X76367262Y-113822438D02*
X76510119Y-113774819D01*
X76510119Y-113774819D02*
X76605357Y-113774819D01*
X76605357Y-113774819D02*
X76748214Y-113822438D01*
X76748214Y-113822438D02*
X76795833Y-113870057D01*
X77748214Y-114774819D02*
X77176786Y-114774819D01*
X77462500Y-114774819D02*
X77462500Y-113774819D01*
X77462500Y-113774819D02*
X77367262Y-113917676D01*
X77367262Y-113917676D02*
X77272024Y-114012914D01*
X77272024Y-114012914D02*
X77176786Y-114060533D01*
X67833333Y-97304819D02*
X67500000Y-96828628D01*
X67261905Y-97304819D02*
X67261905Y-96304819D01*
X67261905Y-96304819D02*
X67642857Y-96304819D01*
X67642857Y-96304819D02*
X67738095Y-96352438D01*
X67738095Y-96352438D02*
X67785714Y-96400057D01*
X67785714Y-96400057D02*
X67833333Y-96495295D01*
X67833333Y-96495295D02*
X67833333Y-96638152D01*
X67833333Y-96638152D02*
X67785714Y-96733390D01*
X67785714Y-96733390D02*
X67738095Y-96781009D01*
X67738095Y-96781009D02*
X67642857Y-96828628D01*
X67642857Y-96828628D02*
X67261905Y-96828628D01*
X68166667Y-96304819D02*
X68833333Y-96304819D01*
X68833333Y-96304819D02*
X68404762Y-97304819D01*
X71857142Y-114804819D02*
X71523809Y-114328628D01*
X71285714Y-114804819D02*
X71285714Y-113804819D01*
X71285714Y-113804819D02*
X71666666Y-113804819D01*
X71666666Y-113804819D02*
X71761904Y-113852438D01*
X71761904Y-113852438D02*
X71809523Y-113900057D01*
X71809523Y-113900057D02*
X71857142Y-113995295D01*
X71857142Y-113995295D02*
X71857142Y-114138152D01*
X71857142Y-114138152D02*
X71809523Y-114233390D01*
X71809523Y-114233390D02*
X71761904Y-114281009D01*
X71761904Y-114281009D02*
X71666666Y-114328628D01*
X71666666Y-114328628D02*
X71285714Y-114328628D01*
X72238095Y-113900057D02*
X72285714Y-113852438D01*
X72285714Y-113852438D02*
X72380952Y-113804819D01*
X72380952Y-113804819D02*
X72619047Y-113804819D01*
X72619047Y-113804819D02*
X72714285Y-113852438D01*
X72714285Y-113852438D02*
X72761904Y-113900057D01*
X72761904Y-113900057D02*
X72809523Y-113995295D01*
X72809523Y-113995295D02*
X72809523Y-114090533D01*
X72809523Y-114090533D02*
X72761904Y-114233390D01*
X72761904Y-114233390D02*
X72190476Y-114804819D01*
X72190476Y-114804819D02*
X72809523Y-114804819D01*
X73666666Y-113804819D02*
X73476190Y-113804819D01*
X73476190Y-113804819D02*
X73380952Y-113852438D01*
X73380952Y-113852438D02*
X73333333Y-113900057D01*
X73333333Y-113900057D02*
X73238095Y-114042914D01*
X73238095Y-114042914D02*
X73190476Y-114233390D01*
X73190476Y-114233390D02*
X73190476Y-114614342D01*
X73190476Y-114614342D02*
X73238095Y-114709580D01*
X73238095Y-114709580D02*
X73285714Y-114757200D01*
X73285714Y-114757200D02*
X73380952Y-114804819D01*
X73380952Y-114804819D02*
X73571428Y-114804819D01*
X73571428Y-114804819D02*
X73666666Y-114757200D01*
X73666666Y-114757200D02*
X73714285Y-114709580D01*
X73714285Y-114709580D02*
X73761904Y-114614342D01*
X73761904Y-114614342D02*
X73761904Y-114376247D01*
X73761904Y-114376247D02*
X73714285Y-114281009D01*
X73714285Y-114281009D02*
X73666666Y-114233390D01*
X73666666Y-114233390D02*
X73571428Y-114185771D01*
X73571428Y-114185771D02*
X73380952Y-114185771D01*
X73380952Y-114185771D02*
X73285714Y-114233390D01*
X73285714Y-114233390D02*
X73238095Y-114281009D01*
X73238095Y-114281009D02*
X73190476Y-114376247D01*
X63333333Y-100804819D02*
X63000000Y-100328628D01*
X62761905Y-100804819D02*
X62761905Y-99804819D01*
X62761905Y-99804819D02*
X63142857Y-99804819D01*
X63142857Y-99804819D02*
X63238095Y-99852438D01*
X63238095Y-99852438D02*
X63285714Y-99900057D01*
X63285714Y-99900057D02*
X63333333Y-99995295D01*
X63333333Y-99995295D02*
X63333333Y-100138152D01*
X63333333Y-100138152D02*
X63285714Y-100233390D01*
X63285714Y-100233390D02*
X63238095Y-100281009D01*
X63238095Y-100281009D02*
X63142857Y-100328628D01*
X63142857Y-100328628D02*
X62761905Y-100328628D01*
X64190476Y-100138152D02*
X64190476Y-100804819D01*
X63952381Y-99757200D02*
X63714286Y-100471485D01*
X63714286Y-100471485D02*
X64333333Y-100471485D01*
X72333333Y-90304819D02*
X72000000Y-89828628D01*
X71761905Y-90304819D02*
X71761905Y-89304819D01*
X71761905Y-89304819D02*
X72142857Y-89304819D01*
X72142857Y-89304819D02*
X72238095Y-89352438D01*
X72238095Y-89352438D02*
X72285714Y-89400057D01*
X72285714Y-89400057D02*
X72333333Y-89495295D01*
X72333333Y-89495295D02*
X72333333Y-89638152D01*
X72333333Y-89638152D02*
X72285714Y-89733390D01*
X72285714Y-89733390D02*
X72238095Y-89781009D01*
X72238095Y-89781009D02*
X72142857Y-89828628D01*
X72142857Y-89828628D02*
X71761905Y-89828628D01*
X72809524Y-90304819D02*
X73000000Y-90304819D01*
X73000000Y-90304819D02*
X73095238Y-90257200D01*
X73095238Y-90257200D02*
X73142857Y-90209580D01*
X73142857Y-90209580D02*
X73238095Y-90066723D01*
X73238095Y-90066723D02*
X73285714Y-89876247D01*
X73285714Y-89876247D02*
X73285714Y-89495295D01*
X73285714Y-89495295D02*
X73238095Y-89400057D01*
X73238095Y-89400057D02*
X73190476Y-89352438D01*
X73190476Y-89352438D02*
X73095238Y-89304819D01*
X73095238Y-89304819D02*
X72904762Y-89304819D01*
X72904762Y-89304819D02*
X72809524Y-89352438D01*
X72809524Y-89352438D02*
X72761905Y-89400057D01*
X72761905Y-89400057D02*
X72714286Y-89495295D01*
X72714286Y-89495295D02*
X72714286Y-89733390D01*
X72714286Y-89733390D02*
X72761905Y-89828628D01*
X72761905Y-89828628D02*
X72809524Y-89876247D01*
X72809524Y-89876247D02*
X72904762Y-89923866D01*
X72904762Y-89923866D02*
X73095238Y-89923866D01*
X73095238Y-89923866D02*
X73190476Y-89876247D01*
X73190476Y-89876247D02*
X73238095Y-89828628D01*
X73238095Y-89828628D02*
X73285714Y-89733390D01*
X62857142Y-107804819D02*
X62523809Y-107328628D01*
X62285714Y-107804819D02*
X62285714Y-106804819D01*
X62285714Y-106804819D02*
X62666666Y-106804819D01*
X62666666Y-106804819D02*
X62761904Y-106852438D01*
X62761904Y-106852438D02*
X62809523Y-106900057D01*
X62809523Y-106900057D02*
X62857142Y-106995295D01*
X62857142Y-106995295D02*
X62857142Y-107138152D01*
X62857142Y-107138152D02*
X62809523Y-107233390D01*
X62809523Y-107233390D02*
X62761904Y-107281009D01*
X62761904Y-107281009D02*
X62666666Y-107328628D01*
X62666666Y-107328628D02*
X62285714Y-107328628D01*
X63809523Y-107804819D02*
X63238095Y-107804819D01*
X63523809Y-107804819D02*
X63523809Y-106804819D01*
X63523809Y-106804819D02*
X63428571Y-106947676D01*
X63428571Y-106947676D02*
X63333333Y-107042914D01*
X63333333Y-107042914D02*
X63238095Y-107090533D01*
X64666666Y-106804819D02*
X64476190Y-106804819D01*
X64476190Y-106804819D02*
X64380952Y-106852438D01*
X64380952Y-106852438D02*
X64333333Y-106900057D01*
X64333333Y-106900057D02*
X64238095Y-107042914D01*
X64238095Y-107042914D02*
X64190476Y-107233390D01*
X64190476Y-107233390D02*
X64190476Y-107614342D01*
X64190476Y-107614342D02*
X64238095Y-107709580D01*
X64238095Y-107709580D02*
X64285714Y-107757200D01*
X64285714Y-107757200D02*
X64380952Y-107804819D01*
X64380952Y-107804819D02*
X64571428Y-107804819D01*
X64571428Y-107804819D02*
X64666666Y-107757200D01*
X64666666Y-107757200D02*
X64714285Y-107709580D01*
X64714285Y-107709580D02*
X64761904Y-107614342D01*
X64761904Y-107614342D02*
X64761904Y-107376247D01*
X64761904Y-107376247D02*
X64714285Y-107281009D01*
X64714285Y-107281009D02*
X64666666Y-107233390D01*
X64666666Y-107233390D02*
X64571428Y-107185771D01*
X64571428Y-107185771D02*
X64380952Y-107185771D01*
X64380952Y-107185771D02*
X64285714Y-107233390D01*
X64285714Y-107233390D02*
X64238095Y-107281009D01*
X64238095Y-107281009D02*
X64190476Y-107376247D01*
X71857142Y-107804819D02*
X71523809Y-107328628D01*
X71285714Y-107804819D02*
X71285714Y-106804819D01*
X71285714Y-106804819D02*
X71666666Y-106804819D01*
X71666666Y-106804819D02*
X71761904Y-106852438D01*
X71761904Y-106852438D02*
X71809523Y-106900057D01*
X71809523Y-106900057D02*
X71857142Y-106995295D01*
X71857142Y-106995295D02*
X71857142Y-107138152D01*
X71857142Y-107138152D02*
X71809523Y-107233390D01*
X71809523Y-107233390D02*
X71761904Y-107281009D01*
X71761904Y-107281009D02*
X71666666Y-107328628D01*
X71666666Y-107328628D02*
X71285714Y-107328628D01*
X72809523Y-107804819D02*
X72238095Y-107804819D01*
X72523809Y-107804819D02*
X72523809Y-106804819D01*
X72523809Y-106804819D02*
X72428571Y-106947676D01*
X72428571Y-106947676D02*
X72333333Y-107042914D01*
X72333333Y-107042914D02*
X72238095Y-107090533D01*
X73190476Y-106900057D02*
X73238095Y-106852438D01*
X73238095Y-106852438D02*
X73333333Y-106804819D01*
X73333333Y-106804819D02*
X73571428Y-106804819D01*
X73571428Y-106804819D02*
X73666666Y-106852438D01*
X73666666Y-106852438D02*
X73714285Y-106900057D01*
X73714285Y-106900057D02*
X73761904Y-106995295D01*
X73761904Y-106995295D02*
X73761904Y-107090533D01*
X73761904Y-107090533D02*
X73714285Y-107233390D01*
X73714285Y-107233390D02*
X73142857Y-107804819D01*
X73142857Y-107804819D02*
X73761904Y-107804819D01*
X62857142Y-111304819D02*
X62523809Y-110828628D01*
X62285714Y-111304819D02*
X62285714Y-110304819D01*
X62285714Y-110304819D02*
X62666666Y-110304819D01*
X62666666Y-110304819D02*
X62761904Y-110352438D01*
X62761904Y-110352438D02*
X62809523Y-110400057D01*
X62809523Y-110400057D02*
X62857142Y-110495295D01*
X62857142Y-110495295D02*
X62857142Y-110638152D01*
X62857142Y-110638152D02*
X62809523Y-110733390D01*
X62809523Y-110733390D02*
X62761904Y-110781009D01*
X62761904Y-110781009D02*
X62666666Y-110828628D01*
X62666666Y-110828628D02*
X62285714Y-110828628D01*
X63809523Y-111304819D02*
X63238095Y-111304819D01*
X63523809Y-111304819D02*
X63523809Y-110304819D01*
X63523809Y-110304819D02*
X63428571Y-110447676D01*
X63428571Y-110447676D02*
X63333333Y-110542914D01*
X63333333Y-110542914D02*
X63238095Y-110590533D01*
X64142857Y-110304819D02*
X64761904Y-110304819D01*
X64761904Y-110304819D02*
X64428571Y-110685771D01*
X64428571Y-110685771D02*
X64571428Y-110685771D01*
X64571428Y-110685771D02*
X64666666Y-110733390D01*
X64666666Y-110733390D02*
X64714285Y-110781009D01*
X64714285Y-110781009D02*
X64761904Y-110876247D01*
X64761904Y-110876247D02*
X64761904Y-111114342D01*
X64761904Y-111114342D02*
X64714285Y-111209580D01*
X64714285Y-111209580D02*
X64666666Y-111257200D01*
X64666666Y-111257200D02*
X64571428Y-111304819D01*
X64571428Y-111304819D02*
X64285714Y-111304819D01*
X64285714Y-111304819D02*
X64190476Y-111257200D01*
X64190476Y-111257200D02*
X64142857Y-111209580D01*
X63333333Y-97304819D02*
X63000000Y-96828628D01*
X62761905Y-97304819D02*
X62761905Y-96304819D01*
X62761905Y-96304819D02*
X63142857Y-96304819D01*
X63142857Y-96304819D02*
X63238095Y-96352438D01*
X63238095Y-96352438D02*
X63285714Y-96400057D01*
X63285714Y-96400057D02*
X63333333Y-96495295D01*
X63333333Y-96495295D02*
X63333333Y-96638152D01*
X63333333Y-96638152D02*
X63285714Y-96733390D01*
X63285714Y-96733390D02*
X63238095Y-96781009D01*
X63238095Y-96781009D02*
X63142857Y-96828628D01*
X63142857Y-96828628D02*
X62761905Y-96828628D01*
X63666667Y-96304819D02*
X64285714Y-96304819D01*
X64285714Y-96304819D02*
X63952381Y-96685771D01*
X63952381Y-96685771D02*
X64095238Y-96685771D01*
X64095238Y-96685771D02*
X64190476Y-96733390D01*
X64190476Y-96733390D02*
X64238095Y-96781009D01*
X64238095Y-96781009D02*
X64285714Y-96876247D01*
X64285714Y-96876247D02*
X64285714Y-97114342D01*
X64285714Y-97114342D02*
X64238095Y-97209580D01*
X64238095Y-97209580D02*
X64190476Y-97257200D01*
X64190476Y-97257200D02*
X64095238Y-97304819D01*
X64095238Y-97304819D02*
X63809524Y-97304819D01*
X63809524Y-97304819D02*
X63714286Y-97257200D01*
X63714286Y-97257200D02*
X63666667Y-97209580D01*
X63333333Y-93804819D02*
X63000000Y-93328628D01*
X62761905Y-93804819D02*
X62761905Y-92804819D01*
X62761905Y-92804819D02*
X63142857Y-92804819D01*
X63142857Y-92804819D02*
X63238095Y-92852438D01*
X63238095Y-92852438D02*
X63285714Y-92900057D01*
X63285714Y-92900057D02*
X63333333Y-92995295D01*
X63333333Y-92995295D02*
X63333333Y-93138152D01*
X63333333Y-93138152D02*
X63285714Y-93233390D01*
X63285714Y-93233390D02*
X63238095Y-93281009D01*
X63238095Y-93281009D02*
X63142857Y-93328628D01*
X63142857Y-93328628D02*
X62761905Y-93328628D01*
X63714286Y-92900057D02*
X63761905Y-92852438D01*
X63761905Y-92852438D02*
X63857143Y-92804819D01*
X63857143Y-92804819D02*
X64095238Y-92804819D01*
X64095238Y-92804819D02*
X64190476Y-92852438D01*
X64190476Y-92852438D02*
X64238095Y-92900057D01*
X64238095Y-92900057D02*
X64285714Y-92995295D01*
X64285714Y-92995295D02*
X64285714Y-93090533D01*
X64285714Y-93090533D02*
X64238095Y-93233390D01*
X64238095Y-93233390D02*
X63666667Y-93804819D01*
X63666667Y-93804819D02*
X64285714Y-93804819D01*
X76795833Y-104179580D02*
X76748214Y-104227200D01*
X76748214Y-104227200D02*
X76605357Y-104274819D01*
X76605357Y-104274819D02*
X76510119Y-104274819D01*
X76510119Y-104274819D02*
X76367262Y-104227200D01*
X76367262Y-104227200D02*
X76272024Y-104131961D01*
X76272024Y-104131961D02*
X76224405Y-104036723D01*
X76224405Y-104036723D02*
X76176786Y-103846247D01*
X76176786Y-103846247D02*
X76176786Y-103703390D01*
X76176786Y-103703390D02*
X76224405Y-103512914D01*
X76224405Y-103512914D02*
X76272024Y-103417676D01*
X76272024Y-103417676D02*
X76367262Y-103322438D01*
X76367262Y-103322438D02*
X76510119Y-103274819D01*
X76510119Y-103274819D02*
X76605357Y-103274819D01*
X76605357Y-103274819D02*
X76748214Y-103322438D01*
X76748214Y-103322438D02*
X76795833Y-103370057D01*
X77652976Y-103608152D02*
X77652976Y-104274819D01*
X77414881Y-103227200D02*
X77176786Y-103941485D01*
X77176786Y-103941485D02*
X77795833Y-103941485D01*
X81370833Y-100679580D02*
X81323214Y-100727200D01*
X81323214Y-100727200D02*
X81180357Y-100774819D01*
X81180357Y-100774819D02*
X81085119Y-100774819D01*
X81085119Y-100774819D02*
X80942262Y-100727200D01*
X80942262Y-100727200D02*
X80847024Y-100631961D01*
X80847024Y-100631961D02*
X80799405Y-100536723D01*
X80799405Y-100536723D02*
X80751786Y-100346247D01*
X80751786Y-100346247D02*
X80751786Y-100203390D01*
X80751786Y-100203390D02*
X80799405Y-100012914D01*
X80799405Y-100012914D02*
X80847024Y-99917676D01*
X80847024Y-99917676D02*
X80942262Y-99822438D01*
X80942262Y-99822438D02*
X81085119Y-99774819D01*
X81085119Y-99774819D02*
X81180357Y-99774819D01*
X81180357Y-99774819D02*
X81323214Y-99822438D01*
X81323214Y-99822438D02*
X81370833Y-99870057D01*
X82227976Y-99774819D02*
X82037500Y-99774819D01*
X82037500Y-99774819D02*
X81942262Y-99822438D01*
X81942262Y-99822438D02*
X81894643Y-99870057D01*
X81894643Y-99870057D02*
X81799405Y-100012914D01*
X81799405Y-100012914D02*
X81751786Y-100203390D01*
X81751786Y-100203390D02*
X81751786Y-100584342D01*
X81751786Y-100584342D02*
X81799405Y-100679580D01*
X81799405Y-100679580D02*
X81847024Y-100727200D01*
X81847024Y-100727200D02*
X81942262Y-100774819D01*
X81942262Y-100774819D02*
X82132738Y-100774819D01*
X82132738Y-100774819D02*
X82227976Y-100727200D01*
X82227976Y-100727200D02*
X82275595Y-100679580D01*
X82275595Y-100679580D02*
X82323214Y-100584342D01*
X82323214Y-100584342D02*
X82323214Y-100346247D01*
X82323214Y-100346247D02*
X82275595Y-100251009D01*
X82275595Y-100251009D02*
X82227976Y-100203390D01*
X82227976Y-100203390D02*
X82132738Y-100155771D01*
X82132738Y-100155771D02*
X81942262Y-100155771D01*
X81942262Y-100155771D02*
X81847024Y-100203390D01*
X81847024Y-100203390D02*
X81799405Y-100251009D01*
X81799405Y-100251009D02*
X81751786Y-100346247D01*
X76319642Y-100679580D02*
X76272023Y-100727200D01*
X76272023Y-100727200D02*
X76129166Y-100774819D01*
X76129166Y-100774819D02*
X76033928Y-100774819D01*
X76033928Y-100774819D02*
X75891071Y-100727200D01*
X75891071Y-100727200D02*
X75795833Y-100631961D01*
X75795833Y-100631961D02*
X75748214Y-100536723D01*
X75748214Y-100536723D02*
X75700595Y-100346247D01*
X75700595Y-100346247D02*
X75700595Y-100203390D01*
X75700595Y-100203390D02*
X75748214Y-100012914D01*
X75748214Y-100012914D02*
X75795833Y-99917676D01*
X75795833Y-99917676D02*
X75891071Y-99822438D01*
X75891071Y-99822438D02*
X76033928Y-99774819D01*
X76033928Y-99774819D02*
X76129166Y-99774819D01*
X76129166Y-99774819D02*
X76272023Y-99822438D01*
X76272023Y-99822438D02*
X76319642Y-99870057D01*
X77272023Y-100774819D02*
X76700595Y-100774819D01*
X76986309Y-100774819D02*
X76986309Y-99774819D01*
X76986309Y-99774819D02*
X76891071Y-99917676D01*
X76891071Y-99917676D02*
X76795833Y-100012914D01*
X76795833Y-100012914D02*
X76700595Y-100060533D01*
X78224404Y-100774819D02*
X77652976Y-100774819D01*
X77938690Y-100774819D02*
X77938690Y-99774819D01*
X77938690Y-99774819D02*
X77843452Y-99917676D01*
X77843452Y-99917676D02*
X77748214Y-100012914D01*
X77748214Y-100012914D02*
X77652976Y-100060533D01*
X81295833Y-107679580D02*
X81248214Y-107727200D01*
X81248214Y-107727200D02*
X81105357Y-107774819D01*
X81105357Y-107774819D02*
X81010119Y-107774819D01*
X81010119Y-107774819D02*
X80867262Y-107727200D01*
X80867262Y-107727200D02*
X80772024Y-107631961D01*
X80772024Y-107631961D02*
X80724405Y-107536723D01*
X80724405Y-107536723D02*
X80676786Y-107346247D01*
X80676786Y-107346247D02*
X80676786Y-107203390D01*
X80676786Y-107203390D02*
X80724405Y-107012914D01*
X80724405Y-107012914D02*
X80772024Y-106917676D01*
X80772024Y-106917676D02*
X80867262Y-106822438D01*
X80867262Y-106822438D02*
X81010119Y-106774819D01*
X81010119Y-106774819D02*
X81105357Y-106774819D01*
X81105357Y-106774819D02*
X81248214Y-106822438D01*
X81248214Y-106822438D02*
X81295833Y-106870057D01*
X81629167Y-106774819D02*
X82295833Y-106774819D01*
X82295833Y-106774819D02*
X81867262Y-107774819D01*
X71857142Y-93804819D02*
X71523809Y-93328628D01*
X71285714Y-93804819D02*
X71285714Y-92804819D01*
X71285714Y-92804819D02*
X71666666Y-92804819D01*
X71666666Y-92804819D02*
X71761904Y-92852438D01*
X71761904Y-92852438D02*
X71809523Y-92900057D01*
X71809523Y-92900057D02*
X71857142Y-92995295D01*
X71857142Y-92995295D02*
X71857142Y-93138152D01*
X71857142Y-93138152D02*
X71809523Y-93233390D01*
X71809523Y-93233390D02*
X71761904Y-93281009D01*
X71761904Y-93281009D02*
X71666666Y-93328628D01*
X71666666Y-93328628D02*
X71285714Y-93328628D01*
X72809523Y-93804819D02*
X72238095Y-93804819D01*
X72523809Y-93804819D02*
X72523809Y-92804819D01*
X72523809Y-92804819D02*
X72428571Y-92947676D01*
X72428571Y-92947676D02*
X72333333Y-93042914D01*
X72333333Y-93042914D02*
X72238095Y-93090533D01*
X73428571Y-92804819D02*
X73523809Y-92804819D01*
X73523809Y-92804819D02*
X73619047Y-92852438D01*
X73619047Y-92852438D02*
X73666666Y-92900057D01*
X73666666Y-92900057D02*
X73714285Y-92995295D01*
X73714285Y-92995295D02*
X73761904Y-93185771D01*
X73761904Y-93185771D02*
X73761904Y-93423866D01*
X73761904Y-93423866D02*
X73714285Y-93614342D01*
X73714285Y-93614342D02*
X73666666Y-93709580D01*
X73666666Y-93709580D02*
X73619047Y-93757200D01*
X73619047Y-93757200D02*
X73523809Y-93804819D01*
X73523809Y-93804819D02*
X73428571Y-93804819D01*
X73428571Y-93804819D02*
X73333333Y-93757200D01*
X73333333Y-93757200D02*
X73285714Y-93709580D01*
X73285714Y-93709580D02*
X73238095Y-93614342D01*
X73238095Y-93614342D02*
X73190476Y-93423866D01*
X73190476Y-93423866D02*
X73190476Y-93185771D01*
X73190476Y-93185771D02*
X73238095Y-92995295D01*
X73238095Y-92995295D02*
X73285714Y-92900057D01*
X73285714Y-92900057D02*
X73333333Y-92852438D01*
X73333333Y-92852438D02*
X73428571Y-92804819D01*
X62857142Y-104304819D02*
X62523809Y-103828628D01*
X62285714Y-104304819D02*
X62285714Y-103304819D01*
X62285714Y-103304819D02*
X62666666Y-103304819D01*
X62666666Y-103304819D02*
X62761904Y-103352438D01*
X62761904Y-103352438D02*
X62809523Y-103400057D01*
X62809523Y-103400057D02*
X62857142Y-103495295D01*
X62857142Y-103495295D02*
X62857142Y-103638152D01*
X62857142Y-103638152D02*
X62809523Y-103733390D01*
X62809523Y-103733390D02*
X62761904Y-103781009D01*
X62761904Y-103781009D02*
X62666666Y-103828628D01*
X62666666Y-103828628D02*
X62285714Y-103828628D01*
X63809523Y-104304819D02*
X63238095Y-104304819D01*
X63523809Y-104304819D02*
X63523809Y-103304819D01*
X63523809Y-103304819D02*
X63428571Y-103447676D01*
X63428571Y-103447676D02*
X63333333Y-103542914D01*
X63333333Y-103542914D02*
X63238095Y-103590533D01*
X64714285Y-103304819D02*
X64238095Y-103304819D01*
X64238095Y-103304819D02*
X64190476Y-103781009D01*
X64190476Y-103781009D02*
X64238095Y-103733390D01*
X64238095Y-103733390D02*
X64333333Y-103685771D01*
X64333333Y-103685771D02*
X64571428Y-103685771D01*
X64571428Y-103685771D02*
X64666666Y-103733390D01*
X64666666Y-103733390D02*
X64714285Y-103781009D01*
X64714285Y-103781009D02*
X64761904Y-103876247D01*
X64761904Y-103876247D02*
X64761904Y-104114342D01*
X64761904Y-104114342D02*
X64714285Y-104209580D01*
X64714285Y-104209580D02*
X64666666Y-104257200D01*
X64666666Y-104257200D02*
X64571428Y-104304819D01*
X64571428Y-104304819D02*
X64333333Y-104304819D01*
X64333333Y-104304819D02*
X64238095Y-104257200D01*
X64238095Y-104257200D02*
X64190476Y-104209580D01*
X78954819Y-124761904D02*
X79764342Y-124761904D01*
X79764342Y-124761904D02*
X79859580Y-124714285D01*
X79859580Y-124714285D02*
X79907200Y-124666666D01*
X79907200Y-124666666D02*
X79954819Y-124571428D01*
X79954819Y-124571428D02*
X79954819Y-124380952D01*
X79954819Y-124380952D02*
X79907200Y-124285714D01*
X79907200Y-124285714D02*
X79859580Y-124238095D01*
X79859580Y-124238095D02*
X79764342Y-124190476D01*
X79764342Y-124190476D02*
X78954819Y-124190476D01*
X78954819Y-123809523D02*
X78954819Y-123190476D01*
X78954819Y-123190476D02*
X79335771Y-123523809D01*
X79335771Y-123523809D02*
X79335771Y-123380952D01*
X79335771Y-123380952D02*
X79383390Y-123285714D01*
X79383390Y-123285714D02*
X79431009Y-123238095D01*
X79431009Y-123238095D02*
X79526247Y-123190476D01*
X79526247Y-123190476D02*
X79764342Y-123190476D01*
X79764342Y-123190476D02*
X79859580Y-123238095D01*
X79859580Y-123238095D02*
X79907200Y-123285714D01*
X79907200Y-123285714D02*
X79954819Y-123380952D01*
X79954819Y-123380952D02*
X79954819Y-123666666D01*
X79954819Y-123666666D02*
X79907200Y-123761904D01*
X79907200Y-123761904D02*
X79859580Y-123809523D01*
X99454819Y-110307618D02*
X100454819Y-109974285D01*
X100454819Y-109974285D02*
X99454819Y-109640952D01*
X99454819Y-109117142D02*
X99454819Y-108926666D01*
X99454819Y-108926666D02*
X99502438Y-108831428D01*
X99502438Y-108831428D02*
X99597676Y-108736190D01*
X99597676Y-108736190D02*
X99788152Y-108688571D01*
X99788152Y-108688571D02*
X100121485Y-108688571D01*
X100121485Y-108688571D02*
X100311961Y-108736190D01*
X100311961Y-108736190D02*
X100407200Y-108831428D01*
X100407200Y-108831428D02*
X100454819Y-108926666D01*
X100454819Y-108926666D02*
X100454819Y-109117142D01*
X100454819Y-109117142D02*
X100407200Y-109212380D01*
X100407200Y-109212380D02*
X100311961Y-109307618D01*
X100311961Y-109307618D02*
X100121485Y-109355237D01*
X100121485Y-109355237D02*
X99788152Y-109355237D01*
X99788152Y-109355237D02*
X99597676Y-109307618D01*
X99597676Y-109307618D02*
X99502438Y-109212380D01*
X99502438Y-109212380D02*
X99454819Y-109117142D01*
X99454819Y-108259999D02*
X100264342Y-108259999D01*
X100264342Y-108259999D02*
X100359580Y-108212380D01*
X100359580Y-108212380D02*
X100407200Y-108164761D01*
X100407200Y-108164761D02*
X100454819Y-108069523D01*
X100454819Y-108069523D02*
X100454819Y-107879047D01*
X100454819Y-107879047D02*
X100407200Y-107783809D01*
X100407200Y-107783809D02*
X100359580Y-107736190D01*
X100359580Y-107736190D02*
X100264342Y-107688571D01*
X100264342Y-107688571D02*
X99454819Y-107688571D01*
X99454819Y-107355237D02*
X99454819Y-106783809D01*
X100454819Y-107069523D02*
X99454819Y-107069523D01*
X100550057Y-106688571D02*
X100550057Y-105926666D01*
X100454819Y-105688570D02*
X99454819Y-105688570D01*
X99454819Y-105688570D02*
X99454819Y-105450475D01*
X99454819Y-105450475D02*
X99502438Y-105307618D01*
X99502438Y-105307618D02*
X99597676Y-105212380D01*
X99597676Y-105212380D02*
X99692914Y-105164761D01*
X99692914Y-105164761D02*
X99883390Y-105117142D01*
X99883390Y-105117142D02*
X100026247Y-105117142D01*
X100026247Y-105117142D02*
X100216723Y-105164761D01*
X100216723Y-105164761D02*
X100311961Y-105212380D01*
X100311961Y-105212380D02*
X100407200Y-105307618D01*
X100407200Y-105307618D02*
X100454819Y-105450475D01*
X100454819Y-105450475D02*
X100454819Y-105688570D01*
X100169104Y-104736189D02*
X100169104Y-104259999D01*
X100454819Y-104831427D02*
X99454819Y-104498094D01*
X99454819Y-104498094D02*
X100454819Y-104164761D01*
X100359580Y-103259999D02*
X100407200Y-103307618D01*
X100407200Y-103307618D02*
X100454819Y-103450475D01*
X100454819Y-103450475D02*
X100454819Y-103545713D01*
X100454819Y-103545713D02*
X100407200Y-103688570D01*
X100407200Y-103688570D02*
X100311961Y-103783808D01*
X100311961Y-103783808D02*
X100216723Y-103831427D01*
X100216723Y-103831427D02*
X100026247Y-103879046D01*
X100026247Y-103879046D02*
X99883390Y-103879046D01*
X99883390Y-103879046D02*
X99692914Y-103831427D01*
X99692914Y-103831427D02*
X99597676Y-103783808D01*
X99597676Y-103783808D02*
X99502438Y-103688570D01*
X99502438Y-103688570D02*
X99454819Y-103545713D01*
X99454819Y-103545713D02*
X99454819Y-103450475D01*
X99454819Y-103450475D02*
X99502438Y-103307618D01*
X99502438Y-103307618D02*
X99550057Y-103259999D01*
X100454819Y-102307618D02*
X100454819Y-102879046D01*
X100454819Y-102593332D02*
X99454819Y-102593332D01*
X99454819Y-102593332D02*
X99597676Y-102688570D01*
X99597676Y-102688570D02*
X99692914Y-102783808D01*
X99692914Y-102783808D02*
X99740533Y-102879046D01*
X67357142Y-107804819D02*
X67023809Y-107328628D01*
X66785714Y-107804819D02*
X66785714Y-106804819D01*
X66785714Y-106804819D02*
X67166666Y-106804819D01*
X67166666Y-106804819D02*
X67261904Y-106852438D01*
X67261904Y-106852438D02*
X67309523Y-106900057D01*
X67309523Y-106900057D02*
X67357142Y-106995295D01*
X67357142Y-106995295D02*
X67357142Y-107138152D01*
X67357142Y-107138152D02*
X67309523Y-107233390D01*
X67309523Y-107233390D02*
X67261904Y-107281009D01*
X67261904Y-107281009D02*
X67166666Y-107328628D01*
X67166666Y-107328628D02*
X66785714Y-107328628D01*
X67738095Y-106900057D02*
X67785714Y-106852438D01*
X67785714Y-106852438D02*
X67880952Y-106804819D01*
X67880952Y-106804819D02*
X68119047Y-106804819D01*
X68119047Y-106804819D02*
X68214285Y-106852438D01*
X68214285Y-106852438D02*
X68261904Y-106900057D01*
X68261904Y-106900057D02*
X68309523Y-106995295D01*
X68309523Y-106995295D02*
X68309523Y-107090533D01*
X68309523Y-107090533D02*
X68261904Y-107233390D01*
X68261904Y-107233390D02*
X67690476Y-107804819D01*
X67690476Y-107804819D02*
X68309523Y-107804819D01*
X69261904Y-107804819D02*
X68690476Y-107804819D01*
X68976190Y-107804819D02*
X68976190Y-106804819D01*
X68976190Y-106804819D02*
X68880952Y-106947676D01*
X68880952Y-106947676D02*
X68785714Y-107042914D01*
X68785714Y-107042914D02*
X68690476Y-107090533D01*
X67833333Y-93804819D02*
X67500000Y-93328628D01*
X67261905Y-93804819D02*
X67261905Y-92804819D01*
X67261905Y-92804819D02*
X67642857Y-92804819D01*
X67642857Y-92804819D02*
X67738095Y-92852438D01*
X67738095Y-92852438D02*
X67785714Y-92900057D01*
X67785714Y-92900057D02*
X67833333Y-92995295D01*
X67833333Y-92995295D02*
X67833333Y-93138152D01*
X67833333Y-93138152D02*
X67785714Y-93233390D01*
X67785714Y-93233390D02*
X67738095Y-93281009D01*
X67738095Y-93281009D02*
X67642857Y-93328628D01*
X67642857Y-93328628D02*
X67261905Y-93328628D01*
X68690476Y-92804819D02*
X68500000Y-92804819D01*
X68500000Y-92804819D02*
X68404762Y-92852438D01*
X68404762Y-92852438D02*
X68357143Y-92900057D01*
X68357143Y-92900057D02*
X68261905Y-93042914D01*
X68261905Y-93042914D02*
X68214286Y-93233390D01*
X68214286Y-93233390D02*
X68214286Y-93614342D01*
X68214286Y-93614342D02*
X68261905Y-93709580D01*
X68261905Y-93709580D02*
X68309524Y-93757200D01*
X68309524Y-93757200D02*
X68404762Y-93804819D01*
X68404762Y-93804819D02*
X68595238Y-93804819D01*
X68595238Y-93804819D02*
X68690476Y-93757200D01*
X68690476Y-93757200D02*
X68738095Y-93709580D01*
X68738095Y-93709580D02*
X68785714Y-93614342D01*
X68785714Y-93614342D02*
X68785714Y-93376247D01*
X68785714Y-93376247D02*
X68738095Y-93281009D01*
X68738095Y-93281009D02*
X68690476Y-93233390D01*
X68690476Y-93233390D02*
X68595238Y-93185771D01*
X68595238Y-93185771D02*
X68404762Y-93185771D01*
X68404762Y-93185771D02*
X68309524Y-93233390D01*
X68309524Y-93233390D02*
X68261905Y-93281009D01*
X68261905Y-93281009D02*
X68214286Y-93376247D01*
X81370833Y-111179580D02*
X81323214Y-111227200D01*
X81323214Y-111227200D02*
X81180357Y-111274819D01*
X81180357Y-111274819D02*
X81085119Y-111274819D01*
X81085119Y-111274819D02*
X80942262Y-111227200D01*
X80942262Y-111227200D02*
X80847024Y-111131961D01*
X80847024Y-111131961D02*
X80799405Y-111036723D01*
X80799405Y-111036723D02*
X80751786Y-110846247D01*
X80751786Y-110846247D02*
X80751786Y-110703390D01*
X80751786Y-110703390D02*
X80799405Y-110512914D01*
X80799405Y-110512914D02*
X80847024Y-110417676D01*
X80847024Y-110417676D02*
X80942262Y-110322438D01*
X80942262Y-110322438D02*
X81085119Y-110274819D01*
X81085119Y-110274819D02*
X81180357Y-110274819D01*
X81180357Y-110274819D02*
X81323214Y-110322438D01*
X81323214Y-110322438D02*
X81370833Y-110370057D01*
X82275595Y-110274819D02*
X81799405Y-110274819D01*
X81799405Y-110274819D02*
X81751786Y-110751009D01*
X81751786Y-110751009D02*
X81799405Y-110703390D01*
X81799405Y-110703390D02*
X81894643Y-110655771D01*
X81894643Y-110655771D02*
X82132738Y-110655771D01*
X82132738Y-110655771D02*
X82227976Y-110703390D01*
X82227976Y-110703390D02*
X82275595Y-110751009D01*
X82275595Y-110751009D02*
X82323214Y-110846247D01*
X82323214Y-110846247D02*
X82323214Y-111084342D01*
X82323214Y-111084342D02*
X82275595Y-111179580D01*
X82275595Y-111179580D02*
X82227976Y-111227200D01*
X82227976Y-111227200D02*
X82132738Y-111274819D01*
X82132738Y-111274819D02*
X81894643Y-111274819D01*
X81894643Y-111274819D02*
X81799405Y-111227200D01*
X81799405Y-111227200D02*
X81751786Y-111179580D01*
X71857142Y-97304819D02*
X71523809Y-96828628D01*
X71285714Y-97304819D02*
X71285714Y-96304819D01*
X71285714Y-96304819D02*
X71666666Y-96304819D01*
X71666666Y-96304819D02*
X71761904Y-96352438D01*
X71761904Y-96352438D02*
X71809523Y-96400057D01*
X71809523Y-96400057D02*
X71857142Y-96495295D01*
X71857142Y-96495295D02*
X71857142Y-96638152D01*
X71857142Y-96638152D02*
X71809523Y-96733390D01*
X71809523Y-96733390D02*
X71761904Y-96781009D01*
X71761904Y-96781009D02*
X71666666Y-96828628D01*
X71666666Y-96828628D02*
X71285714Y-96828628D01*
X72238095Y-96400057D02*
X72285714Y-96352438D01*
X72285714Y-96352438D02*
X72380952Y-96304819D01*
X72380952Y-96304819D02*
X72619047Y-96304819D01*
X72619047Y-96304819D02*
X72714285Y-96352438D01*
X72714285Y-96352438D02*
X72761904Y-96400057D01*
X72761904Y-96400057D02*
X72809523Y-96495295D01*
X72809523Y-96495295D02*
X72809523Y-96590533D01*
X72809523Y-96590533D02*
X72761904Y-96733390D01*
X72761904Y-96733390D02*
X72190476Y-97304819D01*
X72190476Y-97304819D02*
X72809523Y-97304819D01*
X73142857Y-96304819D02*
X73761904Y-96304819D01*
X73761904Y-96304819D02*
X73428571Y-96685771D01*
X73428571Y-96685771D02*
X73571428Y-96685771D01*
X73571428Y-96685771D02*
X73666666Y-96733390D01*
X73666666Y-96733390D02*
X73714285Y-96781009D01*
X73714285Y-96781009D02*
X73761904Y-96876247D01*
X73761904Y-96876247D02*
X73761904Y-97114342D01*
X73761904Y-97114342D02*
X73714285Y-97209580D01*
X73714285Y-97209580D02*
X73666666Y-97257200D01*
X73666666Y-97257200D02*
X73571428Y-97304819D01*
X73571428Y-97304819D02*
X73285714Y-97304819D01*
X73285714Y-97304819D02*
X73190476Y-97257200D01*
X73190476Y-97257200D02*
X73142857Y-97209580D01*
X94407200Y-111387618D02*
X94454819Y-111244761D01*
X94454819Y-111244761D02*
X94454819Y-111006666D01*
X94454819Y-111006666D02*
X94407200Y-110911428D01*
X94407200Y-110911428D02*
X94359580Y-110863809D01*
X94359580Y-110863809D02*
X94264342Y-110816190D01*
X94264342Y-110816190D02*
X94169104Y-110816190D01*
X94169104Y-110816190D02*
X94073866Y-110863809D01*
X94073866Y-110863809D02*
X94026247Y-110911428D01*
X94026247Y-110911428D02*
X93978628Y-111006666D01*
X93978628Y-111006666D02*
X93931009Y-111197142D01*
X93931009Y-111197142D02*
X93883390Y-111292380D01*
X93883390Y-111292380D02*
X93835771Y-111339999D01*
X93835771Y-111339999D02*
X93740533Y-111387618D01*
X93740533Y-111387618D02*
X93645295Y-111387618D01*
X93645295Y-111387618D02*
X93550057Y-111339999D01*
X93550057Y-111339999D02*
X93502438Y-111292380D01*
X93502438Y-111292380D02*
X93454819Y-111197142D01*
X93454819Y-111197142D02*
X93454819Y-110959047D01*
X93454819Y-110959047D02*
X93502438Y-110816190D01*
X94454819Y-110387618D02*
X93454819Y-110387618D01*
X93454819Y-110387618D02*
X93454819Y-110006666D01*
X93454819Y-110006666D02*
X93502438Y-109911428D01*
X93502438Y-109911428D02*
X93550057Y-109863809D01*
X93550057Y-109863809D02*
X93645295Y-109816190D01*
X93645295Y-109816190D02*
X93788152Y-109816190D01*
X93788152Y-109816190D02*
X93883390Y-109863809D01*
X93883390Y-109863809D02*
X93931009Y-109911428D01*
X93931009Y-109911428D02*
X93978628Y-110006666D01*
X93978628Y-110006666D02*
X93978628Y-110387618D01*
X94454819Y-109387618D02*
X93454819Y-109387618D01*
X94454819Y-108911428D02*
X93454819Y-108911428D01*
X93454819Y-108911428D02*
X93454819Y-108530476D01*
X93454819Y-108530476D02*
X93502438Y-108435238D01*
X93502438Y-108435238D02*
X93550057Y-108387619D01*
X93550057Y-108387619D02*
X93645295Y-108340000D01*
X93645295Y-108340000D02*
X93788152Y-108340000D01*
X93788152Y-108340000D02*
X93883390Y-108387619D01*
X93883390Y-108387619D02*
X93931009Y-108435238D01*
X93931009Y-108435238D02*
X93978628Y-108530476D01*
X93978628Y-108530476D02*
X93978628Y-108911428D01*
X94454819Y-107911428D02*
X93454819Y-107911428D01*
X94454819Y-107435238D02*
X93454819Y-107435238D01*
X93454819Y-107435238D02*
X94454819Y-106863810D01*
X94454819Y-106863810D02*
X93454819Y-106863810D01*
X94407200Y-106435238D02*
X94454819Y-106292381D01*
X94454819Y-106292381D02*
X94454819Y-106054286D01*
X94454819Y-106054286D02*
X94407200Y-105959048D01*
X94407200Y-105959048D02*
X94359580Y-105911429D01*
X94359580Y-105911429D02*
X94264342Y-105863810D01*
X94264342Y-105863810D02*
X94169104Y-105863810D01*
X94169104Y-105863810D02*
X94073866Y-105911429D01*
X94073866Y-105911429D02*
X94026247Y-105959048D01*
X94026247Y-105959048D02*
X93978628Y-106054286D01*
X93978628Y-106054286D02*
X93931009Y-106244762D01*
X93931009Y-106244762D02*
X93883390Y-106340000D01*
X93883390Y-106340000D02*
X93835771Y-106387619D01*
X93835771Y-106387619D02*
X93740533Y-106435238D01*
X93740533Y-106435238D02*
X93645295Y-106435238D01*
X93645295Y-106435238D02*
X93550057Y-106387619D01*
X93550057Y-106387619D02*
X93502438Y-106340000D01*
X93502438Y-106340000D02*
X93454819Y-106244762D01*
X93454819Y-106244762D02*
X93454819Y-106006667D01*
X93454819Y-106006667D02*
X93502438Y-105863810D01*
X94550057Y-105673334D02*
X94550057Y-104911429D01*
X94454819Y-104673333D02*
X93454819Y-104673333D01*
X93454819Y-104673333D02*
X93454819Y-104435238D01*
X93454819Y-104435238D02*
X93502438Y-104292381D01*
X93502438Y-104292381D02*
X93597676Y-104197143D01*
X93597676Y-104197143D02*
X93692914Y-104149524D01*
X93692914Y-104149524D02*
X93883390Y-104101905D01*
X93883390Y-104101905D02*
X94026247Y-104101905D01*
X94026247Y-104101905D02*
X94216723Y-104149524D01*
X94216723Y-104149524D02*
X94311961Y-104197143D01*
X94311961Y-104197143D02*
X94407200Y-104292381D01*
X94407200Y-104292381D02*
X94454819Y-104435238D01*
X94454819Y-104435238D02*
X94454819Y-104673333D01*
X94169104Y-103720952D02*
X94169104Y-103244762D01*
X94454819Y-103816190D02*
X93454819Y-103482857D01*
X93454819Y-103482857D02*
X94454819Y-103149524D01*
X94359580Y-102244762D02*
X94407200Y-102292381D01*
X94407200Y-102292381D02*
X94454819Y-102435238D01*
X94454819Y-102435238D02*
X94454819Y-102530476D01*
X94454819Y-102530476D02*
X94407200Y-102673333D01*
X94407200Y-102673333D02*
X94311961Y-102768571D01*
X94311961Y-102768571D02*
X94216723Y-102816190D01*
X94216723Y-102816190D02*
X94026247Y-102863809D01*
X94026247Y-102863809D02*
X93883390Y-102863809D01*
X93883390Y-102863809D02*
X93692914Y-102816190D01*
X93692914Y-102816190D02*
X93597676Y-102768571D01*
X93597676Y-102768571D02*
X93502438Y-102673333D01*
X93502438Y-102673333D02*
X93454819Y-102530476D01*
X93454819Y-102530476D02*
X93454819Y-102435238D01*
X93454819Y-102435238D02*
X93502438Y-102292381D01*
X93502438Y-102292381D02*
X93550057Y-102244762D01*
X94454819Y-101292381D02*
X94454819Y-101863809D01*
X94454819Y-101578095D02*
X93454819Y-101578095D01*
X93454819Y-101578095D02*
X93597676Y-101673333D01*
X93597676Y-101673333D02*
X93692914Y-101768571D01*
X93692914Y-101768571D02*
X93740533Y-101863809D01*
X71857142Y-104304819D02*
X71523809Y-103828628D01*
X71285714Y-104304819D02*
X71285714Y-103304819D01*
X71285714Y-103304819D02*
X71666666Y-103304819D01*
X71666666Y-103304819D02*
X71761904Y-103352438D01*
X71761904Y-103352438D02*
X71809523Y-103400057D01*
X71809523Y-103400057D02*
X71857142Y-103495295D01*
X71857142Y-103495295D02*
X71857142Y-103638152D01*
X71857142Y-103638152D02*
X71809523Y-103733390D01*
X71809523Y-103733390D02*
X71761904Y-103781009D01*
X71761904Y-103781009D02*
X71666666Y-103828628D01*
X71666666Y-103828628D02*
X71285714Y-103828628D01*
X72809523Y-104304819D02*
X72238095Y-104304819D01*
X72523809Y-104304819D02*
X72523809Y-103304819D01*
X72523809Y-103304819D02*
X72428571Y-103447676D01*
X72428571Y-103447676D02*
X72333333Y-103542914D01*
X72333333Y-103542914D02*
X72238095Y-103590533D01*
X73761904Y-104304819D02*
X73190476Y-104304819D01*
X73476190Y-104304819D02*
X73476190Y-103304819D01*
X73476190Y-103304819D02*
X73380952Y-103447676D01*
X73380952Y-103447676D02*
X73285714Y-103542914D01*
X73285714Y-103542914D02*
X73190476Y-103590533D01*
X76795833Y-107679580D02*
X76748214Y-107727200D01*
X76748214Y-107727200D02*
X76605357Y-107774819D01*
X76605357Y-107774819D02*
X76510119Y-107774819D01*
X76510119Y-107774819D02*
X76367262Y-107727200D01*
X76367262Y-107727200D02*
X76272024Y-107631961D01*
X76272024Y-107631961D02*
X76224405Y-107536723D01*
X76224405Y-107536723D02*
X76176786Y-107346247D01*
X76176786Y-107346247D02*
X76176786Y-107203390D01*
X76176786Y-107203390D02*
X76224405Y-107012914D01*
X76224405Y-107012914D02*
X76272024Y-106917676D01*
X76272024Y-106917676D02*
X76367262Y-106822438D01*
X76367262Y-106822438D02*
X76510119Y-106774819D01*
X76510119Y-106774819D02*
X76605357Y-106774819D01*
X76605357Y-106774819D02*
X76748214Y-106822438D01*
X76748214Y-106822438D02*
X76795833Y-106870057D01*
X77129167Y-106774819D02*
X77748214Y-106774819D01*
X77748214Y-106774819D02*
X77414881Y-107155771D01*
X77414881Y-107155771D02*
X77557738Y-107155771D01*
X77557738Y-107155771D02*
X77652976Y-107203390D01*
X77652976Y-107203390D02*
X77700595Y-107251009D01*
X77700595Y-107251009D02*
X77748214Y-107346247D01*
X77748214Y-107346247D02*
X77748214Y-107584342D01*
X77748214Y-107584342D02*
X77700595Y-107679580D01*
X77700595Y-107679580D02*
X77652976Y-107727200D01*
X77652976Y-107727200D02*
X77557738Y-107774819D01*
X77557738Y-107774819D02*
X77272024Y-107774819D01*
X77272024Y-107774819D02*
X77176786Y-107727200D01*
X77176786Y-107727200D02*
X77129167Y-107679580D01*
D12*
%TO.C,U1*%
X75620000Y-119365000D02*
X73280000Y-119365000D01*
X75620000Y-128015000D02*
X73280000Y-128015000D01*
D13*
X78700000Y-127490000D02*
G75*
G02*
X78500000Y-127490000I-100000J0D01*
G01*
X78500000Y-127490000D02*
G75*
G02*
X78700000Y-127490000I100000J0D01*
G01*
D14*
%TO.C,R22*%
X67772936Y-104765000D02*
X68227064Y-104765000D01*
X67772936Y-106235000D02*
X68227064Y-106235000D01*
%TO.C,R20*%
X67772936Y-111765000D02*
X68227064Y-111765000D01*
X67772936Y-113235000D02*
X68227064Y-113235000D01*
%TO.C,C9*%
X76701248Y-94265000D02*
X77223752Y-94265000D01*
X76701248Y-95735000D02*
X77223752Y-95735000D01*
%TO.C,R19*%
X67772936Y-115265000D02*
X68227064Y-115265000D01*
X67772936Y-116735000D02*
X68227064Y-116735000D01*
%TO.C,C8*%
X76701248Y-90765000D02*
X77223752Y-90765000D01*
X76701248Y-92235000D02*
X77223752Y-92235000D01*
%TO.C,R14*%
X63272936Y-115265000D02*
X63727064Y-115265000D01*
X63272936Y-116735000D02*
X63727064Y-116735000D01*
D12*
%TO.C,U2*%
X63805000Y-119215000D02*
X66145000Y-119215000D01*
X63805000Y-127865000D02*
X66145000Y-127865000D01*
D13*
X60925000Y-119740000D02*
G75*
G02*
X60725000Y-119740000I-100000J0D01*
G01*
X60725000Y-119740000D02*
G75*
G02*
X60925000Y-119740000I100000J0D01*
G01*
D14*
%TO.C,R18*%
X81272936Y-90765000D02*
X81727064Y-90765000D01*
X81272936Y-92235000D02*
X81727064Y-92235000D01*
D15*
%TO.C,LOGOV*%
G36*
X100318045Y-123708986D02*
G01*
X100318045Y-124284184D01*
X99633285Y-124284184D01*
X98948526Y-124284184D01*
X98948526Y-125909346D01*
X98948526Y-127534508D01*
X98163336Y-127534508D01*
X97378145Y-127534508D01*
X97378145Y-125909346D01*
X97378145Y-124284184D01*
X96693386Y-124284184D01*
X96008627Y-124284184D01*
X96008627Y-123708986D01*
X96008627Y-123133789D01*
X98163336Y-123133789D01*
X100318045Y-123133789D01*
X100318045Y-123708986D01*
G37*
G36*
X97560748Y-118349605D02*
G01*
X97560748Y-119153055D01*
X98154206Y-119153055D01*
X98747664Y-119153055D01*
X98747664Y-118349605D01*
X98747664Y-117546154D01*
X99532854Y-117546154D01*
X100318045Y-117546154D01*
X100318045Y-119746513D01*
X100318045Y-121946873D01*
X99532854Y-121946873D01*
X98747664Y-121946873D01*
X98747664Y-121134292D01*
X98747664Y-120321711D01*
X98154206Y-120321711D01*
X97560748Y-120321711D01*
X97560748Y-121134292D01*
X97560748Y-121946873D01*
X96784687Y-121946873D01*
X96008627Y-121946873D01*
X96008627Y-119746513D01*
X96008627Y-117546154D01*
X96784687Y-117546154D01*
X97560748Y-117546154D01*
X97560748Y-118349605D01*
G37*
G36*
X100706911Y-126164061D02*
G01*
X100868538Y-126204750D01*
X101010015Y-126269710D01*
X101128443Y-126357744D01*
X101220925Y-126467654D01*
X101262739Y-126543568D01*
X101294391Y-126640011D01*
X101314295Y-126758194D01*
X101321359Y-126884926D01*
X101314495Y-127007016D01*
X101305567Y-127061869D01*
X101258618Y-127201545D01*
X101180903Y-127323963D01*
X101075345Y-127425964D01*
X100944867Y-127504390D01*
X100867803Y-127534919D01*
X100747557Y-127564101D01*
X100606464Y-127580967D01*
X100458193Y-127585126D01*
X100316415Y-127576187D01*
X100196140Y-127554124D01*
X100092152Y-127522724D01*
X100012711Y-127489881D01*
X99946099Y-127449848D01*
X99887010Y-127402552D01*
X99796165Y-127303399D01*
X99732351Y-127187593D01*
X99694332Y-127051640D01*
X99680871Y-126892043D01*
X99681998Y-126822980D01*
X99687076Y-126733266D01*
X99695766Y-126666936D01*
X99710997Y-126610858D01*
X99735699Y-126551902D01*
X99748307Y-126525751D01*
X99826624Y-126403155D01*
X99929213Y-126305510D01*
X100057432Y-126231970D01*
X100212641Y-126181687D01*
X100334799Y-126160283D01*
X100528032Y-126148840D01*
X100706911Y-126164061D01*
G37*
G36*
X87473993Y-117550538D02*
G01*
X88325125Y-117555284D01*
X88843206Y-118541337D01*
X88939317Y-118724812D01*
X89033118Y-118904917D01*
X89122725Y-119077969D01*
X89206253Y-119240283D01*
X89281820Y-119388174D01*
X89347541Y-119517959D01*
X89401534Y-119625952D01*
X89441913Y-119708471D01*
X89464042Y-119755643D01*
X89502649Y-119841058D01*
X89536590Y-119915515D01*
X89562708Y-119972133D01*
X89577845Y-120004028D01*
X89579547Y-120007340D01*
X89581576Y-119993590D01*
X89583278Y-119946210D01*
X89584640Y-119868091D01*
X89585651Y-119762121D01*
X89586299Y-119631190D01*
X89586575Y-119478189D01*
X89586466Y-119306005D01*
X89585960Y-119117530D01*
X89585048Y-118915653D01*
X89584295Y-118788469D01*
X89576296Y-117546154D01*
X90254287Y-117546154D01*
X90932279Y-117546154D01*
X90932279Y-119746513D01*
X90932279Y-121946873D01*
X90087743Y-121946786D01*
X89243206Y-121946699D01*
X88716065Y-120944694D01*
X88618791Y-120759141D01*
X88523648Y-120576419D01*
X88432535Y-120400249D01*
X88347348Y-120234358D01*
X88269986Y-120082468D01*
X88202346Y-119948304D01*
X88146326Y-119835589D01*
X88103823Y-119748048D01*
X88078657Y-119693775D01*
X88040071Y-119607315D01*
X88007052Y-119534544D01*
X87982208Y-119481117D01*
X87968149Y-119452691D01*
X87965985Y-119449606D01*
X87965839Y-119468424D01*
X87966798Y-119518323D01*
X87968720Y-119593884D01*
X87971465Y-119689690D01*
X87974891Y-119800321D01*
X87976103Y-119837815D01*
X87978795Y-119938523D01*
X87981376Y-120069748D01*
X87983775Y-120225485D01*
X87985923Y-120399729D01*
X87987751Y-120586476D01*
X87989190Y-120779721D01*
X87990170Y-120973461D01*
X87990502Y-121084076D01*
X87992380Y-121946873D01*
X87307620Y-121946873D01*
X86622861Y-121946873D01*
X86622861Y-119746333D01*
X86622861Y-117545793D01*
X87473993Y-117550538D01*
G37*
G36*
X92963397Y-124553523D02*
G01*
X92964366Y-124826465D01*
X92965263Y-125065394D01*
X92966330Y-125272815D01*
X92967811Y-125451234D01*
X92969948Y-125603156D01*
X92972983Y-125731087D01*
X92977160Y-125837533D01*
X92982721Y-125924998D01*
X92989910Y-125995989D01*
X92998968Y-126053012D01*
X93010139Y-126098571D01*
X93023665Y-126135173D01*
X93039789Y-126165323D01*
X93058754Y-126191527D01*
X93080803Y-126216290D01*
X93106178Y-126242118D01*
X93129260Y-126265461D01*
X93224309Y-126344921D01*
X93328703Y-126394623D01*
X93449083Y-126416860D01*
X93565979Y-126416092D01*
X93708101Y-126389861D01*
X93830227Y-126333851D01*
X93930343Y-126249582D01*
X94006434Y-126138572D01*
X94040093Y-126058665D01*
X94044604Y-126036397D01*
X94048624Y-125996391D01*
X94052189Y-125936746D01*
X94055335Y-125855559D01*
X94058097Y-125750928D01*
X94060513Y-125620949D01*
X94062619Y-125463720D01*
X94064450Y-125277339D01*
X94066042Y-125059903D01*
X94067432Y-124809509D01*
X94068508Y-124562653D01*
X94074107Y-123133789D01*
X94859672Y-123133789D01*
X95645238Y-123133789D01*
X95638633Y-124590043D01*
X95637410Y-124855059D01*
X95636257Y-125086216D01*
X95635095Y-125286177D01*
X95633848Y-125457602D01*
X95632439Y-125603154D01*
X95630791Y-125725495D01*
X95628826Y-125827285D01*
X95626467Y-125911188D01*
X95623638Y-125979864D01*
X95620261Y-126035975D01*
X95616258Y-126082183D01*
X95611553Y-126121149D01*
X95606069Y-126155536D01*
X95599729Y-126188005D01*
X95592455Y-126221218D01*
X95591204Y-126226756D01*
X95519548Y-126477756D01*
X95423865Y-126701981D01*
X95303529Y-126899997D01*
X95157913Y-127072375D01*
X94986389Y-127219684D01*
X94788331Y-127342491D01*
X94563111Y-127441366D01*
X94310102Y-127516879D01*
X94127925Y-127554137D01*
X94024115Y-127568382D01*
X93894807Y-127580688D01*
X93750265Y-127590575D01*
X93600750Y-127597566D01*
X93456525Y-127601181D01*
X93327851Y-127600942D01*
X93224992Y-127596372D01*
X93223940Y-127596287D01*
X93104040Y-127583493D01*
X92969276Y-127564077D01*
X92832464Y-127540271D01*
X92706420Y-127514306D01*
X92603960Y-127488412D01*
X92603638Y-127488318D01*
X92363552Y-127401761D01*
X92148883Y-127289460D01*
X91960153Y-127151898D01*
X91797890Y-126989559D01*
X91662616Y-126802927D01*
X91554857Y-126592484D01*
X91513319Y-126483910D01*
X91493662Y-126426969D01*
X91476444Y-126375793D01*
X91461492Y-126327648D01*
X91448633Y-126279804D01*
X91437694Y-126229529D01*
X91428501Y-126174092D01*
X91420882Y-126110760D01*
X91414663Y-126036803D01*
X91409673Y-125949488D01*
X91405737Y-125846084D01*
X91402683Y-125723859D01*
X91400337Y-125580082D01*
X91398527Y-125412021D01*
X91397080Y-125216945D01*
X91395822Y-124992121D01*
X91394580Y-124734819D01*
X91393941Y-124599173D01*
X91386979Y-123133789D01*
X92172536Y-123133789D01*
X92958094Y-123133789D01*
X92963397Y-124553523D01*
G37*
G36*
X92897929Y-112031672D02*
G01*
X93135806Y-112032087D01*
X93342890Y-112032926D01*
X93522046Y-112034308D01*
X93676138Y-112036354D01*
X93808028Y-112039183D01*
X93920582Y-112042916D01*
X94016662Y-112047673D01*
X94099133Y-112053573D01*
X94170858Y-112060737D01*
X94234701Y-112069284D01*
X94293527Y-112079335D01*
X94350198Y-112091010D01*
X94407580Y-112104429D01*
X94416324Y-112106574D01*
X94649011Y-112178580D01*
X94852703Y-112272776D01*
X95027500Y-112389278D01*
X95173501Y-112528201D01*
X95290804Y-112689662D01*
X95379511Y-112873776D01*
X95439720Y-113080659D01*
X95471530Y-113310428D01*
X95473384Y-113338525D01*
X95473330Y-113570007D01*
X95444474Y-113779102D01*
X95386667Y-113966068D01*
X95299760Y-114131161D01*
X95183604Y-114274638D01*
X95038052Y-114396754D01*
X94862954Y-114497767D01*
X94781315Y-114533658D01*
X94677009Y-114575882D01*
X94778303Y-114617051D01*
X94927281Y-114693292D01*
X95045963Y-114788843D01*
X95086091Y-114833729D01*
X95124882Y-114884412D01*
X95157502Y-114934980D01*
X95185496Y-114990320D01*
X95210410Y-115055319D01*
X95233791Y-115134864D01*
X95257185Y-115233841D01*
X95282138Y-115357137D01*
X95310195Y-115509639D01*
X95323207Y-115583178D01*
X95356402Y-115765566D01*
X95386606Y-115916229D01*
X95414979Y-116039726D01*
X95442681Y-116140615D01*
X95470871Y-116223456D01*
X95500710Y-116292807D01*
X95506983Y-116305469D01*
X95532180Y-116358428D01*
X95548564Y-116399072D01*
X95552121Y-116413412D01*
X95534858Y-116418570D01*
X95482864Y-116422894D01*
X95395835Y-116426393D01*
X95273466Y-116429073D01*
X95115450Y-116430940D01*
X94921482Y-116432003D01*
X94732126Y-116432279D01*
X93912132Y-116432279D01*
X93883294Y-116347646D01*
X93868424Y-116292889D01*
X93851833Y-116214291D01*
X93836001Y-116124292D01*
X93827785Y-116069177D01*
X93813508Y-115965269D01*
X93796832Y-115843683D01*
X93780296Y-115722927D01*
X93771529Y-115658804D01*
X93748236Y-115507580D01*
X93723062Y-115387088D01*
X93693994Y-115291541D01*
X93659022Y-115215151D01*
X93616133Y-115152130D01*
X93582502Y-115115038D01*
X93534354Y-115070880D01*
X93486146Y-115037836D01*
X93431243Y-115014036D01*
X93363009Y-114997605D01*
X93274808Y-114986673D01*
X93160005Y-114979367D01*
X93091553Y-114976525D01*
X92831344Y-114966860D01*
X92831344Y-115699569D01*
X92831344Y-116432279D01*
X92064414Y-116432279D01*
X91297484Y-116432279D01*
X91297484Y-114231920D01*
X91297484Y-113948886D01*
X92831344Y-113948886D01*
X93128073Y-113948524D01*
X93240367Y-113947227D01*
X93350843Y-113943900D01*
X93449463Y-113938984D01*
X93526189Y-113932921D01*
X93551215Y-113929891D01*
X93676722Y-113902740D01*
X93771121Y-113860082D01*
X93837778Y-113798458D01*
X93880058Y-113714411D01*
X93901330Y-113604481D01*
X93904041Y-113567441D01*
X93902094Y-113451863D01*
X93880280Y-113362311D01*
X93835155Y-113292196D01*
X93763278Y-113234925D01*
X93717088Y-113209475D01*
X93607648Y-113154823D01*
X93219496Y-113148089D01*
X92831344Y-113141356D01*
X92831344Y-113545121D01*
X92831344Y-113948886D01*
X91297484Y-113948886D01*
X91297484Y-113545121D01*
X91297484Y-112031560D01*
X92626396Y-112031560D01*
X92897929Y-112031672D01*
G37*
G36*
X89016975Y-123082490D02*
G01*
X89275530Y-123112458D01*
X89512266Y-123163916D01*
X89731861Y-123238101D01*
X89938995Y-123336251D01*
X90102073Y-123434981D01*
X90205414Y-123512364D01*
X90316695Y-123610097D01*
X90425564Y-123718027D01*
X90521668Y-123826003D01*
X90583383Y-123907013D01*
X90675106Y-124060772D01*
X90759428Y-124241904D01*
X90833056Y-124441493D01*
X90892701Y-124650623D01*
X90934913Y-124859382D01*
X90944729Y-124947099D01*
X90951722Y-125062065D01*
X90955893Y-125195133D01*
X90957242Y-125337154D01*
X90955770Y-125478981D01*
X90951475Y-125611464D01*
X90944360Y-125725455D01*
X90934888Y-125808914D01*
X90884984Y-126050947D01*
X90814238Y-126285051D01*
X90725555Y-126503608D01*
X90621839Y-126698997D01*
X90559617Y-126793576D01*
X90475961Y-126896962D01*
X90369833Y-127007431D01*
X90251400Y-127115673D01*
X90130826Y-127212377D01*
X90021981Y-127286024D01*
X89803613Y-127397470D01*
X89561099Y-127485964D01*
X89299430Y-127550577D01*
X89023595Y-127590378D01*
X88738584Y-127604439D01*
X88449387Y-127591828D01*
X88404869Y-127587464D01*
X88108590Y-127540758D01*
X87835107Y-127465850D01*
X87585036Y-127363318D01*
X87358989Y-127233743D01*
X87157582Y-127077704D01*
X86981427Y-126895780D01*
X86831139Y-126688549D01*
X86707332Y-126456592D01*
X86610620Y-126200488D01*
X86541616Y-125920815D01*
X86523345Y-125812250D01*
X86507992Y-125672084D01*
X86498811Y-125507972D01*
X86495838Y-125334148D01*
X88096424Y-125334148D01*
X88098577Y-125508949D01*
X88105775Y-125654078D01*
X88119124Y-125776171D01*
X88139732Y-125881864D01*
X88168704Y-125977793D01*
X88207150Y-126070594D01*
X88225633Y-126108733D01*
X88290560Y-126218032D01*
X88363761Y-126298205D01*
X88453202Y-126356644D01*
X88525669Y-126387138D01*
X88630584Y-126410753D01*
X88750458Y-126416115D01*
X88869836Y-126403759D01*
X88973262Y-126374218D01*
X88979709Y-126371431D01*
X89084553Y-126307397D01*
X89171874Y-126215568D01*
X89242870Y-126094149D01*
X89298742Y-125941341D01*
X89318845Y-125863695D01*
X89334246Y-125771712D01*
X89345484Y-125652085D01*
X89352560Y-125513452D01*
X89355474Y-125364452D01*
X89354226Y-125213723D01*
X89348816Y-125069903D01*
X89339243Y-124941632D01*
X89325509Y-124837547D01*
X89318845Y-124804601D01*
X89268987Y-124636452D01*
X89204262Y-124500743D01*
X89123143Y-124395916D01*
X89024099Y-124320413D01*
X88905603Y-124272675D01*
X88776495Y-124251825D01*
X88626133Y-124255908D01*
X88494835Y-124291128D01*
X88382389Y-124357603D01*
X88288584Y-124455451D01*
X88225633Y-124558763D01*
X88183024Y-124652686D01*
X88150350Y-124746842D01*
X88126498Y-124847905D01*
X88110358Y-124962549D01*
X88100815Y-125097446D01*
X88096759Y-125259271D01*
X88096424Y-125334148D01*
X86495838Y-125334148D01*
X86495801Y-125331959D01*
X86498963Y-125156095D01*
X86508296Y-124992427D01*
X86523345Y-124856047D01*
X86581654Y-124569810D01*
X86667916Y-124306125D01*
X86781558Y-124065695D01*
X86922006Y-123849219D01*
X87088685Y-123657399D01*
X87281024Y-123490936D01*
X87498447Y-123350530D01*
X87740382Y-123236883D01*
X87891948Y-123183430D01*
X88050404Y-123139221D01*
X88208191Y-123107319D01*
X88374840Y-123086468D01*
X88559884Y-123075413D01*
X88731919Y-123072776D01*
X89016975Y-123082490D01*
G37*
G36*
X88115636Y-112036615D02*
G01*
X88384700Y-112037907D01*
X88619859Y-112039138D01*
X88823729Y-112040378D01*
X88998925Y-112041699D01*
X89148062Y-112043172D01*
X89273755Y-112044868D01*
X89378620Y-112046857D01*
X89465273Y-112049213D01*
X89536329Y-112052004D01*
X89594402Y-112055304D01*
X89642109Y-112059183D01*
X89682065Y-112063712D01*
X89716885Y-112068962D01*
X89749185Y-112075005D01*
X89781579Y-112081912D01*
X89781883Y-112081979D01*
X89976147Y-112131404D01*
X90140160Y-112188126D01*
X90279924Y-112255027D01*
X90401441Y-112334986D01*
X90510713Y-112430887D01*
X90512625Y-112432798D01*
X90617680Y-112554411D01*
X90696245Y-112684713D01*
X90750333Y-112829274D01*
X90781956Y-112993666D01*
X90793129Y-113183458D01*
X90793187Y-113209346D01*
X90783845Y-113386579D01*
X90755265Y-113538015D01*
X90704734Y-113670424D01*
X90629536Y-113790578D01*
X90526957Y-113905248D01*
X90506241Y-113925019D01*
X90357392Y-114039788D01*
X90184936Y-114128983D01*
X90018836Y-114183968D01*
X89887902Y-114217219D01*
X90057999Y-114256888D01*
X90266511Y-114320206D01*
X90446561Y-114405976D01*
X90597739Y-114513670D01*
X90719632Y-114642762D01*
X90811829Y-114792724D01*
X90873919Y-114963029D01*
X90905491Y-115153148D01*
X90907190Y-115345794D01*
X90888051Y-115529080D01*
X90851849Y-115685348D01*
X90795944Y-115821134D01*
X90717699Y-115942972D01*
X90623253Y-116048814D01*
X90494826Y-116158192D01*
X90351908Y-116244666D01*
X90184945Y-116313877D01*
X90160574Y-116322031D01*
X90109500Y-116338624D01*
X90062531Y-116353228D01*
X90017076Y-116365981D01*
X89970542Y-116377022D01*
X89920338Y-116386489D01*
X89863872Y-116394519D01*
X89798552Y-116401251D01*
X89721786Y-116406822D01*
X89630982Y-116411372D01*
X89523549Y-116415037D01*
X89396895Y-116417957D01*
X89248428Y-116420268D01*
X89075556Y-116422110D01*
X88875687Y-116423620D01*
X88646229Y-116424937D01*
X88384591Y-116426198D01*
X88188677Y-116427086D01*
X86622861Y-116434155D01*
X86622861Y-115409705D01*
X88120201Y-115409705D01*
X88528564Y-115409705D01*
X88653808Y-115408877D01*
X88772805Y-115406560D01*
X88878590Y-115403008D01*
X88964196Y-115398475D01*
X89022657Y-115393214D01*
X89035286Y-115391272D01*
X89100487Y-115374454D01*
X89157514Y-115352040D01*
X89179295Y-115339377D01*
X89251972Y-115266425D01*
X89295174Y-115180487D01*
X89309156Y-115088542D01*
X89294171Y-114997566D01*
X89250473Y-114914536D01*
X89178316Y-114846429D01*
X89160973Y-114835495D01*
X89139544Y-114824170D01*
X89115282Y-114815281D01*
X89083546Y-114808467D01*
X89039698Y-114803365D01*
X88979097Y-114799613D01*
X88897103Y-114796847D01*
X88789077Y-114794705D01*
X88650378Y-114792824D01*
X88608663Y-114792333D01*
X88120201Y-114786679D01*
X88120201Y-115098192D01*
X88120201Y-115409705D01*
X86622861Y-115409705D01*
X86622861Y-115098192D01*
X86622861Y-114231880D01*
X86622861Y-113732191D01*
X88120201Y-113732191D01*
X88544752Y-113726412D01*
X88680289Y-113724440D01*
X88784541Y-113722332D01*
X88862741Y-113719555D01*
X88920123Y-113715576D01*
X88961921Y-113709861D01*
X88993367Y-113701879D01*
X89019696Y-113691094D01*
X89046140Y-113676976D01*
X89049658Y-113674982D01*
X89130038Y-113610474D01*
X89179657Y-113526528D01*
X89197514Y-113424872D01*
X89197556Y-113419339D01*
X89181317Y-113316840D01*
X89133267Y-113231965D01*
X89054406Y-113166441D01*
X89049658Y-113163695D01*
X89022838Y-113149130D01*
X88996778Y-113137964D01*
X88966243Y-113129665D01*
X88926002Y-113123700D01*
X88870820Y-113119536D01*
X88795463Y-113116640D01*
X88694700Y-113114479D01*
X88563295Y-113112519D01*
X88544752Y-113112265D01*
X88120201Y-113106486D01*
X88120201Y-113419339D01*
X88120201Y-113732191D01*
X86622861Y-113732191D01*
X86622861Y-113419339D01*
X86622861Y-112029604D01*
X88115636Y-112036615D01*
G37*
G36*
X93938823Y-117299935D02*
G01*
X94020941Y-117315839D01*
X94119850Y-117345196D01*
X94200863Y-117372511D01*
X94316284Y-117413605D01*
X94444343Y-117461326D01*
X94568835Y-117509529D01*
X94666499Y-117549106D01*
X94811883Y-117612367D01*
X94956287Y-117679728D01*
X95095952Y-117749032D01*
X95227122Y-117818124D01*
X95346039Y-117884847D01*
X95448946Y-117947045D01*
X95532085Y-118002561D01*
X95591701Y-118049239D01*
X95624034Y-118084924D01*
X95628630Y-118101267D01*
X95621507Y-118125241D01*
X95603791Y-118179168D01*
X95576849Y-118259121D01*
X95542050Y-118361175D01*
X95500765Y-118481402D01*
X95454361Y-118615877D01*
X95404208Y-118760673D01*
X95351676Y-118911864D01*
X95298132Y-119065522D01*
X95244946Y-119217723D01*
X95193486Y-119364538D01*
X95145123Y-119502042D01*
X95101225Y-119626309D01*
X95063161Y-119733411D01*
X95032300Y-119819423D01*
X95010011Y-119880417D01*
X94997663Y-119912468D01*
X94995765Y-119916361D01*
X94976790Y-119913898D01*
X94928003Y-119902878D01*
X94854717Y-119884745D01*
X94762241Y-119860945D01*
X94655890Y-119832924D01*
X94540973Y-119802128D01*
X94422804Y-119770002D01*
X94306693Y-119737991D01*
X94197953Y-119707542D01*
X94101895Y-119680099D01*
X94023832Y-119657109D01*
X93969074Y-119640016D01*
X93942935Y-119630268D01*
X93941814Y-119629531D01*
X93944198Y-119610258D01*
X93956358Y-119559947D01*
X93977209Y-119482427D01*
X94005667Y-119381529D01*
X94040647Y-119261083D01*
X94081065Y-119124919D01*
X94125837Y-118976867D01*
X94136169Y-118943063D01*
X94181663Y-118793171D01*
X94222954Y-118654547D01*
X94258974Y-118530980D01*
X94288651Y-118426261D01*
X94310917Y-118344179D01*
X94324700Y-118288526D01*
X94328932Y-118263090D01*
X94328453Y-118261917D01*
X94302007Y-118265663D01*
X94251075Y-118283470D01*
X94183263Y-118311971D01*
X94106180Y-118347799D01*
X94027434Y-118387589D01*
X93959214Y-118425293D01*
X93739306Y-118573920D01*
X93540546Y-118751284D01*
X93362771Y-118957652D01*
X93205818Y-119193289D01*
X93069525Y-119458463D01*
X92953728Y-119753439D01*
X92858266Y-120078485D01*
X92804860Y-120316946D01*
X92787559Y-120409824D01*
X92770089Y-120513708D01*
X92753280Y-120622380D01*
X92737961Y-120729622D01*
X92724961Y-120829216D01*
X92715110Y-120914943D01*
X92709237Y-120980586D01*
X92708172Y-121019926D01*
X92709988Y-121028153D01*
X92728365Y-121024161D01*
X92778198Y-121009708D01*
X92856274Y-120985813D01*
X92959379Y-120953495D01*
X93084300Y-120913772D01*
X93227823Y-120867662D01*
X93386735Y-120816184D01*
X93557822Y-120760357D01*
X93643587Y-120732228D01*
X93819273Y-120674652D01*
X93984217Y-120620863D01*
X94135222Y-120571886D01*
X94269090Y-120528746D01*
X94382621Y-120492468D01*
X94472618Y-120464075D01*
X94535882Y-120444593D01*
X94569216Y-120435046D01*
X94573649Y-120434298D01*
X94580697Y-120455035D01*
X94594684Y-120505253D01*
X94614265Y-120579485D01*
X94638090Y-120672263D01*
X94664814Y-120778121D01*
X94693087Y-120891591D01*
X94721562Y-121007207D01*
X94748893Y-121119501D01*
X94773731Y-121223006D01*
X94794728Y-121312255D01*
X94810538Y-121381782D01*
X94819813Y-121426118D01*
X94821527Y-121439938D01*
X94800226Y-121449634D01*
X94748669Y-121470136D01*
X94670819Y-121499999D01*
X94570642Y-121537774D01*
X94452102Y-121582015D01*
X94319163Y-121631275D01*
X94175790Y-121684106D01*
X94025948Y-121739063D01*
X93873602Y-121794697D01*
X93722715Y-121849562D01*
X93577254Y-121902211D01*
X93441182Y-121951196D01*
X93318464Y-121995072D01*
X93213064Y-122032390D01*
X93128948Y-122061704D01*
X93070080Y-122081567D01*
X93040425Y-122090531D01*
X93037961Y-122090897D01*
X93014541Y-122084297D01*
X92960432Y-122066195D01*
X92879164Y-122037854D01*
X92774264Y-122000538D01*
X92649263Y-121955511D01*
X92507688Y-121904034D01*
X92353068Y-121847372D01*
X92201366Y-121791393D01*
X91397915Y-121493947D01*
X91401489Y-121186142D01*
X91419143Y-120796767D01*
X91462285Y-120416171D01*
X91529875Y-120046694D01*
X91620874Y-119690677D01*
X91734241Y-119350460D01*
X91868938Y-119028383D01*
X92023924Y-118726788D01*
X92198159Y-118448015D01*
X92390603Y-118194404D01*
X92600218Y-117968295D01*
X92825962Y-117772031D01*
X92961660Y-117674273D01*
X93120109Y-117573989D01*
X93268063Y-117493746D01*
X93419598Y-117426563D01*
X93574970Y-117370054D01*
X93691568Y-117332544D01*
X93784301Y-117308328D01*
X93863331Y-117297445D01*
X93938823Y-117299935D01*
G37*
G36*
X99220032Y-111418017D02*
G01*
X99537858Y-111470604D01*
X99843058Y-111553966D01*
X100131145Y-111667344D01*
X100151879Y-111677010D01*
X100410468Y-111818297D01*
X100644586Y-111986106D01*
X100853145Y-112178903D01*
X101035055Y-112395158D01*
X101189228Y-112633336D01*
X101314575Y-112891906D01*
X101410008Y-113169335D01*
X101474436Y-113464090D01*
X101487749Y-113557202D01*
X101497703Y-113671769D01*
X101502627Y-113809616D01*
X101502832Y-113961614D01*
X101498628Y-114118629D01*
X101490326Y-114271531D01*
X101478236Y-114411186D01*
X101462668Y-114528463D01*
X101453016Y-114578864D01*
X101380429Y-114840252D01*
X101285100Y-115073091D01*
X101166958Y-115277466D01*
X101025931Y-115453460D01*
X100861948Y-115601157D01*
X100674939Y-115720641D01*
X100464831Y-115811995D01*
X100381276Y-115838668D01*
X100186291Y-115881275D01*
X99986217Y-115898959D01*
X99787727Y-115892439D01*
X99597493Y-115862435D01*
X99422186Y-115809669D01*
X99268477Y-115734861D01*
X99237678Y-115715150D01*
X99103634Y-115604721D01*
X98999070Y-115474914D01*
X98925708Y-115328575D01*
X98885270Y-115168549D01*
X98880330Y-115124688D01*
X98870900Y-115013143D01*
X98805760Y-115139773D01*
X98704231Y-115304990D01*
X98583863Y-115446577D01*
X98448254Y-115563635D01*
X98300998Y-115655264D01*
X98145694Y-115720564D01*
X97985937Y-115758634D01*
X97825324Y-115768576D01*
X97667452Y-115749489D01*
X97515916Y-115700472D01*
X97374314Y-115620627D01*
X97262549Y-115525937D01*
X97176096Y-115420804D01*
X97096708Y-115290212D01*
X97030291Y-115145204D01*
X96985570Y-115007980D01*
X96967620Y-114913312D01*
X96954383Y-114792377D01*
X96946103Y-114655152D01*
X96943021Y-114511617D01*
X96943656Y-114473947D01*
X98253800Y-114473947D01*
X98258791Y-114582869D01*
X98279815Y-114667686D01*
X98327977Y-114742471D01*
X98394009Y-114789173D01*
X98471072Y-114806601D01*
X98552326Y-114793565D01*
X98630932Y-114748876D01*
X98649918Y-114732092D01*
X98721736Y-114643007D01*
X98784450Y-114525886D01*
X98835379Y-114388648D01*
X98871842Y-114239208D01*
X98891157Y-114085484D01*
X98893549Y-114012797D01*
X98886363Y-113901030D01*
X98863232Y-113818318D01*
X98821954Y-113759881D01*
X98760329Y-113720938D01*
X98758868Y-113720323D01*
X98677963Y-113704931D01*
X98596318Y-113724062D01*
X98516717Y-113775887D01*
X98441944Y-113858578D01*
X98374784Y-113970307D01*
X98373202Y-113973506D01*
X98324752Y-114091194D01*
X98287934Y-114219542D01*
X98263899Y-114349982D01*
X98253800Y-114473947D01*
X96943656Y-114473947D01*
X96945379Y-114371749D01*
X96953420Y-114245528D01*
X96964906Y-114156401D01*
X97022002Y-113906220D01*
X97102233Y-113673545D01*
X97203799Y-113461185D01*
X97324903Y-113271946D01*
X97463744Y-113108636D01*
X97618523Y-112974064D01*
X97787442Y-112871038D01*
X97789001Y-112870272D01*
X97926895Y-112809226D01*
X98051910Y-112770120D01*
X98177889Y-112749998D01*
X98318676Y-112745906D01*
X98365070Y-112747330D01*
X98459059Y-112752493D01*
X98528537Y-112760538D01*
X98585513Y-112773928D01*
X98641994Y-112795125D01*
X98678485Y-112811605D01*
X98753160Y-112852644D01*
X98826543Y-112902836D01*
X98875153Y-112944240D01*
X98916630Y-112993639D01*
X98960985Y-113058875D01*
X99002620Y-113130018D01*
X99035938Y-113197138D01*
X99055340Y-113250306D01*
X99058073Y-113268692D01*
X99067665Y-113289929D01*
X99073185Y-113291517D01*
X99082487Y-113274737D01*
X99097492Y-113228730D01*
X99116327Y-113159992D01*
X99137118Y-113075024D01*
X99142954Y-113049569D01*
X99197626Y-112807620D01*
X99858266Y-112802828D01*
X100032126Y-112801697D01*
X100172888Y-112801166D01*
X100283972Y-112801360D01*
X100368797Y-112802403D01*
X100430783Y-112804418D01*
X100473350Y-112807531D01*
X100499917Y-112811865D01*
X100513904Y-112817545D01*
X100518731Y-112824694D01*
X100518907Y-112826825D01*
X100514925Y-112849973D01*
X100503515Y-112905083D01*
X100485480Y-112988537D01*
X100461624Y-113096716D01*
X100432750Y-113226002D01*
X100399661Y-113372777D01*
X100363160Y-113533421D01*
X100325277Y-113698979D01*
X100285133Y-113874892D01*
X100246816Y-114044830D01*
X100211270Y-114204467D01*
X100179436Y-114349478D01*
X100152259Y-114475536D01*
X100130682Y-114578315D01*
X100115646Y-114653491D01*
X100108755Y-114692191D01*
X100095566Y-114842129D01*
X100106113Y-114964390D01*
X100140480Y-115059124D01*
X100198751Y-115126482D01*
X100281012Y-115166615D01*
X100382804Y-115179670D01*
X100493167Y-115163048D01*
X100591677Y-115112418D01*
X100677957Y-115028444D01*
X100751630Y-114911790D01*
X100812316Y-114763120D01*
X100859639Y-114583096D01*
X100893220Y-114372384D01*
X100904066Y-114263938D01*
X100913832Y-113968737D01*
X100893428Y-113686622D01*
X100843523Y-113419604D01*
X100764786Y-113169691D01*
X100657886Y-112938894D01*
X100523492Y-112729222D01*
X100362272Y-112542684D01*
X100316307Y-112498465D01*
X100115039Y-112336703D01*
X99893295Y-112205180D01*
X99651084Y-112103897D01*
X99388413Y-112032858D01*
X99105289Y-111992065D01*
X98801719Y-111981520D01*
X98738533Y-111983041D01*
X98435029Y-112006865D01*
X98154873Y-112057756D01*
X97896019Y-112136541D01*
X97656418Y-112244044D01*
X97434022Y-112381090D01*
X97226784Y-112548503D01*
X97148352Y-112623478D01*
X96966162Y-112829093D01*
X96815002Y-113051052D01*
X96694320Y-113290688D01*
X96603567Y-113549334D01*
X96542193Y-113828322D01*
X96509648Y-114128986D01*
X96507170Y-114177139D01*
X96508729Y-114479275D01*
X96540551Y-114765175D01*
X96602171Y-115033504D01*
X96693122Y-115282929D01*
X96812938Y-115512118D01*
X96961154Y-115719738D01*
X97097975Y-115867587D01*
X97269247Y-116016825D01*
X97450851Y-116141936D01*
X97648430Y-116245765D01*
X97867622Y-116331155D01*
X98114069Y-116400950D01*
X98190726Y-116418523D01*
X98260068Y-116432600D01*
X98325806Y-116442973D01*
X98395412Y-116450160D01*
X98476356Y-116454680D01*
X98576110Y-116457048D01*
X98702144Y-116457784D01*
X98756794Y-116457746D01*
X98888350Y-116457190D01*
X98990450Y-116455665D01*
X99070158Y-116452567D01*
X99134535Y-116447292D01*
X99190646Y-116439235D01*
X99245553Y-116427792D01*
X99306318Y-116412358D01*
X99315285Y-116409955D01*
X99480336Y-116360239D01*
X99640928Y-116302004D01*
X99785425Y-116239743D01*
X99874957Y-116193827D01*
X99926913Y-116165325D01*
X99964772Y-116145849D01*
X99978576Y-116140115D01*
X99989513Y-116155342D01*
X100014129Y-116197203D01*
X100049186Y-116259965D01*
X100091444Y-116337897D01*
X100109271Y-116371341D01*
X100160294Y-116469837D01*
X100194155Y-116541290D01*
X100212556Y-116589929D01*
X100217198Y-116619983D01*
X100213882Y-116631189D01*
X100185882Y-116656178D01*
X100130322Y-116690911D01*
X100053800Y-116732208D01*
X99962916Y-116776891D01*
X99864267Y-116821780D01*
X99764451Y-116863695D01*
X99670067Y-116899459D01*
X99626545Y-116914178D01*
X99523516Y-116944620D01*
X99409760Y-116974067D01*
X99303355Y-116997985D01*
X99258950Y-117006386D01*
X99155610Y-117020080D01*
X99025631Y-117031094D01*
X98878818Y-117039143D01*
X98724975Y-117043944D01*
X98573906Y-117045211D01*
X98435414Y-117042659D01*
X98319303Y-117036005D01*
X98300288Y-117034223D01*
X97958784Y-116984021D01*
X97639883Y-116905400D01*
X97344294Y-116799147D01*
X97072728Y-116666045D01*
X96825898Y-116506883D01*
X96604513Y-116322443D01*
X96409284Y-116113513D01*
X96240924Y-115880878D01*
X96100143Y-115625324D01*
X95987651Y-115347635D01*
X95904160Y-115048598D01*
X95850382Y-114728998D01*
X95827026Y-114389621D01*
X95826024Y-114300636D01*
X95843011Y-113962298D01*
X95893775Y-113636224D01*
X95978022Y-113323422D01*
X96095460Y-113024901D01*
X96245795Y-112741670D01*
X96308154Y-112643278D01*
X96387142Y-112536125D01*
X96488680Y-112416453D01*
X96605197Y-112291821D01*
X96729118Y-112169790D01*
X96852871Y-112057918D01*
X96968882Y-111963766D01*
X97038159Y-111914590D01*
X97315815Y-111751926D01*
X97607088Y-111620588D01*
X97914443Y-111519760D01*
X98240342Y-111448623D01*
X98564452Y-111408209D01*
X98894068Y-111396966D01*
X99220032Y-111418017D01*
G37*
D14*
%TO.C,R25*%
X72272936Y-111765000D02*
X72727064Y-111765000D01*
X72272936Y-113235000D02*
X72727064Y-113235000D01*
%TO.C,R1*%
X63272936Y-90765000D02*
X63727064Y-90765000D01*
X63272936Y-92235000D02*
X63727064Y-92235000D01*
%TO.C,PWRPINS_DAC1*%
X84170000Y-98010000D02*
X85500000Y-98010000D01*
X84170000Y-99340000D02*
X84170000Y-98010000D01*
X84170000Y-100610000D02*
X84170000Y-110830000D01*
X84170000Y-100610000D02*
X86830000Y-100610000D01*
X84170000Y-110830000D02*
X86830000Y-110830000D01*
X86830000Y-100610000D02*
X86830000Y-110830000D01*
%TO.C,C2*%
X76701248Y-111765000D02*
X77223752Y-111765000D01*
X76701248Y-113235000D02*
X77223752Y-113235000D01*
%TO.C,C10*%
X76701248Y-97765000D02*
X77223752Y-97765000D01*
X76701248Y-99235000D02*
X77223752Y-99235000D01*
%TO.C,R17*%
X81272936Y-94265000D02*
X81727064Y-94265000D01*
X81272936Y-95735000D02*
X81727064Y-95735000D01*
%TO.C,R8*%
X67772936Y-101265000D02*
X68227064Y-101265000D01*
X67772936Y-102735000D02*
X68227064Y-102735000D01*
%TO.C,R24*%
X72272936Y-101265000D02*
X72727064Y-101265000D01*
X72272936Y-102735000D02*
X72727064Y-102735000D01*
%TO.C,R5*%
X67772936Y-90765000D02*
X68227064Y-90765000D01*
X67772936Y-92235000D02*
X68227064Y-92235000D01*
%TO.C,C1*%
X76701248Y-115265000D02*
X77223752Y-115265000D01*
X76701248Y-116735000D02*
X77223752Y-116735000D01*
%TO.C,R7*%
X67772936Y-97765000D02*
X68227064Y-97765000D01*
X67772936Y-99235000D02*
X68227064Y-99235000D01*
%TO.C,R26*%
X72272936Y-115265000D02*
X72727064Y-115265000D01*
X72272936Y-116735000D02*
X72727064Y-116735000D01*
%TO.C,R4*%
X63272936Y-101265000D02*
X63727064Y-101265000D01*
X63272936Y-102735000D02*
X63727064Y-102735000D01*
%TO.C,R9*%
X72272936Y-90765000D02*
X72727064Y-90765000D01*
X72272936Y-92235000D02*
X72727064Y-92235000D01*
%TO.C,R16*%
X63272936Y-108265000D02*
X63727064Y-108265000D01*
X63272936Y-109735000D02*
X63727064Y-109735000D01*
%TO.C,R12*%
X72272936Y-108265000D02*
X72727064Y-108265000D01*
X72272936Y-109735000D02*
X72727064Y-109735000D01*
%TO.C,R13*%
X63272936Y-111765000D02*
X63727064Y-111765000D01*
X63272936Y-113235000D02*
X63727064Y-113235000D01*
%TO.C,R3*%
X63272936Y-97765000D02*
X63727064Y-97765000D01*
X63272936Y-99235000D02*
X63727064Y-99235000D01*
%TO.C,R2*%
X63272936Y-94265000D02*
X63727064Y-94265000D01*
X63272936Y-95735000D02*
X63727064Y-95735000D01*
%TO.C,C4*%
X76701248Y-104765000D02*
X77223752Y-104765000D01*
X76701248Y-106235000D02*
X77223752Y-106235000D01*
%TO.C,C6*%
X81276248Y-101265000D02*
X81798752Y-101265000D01*
X81276248Y-102735000D02*
X81798752Y-102735000D01*
%TO.C,C11*%
X76701248Y-101265000D02*
X77223752Y-101265000D01*
X76701248Y-102735000D02*
X77223752Y-102735000D01*
%TO.C,C7*%
X81201248Y-108265000D02*
X81723752Y-108265000D01*
X81201248Y-109735000D02*
X81723752Y-109735000D01*
%TO.C,R10*%
X72272936Y-94265000D02*
X72727064Y-94265000D01*
X72272936Y-95735000D02*
X72727064Y-95735000D01*
%TO.C,R15*%
X63272936Y-104765000D02*
X63727064Y-104765000D01*
X63272936Y-106235000D02*
X63727064Y-106235000D01*
D12*
%TO.C,U3*%
X81000000Y-125765000D02*
X81000000Y-122235000D01*
X86000000Y-122235000D02*
X86000000Y-125765000D01*
D13*
X81325000Y-128190000D02*
G75*
G02*
X81125000Y-128190000I-100000J0D01*
G01*
X81125000Y-128190000D02*
G75*
G02*
X81325000Y-128190000I100000J0D01*
G01*
D14*
%TO.C,VOUT_DAC1*%
X95170000Y-90390000D02*
X96500000Y-90390000D01*
X95170000Y-91720000D02*
X95170000Y-90390000D01*
X95170000Y-92990000D02*
X95170000Y-110830000D01*
X95170000Y-92990000D02*
X97830000Y-92990000D01*
X95170000Y-110830000D02*
X97830000Y-110830000D01*
X97830000Y-92990000D02*
X97830000Y-110830000D01*
%TO.C,R21*%
X67772936Y-108265000D02*
X68227064Y-108265000D01*
X67772936Y-109735000D02*
X68227064Y-109735000D01*
%TO.C,R6*%
X67772936Y-94265000D02*
X68227064Y-94265000D01*
X67772936Y-95735000D02*
X68227064Y-95735000D01*
%TO.C,C5*%
X81276248Y-111765000D02*
X81798752Y-111765000D01*
X81276248Y-113235000D02*
X81798752Y-113235000D01*
%TO.C,R23*%
X72272936Y-97765000D02*
X72727064Y-97765000D01*
X72272936Y-99235000D02*
X72727064Y-99235000D01*
%TO.C,SPIPINS_DAC1*%
X90170000Y-98010000D02*
X91500000Y-98010000D01*
X90170000Y-99340000D02*
X90170000Y-98010000D01*
X90170000Y-100610000D02*
X90170000Y-110830000D01*
X90170000Y-100610000D02*
X92830000Y-100610000D01*
X90170000Y-110830000D02*
X92830000Y-110830000D01*
X92830000Y-100610000D02*
X92830000Y-110830000D01*
%TO.C,R11*%
X72272936Y-104765000D02*
X72727064Y-104765000D01*
X72272936Y-106235000D02*
X72727064Y-106235000D01*
%TO.C,C3*%
X76701248Y-108265000D02*
X77223752Y-108265000D01*
X76701248Y-109735000D02*
X77223752Y-109735000D01*
%TD*%
M02*
